%TF.GenerationSoftware,KiCad,Pcbnew,8.0.0-8.0.0-1~ubuntu20.04.1*%
%TF.CreationDate,2024-04-08T21:34:55+05:00*%
%TF.ProjectId,GammaAnomalain,47616d6d-6141-46e6-9f6d-616c61696e2e,rev?*%
%TF.SameCoordinates,Original*%
%TF.FileFunction,Soldermask,Bot*%
%TF.FilePolarity,Negative*%
%FSLAX46Y46*%
G04 Gerber Fmt 4.6, Leading zero omitted, Abs format (unit mm)*
G04 Created by KiCad (PCBNEW 8.0.0-8.0.0-1~ubuntu20.04.1) date 2024-04-08 21:34:55*
%MOMM*%
%LPD*%
G01*
G04 APERTURE LIST*
G04 Aperture macros list*
%AMRoundRect*
0 Rectangle with rounded corners*
0 $1 Rounding radius*
0 $2 $3 $4 $5 $6 $7 $8 $9 X,Y pos of 4 corners*
0 Add a 4 corners polygon primitive as box body*
4,1,4,$2,$3,$4,$5,$6,$7,$8,$9,$2,$3,0*
0 Add four circle primitives for the rounded corners*
1,1,$1+$1,$2,$3*
1,1,$1+$1,$4,$5*
1,1,$1+$1,$6,$7*
1,1,$1+$1,$8,$9*
0 Add four rect primitives between the rounded corners*
20,1,$1+$1,$2,$3,$4,$5,0*
20,1,$1+$1,$4,$5,$6,$7,0*
20,1,$1+$1,$6,$7,$8,$9,0*
20,1,$1+$1,$8,$9,$2,$3,0*%
G04 Aperture macros list end*
%ADD10R,1.600000X1.600000*%
%ADD11C,1.600000*%
%ADD12C,1.500000*%
%ADD13RoundRect,0.250000X0.600000X0.725000X-0.600000X0.725000X-0.600000X-0.725000X0.600000X-0.725000X0*%
%ADD14O,1.700000X1.950000*%
%ADD15RoundRect,0.250000X-0.600000X-0.725000X0.600000X-0.725000X0.600000X0.725000X-0.600000X0.725000X0*%
%ADD16C,2.600000*%
%ADD17C,3.200000*%
%ADD18R,1.600000X2.400000*%
%ADD19O,1.600000X2.400000*%
%ADD20C,1.440000*%
%ADD21RoundRect,0.500000X0.500000X-0.750000X0.500000X0.750000X-0.500000X0.750000X-0.500000X-0.750000X0*%
%ADD22O,2.000000X2.500000*%
%ADD23R,1.700000X1.700000*%
%ADD24O,1.700000X1.700000*%
G04 APERTURE END LIST*
D10*
%TO.C,C4*%
X112000000Y-99500000D03*
D11*
X108500000Y-99500000D03*
%TD*%
D12*
%TO.C,Y1*%
X129500000Y-93550000D03*
X129500000Y-98430000D03*
%TD*%
D13*
%TO.C,J4*%
X130000000Y-64000000D03*
D14*
X127500000Y-64000000D03*
X125000000Y-64000000D03*
%TD*%
D15*
%TO.C,J7*%
X140000000Y-76000000D03*
D14*
X142500000Y-76000000D03*
X145000000Y-76000000D03*
X147500000Y-76000000D03*
%TD*%
D15*
%TO.C,J6*%
X140000000Y-69000000D03*
D14*
X142500000Y-69000000D03*
X145000000Y-69000000D03*
X147500000Y-69000000D03*
%TD*%
D16*
%TO.C,L1*%
X106500000Y-92800000D03*
X106500000Y-87200000D03*
%TD*%
D17*
%TO.C,H2*%
X149000000Y-54000000D03*
%TD*%
%TO.C,H4*%
X149000000Y-115000000D03*
%TD*%
D18*
%TO.C,U4*%
X134700000Y-111825000D03*
D19*
X137240000Y-111825000D03*
X139780000Y-111825000D03*
X142320000Y-111825000D03*
X142320000Y-104205000D03*
X139780000Y-104205000D03*
X137240000Y-104205000D03*
X134700000Y-104205000D03*
%TD*%
D15*
%TO.C,J5*%
X140000000Y-62000000D03*
D14*
X142500000Y-62000000D03*
X145000000Y-62000000D03*
X147500000Y-62000000D03*
%TD*%
D10*
%TO.C,C5*%
X116500000Y-70000000D03*
D11*
X116500000Y-66500000D03*
%TD*%
D13*
%TO.C,J1*%
X130000000Y-85000000D03*
D14*
X127500000Y-85000000D03*
X125000000Y-85000000D03*
%TD*%
D13*
%TO.C,J3*%
X130000000Y-71000000D03*
D14*
X127500000Y-71000000D03*
X125000000Y-71000000D03*
%TD*%
D13*
%TO.C,J2*%
X130000000Y-78000000D03*
D14*
X127500000Y-78000000D03*
X125000000Y-78000000D03*
%TD*%
D10*
%TO.C,BZ1*%
X120200000Y-100700000D03*
D11*
X120200000Y-108300000D03*
%TD*%
D17*
%TO.C,H1*%
X104000000Y-54000000D03*
%TD*%
D15*
%TO.C,J11*%
X140000000Y-83000000D03*
D14*
X142500000Y-83000000D03*
X145000000Y-83000000D03*
X147500000Y-83000000D03*
%TD*%
D20*
%TO.C,RV1*%
X117700000Y-88100000D03*
X117700000Y-90640000D03*
X117700000Y-93180000D03*
%TD*%
D21*
%TO.C,J9*%
X101300000Y-97600000D03*
D22*
X103800000Y-97600000D03*
%TD*%
D17*
%TO.C,H3*%
X104000000Y-115000000D03*
%TD*%
D23*
%TO.C,J8*%
X150500000Y-90125000D03*
D24*
X150500000Y-92665000D03*
X150500000Y-95205000D03*
X150500000Y-97745000D03*
X150500000Y-100285000D03*
X150500000Y-102825000D03*
X150500000Y-105365000D03*
X150500000Y-107905000D03*
%TD*%
M02*
