M48
; DRILL file {KiCad 8.0.0-8.0.0-1~ubuntu20.04.1} date 2024-04-08T21:35:11+0500
; FORMAT={-:-/ absolute / inch / decimal}
; #@! TF.CreationDate,2024-04-08T21:35:11+05:00
; #@! TF.GenerationSoftware,Kicad,Pcbnew,8.0.0-8.0.0-1~ubuntu20.04.1
; #@! TF.FileFunction,Plated,1,2,PTH
FMAT,2
INCH
; #@! TA.AperFunction,Plated,PTH,ViaDrill
T1C0.0157
; #@! TA.AperFunction,Plated,PTH,ComponentDrill
T2C0.0315
; #@! TA.AperFunction,Plated,PTH,ComponentDrill
T3C0.0374
; #@! TA.AperFunction,Plated,PTH,ComponentDrill
T4C0.0394
; #@! TA.AperFunction,Plated,PTH,ComponentDrill
T5C0.0512
%
G90
G05
T1
X4.4291Y-2.6969
X4.4291Y-3.3071
X4.4685Y-3.3071
X4.5079Y-2.5
X4.5079Y-3.3071
X4.5472Y-3.3071
X5.1102Y-2.3386
X5.1811Y-3.7717
X5.1811Y-3.811
X5.2244Y-3.7677
X5.2717Y-3.6181
X5.3031Y-3.4843
X5.3346Y-3.4213
X5.3563Y-3.3839
X5.374Y-3.7598
X5.378Y-3.7047
X5.4252Y-3.7008
X5.563Y-3.7283
X5.5709Y-4.1929
X5.7165Y-3.7283
T2
X4.2717Y-3.9173
X4.4094Y-3.9173
X4.5866Y-2.6181
X4.5866Y-2.7559
X4.6339Y-3.4685
X4.6339Y-3.5685
X4.6339Y-3.6685
X5.0984Y-3.6831
X5.0984Y-3.8752
X5.3031Y-4.1026
X5.3031Y-4.4026
X5.4031Y-4.1026
X5.4031Y-4.4026
X5.5031Y-4.1026
X5.5031Y-4.4026
X5.6031Y-4.1026
X5.6031Y-4.4026
T3
X4.9213Y-2.5197
X4.9213Y-2.7953
X4.9213Y-3.0709
X4.9213Y-3.3465
X5.0197Y-2.5197
X5.0197Y-2.7953
X5.0197Y-3.0709
X5.0197Y-3.3465
X5.1181Y-2.5197
X5.1181Y-2.7953
X5.1181Y-3.0709
X5.1181Y-3.3465
X5.5118Y-2.4409
X5.5118Y-2.7165
X5.5118Y-2.9921
X5.5118Y-3.2677
X5.6102Y-2.4409
X5.6102Y-2.7165
X5.6102Y-2.9921
X5.6102Y-3.2677
X5.7087Y-2.4409
X5.7087Y-2.7165
X5.7087Y-2.9921
X5.7087Y-3.2677
X5.8071Y-2.4409
X5.8071Y-2.7165
X5.8071Y-2.9921
X5.8071Y-3.2677
T4
X3.9882Y-3.8425
X4.0866Y-3.8425
X4.7323Y-3.9646
X4.7323Y-4.2638
X5.9252Y-3.5482
X5.9252Y-3.6482
X5.9252Y-3.7482
X5.9252Y-3.8482
X5.9252Y-3.9482
X5.9252Y-4.0482
X5.9252Y-4.1482
X5.9252Y-4.2482
T5
X4.1929Y-3.4331
X4.1929Y-3.6535
M30
