%TF.GenerationSoftware,KiCad,Pcbnew,8.0.0-8.0.0-1~ubuntu20.04.1*%
%TF.CreationDate,2024-04-08T21:34:54+05:00*%
%TF.ProjectId,GammaAnomalain,47616d6d-6141-46e6-9f6d-616c61696e2e,rev?*%
%TF.SameCoordinates,Original*%
%TF.FileFunction,Legend,Top*%
%TF.FilePolarity,Positive*%
%FSLAX46Y46*%
G04 Gerber Fmt 4.6, Leading zero omitted, Abs format (unit mm)*
G04 Created by KiCad (PCBNEW 8.0.0-8.0.0-1~ubuntu20.04.1) date 2024-04-08 21:34:54*
%MOMM*%
%LPD*%
G01*
G04 APERTURE LIST*
%ADD10C,0.150000*%
%ADD11C,0.200000*%
%ADD12C,0.100000*%
%ADD13C,0.120000*%
%ADD14C,0.000000*%
G04 APERTURE END LIST*
D10*
X134322200Y-73190475D02*
X134369819Y-73047618D01*
X134369819Y-73047618D02*
X134369819Y-72809523D01*
X134369819Y-72809523D02*
X134322200Y-72714285D01*
X134322200Y-72714285D02*
X134274580Y-72666666D01*
X134274580Y-72666666D02*
X134179342Y-72619047D01*
X134179342Y-72619047D02*
X134084104Y-72619047D01*
X134084104Y-72619047D02*
X133988866Y-72666666D01*
X133988866Y-72666666D02*
X133941247Y-72714285D01*
X133941247Y-72714285D02*
X133893628Y-72809523D01*
X133893628Y-72809523D02*
X133846009Y-72999999D01*
X133846009Y-72999999D02*
X133798390Y-73095237D01*
X133798390Y-73095237D02*
X133750771Y-73142856D01*
X133750771Y-73142856D02*
X133655533Y-73190475D01*
X133655533Y-73190475D02*
X133560295Y-73190475D01*
X133560295Y-73190475D02*
X133465057Y-73142856D01*
X133465057Y-73142856D02*
X133417438Y-73095237D01*
X133417438Y-73095237D02*
X133369819Y-72999999D01*
X133369819Y-72999999D02*
X133369819Y-72761904D01*
X133369819Y-72761904D02*
X133417438Y-72619047D01*
X133846009Y-72190475D02*
X133846009Y-71857142D01*
X134369819Y-71714285D02*
X134369819Y-72190475D01*
X134369819Y-72190475D02*
X133369819Y-72190475D01*
X133369819Y-72190475D02*
X133369819Y-71714285D01*
X134369819Y-70714285D02*
X133893628Y-71047618D01*
X134369819Y-71285713D02*
X133369819Y-71285713D01*
X133369819Y-71285713D02*
X133369819Y-70904761D01*
X133369819Y-70904761D02*
X133417438Y-70809523D01*
X133417438Y-70809523D02*
X133465057Y-70761904D01*
X133465057Y-70761904D02*
X133560295Y-70714285D01*
X133560295Y-70714285D02*
X133703152Y-70714285D01*
X133703152Y-70714285D02*
X133798390Y-70761904D01*
X133798390Y-70761904D02*
X133846009Y-70809523D01*
X133846009Y-70809523D02*
X133893628Y-70904761D01*
X133893628Y-70904761D02*
X133893628Y-71285713D01*
X133369819Y-70428570D02*
X134369819Y-70095237D01*
X134369819Y-70095237D02*
X133369819Y-69761904D01*
X133369819Y-69238094D02*
X133369819Y-69047618D01*
X133369819Y-69047618D02*
X133417438Y-68952380D01*
X133417438Y-68952380D02*
X133512676Y-68857142D01*
X133512676Y-68857142D02*
X133703152Y-68809523D01*
X133703152Y-68809523D02*
X134036485Y-68809523D01*
X134036485Y-68809523D02*
X134226961Y-68857142D01*
X134226961Y-68857142D02*
X134322200Y-68952380D01*
X134322200Y-68952380D02*
X134369819Y-69047618D01*
X134369819Y-69047618D02*
X134369819Y-69238094D01*
X134369819Y-69238094D02*
X134322200Y-69333332D01*
X134322200Y-69333332D02*
X134226961Y-69428570D01*
X134226961Y-69428570D02*
X134036485Y-69476189D01*
X134036485Y-69476189D02*
X133703152Y-69476189D01*
X133703152Y-69476189D02*
X133512676Y-69428570D01*
X133512676Y-69428570D02*
X133417438Y-69333332D01*
X133417438Y-69333332D02*
X133369819Y-69238094D01*
X134274580Y-67809523D02*
X134322200Y-67857142D01*
X134322200Y-67857142D02*
X134369819Y-67999999D01*
X134369819Y-67999999D02*
X134369819Y-68095237D01*
X134369819Y-68095237D02*
X134322200Y-68238094D01*
X134322200Y-68238094D02*
X134226961Y-68333332D01*
X134226961Y-68333332D02*
X134131723Y-68380951D01*
X134131723Y-68380951D02*
X133941247Y-68428570D01*
X133941247Y-68428570D02*
X133798390Y-68428570D01*
X133798390Y-68428570D02*
X133607914Y-68380951D01*
X133607914Y-68380951D02*
X133512676Y-68333332D01*
X133512676Y-68333332D02*
X133417438Y-68238094D01*
X133417438Y-68238094D02*
X133369819Y-68095237D01*
X133369819Y-68095237D02*
X133369819Y-67999999D01*
X133369819Y-67999999D02*
X133417438Y-67857142D01*
X133417438Y-67857142D02*
X133465057Y-67809523D01*
X145682268Y-92114819D02*
X146301315Y-92114819D01*
X146301315Y-92114819D02*
X145967982Y-92495771D01*
X145967982Y-92495771D02*
X146110839Y-92495771D01*
X146110839Y-92495771D02*
X146206077Y-92543390D01*
X146206077Y-92543390D02*
X146253696Y-92591009D01*
X146253696Y-92591009D02*
X146301315Y-92686247D01*
X146301315Y-92686247D02*
X146301315Y-92924342D01*
X146301315Y-92924342D02*
X146253696Y-93019580D01*
X146253696Y-93019580D02*
X146206077Y-93067200D01*
X146206077Y-93067200D02*
X146110839Y-93114819D01*
X146110839Y-93114819D02*
X145825125Y-93114819D01*
X145825125Y-93114819D02*
X145729887Y-93067200D01*
X145729887Y-93067200D02*
X145682268Y-93019580D01*
X146587030Y-92114819D02*
X146920363Y-93114819D01*
X146920363Y-93114819D02*
X147253696Y-92114819D01*
X147491792Y-92114819D02*
X148110839Y-92114819D01*
X148110839Y-92114819D02*
X147777506Y-92495771D01*
X147777506Y-92495771D02*
X147920363Y-92495771D01*
X147920363Y-92495771D02*
X148015601Y-92543390D01*
X148015601Y-92543390D02*
X148063220Y-92591009D01*
X148063220Y-92591009D02*
X148110839Y-92686247D01*
X148110839Y-92686247D02*
X148110839Y-92924342D01*
X148110839Y-92924342D02*
X148063220Y-93019580D01*
X148063220Y-93019580D02*
X148015601Y-93067200D01*
X148015601Y-93067200D02*
X147920363Y-93114819D01*
X147920363Y-93114819D02*
X147634649Y-93114819D01*
X147634649Y-93114819D02*
X147539411Y-93067200D01*
X147539411Y-93067200D02*
X147491792Y-93019580D01*
X136569819Y-63957142D02*
X135569819Y-63957142D01*
X135569819Y-63957142D02*
X136284104Y-63623809D01*
X136284104Y-63623809D02*
X135569819Y-63290476D01*
X135569819Y-63290476D02*
X136569819Y-63290476D01*
X136569819Y-62814285D02*
X135569819Y-62814285D01*
X135569819Y-62814285D02*
X135569819Y-62433333D01*
X135569819Y-62433333D02*
X135617438Y-62338095D01*
X135617438Y-62338095D02*
X135665057Y-62290476D01*
X135665057Y-62290476D02*
X135760295Y-62242857D01*
X135760295Y-62242857D02*
X135903152Y-62242857D01*
X135903152Y-62242857D02*
X135998390Y-62290476D01*
X135998390Y-62290476D02*
X136046009Y-62338095D01*
X136046009Y-62338095D02*
X136093628Y-62433333D01*
X136093628Y-62433333D02*
X136093628Y-62814285D01*
X135569819Y-61814285D02*
X136379342Y-61814285D01*
X136379342Y-61814285D02*
X136474580Y-61766666D01*
X136474580Y-61766666D02*
X136522200Y-61719047D01*
X136522200Y-61719047D02*
X136569819Y-61623809D01*
X136569819Y-61623809D02*
X136569819Y-61433333D01*
X136569819Y-61433333D02*
X136522200Y-61338095D01*
X136522200Y-61338095D02*
X136474580Y-61290476D01*
X136474580Y-61290476D02*
X136379342Y-61242857D01*
X136379342Y-61242857D02*
X135569819Y-61242857D01*
X145396554Y-98147200D02*
X145539411Y-98194819D01*
X145539411Y-98194819D02*
X145777506Y-98194819D01*
X145777506Y-98194819D02*
X145872744Y-98147200D01*
X145872744Y-98147200D02*
X145920363Y-98099580D01*
X145920363Y-98099580D02*
X145967982Y-98004342D01*
X145967982Y-98004342D02*
X145967982Y-97909104D01*
X145967982Y-97909104D02*
X145920363Y-97813866D01*
X145920363Y-97813866D02*
X145872744Y-97766247D01*
X145872744Y-97766247D02*
X145777506Y-97718628D01*
X145777506Y-97718628D02*
X145587030Y-97671009D01*
X145587030Y-97671009D02*
X145491792Y-97623390D01*
X145491792Y-97623390D02*
X145444173Y-97575771D01*
X145444173Y-97575771D02*
X145396554Y-97480533D01*
X145396554Y-97480533D02*
X145396554Y-97385295D01*
X145396554Y-97385295D02*
X145444173Y-97290057D01*
X145444173Y-97290057D02*
X145491792Y-97242438D01*
X145491792Y-97242438D02*
X145587030Y-97194819D01*
X145587030Y-97194819D02*
X145825125Y-97194819D01*
X145825125Y-97194819D02*
X145967982Y-97242438D01*
X146301316Y-97194819D02*
X146539411Y-98194819D01*
X146539411Y-98194819D02*
X146729887Y-97480533D01*
X146729887Y-97480533D02*
X146920363Y-98194819D01*
X146920363Y-98194819D02*
X147158459Y-97194819D01*
X147539411Y-98194819D02*
X147539411Y-97194819D01*
X147539411Y-97194819D02*
X147777506Y-97194819D01*
X147777506Y-97194819D02*
X147920363Y-97242438D01*
X147920363Y-97242438D02*
X148015601Y-97337676D01*
X148015601Y-97337676D02*
X148063220Y-97432914D01*
X148063220Y-97432914D02*
X148110839Y-97623390D01*
X148110839Y-97623390D02*
X148110839Y-97766247D01*
X148110839Y-97766247D02*
X148063220Y-97956723D01*
X148063220Y-97956723D02*
X148015601Y-98051961D01*
X148015601Y-98051961D02*
X147920363Y-98147200D01*
X147920363Y-98147200D02*
X147777506Y-98194819D01*
X147777506Y-98194819D02*
X147539411Y-98194819D01*
X101441541Y-94469819D02*
X102060588Y-94469819D01*
X102060588Y-94469819D02*
X101727255Y-94850771D01*
X101727255Y-94850771D02*
X101870112Y-94850771D01*
X101870112Y-94850771D02*
X101965350Y-94898390D01*
X101965350Y-94898390D02*
X102012969Y-94946009D01*
X102012969Y-94946009D02*
X102060588Y-95041247D01*
X102060588Y-95041247D02*
X102060588Y-95279342D01*
X102060588Y-95279342D02*
X102012969Y-95374580D01*
X102012969Y-95374580D02*
X101965350Y-95422200D01*
X101965350Y-95422200D02*
X101870112Y-95469819D01*
X101870112Y-95469819D02*
X101584398Y-95469819D01*
X101584398Y-95469819D02*
X101489160Y-95422200D01*
X101489160Y-95422200D02*
X101441541Y-95374580D01*
X102346303Y-94469819D02*
X102679636Y-95469819D01*
X102679636Y-95469819D02*
X103012969Y-94469819D01*
X103251065Y-94469819D02*
X103917731Y-94469819D01*
X103917731Y-94469819D02*
X103489160Y-95469819D01*
X136146009Y-77976190D02*
X136193628Y-77833333D01*
X136193628Y-77833333D02*
X136241247Y-77785714D01*
X136241247Y-77785714D02*
X136336485Y-77738095D01*
X136336485Y-77738095D02*
X136479342Y-77738095D01*
X136479342Y-77738095D02*
X136574580Y-77785714D01*
X136574580Y-77785714D02*
X136622200Y-77833333D01*
X136622200Y-77833333D02*
X136669819Y-77928571D01*
X136669819Y-77928571D02*
X136669819Y-78309523D01*
X136669819Y-78309523D02*
X135669819Y-78309523D01*
X135669819Y-78309523D02*
X135669819Y-77976190D01*
X135669819Y-77976190D02*
X135717438Y-77880952D01*
X135717438Y-77880952D02*
X135765057Y-77833333D01*
X135765057Y-77833333D02*
X135860295Y-77785714D01*
X135860295Y-77785714D02*
X135955533Y-77785714D01*
X135955533Y-77785714D02*
X136050771Y-77833333D01*
X136050771Y-77833333D02*
X136098390Y-77880952D01*
X136098390Y-77880952D02*
X136146009Y-77976190D01*
X136146009Y-77976190D02*
X136146009Y-78309523D01*
X136669819Y-77309523D02*
X135669819Y-77309523D01*
X135669819Y-77309523D02*
X136384104Y-76976190D01*
X136384104Y-76976190D02*
X135669819Y-76642857D01*
X135669819Y-76642857D02*
X136669819Y-76642857D01*
X136669819Y-76166666D02*
X135669819Y-76166666D01*
X135669819Y-76166666D02*
X135669819Y-75785714D01*
X135669819Y-75785714D02*
X135717438Y-75690476D01*
X135717438Y-75690476D02*
X135765057Y-75642857D01*
X135765057Y-75642857D02*
X135860295Y-75595238D01*
X135860295Y-75595238D02*
X136003152Y-75595238D01*
X136003152Y-75595238D02*
X136098390Y-75642857D01*
X136098390Y-75642857D02*
X136146009Y-75690476D01*
X136146009Y-75690476D02*
X136193628Y-75785714D01*
X136193628Y-75785714D02*
X136193628Y-76166666D01*
X135669819Y-74976190D02*
X135669819Y-74880952D01*
X135669819Y-74880952D02*
X135717438Y-74785714D01*
X135717438Y-74785714D02*
X135765057Y-74738095D01*
X135765057Y-74738095D02*
X135860295Y-74690476D01*
X135860295Y-74690476D02*
X136050771Y-74642857D01*
X136050771Y-74642857D02*
X136288866Y-74642857D01*
X136288866Y-74642857D02*
X136479342Y-74690476D01*
X136479342Y-74690476D02*
X136574580Y-74738095D01*
X136574580Y-74738095D02*
X136622200Y-74785714D01*
X136622200Y-74785714D02*
X136669819Y-74880952D01*
X136669819Y-74880952D02*
X136669819Y-74976190D01*
X136669819Y-74976190D02*
X136622200Y-75071428D01*
X136622200Y-75071428D02*
X136574580Y-75119047D01*
X136574580Y-75119047D02*
X136479342Y-75166666D01*
X136479342Y-75166666D02*
X136288866Y-75214285D01*
X136288866Y-75214285D02*
X136050771Y-75214285D01*
X136050771Y-75214285D02*
X135860295Y-75166666D01*
X135860295Y-75166666D02*
X135765057Y-75119047D01*
X135765057Y-75119047D02*
X135717438Y-75071428D01*
X135717438Y-75071428D02*
X135669819Y-74976190D01*
X136529886Y-88754819D02*
X136053696Y-88754819D01*
X136053696Y-88754819D02*
X136053696Y-87754819D01*
X137387029Y-87802438D02*
X137291791Y-87754819D01*
X137291791Y-87754819D02*
X137148934Y-87754819D01*
X137148934Y-87754819D02*
X137006077Y-87802438D01*
X137006077Y-87802438D02*
X136910839Y-87897676D01*
X136910839Y-87897676D02*
X136863220Y-87992914D01*
X136863220Y-87992914D02*
X136815601Y-88183390D01*
X136815601Y-88183390D02*
X136815601Y-88326247D01*
X136815601Y-88326247D02*
X136863220Y-88516723D01*
X136863220Y-88516723D02*
X136910839Y-88611961D01*
X136910839Y-88611961D02*
X137006077Y-88707200D01*
X137006077Y-88707200D02*
X137148934Y-88754819D01*
X137148934Y-88754819D02*
X137244172Y-88754819D01*
X137244172Y-88754819D02*
X137387029Y-88707200D01*
X137387029Y-88707200D02*
X137434648Y-88659580D01*
X137434648Y-88659580D02*
X137434648Y-88326247D01*
X137434648Y-88326247D02*
X137244172Y-88326247D01*
X137720363Y-87754819D02*
X138291791Y-87754819D01*
X138006077Y-88754819D02*
X138006077Y-87754819D01*
X138767982Y-88183390D02*
X138672744Y-88135771D01*
X138672744Y-88135771D02*
X138625125Y-88088152D01*
X138625125Y-88088152D02*
X138577506Y-87992914D01*
X138577506Y-87992914D02*
X138577506Y-87945295D01*
X138577506Y-87945295D02*
X138625125Y-87850057D01*
X138625125Y-87850057D02*
X138672744Y-87802438D01*
X138672744Y-87802438D02*
X138767982Y-87754819D01*
X138767982Y-87754819D02*
X138958458Y-87754819D01*
X138958458Y-87754819D02*
X139053696Y-87802438D01*
X139053696Y-87802438D02*
X139101315Y-87850057D01*
X139101315Y-87850057D02*
X139148934Y-87945295D01*
X139148934Y-87945295D02*
X139148934Y-87992914D01*
X139148934Y-87992914D02*
X139101315Y-88088152D01*
X139101315Y-88088152D02*
X139053696Y-88135771D01*
X139053696Y-88135771D02*
X138958458Y-88183390D01*
X138958458Y-88183390D02*
X138767982Y-88183390D01*
X138767982Y-88183390D02*
X138672744Y-88231009D01*
X138672744Y-88231009D02*
X138625125Y-88278628D01*
X138625125Y-88278628D02*
X138577506Y-88373866D01*
X138577506Y-88373866D02*
X138577506Y-88564342D01*
X138577506Y-88564342D02*
X138625125Y-88659580D01*
X138625125Y-88659580D02*
X138672744Y-88707200D01*
X138672744Y-88707200D02*
X138767982Y-88754819D01*
X138767982Y-88754819D02*
X138958458Y-88754819D01*
X138958458Y-88754819D02*
X139053696Y-88707200D01*
X139053696Y-88707200D02*
X139101315Y-88659580D01*
X139101315Y-88659580D02*
X139148934Y-88564342D01*
X139148934Y-88564342D02*
X139148934Y-88373866D01*
X139148934Y-88373866D02*
X139101315Y-88278628D01*
X139101315Y-88278628D02*
X139053696Y-88231009D01*
X139053696Y-88231009D02*
X138958458Y-88183390D01*
X139910839Y-88231009D02*
X139577506Y-88231009D01*
X139577506Y-88754819D02*
X139577506Y-87754819D01*
X139577506Y-87754819D02*
X140053696Y-87754819D01*
X140339411Y-87754819D02*
X140958458Y-87754819D01*
X140958458Y-87754819D02*
X140625125Y-88135771D01*
X140625125Y-88135771D02*
X140767982Y-88135771D01*
X140767982Y-88135771D02*
X140863220Y-88183390D01*
X140863220Y-88183390D02*
X140910839Y-88231009D01*
X140910839Y-88231009D02*
X140958458Y-88326247D01*
X140958458Y-88326247D02*
X140958458Y-88564342D01*
X140958458Y-88564342D02*
X140910839Y-88659580D01*
X140910839Y-88659580D02*
X140863220Y-88707200D01*
X140863220Y-88707200D02*
X140767982Y-88754819D01*
X140767982Y-88754819D02*
X140482268Y-88754819D01*
X140482268Y-88754819D02*
X140387030Y-88707200D01*
X140387030Y-88707200D02*
X140339411Y-88659580D01*
X141339411Y-87850057D02*
X141387030Y-87802438D01*
X141387030Y-87802438D02*
X141482268Y-87754819D01*
X141482268Y-87754819D02*
X141720363Y-87754819D01*
X141720363Y-87754819D02*
X141815601Y-87802438D01*
X141815601Y-87802438D02*
X141863220Y-87850057D01*
X141863220Y-87850057D02*
X141910839Y-87945295D01*
X141910839Y-87945295D02*
X141910839Y-88040533D01*
X141910839Y-88040533D02*
X141863220Y-88183390D01*
X141863220Y-88183390D02*
X141291792Y-88754819D01*
X141291792Y-88754819D02*
X141910839Y-88754819D01*
X142482268Y-88183390D02*
X142387030Y-88135771D01*
X142387030Y-88135771D02*
X142339411Y-88088152D01*
X142339411Y-88088152D02*
X142291792Y-87992914D01*
X142291792Y-87992914D02*
X142291792Y-87945295D01*
X142291792Y-87945295D02*
X142339411Y-87850057D01*
X142339411Y-87850057D02*
X142387030Y-87802438D01*
X142387030Y-87802438D02*
X142482268Y-87754819D01*
X142482268Y-87754819D02*
X142672744Y-87754819D01*
X142672744Y-87754819D02*
X142767982Y-87802438D01*
X142767982Y-87802438D02*
X142815601Y-87850057D01*
X142815601Y-87850057D02*
X142863220Y-87945295D01*
X142863220Y-87945295D02*
X142863220Y-87992914D01*
X142863220Y-87992914D02*
X142815601Y-88088152D01*
X142815601Y-88088152D02*
X142767982Y-88135771D01*
X142767982Y-88135771D02*
X142672744Y-88183390D01*
X142672744Y-88183390D02*
X142482268Y-88183390D01*
X142482268Y-88183390D02*
X142387030Y-88231009D01*
X142387030Y-88231009D02*
X142339411Y-88278628D01*
X142339411Y-88278628D02*
X142291792Y-88373866D01*
X142291792Y-88373866D02*
X142291792Y-88564342D01*
X142291792Y-88564342D02*
X142339411Y-88659580D01*
X142339411Y-88659580D02*
X142387030Y-88707200D01*
X142387030Y-88707200D02*
X142482268Y-88754819D01*
X142482268Y-88754819D02*
X142672744Y-88754819D01*
X142672744Y-88754819D02*
X142767982Y-88707200D01*
X142767982Y-88707200D02*
X142815601Y-88659580D01*
X142815601Y-88659580D02*
X142863220Y-88564342D01*
X142863220Y-88564342D02*
X142863220Y-88373866D01*
X142863220Y-88373866D02*
X142815601Y-88278628D01*
X142815601Y-88278628D02*
X142767982Y-88231009D01*
X142767982Y-88231009D02*
X142672744Y-88183390D01*
X143291792Y-88754819D02*
X143291792Y-87754819D01*
X143291792Y-87754819D02*
X143672744Y-87754819D01*
X143672744Y-87754819D02*
X143767982Y-87802438D01*
X143767982Y-87802438D02*
X143815601Y-87850057D01*
X143815601Y-87850057D02*
X143863220Y-87945295D01*
X143863220Y-87945295D02*
X143863220Y-88088152D01*
X143863220Y-88088152D02*
X143815601Y-88183390D01*
X143815601Y-88183390D02*
X143767982Y-88231009D01*
X143767982Y-88231009D02*
X143672744Y-88278628D01*
X143672744Y-88278628D02*
X143291792Y-88278628D01*
X145006077Y-87707200D02*
X144148935Y-88992914D01*
X136046009Y-70876190D02*
X136093628Y-70733333D01*
X136093628Y-70733333D02*
X136141247Y-70685714D01*
X136141247Y-70685714D02*
X136236485Y-70638095D01*
X136236485Y-70638095D02*
X136379342Y-70638095D01*
X136379342Y-70638095D02*
X136474580Y-70685714D01*
X136474580Y-70685714D02*
X136522200Y-70733333D01*
X136522200Y-70733333D02*
X136569819Y-70828571D01*
X136569819Y-70828571D02*
X136569819Y-71209523D01*
X136569819Y-71209523D02*
X135569819Y-71209523D01*
X135569819Y-71209523D02*
X135569819Y-70876190D01*
X135569819Y-70876190D02*
X135617438Y-70780952D01*
X135617438Y-70780952D02*
X135665057Y-70733333D01*
X135665057Y-70733333D02*
X135760295Y-70685714D01*
X135760295Y-70685714D02*
X135855533Y-70685714D01*
X135855533Y-70685714D02*
X135950771Y-70733333D01*
X135950771Y-70733333D02*
X135998390Y-70780952D01*
X135998390Y-70780952D02*
X136046009Y-70876190D01*
X136046009Y-70876190D02*
X136046009Y-71209523D01*
X136569819Y-70209523D02*
X135569819Y-70209523D01*
X135569819Y-70209523D02*
X136284104Y-69876190D01*
X136284104Y-69876190D02*
X135569819Y-69542857D01*
X135569819Y-69542857D02*
X136569819Y-69542857D01*
X136569819Y-69066666D02*
X135569819Y-69066666D01*
X135569819Y-69066666D02*
X135569819Y-68685714D01*
X135569819Y-68685714D02*
X135617438Y-68590476D01*
X135617438Y-68590476D02*
X135665057Y-68542857D01*
X135665057Y-68542857D02*
X135760295Y-68495238D01*
X135760295Y-68495238D02*
X135903152Y-68495238D01*
X135903152Y-68495238D02*
X135998390Y-68542857D01*
X135998390Y-68542857D02*
X136046009Y-68590476D01*
X136046009Y-68590476D02*
X136093628Y-68685714D01*
X136093628Y-68685714D02*
X136093628Y-69066666D01*
X136569819Y-67542857D02*
X136569819Y-68114285D01*
X136569819Y-67828571D02*
X135569819Y-67828571D01*
X135569819Y-67828571D02*
X135712676Y-67923809D01*
X135712676Y-67923809D02*
X135807914Y-68019047D01*
X135807914Y-68019047D02*
X135855533Y-68114285D01*
X145396554Y-100687200D02*
X145539411Y-100734819D01*
X145539411Y-100734819D02*
X145777506Y-100734819D01*
X145777506Y-100734819D02*
X145872744Y-100687200D01*
X145872744Y-100687200D02*
X145920363Y-100639580D01*
X145920363Y-100639580D02*
X145967982Y-100544342D01*
X145967982Y-100544342D02*
X145967982Y-100449104D01*
X145967982Y-100449104D02*
X145920363Y-100353866D01*
X145920363Y-100353866D02*
X145872744Y-100306247D01*
X145872744Y-100306247D02*
X145777506Y-100258628D01*
X145777506Y-100258628D02*
X145587030Y-100211009D01*
X145587030Y-100211009D02*
X145491792Y-100163390D01*
X145491792Y-100163390D02*
X145444173Y-100115771D01*
X145444173Y-100115771D02*
X145396554Y-100020533D01*
X145396554Y-100020533D02*
X145396554Y-99925295D01*
X145396554Y-99925295D02*
X145444173Y-99830057D01*
X145444173Y-99830057D02*
X145491792Y-99782438D01*
X145491792Y-99782438D02*
X145587030Y-99734819D01*
X145587030Y-99734819D02*
X145825125Y-99734819D01*
X145825125Y-99734819D02*
X145967982Y-99782438D01*
X146301316Y-99734819D02*
X146539411Y-100734819D01*
X146539411Y-100734819D02*
X146729887Y-100020533D01*
X146729887Y-100020533D02*
X146920363Y-100734819D01*
X146920363Y-100734819D02*
X147158459Y-99734819D01*
X148110839Y-100639580D02*
X148063220Y-100687200D01*
X148063220Y-100687200D02*
X147920363Y-100734819D01*
X147920363Y-100734819D02*
X147825125Y-100734819D01*
X147825125Y-100734819D02*
X147682268Y-100687200D01*
X147682268Y-100687200D02*
X147587030Y-100591961D01*
X147587030Y-100591961D02*
X147539411Y-100496723D01*
X147539411Y-100496723D02*
X147491792Y-100306247D01*
X147491792Y-100306247D02*
X147491792Y-100163390D01*
X147491792Y-100163390D02*
X147539411Y-99972914D01*
X147539411Y-99972914D02*
X147587030Y-99877676D01*
X147587030Y-99877676D02*
X147682268Y-99782438D01*
X147682268Y-99782438D02*
X147825125Y-99734819D01*
X147825125Y-99734819D02*
X147920363Y-99734819D01*
X147920363Y-99734819D02*
X148063220Y-99782438D01*
X148063220Y-99782438D02*
X148110839Y-99830057D01*
X103074874Y-100185533D02*
X104598684Y-100185533D01*
X103836779Y-100947438D02*
X103836779Y-99423628D01*
D11*
X116617292Y-113342742D02*
X116617292Y-112142742D01*
X116617292Y-112142742D02*
X117074435Y-112142742D01*
X117074435Y-112142742D02*
X117188720Y-112199885D01*
X117188720Y-112199885D02*
X117245863Y-112257028D01*
X117245863Y-112257028D02*
X117303006Y-112371314D01*
X117303006Y-112371314D02*
X117303006Y-112542742D01*
X117303006Y-112542742D02*
X117245863Y-112657028D01*
X117245863Y-112657028D02*
X117188720Y-112714171D01*
X117188720Y-112714171D02*
X117074435Y-112771314D01*
X117074435Y-112771314D02*
X116617292Y-112771314D01*
X117988720Y-113342742D02*
X117874435Y-113285600D01*
X117874435Y-113285600D02*
X117817292Y-113228457D01*
X117817292Y-113228457D02*
X117760149Y-113114171D01*
X117760149Y-113114171D02*
X117760149Y-112771314D01*
X117760149Y-112771314D02*
X117817292Y-112657028D01*
X117817292Y-112657028D02*
X117874435Y-112599885D01*
X117874435Y-112599885D02*
X117988720Y-112542742D01*
X117988720Y-112542742D02*
X118160149Y-112542742D01*
X118160149Y-112542742D02*
X118274435Y-112599885D01*
X118274435Y-112599885D02*
X118331578Y-112657028D01*
X118331578Y-112657028D02*
X118388720Y-112771314D01*
X118388720Y-112771314D02*
X118388720Y-113114171D01*
X118388720Y-113114171D02*
X118331578Y-113228457D01*
X118331578Y-113228457D02*
X118274435Y-113285600D01*
X118274435Y-113285600D02*
X118160149Y-113342742D01*
X118160149Y-113342742D02*
X117988720Y-113342742D01*
X118788720Y-112542742D02*
X119017292Y-113342742D01*
X119017292Y-113342742D02*
X119245863Y-112771314D01*
X119245863Y-112771314D02*
X119474434Y-113342742D01*
X119474434Y-113342742D02*
X119703006Y-112542742D01*
X120617292Y-113285600D02*
X120503006Y-113342742D01*
X120503006Y-113342742D02*
X120274435Y-113342742D01*
X120274435Y-113342742D02*
X120160149Y-113285600D01*
X120160149Y-113285600D02*
X120103006Y-113171314D01*
X120103006Y-113171314D02*
X120103006Y-112714171D01*
X120103006Y-112714171D02*
X120160149Y-112599885D01*
X120160149Y-112599885D02*
X120274435Y-112542742D01*
X120274435Y-112542742D02*
X120503006Y-112542742D01*
X120503006Y-112542742D02*
X120617292Y-112599885D01*
X120617292Y-112599885D02*
X120674435Y-112714171D01*
X120674435Y-112714171D02*
X120674435Y-112828457D01*
X120674435Y-112828457D02*
X120103006Y-112942742D01*
X121188720Y-113342742D02*
X121188720Y-112542742D01*
X121188720Y-112771314D02*
X121245863Y-112657028D01*
X121245863Y-112657028D02*
X121303006Y-112599885D01*
X121303006Y-112599885D02*
X121417291Y-112542742D01*
X121417291Y-112542742D02*
X121531577Y-112542742D01*
D10*
X144920364Y-105814819D02*
X144920364Y-104814819D01*
X144920364Y-104814819D02*
X145253697Y-105529104D01*
X145253697Y-105529104D02*
X145587030Y-104814819D01*
X145587030Y-104814819D02*
X145587030Y-105814819D01*
X146063221Y-105814819D02*
X146063221Y-104814819D01*
X146491792Y-105767200D02*
X146634649Y-105814819D01*
X146634649Y-105814819D02*
X146872744Y-105814819D01*
X146872744Y-105814819D02*
X146967982Y-105767200D01*
X146967982Y-105767200D02*
X147015601Y-105719580D01*
X147015601Y-105719580D02*
X147063220Y-105624342D01*
X147063220Y-105624342D02*
X147063220Y-105529104D01*
X147063220Y-105529104D02*
X147015601Y-105433866D01*
X147015601Y-105433866D02*
X146967982Y-105386247D01*
X146967982Y-105386247D02*
X146872744Y-105338628D01*
X146872744Y-105338628D02*
X146682268Y-105291009D01*
X146682268Y-105291009D02*
X146587030Y-105243390D01*
X146587030Y-105243390D02*
X146539411Y-105195771D01*
X146539411Y-105195771D02*
X146491792Y-105100533D01*
X146491792Y-105100533D02*
X146491792Y-105005295D01*
X146491792Y-105005295D02*
X146539411Y-104910057D01*
X146539411Y-104910057D02*
X146587030Y-104862438D01*
X146587030Y-104862438D02*
X146682268Y-104814819D01*
X146682268Y-104814819D02*
X146920363Y-104814819D01*
X146920363Y-104814819D02*
X147063220Y-104862438D01*
X147682268Y-104814819D02*
X147872744Y-104814819D01*
X147872744Y-104814819D02*
X147967982Y-104862438D01*
X147967982Y-104862438D02*
X148063220Y-104957676D01*
X148063220Y-104957676D02*
X148110839Y-105148152D01*
X148110839Y-105148152D02*
X148110839Y-105481485D01*
X148110839Y-105481485D02*
X148063220Y-105671961D01*
X148063220Y-105671961D02*
X147967982Y-105767200D01*
X147967982Y-105767200D02*
X147872744Y-105814819D01*
X147872744Y-105814819D02*
X147682268Y-105814819D01*
X147682268Y-105814819D02*
X147587030Y-105767200D01*
X147587030Y-105767200D02*
X147491792Y-105671961D01*
X147491792Y-105671961D02*
X147444173Y-105481485D01*
X147444173Y-105481485D02*
X147444173Y-105148152D01*
X147444173Y-105148152D02*
X147491792Y-104957676D01*
X147491792Y-104957676D02*
X147587030Y-104862438D01*
X147587030Y-104862438D02*
X147682268Y-104814819D01*
D11*
X116560149Y-115499885D02*
X117131578Y-115499885D01*
X116445863Y-115842742D02*
X116845863Y-114642742D01*
X116845863Y-114642742D02*
X117245863Y-115842742D01*
X118160149Y-115785600D02*
X118045863Y-115842742D01*
X118045863Y-115842742D02*
X117817291Y-115842742D01*
X117817291Y-115842742D02*
X117703006Y-115785600D01*
X117703006Y-115785600D02*
X117645863Y-115728457D01*
X117645863Y-115728457D02*
X117588720Y-115614171D01*
X117588720Y-115614171D02*
X117588720Y-115271314D01*
X117588720Y-115271314D02*
X117645863Y-115157028D01*
X117645863Y-115157028D02*
X117703006Y-115099885D01*
X117703006Y-115099885D02*
X117817291Y-115042742D01*
X117817291Y-115042742D02*
X118045863Y-115042742D01*
X118045863Y-115042742D02*
X118160149Y-115099885D01*
X118503005Y-115042742D02*
X118960148Y-115042742D01*
X118674434Y-114642742D02*
X118674434Y-115671314D01*
X118674434Y-115671314D02*
X118731577Y-115785600D01*
X118731577Y-115785600D02*
X118845862Y-115842742D01*
X118845862Y-115842742D02*
X118960148Y-115842742D01*
X119360148Y-115842742D02*
X119360148Y-115042742D01*
X119360148Y-114642742D02*
X119303005Y-114699885D01*
X119303005Y-114699885D02*
X119360148Y-114757028D01*
X119360148Y-114757028D02*
X119417291Y-114699885D01*
X119417291Y-114699885D02*
X119360148Y-114642742D01*
X119360148Y-114642742D02*
X119360148Y-114757028D01*
X120103005Y-115842742D02*
X119988720Y-115785600D01*
X119988720Y-115785600D02*
X119931577Y-115728457D01*
X119931577Y-115728457D02*
X119874434Y-115614171D01*
X119874434Y-115614171D02*
X119874434Y-115271314D01*
X119874434Y-115271314D02*
X119931577Y-115157028D01*
X119931577Y-115157028D02*
X119988720Y-115099885D01*
X119988720Y-115099885D02*
X120103005Y-115042742D01*
X120103005Y-115042742D02*
X120274434Y-115042742D01*
X120274434Y-115042742D02*
X120388720Y-115099885D01*
X120388720Y-115099885D02*
X120445863Y-115157028D01*
X120445863Y-115157028D02*
X120503005Y-115271314D01*
X120503005Y-115271314D02*
X120503005Y-115614171D01*
X120503005Y-115614171D02*
X120445863Y-115728457D01*
X120445863Y-115728457D02*
X120388720Y-115785600D01*
X120388720Y-115785600D02*
X120274434Y-115842742D01*
X120274434Y-115842742D02*
X120103005Y-115842742D01*
X121017291Y-115042742D02*
X121017291Y-115842742D01*
X121017291Y-115157028D02*
X121074434Y-115099885D01*
X121074434Y-115099885D02*
X121188719Y-115042742D01*
X121188719Y-115042742D02*
X121360148Y-115042742D01*
X121360148Y-115042742D02*
X121474434Y-115099885D01*
X121474434Y-115099885D02*
X121531577Y-115214171D01*
X121531577Y-115214171D02*
X121531577Y-115842742D01*
D10*
X145539411Y-103227200D02*
X145682268Y-103274819D01*
X145682268Y-103274819D02*
X145920363Y-103274819D01*
X145920363Y-103274819D02*
X146015601Y-103227200D01*
X146015601Y-103227200D02*
X146063220Y-103179580D01*
X146063220Y-103179580D02*
X146110839Y-103084342D01*
X146110839Y-103084342D02*
X146110839Y-102989104D01*
X146110839Y-102989104D02*
X146063220Y-102893866D01*
X146063220Y-102893866D02*
X146015601Y-102846247D01*
X146015601Y-102846247D02*
X145920363Y-102798628D01*
X145920363Y-102798628D02*
X145729887Y-102751009D01*
X145729887Y-102751009D02*
X145634649Y-102703390D01*
X145634649Y-102703390D02*
X145587030Y-102655771D01*
X145587030Y-102655771D02*
X145539411Y-102560533D01*
X145539411Y-102560533D02*
X145539411Y-102465295D01*
X145539411Y-102465295D02*
X145587030Y-102370057D01*
X145587030Y-102370057D02*
X145634649Y-102322438D01*
X145634649Y-102322438D02*
X145729887Y-102274819D01*
X145729887Y-102274819D02*
X145967982Y-102274819D01*
X145967982Y-102274819D02*
X146110839Y-102322438D01*
X147110839Y-103179580D02*
X147063220Y-103227200D01*
X147063220Y-103227200D02*
X146920363Y-103274819D01*
X146920363Y-103274819D02*
X146825125Y-103274819D01*
X146825125Y-103274819D02*
X146682268Y-103227200D01*
X146682268Y-103227200D02*
X146587030Y-103131961D01*
X146587030Y-103131961D02*
X146539411Y-103036723D01*
X146539411Y-103036723D02*
X146491792Y-102846247D01*
X146491792Y-102846247D02*
X146491792Y-102703390D01*
X146491792Y-102703390D02*
X146539411Y-102512914D01*
X146539411Y-102512914D02*
X146587030Y-102417676D01*
X146587030Y-102417676D02*
X146682268Y-102322438D01*
X146682268Y-102322438D02*
X146825125Y-102274819D01*
X146825125Y-102274819D02*
X146920363Y-102274819D01*
X146920363Y-102274819D02*
X147063220Y-102322438D01*
X147063220Y-102322438D02*
X147110839Y-102370057D01*
X147539411Y-103274819D02*
X147539411Y-102274819D01*
X148110839Y-103274819D02*
X147682268Y-102703390D01*
X148110839Y-102274819D02*
X147539411Y-102846247D01*
X133529886Y-89307200D02*
X132672744Y-90592914D01*
X133815601Y-90069104D02*
X134291791Y-90069104D01*
X133720363Y-90354819D02*
X134053696Y-89354819D01*
X134053696Y-89354819D02*
X134387029Y-90354819D01*
X134577506Y-89354819D02*
X135148934Y-89354819D01*
X134863220Y-90354819D02*
X134863220Y-89354819D01*
X135482268Y-90354819D02*
X135482268Y-89688152D01*
X135482268Y-89783390D02*
X135529887Y-89735771D01*
X135529887Y-89735771D02*
X135625125Y-89688152D01*
X135625125Y-89688152D02*
X135767982Y-89688152D01*
X135767982Y-89688152D02*
X135863220Y-89735771D01*
X135863220Y-89735771D02*
X135910839Y-89831009D01*
X135910839Y-89831009D02*
X135910839Y-90354819D01*
X135910839Y-89831009D02*
X135958458Y-89735771D01*
X135958458Y-89735771D02*
X136053696Y-89688152D01*
X136053696Y-89688152D02*
X136196553Y-89688152D01*
X136196553Y-89688152D02*
X136291792Y-89735771D01*
X136291792Y-89735771D02*
X136339411Y-89831009D01*
X136339411Y-89831009D02*
X136339411Y-90354819D01*
X137196553Y-90307200D02*
X137101315Y-90354819D01*
X137101315Y-90354819D02*
X136910839Y-90354819D01*
X136910839Y-90354819D02*
X136815601Y-90307200D01*
X136815601Y-90307200D02*
X136767982Y-90211961D01*
X136767982Y-90211961D02*
X136767982Y-89831009D01*
X136767982Y-89831009D02*
X136815601Y-89735771D01*
X136815601Y-89735771D02*
X136910839Y-89688152D01*
X136910839Y-89688152D02*
X137101315Y-89688152D01*
X137101315Y-89688152D02*
X137196553Y-89735771D01*
X137196553Y-89735771D02*
X137244172Y-89831009D01*
X137244172Y-89831009D02*
X137244172Y-89926247D01*
X137244172Y-89926247D02*
X136767982Y-90021485D01*
X138101315Y-89688152D02*
X138101315Y-90497676D01*
X138101315Y-90497676D02*
X138053696Y-90592914D01*
X138053696Y-90592914D02*
X138006077Y-90640533D01*
X138006077Y-90640533D02*
X137910839Y-90688152D01*
X137910839Y-90688152D02*
X137767982Y-90688152D01*
X137767982Y-90688152D02*
X137672744Y-90640533D01*
X138101315Y-90307200D02*
X138006077Y-90354819D01*
X138006077Y-90354819D02*
X137815601Y-90354819D01*
X137815601Y-90354819D02*
X137720363Y-90307200D01*
X137720363Y-90307200D02*
X137672744Y-90259580D01*
X137672744Y-90259580D02*
X137625125Y-90164342D01*
X137625125Y-90164342D02*
X137625125Y-89878628D01*
X137625125Y-89878628D02*
X137672744Y-89783390D01*
X137672744Y-89783390D02*
X137720363Y-89735771D01*
X137720363Y-89735771D02*
X137815601Y-89688152D01*
X137815601Y-89688152D02*
X138006077Y-89688152D01*
X138006077Y-89688152D02*
X138101315Y-89735771D01*
X139006077Y-90354819D02*
X139006077Y-89831009D01*
X139006077Y-89831009D02*
X138958458Y-89735771D01*
X138958458Y-89735771D02*
X138863220Y-89688152D01*
X138863220Y-89688152D02*
X138672744Y-89688152D01*
X138672744Y-89688152D02*
X138577506Y-89735771D01*
X139006077Y-90307200D02*
X138910839Y-90354819D01*
X138910839Y-90354819D02*
X138672744Y-90354819D01*
X138672744Y-90354819D02*
X138577506Y-90307200D01*
X138577506Y-90307200D02*
X138529887Y-90211961D01*
X138529887Y-90211961D02*
X138529887Y-90116723D01*
X138529887Y-90116723D02*
X138577506Y-90021485D01*
X138577506Y-90021485D02*
X138672744Y-89973866D01*
X138672744Y-89973866D02*
X138910839Y-89973866D01*
X138910839Y-89973866D02*
X139006077Y-89926247D01*
X139387030Y-89354819D02*
X140006077Y-89354819D01*
X140006077Y-89354819D02*
X139672744Y-89735771D01*
X139672744Y-89735771D02*
X139815601Y-89735771D01*
X139815601Y-89735771D02*
X139910839Y-89783390D01*
X139910839Y-89783390D02*
X139958458Y-89831009D01*
X139958458Y-89831009D02*
X140006077Y-89926247D01*
X140006077Y-89926247D02*
X140006077Y-90164342D01*
X140006077Y-90164342D02*
X139958458Y-90259580D01*
X139958458Y-90259580D02*
X139910839Y-90307200D01*
X139910839Y-90307200D02*
X139815601Y-90354819D01*
X139815601Y-90354819D02*
X139529887Y-90354819D01*
X139529887Y-90354819D02*
X139434649Y-90307200D01*
X139434649Y-90307200D02*
X139387030Y-90259580D01*
X140387030Y-89450057D02*
X140434649Y-89402438D01*
X140434649Y-89402438D02*
X140529887Y-89354819D01*
X140529887Y-89354819D02*
X140767982Y-89354819D01*
X140767982Y-89354819D02*
X140863220Y-89402438D01*
X140863220Y-89402438D02*
X140910839Y-89450057D01*
X140910839Y-89450057D02*
X140958458Y-89545295D01*
X140958458Y-89545295D02*
X140958458Y-89640533D01*
X140958458Y-89640533D02*
X140910839Y-89783390D01*
X140910839Y-89783390D02*
X140339411Y-90354819D01*
X140339411Y-90354819D02*
X140958458Y-90354819D01*
X141529887Y-89783390D02*
X141434649Y-89735771D01*
X141434649Y-89735771D02*
X141387030Y-89688152D01*
X141387030Y-89688152D02*
X141339411Y-89592914D01*
X141339411Y-89592914D02*
X141339411Y-89545295D01*
X141339411Y-89545295D02*
X141387030Y-89450057D01*
X141387030Y-89450057D02*
X141434649Y-89402438D01*
X141434649Y-89402438D02*
X141529887Y-89354819D01*
X141529887Y-89354819D02*
X141720363Y-89354819D01*
X141720363Y-89354819D02*
X141815601Y-89402438D01*
X141815601Y-89402438D02*
X141863220Y-89450057D01*
X141863220Y-89450057D02*
X141910839Y-89545295D01*
X141910839Y-89545295D02*
X141910839Y-89592914D01*
X141910839Y-89592914D02*
X141863220Y-89688152D01*
X141863220Y-89688152D02*
X141815601Y-89735771D01*
X141815601Y-89735771D02*
X141720363Y-89783390D01*
X141720363Y-89783390D02*
X141529887Y-89783390D01*
X141529887Y-89783390D02*
X141434649Y-89831009D01*
X141434649Y-89831009D02*
X141387030Y-89878628D01*
X141387030Y-89878628D02*
X141339411Y-89973866D01*
X141339411Y-89973866D02*
X141339411Y-90164342D01*
X141339411Y-90164342D02*
X141387030Y-90259580D01*
X141387030Y-90259580D02*
X141434649Y-90307200D01*
X141434649Y-90307200D02*
X141529887Y-90354819D01*
X141529887Y-90354819D02*
X141720363Y-90354819D01*
X141720363Y-90354819D02*
X141815601Y-90307200D01*
X141815601Y-90307200D02*
X141863220Y-90259580D01*
X141863220Y-90259580D02*
X141910839Y-90164342D01*
X141910839Y-90164342D02*
X141910839Y-89973866D01*
X141910839Y-89973866D02*
X141863220Y-89878628D01*
X141863220Y-89878628D02*
X141815601Y-89831009D01*
X141815601Y-89831009D02*
X141720363Y-89783390D01*
X142339411Y-90354819D02*
X142339411Y-89354819D01*
X142339411Y-89354819D02*
X142720363Y-89354819D01*
X142720363Y-89354819D02*
X142815601Y-89402438D01*
X142815601Y-89402438D02*
X142863220Y-89450057D01*
X142863220Y-89450057D02*
X142910839Y-89545295D01*
X142910839Y-89545295D02*
X142910839Y-89688152D01*
X142910839Y-89688152D02*
X142863220Y-89783390D01*
X142863220Y-89783390D02*
X142815601Y-89831009D01*
X142815601Y-89831009D02*
X142720363Y-89878628D01*
X142720363Y-89878628D02*
X142339411Y-89878628D01*
X143672744Y-89831009D02*
X143815601Y-89878628D01*
X143815601Y-89878628D02*
X143863220Y-89926247D01*
X143863220Y-89926247D02*
X143910839Y-90021485D01*
X143910839Y-90021485D02*
X143910839Y-90164342D01*
X143910839Y-90164342D02*
X143863220Y-90259580D01*
X143863220Y-90259580D02*
X143815601Y-90307200D01*
X143815601Y-90307200D02*
X143720363Y-90354819D01*
X143720363Y-90354819D02*
X143339411Y-90354819D01*
X143339411Y-90354819D02*
X143339411Y-89354819D01*
X143339411Y-89354819D02*
X143672744Y-89354819D01*
X143672744Y-89354819D02*
X143767982Y-89402438D01*
X143767982Y-89402438D02*
X143815601Y-89450057D01*
X143815601Y-89450057D02*
X143863220Y-89545295D01*
X143863220Y-89545295D02*
X143863220Y-89640533D01*
X143863220Y-89640533D02*
X143815601Y-89735771D01*
X143815601Y-89735771D02*
X143767982Y-89783390D01*
X143767982Y-89783390D02*
X143672744Y-89831009D01*
X143672744Y-89831009D02*
X143339411Y-89831009D01*
X134322200Y-80190475D02*
X134369819Y-80047618D01*
X134369819Y-80047618D02*
X134369819Y-79809523D01*
X134369819Y-79809523D02*
X134322200Y-79714285D01*
X134322200Y-79714285D02*
X134274580Y-79666666D01*
X134274580Y-79666666D02*
X134179342Y-79619047D01*
X134179342Y-79619047D02*
X134084104Y-79619047D01*
X134084104Y-79619047D02*
X133988866Y-79666666D01*
X133988866Y-79666666D02*
X133941247Y-79714285D01*
X133941247Y-79714285D02*
X133893628Y-79809523D01*
X133893628Y-79809523D02*
X133846009Y-79999999D01*
X133846009Y-79999999D02*
X133798390Y-80095237D01*
X133798390Y-80095237D02*
X133750771Y-80142856D01*
X133750771Y-80142856D02*
X133655533Y-80190475D01*
X133655533Y-80190475D02*
X133560295Y-80190475D01*
X133560295Y-80190475D02*
X133465057Y-80142856D01*
X133465057Y-80142856D02*
X133417438Y-80095237D01*
X133417438Y-80095237D02*
X133369819Y-79999999D01*
X133369819Y-79999999D02*
X133369819Y-79761904D01*
X133369819Y-79761904D02*
X133417438Y-79619047D01*
X133846009Y-79190475D02*
X133846009Y-78857142D01*
X134369819Y-78714285D02*
X134369819Y-79190475D01*
X134369819Y-79190475D02*
X133369819Y-79190475D01*
X133369819Y-79190475D02*
X133369819Y-78714285D01*
X134369819Y-77714285D02*
X133893628Y-78047618D01*
X134369819Y-78285713D02*
X133369819Y-78285713D01*
X133369819Y-78285713D02*
X133369819Y-77904761D01*
X133369819Y-77904761D02*
X133417438Y-77809523D01*
X133417438Y-77809523D02*
X133465057Y-77761904D01*
X133465057Y-77761904D02*
X133560295Y-77714285D01*
X133560295Y-77714285D02*
X133703152Y-77714285D01*
X133703152Y-77714285D02*
X133798390Y-77761904D01*
X133798390Y-77761904D02*
X133846009Y-77809523D01*
X133846009Y-77809523D02*
X133893628Y-77904761D01*
X133893628Y-77904761D02*
X133893628Y-78285713D01*
X133369819Y-77428570D02*
X134369819Y-77095237D01*
X134369819Y-77095237D02*
X133369819Y-76761904D01*
X133369819Y-76238094D02*
X133369819Y-76047618D01*
X133369819Y-76047618D02*
X133417438Y-75952380D01*
X133417438Y-75952380D02*
X133512676Y-75857142D01*
X133512676Y-75857142D02*
X133703152Y-75809523D01*
X133703152Y-75809523D02*
X134036485Y-75809523D01*
X134036485Y-75809523D02*
X134226961Y-75857142D01*
X134226961Y-75857142D02*
X134322200Y-75952380D01*
X134322200Y-75952380D02*
X134369819Y-76047618D01*
X134369819Y-76047618D02*
X134369819Y-76238094D01*
X134369819Y-76238094D02*
X134322200Y-76333332D01*
X134322200Y-76333332D02*
X134226961Y-76428570D01*
X134226961Y-76428570D02*
X134036485Y-76476189D01*
X134036485Y-76476189D02*
X133703152Y-76476189D01*
X133703152Y-76476189D02*
X133512676Y-76428570D01*
X133512676Y-76428570D02*
X133417438Y-76333332D01*
X133417438Y-76333332D02*
X133369819Y-76238094D01*
X133846009Y-75047618D02*
X133893628Y-74904761D01*
X133893628Y-74904761D02*
X133941247Y-74857142D01*
X133941247Y-74857142D02*
X134036485Y-74809523D01*
X134036485Y-74809523D02*
X134179342Y-74809523D01*
X134179342Y-74809523D02*
X134274580Y-74857142D01*
X134274580Y-74857142D02*
X134322200Y-74904761D01*
X134322200Y-74904761D02*
X134369819Y-74999999D01*
X134369819Y-74999999D02*
X134369819Y-75380951D01*
X134369819Y-75380951D02*
X133369819Y-75380951D01*
X133369819Y-75380951D02*
X133369819Y-75047618D01*
X133369819Y-75047618D02*
X133417438Y-74952380D01*
X133417438Y-74952380D02*
X133465057Y-74904761D01*
X133465057Y-74904761D02*
X133560295Y-74857142D01*
X133560295Y-74857142D02*
X133655533Y-74857142D01*
X133655533Y-74857142D02*
X133750771Y-74904761D01*
X133750771Y-74904761D02*
X133798390Y-74952380D01*
X133798390Y-74952380D02*
X133846009Y-75047618D01*
X133846009Y-75047618D02*
X133846009Y-75380951D01*
G36*
X133015282Y-53925802D02*
G01*
X133004738Y-53979155D01*
X132972522Y-54151934D01*
X132950854Y-54275561D01*
X132929311Y-54403926D01*
X132908128Y-54535304D01*
X132887545Y-54667969D01*
X132867797Y-54800193D01*
X132849121Y-54930251D01*
X132831754Y-55056416D01*
X132808678Y-55234589D01*
X132789882Y-55394293D01*
X132776166Y-55529702D01*
X132766765Y-55685572D01*
X132767231Y-55707466D01*
X132820614Y-55822135D01*
X132945062Y-55843108D01*
X132954536Y-55842919D01*
X133076465Y-55834850D01*
X133204570Y-55825401D01*
X133148394Y-55909665D01*
X133025662Y-55930425D01*
X132826605Y-55965230D01*
X132794691Y-55971011D01*
X132663458Y-55994639D01*
X132542672Y-56014078D01*
X132462072Y-55943859D01*
X132463079Y-55918135D01*
X132479780Y-55793039D01*
X132484234Y-55770602D01*
X132500540Y-55649546D01*
X132509601Y-55586274D01*
X132528628Y-55464532D01*
X132528982Y-55460582D01*
X132546336Y-55338136D01*
X132462054Y-55332986D01*
X132326795Y-55328113D01*
X132186951Y-55325515D01*
X132051088Y-55324372D01*
X131926570Y-55324092D01*
X131843948Y-55417940D01*
X131731768Y-55542039D01*
X131632076Y-55647332D01*
X131543049Y-55735174D01*
X131437793Y-55827485D01*
X131321764Y-55907508D01*
X131194200Y-55959930D01*
X131065614Y-55975000D01*
X131004082Y-55972172D01*
X130879989Y-55943859D01*
X131013101Y-55699005D01*
X131045580Y-55708968D01*
X131166974Y-55723429D01*
X131238770Y-55719679D01*
X131366003Y-55686575D01*
X131473261Y-55621935D01*
X131573028Y-55531699D01*
X131602980Y-55501698D01*
X131694233Y-55402778D01*
X131788114Y-55295394D01*
X131870939Y-55197611D01*
X131884970Y-55180600D01*
X132035258Y-55180600D01*
X132567096Y-55180600D01*
X132710589Y-54295219D01*
X132035258Y-55180600D01*
X131884970Y-55180600D01*
X131952718Y-55098460D01*
X132042585Y-54985816D01*
X132647697Y-54202407D01*
X132593776Y-54198503D01*
X132465736Y-54188363D01*
X132357048Y-54177372D01*
X132273394Y-54166992D01*
X132269103Y-54166704D01*
X132143946Y-54160275D01*
X132074812Y-54163382D01*
X131954136Y-54187661D01*
X131844977Y-54244692D01*
X131765360Y-54344717D01*
X131737892Y-54478401D01*
X131743572Y-54556517D01*
X131772551Y-54683257D01*
X131811165Y-54803855D01*
X131552267Y-54943684D01*
X131516424Y-54830509D01*
X131503419Y-54702494D01*
X131507244Y-54634264D01*
X131538678Y-54504099D01*
X131593648Y-54393673D01*
X131675818Y-54282786D01*
X131769033Y-54184699D01*
X131799978Y-54155419D01*
X131908644Y-54067813D01*
X132017397Y-54003349D01*
X132141007Y-53958012D01*
X132263014Y-53942899D01*
X132327824Y-53945562D01*
X132451570Y-53959277D01*
X132581140Y-53978314D01*
X132655341Y-53989625D01*
X132780809Y-54002739D01*
X132875835Y-53977775D01*
X132966434Y-53890997D01*
X133015282Y-53925802D01*
G37*
G36*
X133542847Y-55921877D02*
G01*
X133749232Y-55086566D01*
X133836549Y-55029780D01*
X133945723Y-54960738D01*
X134049676Y-54895906D01*
X134156932Y-54832965D01*
X134249930Y-54802023D01*
X134284734Y-54848429D01*
X134266005Y-54973385D01*
X134237302Y-55100430D01*
X134206231Y-55231047D01*
X134174047Y-55364454D01*
X134155286Y-55441939D01*
X134123642Y-55571449D01*
X134092689Y-55702373D01*
X134068725Y-55824637D01*
X134064305Y-55886461D01*
X134097687Y-56010092D01*
X134116817Y-56045219D01*
X134231822Y-55987385D01*
X134346193Y-55920901D01*
X134450003Y-55855324D01*
X134559408Y-55781915D01*
X134672411Y-55702002D01*
X134764061Y-55634281D01*
X134788485Y-55534752D01*
X134675307Y-55600902D01*
X134552581Y-55671533D01*
X134441697Y-55730408D01*
X134389759Y-55744190D01*
X134333583Y-55648325D01*
X134348970Y-55512792D01*
X134380750Y-55378149D01*
X134419277Y-55230811D01*
X134461806Y-55072743D01*
X134501500Y-54926587D01*
X134536611Y-54800202D01*
X134571022Y-54675066D01*
X134589427Y-54588921D01*
X134522871Y-54529082D01*
X134402810Y-54561978D01*
X134278409Y-54633925D01*
X134153961Y-54710290D01*
X134056978Y-54770272D01*
X133950589Y-54837522D01*
X133844801Y-54904594D01*
X133784036Y-54944295D01*
X133815454Y-54823563D01*
X133845269Y-54696564D01*
X133868300Y-54574877D01*
X133822505Y-54529082D01*
X133703687Y-54576899D01*
X133577320Y-54642411D01*
X133468563Y-54702447D01*
X133348670Y-54771315D01*
X133272958Y-54816067D01*
X133252198Y-54908879D01*
X133371483Y-54854444D01*
X133486196Y-54807216D01*
X133521475Y-54802023D01*
X133563607Y-54852093D01*
X133546244Y-54980929D01*
X133520788Y-55104045D01*
X133492187Y-55227228D01*
X133457719Y-55365205D01*
X133426456Y-55483770D01*
X133409734Y-55545132D01*
X133329134Y-55833339D01*
X133297192Y-55956300D01*
X133280286Y-56024459D01*
X133542847Y-55921877D01*
G37*
G36*
X135932461Y-54542614D02*
G01*
X136050913Y-54608903D01*
X136126402Y-54721251D01*
X136149528Y-54851482D01*
X136149204Y-54874440D01*
X136138295Y-54996527D01*
X136113315Y-55126552D01*
X136076179Y-55258757D01*
X136028802Y-55387385D01*
X135973098Y-55506676D01*
X135897958Y-55629396D01*
X135856716Y-55675470D01*
X135762862Y-55755868D01*
X135650594Y-55832639D01*
X135544417Y-55895621D01*
X135435881Y-55949421D01*
X135311835Y-55995904D01*
X135187212Y-56014078D01*
X135061293Y-55989521D01*
X134955598Y-55908128D01*
X134899062Y-55794450D01*
X134882519Y-55667864D01*
X134884343Y-55602034D01*
X134893125Y-55520708D01*
X135152407Y-55520708D01*
X135156597Y-55592176D01*
X135188761Y-55712588D01*
X135268914Y-55813708D01*
X135386880Y-55849825D01*
X135485073Y-55829723D01*
X135590261Y-55760456D01*
X135677293Y-55659255D01*
X135747138Y-55541468D01*
X135797212Y-55428194D01*
X135840906Y-55299064D01*
X135868958Y-55173519D01*
X135880251Y-55040771D01*
X135877977Y-54982832D01*
X135850687Y-54851085D01*
X135777102Y-54739000D01*
X135652494Y-54693946D01*
X135606527Y-54698763D01*
X135493099Y-54749715D01*
X135386662Y-54848312D01*
X135310631Y-54954828D01*
X135246077Y-55080405D01*
X135196113Y-55219965D01*
X135163852Y-55368426D01*
X135152407Y-55520708D01*
X134893125Y-55520708D01*
X134898534Y-55470622D01*
X134925895Y-55341596D01*
X134965360Y-55217424D01*
X135015863Y-55100577D01*
X135076337Y-54993522D01*
X135164326Y-54877234D01*
X135264148Y-54784926D01*
X135342173Y-54729755D01*
X135459710Y-54657404D01*
X135574260Y-54599302D01*
X135698747Y-54552166D01*
X135834455Y-54529082D01*
X135932461Y-54542614D01*
G37*
G36*
X136299738Y-56014078D02*
G01*
X136548255Y-55919434D01*
X136772348Y-55062142D01*
X136873120Y-54992974D01*
X136978344Y-54924789D01*
X137090093Y-54859616D01*
X137195498Y-54818510D01*
X137241294Y-54896057D01*
X137223431Y-55021702D01*
X137191416Y-55169842D01*
X137156343Y-55314933D01*
X137125435Y-55435555D01*
X137091236Y-55563651D01*
X137054334Y-55696843D01*
X137015318Y-55832752D01*
X136974776Y-55968999D01*
X136961025Y-56014078D01*
X137227250Y-55919434D01*
X137444016Y-55037107D01*
X137554329Y-54966777D01*
X137673011Y-54895652D01*
X137784873Y-54834975D01*
X137874494Y-54800802D01*
X137920289Y-54867969D01*
X137905284Y-54995974D01*
X137880317Y-55117808D01*
X137847592Y-55257235D01*
X137811413Y-55401831D01*
X137794504Y-55467585D01*
X137764860Y-55593898D01*
X137739702Y-55713507D01*
X137724496Y-55840595D01*
X137724284Y-55855931D01*
X137763290Y-55976597D01*
X137808548Y-56014078D01*
X137921891Y-55954338D01*
X138033937Y-55889067D01*
X138144808Y-55818145D01*
X138254625Y-55741452D01*
X138363508Y-55658866D01*
X138399616Y-55630006D01*
X138403279Y-55548796D01*
X138284348Y-55622188D01*
X138175937Y-55687717D01*
X138061512Y-55732583D01*
X138057065Y-55732588D01*
X137993562Y-55640997D01*
X138010789Y-55506520D01*
X138040401Y-55372122D01*
X138071435Y-55249988D01*
X138109577Y-55110990D01*
X138147353Y-54978198D01*
X138183831Y-54847999D01*
X138217731Y-54720812D01*
X138241474Y-54598445D01*
X138242079Y-54581594D01*
X138186514Y-54529082D01*
X138064389Y-54570267D01*
X137947027Y-54628936D01*
X137819764Y-54698386D01*
X137697735Y-54767866D01*
X137557011Y-54850075D01*
X137479431Y-54896057D01*
X137506393Y-54775328D01*
X137524616Y-54694556D01*
X137548772Y-54573133D01*
X137549040Y-54568161D01*
X137503855Y-54529082D01*
X137374889Y-54577290D01*
X137257789Y-54643521D01*
X137151120Y-54707976D01*
X137017477Y-54791043D01*
X136897435Y-54866779D01*
X136807152Y-54924145D01*
X136838638Y-54788388D01*
X136866891Y-54660823D01*
X136880425Y-54578541D01*
X136827913Y-54529082D01*
X136707679Y-54577442D01*
X136595428Y-54639768D01*
X136579396Y-54648761D01*
X136471973Y-54711319D01*
X136362929Y-54775575D01*
X136285694Y-54825226D01*
X136261270Y-54924145D01*
X136374108Y-54867454D01*
X136488043Y-54821620D01*
X136520167Y-54818510D01*
X136569016Y-54885066D01*
X136549909Y-55008837D01*
X136521953Y-55128079D01*
X136484592Y-55280722D01*
X136454818Y-55400921D01*
X136418806Y-55545743D01*
X136384438Y-55673985D01*
X136354659Y-55793142D01*
X136330879Y-55891346D01*
X136299738Y-56014078D01*
G37*
G36*
X139389706Y-54529461D02*
G01*
X139523187Y-54536731D01*
X139656187Y-54554702D01*
X139788136Y-54581594D01*
X139765117Y-54607607D01*
X139686775Y-54707990D01*
X139651682Y-54839877D01*
X139619322Y-54965046D01*
X139580697Y-55120115D01*
X139547583Y-55259945D01*
X139520350Y-55382656D01*
X139495147Y-55509103D01*
X139476727Y-55650157D01*
X139518859Y-55720376D01*
X139547008Y-55714206D01*
X139654778Y-55653532D01*
X139762553Y-55582386D01*
X139868736Y-55510327D01*
X139865073Y-55615352D01*
X139768208Y-55685359D01*
X139658861Y-55761769D01*
X139550000Y-55835781D01*
X139466674Y-55890776D01*
X139350886Y-55964645D01*
X139228210Y-56014078D01*
X139172034Y-55940806D01*
X139176465Y-55884469D01*
X139197653Y-55759449D01*
X139224546Y-55629396D01*
X139184491Y-55658220D01*
X139075102Y-55736386D01*
X138952463Y-55822424D01*
X138831822Y-55903649D01*
X138712316Y-55975438D01*
X138594399Y-56014078D01*
X138516410Y-55976724D01*
X138463681Y-55861533D01*
X138450907Y-55734420D01*
X138460829Y-55589469D01*
X138464051Y-55569556D01*
X138720795Y-55569556D01*
X138728131Y-55652317D01*
X138811775Y-55744801D01*
X138841881Y-55740091D01*
X138953861Y-55690810D01*
X139063346Y-55625732D01*
X139147254Y-55563494D01*
X139252634Y-55485293D01*
X139284385Y-55366224D01*
X139288244Y-55349207D01*
X139315803Y-55223685D01*
X139343614Y-55100000D01*
X139373850Y-54983303D01*
X139406761Y-54861841D01*
X139441311Y-54736078D01*
X139397980Y-54726046D01*
X139272937Y-54702647D01*
X139143946Y-54690282D01*
X139111528Y-54692267D01*
X138999247Y-54743576D01*
X138918732Y-54846821D01*
X138864288Y-54956507D01*
X138817261Y-55073308D01*
X138778904Y-55192823D01*
X138749772Y-55311838D01*
X138728186Y-55445773D01*
X138720795Y-55569556D01*
X138464051Y-55569556D01*
X138481535Y-55461516D01*
X138511636Y-55329431D01*
X138549328Y-55199239D01*
X138592810Y-55076964D01*
X138652556Y-54944433D01*
X138727512Y-54830722D01*
X138737250Y-54820784D01*
X138835347Y-54739919D01*
X138937510Y-54667690D01*
X139046249Y-54599302D01*
X139102042Y-54568190D01*
X139221605Y-54535201D01*
X139347278Y-54529082D01*
X139389706Y-54529461D01*
G37*
G36*
X140688782Y-55526814D02*
G01*
X140582552Y-55589252D01*
X140478393Y-55654380D01*
X140464689Y-55662979D01*
X140354056Y-55726103D01*
X140265631Y-55753960D01*
X140202739Y-55662979D01*
X140202739Y-55631228D01*
X140202739Y-55600087D01*
X140223411Y-55478755D01*
X140251044Y-55349366D01*
X140287465Y-55188034D01*
X140319238Y-55051721D01*
X140353813Y-54906682D01*
X140390271Y-54756876D01*
X140427696Y-54606266D01*
X140465168Y-54458812D01*
X140489724Y-54364218D01*
X140525454Y-54230335D01*
X140566465Y-54085989D01*
X140610807Y-53953904D01*
X140669257Y-53842904D01*
X140784038Y-53787382D01*
X140811514Y-53786584D01*
X140934193Y-53799989D01*
X140983094Y-53811618D01*
X141133304Y-53625994D01*
X141010944Y-53605472D01*
X140975767Y-53604623D01*
X140850950Y-53621516D01*
X140727273Y-53678235D01*
X140617657Y-53758370D01*
X140556280Y-53811618D01*
X140460253Y-53901082D01*
X140378116Y-54000879D01*
X140322363Y-54118152D01*
X140318143Y-54129745D01*
X140280258Y-54257035D01*
X140245568Y-54383325D01*
X140210638Y-54516660D01*
X140181143Y-54636408D01*
X140177704Y-54651203D01*
X139926133Y-55747243D01*
X139918806Y-55810136D01*
X139944135Y-55933989D01*
X140028991Y-56023543D01*
X140034211Y-56023848D01*
X140055582Y-56023848D01*
X140065963Y-56023848D01*
X140184965Y-55961392D01*
X140305934Y-55877974D01*
X140418591Y-55798035D01*
X140522272Y-55723732D01*
X140643969Y-55636090D01*
X140688782Y-55603750D01*
X140688782Y-55526814D01*
G37*
G36*
X141697801Y-54529461D02*
G01*
X141831282Y-54536731D01*
X141964282Y-54554702D01*
X142096231Y-54581594D01*
X142073211Y-54607607D01*
X141994870Y-54707990D01*
X141959777Y-54839877D01*
X141927417Y-54965046D01*
X141888792Y-55120115D01*
X141855678Y-55259945D01*
X141828445Y-55382656D01*
X141803242Y-55509103D01*
X141784822Y-55650157D01*
X141826953Y-55720376D01*
X141855103Y-55714206D01*
X141962873Y-55653532D01*
X142070648Y-55582386D01*
X142176831Y-55510327D01*
X142173168Y-55615352D01*
X142076303Y-55685359D01*
X141966956Y-55761769D01*
X141858094Y-55835781D01*
X141774769Y-55890776D01*
X141658980Y-55964645D01*
X141536304Y-56014078D01*
X141480129Y-55940806D01*
X141484560Y-55884469D01*
X141505748Y-55759449D01*
X141532641Y-55629396D01*
X141492586Y-55658220D01*
X141383197Y-55736386D01*
X141260558Y-55822424D01*
X141139917Y-55903649D01*
X141020411Y-55975438D01*
X140902494Y-56014078D01*
X140824505Y-55976724D01*
X140771775Y-55861533D01*
X140759002Y-55734420D01*
X140768924Y-55589469D01*
X140772146Y-55569556D01*
X141028890Y-55569556D01*
X141036225Y-55652317D01*
X141119870Y-55744801D01*
X141149976Y-55740091D01*
X141261956Y-55690810D01*
X141371441Y-55625732D01*
X141455349Y-55563494D01*
X141560729Y-55485293D01*
X141592480Y-55366224D01*
X141596339Y-55349207D01*
X141623898Y-55223685D01*
X141651709Y-55100000D01*
X141681945Y-54983303D01*
X141714856Y-54861841D01*
X141749406Y-54736078D01*
X141706075Y-54726046D01*
X141581031Y-54702647D01*
X141452041Y-54690282D01*
X141419623Y-54692267D01*
X141307342Y-54743576D01*
X141226827Y-54846821D01*
X141172383Y-54956507D01*
X141125356Y-55073308D01*
X141086999Y-55192823D01*
X141057867Y-55311838D01*
X141036281Y-55445773D01*
X141028890Y-55569556D01*
X140772146Y-55569556D01*
X140789630Y-55461516D01*
X140819731Y-55329431D01*
X140857423Y-55199239D01*
X140900905Y-55076964D01*
X140960650Y-54944433D01*
X141035607Y-54830722D01*
X141045344Y-54820784D01*
X141143442Y-54739919D01*
X141245605Y-54667690D01*
X141354344Y-54599302D01*
X141410137Y-54568190D01*
X141529700Y-54535201D01*
X141655373Y-54529082D01*
X141697801Y-54529461D01*
G37*
G36*
X142877808Y-53811618D02*
G01*
X142775144Y-53892054D01*
X142673859Y-53967962D01*
X142636618Y-53993579D01*
X142687425Y-54109085D01*
X142755826Y-54218584D01*
X142769731Y-54239043D01*
X142864233Y-54154924D01*
X142966093Y-54073349D01*
X142996877Y-54049755D01*
X142951692Y-53969155D01*
X142899180Y-53857414D01*
X142877808Y-53811618D01*
G37*
G36*
X143010921Y-55562840D02*
G01*
X142951692Y-55593981D01*
X142835478Y-55657329D01*
X142722989Y-55715160D01*
X142626238Y-55744801D01*
X142563346Y-55646493D01*
X142580649Y-55524061D01*
X142612032Y-55393186D01*
X142649241Y-55243278D01*
X142678750Y-55125034D01*
X142711851Y-54988860D01*
X142746473Y-54846183D01*
X142776595Y-54721096D01*
X142804249Y-54599707D01*
X142808199Y-54564497D01*
X142766067Y-54529082D01*
X142640670Y-54575933D01*
X142518472Y-54643474D01*
X142412039Y-54708114D01*
X142291407Y-54785388D01*
X142212857Y-54837438D01*
X142206140Y-54935746D01*
X142319546Y-54874677D01*
X142431423Y-54820926D01*
X142461374Y-54816678D01*
X142503506Y-54875907D01*
X142483590Y-55004897D01*
X142449974Y-55138176D01*
X142440614Y-55173883D01*
X142398457Y-55329782D01*
X142364179Y-55457008D01*
X142329322Y-55588025D01*
X142296358Y-55718468D01*
X142276072Y-55843028D01*
X142275750Y-55874249D01*
X142310275Y-55992054D01*
X142360013Y-56014078D01*
X142482593Y-55976602D01*
X142590242Y-55917658D01*
X142699511Y-55849825D01*
X142805585Y-55782220D01*
X142899180Y-55720376D01*
X142996877Y-55660537D01*
X143010921Y-55562840D01*
G37*
G36*
X143336985Y-55921877D02*
G01*
X143543370Y-55086566D01*
X143630687Y-55029780D01*
X143739862Y-54960738D01*
X143843815Y-54895906D01*
X143951070Y-54832965D01*
X144044068Y-54802023D01*
X144078872Y-54848429D01*
X144060143Y-54973385D01*
X144031440Y-55100430D01*
X144000370Y-55231047D01*
X143968185Y-55364454D01*
X143949424Y-55441939D01*
X143917780Y-55571449D01*
X143886827Y-55702373D01*
X143862863Y-55824637D01*
X143858443Y-55886461D01*
X143891825Y-56010092D01*
X143910956Y-56045219D01*
X144025960Y-55987385D01*
X144140331Y-55920901D01*
X144244141Y-55855324D01*
X144353547Y-55781915D01*
X144466550Y-55702002D01*
X144558199Y-55634281D01*
X144582623Y-55534752D01*
X144469445Y-55600902D01*
X144346719Y-55671533D01*
X144235835Y-55730408D01*
X144183897Y-55744190D01*
X144127721Y-55648325D01*
X144143108Y-55512792D01*
X144174888Y-55378149D01*
X144213415Y-55230811D01*
X144255944Y-55072743D01*
X144295638Y-54926587D01*
X144330749Y-54800202D01*
X144365160Y-54675066D01*
X144383565Y-54588921D01*
X144317009Y-54529082D01*
X144196949Y-54561978D01*
X144072547Y-54633925D01*
X143948100Y-54710290D01*
X143851116Y-54770272D01*
X143744727Y-54837522D01*
X143638940Y-54904594D01*
X143578175Y-54944295D01*
X143609592Y-54823563D01*
X143639407Y-54696564D01*
X143662438Y-54574877D01*
X143616643Y-54529082D01*
X143497825Y-54576899D01*
X143371458Y-54642411D01*
X143262701Y-54702447D01*
X143142808Y-54771315D01*
X143067096Y-54816067D01*
X143046336Y-54908879D01*
X143165621Y-54854444D01*
X143280334Y-54807216D01*
X143315614Y-54802023D01*
X143357745Y-54852093D01*
X143340382Y-54980929D01*
X143314927Y-55104045D01*
X143286325Y-55227228D01*
X143251857Y-55365205D01*
X143220594Y-55483770D01*
X143203872Y-55545132D01*
X143123272Y-55833339D01*
X143091330Y-55956300D01*
X143074424Y-56024459D01*
X143336985Y-55921877D01*
G37*
X100574874Y-100185533D02*
X102098684Y-100185533D01*
X134322200Y-66190475D02*
X134369819Y-66047618D01*
X134369819Y-66047618D02*
X134369819Y-65809523D01*
X134369819Y-65809523D02*
X134322200Y-65714285D01*
X134322200Y-65714285D02*
X134274580Y-65666666D01*
X134274580Y-65666666D02*
X134179342Y-65619047D01*
X134179342Y-65619047D02*
X134084104Y-65619047D01*
X134084104Y-65619047D02*
X133988866Y-65666666D01*
X133988866Y-65666666D02*
X133941247Y-65714285D01*
X133941247Y-65714285D02*
X133893628Y-65809523D01*
X133893628Y-65809523D02*
X133846009Y-65999999D01*
X133846009Y-65999999D02*
X133798390Y-66095237D01*
X133798390Y-66095237D02*
X133750771Y-66142856D01*
X133750771Y-66142856D02*
X133655533Y-66190475D01*
X133655533Y-66190475D02*
X133560295Y-66190475D01*
X133560295Y-66190475D02*
X133465057Y-66142856D01*
X133465057Y-66142856D02*
X133417438Y-66095237D01*
X133417438Y-66095237D02*
X133369819Y-65999999D01*
X133369819Y-65999999D02*
X133369819Y-65761904D01*
X133369819Y-65761904D02*
X133417438Y-65619047D01*
X133846009Y-65190475D02*
X133846009Y-64857142D01*
X134369819Y-64714285D02*
X134369819Y-65190475D01*
X134369819Y-65190475D02*
X133369819Y-65190475D01*
X133369819Y-65190475D02*
X133369819Y-64714285D01*
X134369819Y-63714285D02*
X133893628Y-64047618D01*
X134369819Y-64285713D02*
X133369819Y-64285713D01*
X133369819Y-64285713D02*
X133369819Y-63904761D01*
X133369819Y-63904761D02*
X133417438Y-63809523D01*
X133417438Y-63809523D02*
X133465057Y-63761904D01*
X133465057Y-63761904D02*
X133560295Y-63714285D01*
X133560295Y-63714285D02*
X133703152Y-63714285D01*
X133703152Y-63714285D02*
X133798390Y-63761904D01*
X133798390Y-63761904D02*
X133846009Y-63809523D01*
X133846009Y-63809523D02*
X133893628Y-63904761D01*
X133893628Y-63904761D02*
X133893628Y-64285713D01*
X133369819Y-63428570D02*
X134369819Y-63095237D01*
X134369819Y-63095237D02*
X133369819Y-62761904D01*
X133369819Y-62238094D02*
X133369819Y-62047618D01*
X133369819Y-62047618D02*
X133417438Y-61952380D01*
X133417438Y-61952380D02*
X133512676Y-61857142D01*
X133512676Y-61857142D02*
X133703152Y-61809523D01*
X133703152Y-61809523D02*
X134036485Y-61809523D01*
X134036485Y-61809523D02*
X134226961Y-61857142D01*
X134226961Y-61857142D02*
X134322200Y-61952380D01*
X134322200Y-61952380D02*
X134369819Y-62047618D01*
X134369819Y-62047618D02*
X134369819Y-62238094D01*
X134369819Y-62238094D02*
X134322200Y-62333332D01*
X134322200Y-62333332D02*
X134226961Y-62428570D01*
X134226961Y-62428570D02*
X134036485Y-62476189D01*
X134036485Y-62476189D02*
X133703152Y-62476189D01*
X133703152Y-62476189D02*
X133512676Y-62428570D01*
X133512676Y-62428570D02*
X133417438Y-62333332D01*
X133417438Y-62333332D02*
X133369819Y-62238094D01*
X134369819Y-61380951D02*
X133369819Y-61380951D01*
X133369819Y-61380951D02*
X133369819Y-61142856D01*
X133369819Y-61142856D02*
X133417438Y-60999999D01*
X133417438Y-60999999D02*
X133512676Y-60904761D01*
X133512676Y-60904761D02*
X133607914Y-60857142D01*
X133607914Y-60857142D02*
X133798390Y-60809523D01*
X133798390Y-60809523D02*
X133941247Y-60809523D01*
X133941247Y-60809523D02*
X134131723Y-60857142D01*
X134131723Y-60857142D02*
X134226961Y-60904761D01*
X134226961Y-60904761D02*
X134322200Y-60999999D01*
X134322200Y-60999999D02*
X134369819Y-61142856D01*
X134369819Y-61142856D02*
X134369819Y-61380951D01*
X134322200Y-87119047D02*
X134369819Y-86976190D01*
X134369819Y-86976190D02*
X134369819Y-86738095D01*
X134369819Y-86738095D02*
X134322200Y-86642857D01*
X134322200Y-86642857D02*
X134274580Y-86595238D01*
X134274580Y-86595238D02*
X134179342Y-86547619D01*
X134179342Y-86547619D02*
X134084104Y-86547619D01*
X134084104Y-86547619D02*
X133988866Y-86595238D01*
X133988866Y-86595238D02*
X133941247Y-86642857D01*
X133941247Y-86642857D02*
X133893628Y-86738095D01*
X133893628Y-86738095D02*
X133846009Y-86928571D01*
X133846009Y-86928571D02*
X133798390Y-87023809D01*
X133798390Y-87023809D02*
X133750771Y-87071428D01*
X133750771Y-87071428D02*
X133655533Y-87119047D01*
X133655533Y-87119047D02*
X133560295Y-87119047D01*
X133560295Y-87119047D02*
X133465057Y-87071428D01*
X133465057Y-87071428D02*
X133417438Y-87023809D01*
X133417438Y-87023809D02*
X133369819Y-86928571D01*
X133369819Y-86928571D02*
X133369819Y-86690476D01*
X133369819Y-86690476D02*
X133417438Y-86547619D01*
X133846009Y-86119047D02*
X133846009Y-85785714D01*
X134369819Y-85642857D02*
X134369819Y-86119047D01*
X134369819Y-86119047D02*
X133369819Y-86119047D01*
X133369819Y-86119047D02*
X133369819Y-85642857D01*
X134369819Y-84642857D02*
X133893628Y-84976190D01*
X134369819Y-85214285D02*
X133369819Y-85214285D01*
X133369819Y-85214285D02*
X133369819Y-84833333D01*
X133369819Y-84833333D02*
X133417438Y-84738095D01*
X133417438Y-84738095D02*
X133465057Y-84690476D01*
X133465057Y-84690476D02*
X133560295Y-84642857D01*
X133560295Y-84642857D02*
X133703152Y-84642857D01*
X133703152Y-84642857D02*
X133798390Y-84690476D01*
X133798390Y-84690476D02*
X133846009Y-84738095D01*
X133846009Y-84738095D02*
X133893628Y-84833333D01*
X133893628Y-84833333D02*
X133893628Y-85214285D01*
X133369819Y-84357142D02*
X134369819Y-84023809D01*
X134369819Y-84023809D02*
X133369819Y-83690476D01*
X133369819Y-83166666D02*
X133369819Y-82976190D01*
X133369819Y-82976190D02*
X133417438Y-82880952D01*
X133417438Y-82880952D02*
X133512676Y-82785714D01*
X133512676Y-82785714D02*
X133703152Y-82738095D01*
X133703152Y-82738095D02*
X134036485Y-82738095D01*
X134036485Y-82738095D02*
X134226961Y-82785714D01*
X134226961Y-82785714D02*
X134322200Y-82880952D01*
X134322200Y-82880952D02*
X134369819Y-82976190D01*
X134369819Y-82976190D02*
X134369819Y-83166666D01*
X134369819Y-83166666D02*
X134322200Y-83261904D01*
X134322200Y-83261904D02*
X134226961Y-83357142D01*
X134226961Y-83357142D02*
X134036485Y-83404761D01*
X134036485Y-83404761D02*
X133703152Y-83404761D01*
X133703152Y-83404761D02*
X133512676Y-83357142D01*
X133512676Y-83357142D02*
X133417438Y-83261904D01*
X133417438Y-83261904D02*
X133369819Y-83166666D01*
X134084104Y-82357142D02*
X134084104Y-81880952D01*
X134369819Y-82452380D02*
X133369819Y-82119047D01*
X133369819Y-82119047D02*
X134369819Y-81785714D01*
D11*
X136285714Y-115110809D02*
X136571428Y-115910809D01*
X136571428Y-115910809D02*
X136857143Y-115110809D01*
X137257143Y-114825095D02*
X137314286Y-114767952D01*
X137314286Y-114767952D02*
X137428572Y-114710809D01*
X137428572Y-114710809D02*
X137714286Y-114710809D01*
X137714286Y-114710809D02*
X137828572Y-114767952D01*
X137828572Y-114767952D02*
X137885714Y-114825095D01*
X137885714Y-114825095D02*
X137942857Y-114939381D01*
X137942857Y-114939381D02*
X137942857Y-115053667D01*
X137942857Y-115053667D02*
X137885714Y-115225095D01*
X137885714Y-115225095D02*
X137200000Y-115910809D01*
X137200000Y-115910809D02*
X137942857Y-115910809D01*
X138457143Y-115796524D02*
X138514286Y-115853667D01*
X138514286Y-115853667D02*
X138457143Y-115910809D01*
X138457143Y-115910809D02*
X138400000Y-115853667D01*
X138400000Y-115853667D02*
X138457143Y-115796524D01*
X138457143Y-115796524D02*
X138457143Y-115910809D01*
X139257143Y-114710809D02*
X139371429Y-114710809D01*
X139371429Y-114710809D02*
X139485715Y-114767952D01*
X139485715Y-114767952D02*
X139542858Y-114825095D01*
X139542858Y-114825095D02*
X139600000Y-114939381D01*
X139600000Y-114939381D02*
X139657143Y-115167952D01*
X139657143Y-115167952D02*
X139657143Y-115453667D01*
X139657143Y-115453667D02*
X139600000Y-115682238D01*
X139600000Y-115682238D02*
X139542858Y-115796524D01*
X139542858Y-115796524D02*
X139485715Y-115853667D01*
X139485715Y-115853667D02*
X139371429Y-115910809D01*
X139371429Y-115910809D02*
X139257143Y-115910809D01*
X139257143Y-115910809D02*
X139142858Y-115853667D01*
X139142858Y-115853667D02*
X139085715Y-115796524D01*
X139085715Y-115796524D02*
X139028572Y-115682238D01*
X139028572Y-115682238D02*
X138971429Y-115453667D01*
X138971429Y-115453667D02*
X138971429Y-115167952D01*
X138971429Y-115167952D02*
X139028572Y-114939381D01*
X139028572Y-114939381D02*
X139085715Y-114825095D01*
X139085715Y-114825095D02*
X139142858Y-114767952D01*
X139142858Y-114767952D02*
X139257143Y-114710809D01*
X133371428Y-116642742D02*
X133485714Y-116642742D01*
X133485714Y-116642742D02*
X133600000Y-116699885D01*
X133600000Y-116699885D02*
X133657143Y-116757028D01*
X133657143Y-116757028D02*
X133714285Y-116871314D01*
X133714285Y-116871314D02*
X133771428Y-117099885D01*
X133771428Y-117099885D02*
X133771428Y-117385600D01*
X133771428Y-117385600D02*
X133714285Y-117614171D01*
X133714285Y-117614171D02*
X133657143Y-117728457D01*
X133657143Y-117728457D02*
X133600000Y-117785600D01*
X133600000Y-117785600D02*
X133485714Y-117842742D01*
X133485714Y-117842742D02*
X133371428Y-117842742D01*
X133371428Y-117842742D02*
X133257143Y-117785600D01*
X133257143Y-117785600D02*
X133200000Y-117728457D01*
X133200000Y-117728457D02*
X133142857Y-117614171D01*
X133142857Y-117614171D02*
X133085714Y-117385600D01*
X133085714Y-117385600D02*
X133085714Y-117099885D01*
X133085714Y-117099885D02*
X133142857Y-116871314D01*
X133142857Y-116871314D02*
X133200000Y-116757028D01*
X133200000Y-116757028D02*
X133257143Y-116699885D01*
X133257143Y-116699885D02*
X133371428Y-116642742D01*
X134171428Y-116642742D02*
X134971428Y-116642742D01*
X134971428Y-116642742D02*
X134457142Y-117842742D01*
X135428571Y-117728457D02*
X135485714Y-117785600D01*
X135485714Y-117785600D02*
X135428571Y-117842742D01*
X135428571Y-117842742D02*
X135371428Y-117785600D01*
X135371428Y-117785600D02*
X135428571Y-117728457D01*
X135428571Y-117728457D02*
X135428571Y-117842742D01*
X136228571Y-116642742D02*
X136342857Y-116642742D01*
X136342857Y-116642742D02*
X136457143Y-116699885D01*
X136457143Y-116699885D02*
X136514286Y-116757028D01*
X136514286Y-116757028D02*
X136571428Y-116871314D01*
X136571428Y-116871314D02*
X136628571Y-117099885D01*
X136628571Y-117099885D02*
X136628571Y-117385600D01*
X136628571Y-117385600D02*
X136571428Y-117614171D01*
X136571428Y-117614171D02*
X136514286Y-117728457D01*
X136514286Y-117728457D02*
X136457143Y-117785600D01*
X136457143Y-117785600D02*
X136342857Y-117842742D01*
X136342857Y-117842742D02*
X136228571Y-117842742D01*
X136228571Y-117842742D02*
X136114286Y-117785600D01*
X136114286Y-117785600D02*
X136057143Y-117728457D01*
X136057143Y-117728457D02*
X136000000Y-117614171D01*
X136000000Y-117614171D02*
X135942857Y-117385600D01*
X135942857Y-117385600D02*
X135942857Y-117099885D01*
X135942857Y-117099885D02*
X136000000Y-116871314D01*
X136000000Y-116871314D02*
X136057143Y-116757028D01*
X136057143Y-116757028D02*
X136114286Y-116699885D01*
X136114286Y-116699885D02*
X136228571Y-116642742D01*
X137657143Y-117042742D02*
X137657143Y-117842742D01*
X137371428Y-116585600D02*
X137085714Y-117442742D01*
X137085714Y-117442742D02*
X137828571Y-117442742D01*
X138285714Y-117728457D02*
X138342857Y-117785600D01*
X138342857Y-117785600D02*
X138285714Y-117842742D01*
X138285714Y-117842742D02*
X138228571Y-117785600D01*
X138228571Y-117785600D02*
X138285714Y-117728457D01*
X138285714Y-117728457D02*
X138285714Y-117842742D01*
X138800000Y-116757028D02*
X138857143Y-116699885D01*
X138857143Y-116699885D02*
X138971429Y-116642742D01*
X138971429Y-116642742D02*
X139257143Y-116642742D01*
X139257143Y-116642742D02*
X139371429Y-116699885D01*
X139371429Y-116699885D02*
X139428571Y-116757028D01*
X139428571Y-116757028D02*
X139485714Y-116871314D01*
X139485714Y-116871314D02*
X139485714Y-116985600D01*
X139485714Y-116985600D02*
X139428571Y-117157028D01*
X139428571Y-117157028D02*
X138742857Y-117842742D01*
X138742857Y-117842742D02*
X139485714Y-117842742D01*
X140228571Y-116642742D02*
X140342857Y-116642742D01*
X140342857Y-116642742D02*
X140457143Y-116699885D01*
X140457143Y-116699885D02*
X140514286Y-116757028D01*
X140514286Y-116757028D02*
X140571428Y-116871314D01*
X140571428Y-116871314D02*
X140628571Y-117099885D01*
X140628571Y-117099885D02*
X140628571Y-117385600D01*
X140628571Y-117385600D02*
X140571428Y-117614171D01*
X140571428Y-117614171D02*
X140514286Y-117728457D01*
X140514286Y-117728457D02*
X140457143Y-117785600D01*
X140457143Y-117785600D02*
X140342857Y-117842742D01*
X140342857Y-117842742D02*
X140228571Y-117842742D01*
X140228571Y-117842742D02*
X140114286Y-117785600D01*
X140114286Y-117785600D02*
X140057143Y-117728457D01*
X140057143Y-117728457D02*
X140000000Y-117614171D01*
X140000000Y-117614171D02*
X139942857Y-117385600D01*
X139942857Y-117385600D02*
X139942857Y-117099885D01*
X139942857Y-117099885D02*
X140000000Y-116871314D01*
X140000000Y-116871314D02*
X140057143Y-116757028D01*
X140057143Y-116757028D02*
X140114286Y-116699885D01*
X140114286Y-116699885D02*
X140228571Y-116642742D01*
X141085714Y-116757028D02*
X141142857Y-116699885D01*
X141142857Y-116699885D02*
X141257143Y-116642742D01*
X141257143Y-116642742D02*
X141542857Y-116642742D01*
X141542857Y-116642742D02*
X141657143Y-116699885D01*
X141657143Y-116699885D02*
X141714285Y-116757028D01*
X141714285Y-116757028D02*
X141771428Y-116871314D01*
X141771428Y-116871314D02*
X141771428Y-116985600D01*
X141771428Y-116985600D02*
X141714285Y-117157028D01*
X141714285Y-117157028D02*
X141028571Y-117842742D01*
X141028571Y-117842742D02*
X141771428Y-117842742D01*
X142800000Y-117042742D02*
X142800000Y-117842742D01*
X142514285Y-116585600D02*
X142228571Y-117442742D01*
X142228571Y-117442742D02*
X142971428Y-117442742D01*
D10*
X146015601Y-89702438D02*
X145920363Y-89654819D01*
X145920363Y-89654819D02*
X145777506Y-89654819D01*
X145777506Y-89654819D02*
X145634649Y-89702438D01*
X145634649Y-89702438D02*
X145539411Y-89797676D01*
X145539411Y-89797676D02*
X145491792Y-89892914D01*
X145491792Y-89892914D02*
X145444173Y-90083390D01*
X145444173Y-90083390D02*
X145444173Y-90226247D01*
X145444173Y-90226247D02*
X145491792Y-90416723D01*
X145491792Y-90416723D02*
X145539411Y-90511961D01*
X145539411Y-90511961D02*
X145634649Y-90607200D01*
X145634649Y-90607200D02*
X145777506Y-90654819D01*
X145777506Y-90654819D02*
X145872744Y-90654819D01*
X145872744Y-90654819D02*
X146015601Y-90607200D01*
X146015601Y-90607200D02*
X146063220Y-90559580D01*
X146063220Y-90559580D02*
X146063220Y-90226247D01*
X146063220Y-90226247D02*
X145872744Y-90226247D01*
X146491792Y-90654819D02*
X146491792Y-89654819D01*
X146491792Y-89654819D02*
X147063220Y-90654819D01*
X147063220Y-90654819D02*
X147063220Y-89654819D01*
X147539411Y-90654819D02*
X147539411Y-89654819D01*
X147539411Y-89654819D02*
X147777506Y-89654819D01*
X147777506Y-89654819D02*
X147920363Y-89702438D01*
X147920363Y-89702438D02*
X148015601Y-89797676D01*
X148015601Y-89797676D02*
X148063220Y-89892914D01*
X148063220Y-89892914D02*
X148110839Y-90083390D01*
X148110839Y-90083390D02*
X148110839Y-90226247D01*
X148110839Y-90226247D02*
X148063220Y-90416723D01*
X148063220Y-90416723D02*
X148015601Y-90511961D01*
X148015601Y-90511961D02*
X147920363Y-90607200D01*
X147920363Y-90607200D02*
X147777506Y-90654819D01*
X147777506Y-90654819D02*
X147539411Y-90654819D01*
G36*
X135536985Y-52132362D02*
G01*
X135610258Y-52132362D01*
X135771458Y-52034665D01*
X135640912Y-52027261D01*
X135509653Y-52022898D01*
X135381413Y-52020119D01*
X135238312Y-52018178D01*
X135114568Y-52017267D01*
X134983775Y-52016957D01*
X134770062Y-52125645D01*
X134770062Y-52153733D01*
X134902812Y-52146272D01*
X135032471Y-52140300D01*
X135158695Y-52135701D01*
X135281140Y-52132362D01*
X135155355Y-52636113D01*
X135049464Y-52721116D01*
X134933986Y-52789804D01*
X134815286Y-52839186D01*
X134683850Y-52868146D01*
X134637561Y-52870586D01*
X134502427Y-52849776D01*
X134390597Y-52789635D01*
X134304512Y-52693590D01*
X134246610Y-52565072D01*
X134221646Y-52435642D01*
X134217463Y-52349127D01*
X134222733Y-52221917D01*
X134238130Y-52096633D01*
X134263034Y-51974141D01*
X134296823Y-51855308D01*
X134362808Y-51685816D01*
X134445294Y-51529432D01*
X134542186Y-51389082D01*
X134651387Y-51267691D01*
X134770805Y-51168183D01*
X134898343Y-51093485D01*
X135031906Y-51046521D01*
X135169399Y-51030216D01*
X135296742Y-51047158D01*
X135414896Y-51102943D01*
X135501570Y-51194469D01*
X135555444Y-51311907D01*
X135580049Y-51431923D01*
X135585833Y-51471074D01*
X135844731Y-51180425D01*
X135791669Y-51066777D01*
X135703415Y-50976069D01*
X135578138Y-50923201D01*
X135455132Y-50905901D01*
X135383112Y-50903820D01*
X135240644Y-50911177D01*
X135102376Y-50933139D01*
X134968559Y-50969540D01*
X134839443Y-51020217D01*
X134715278Y-51085005D01*
X134596316Y-51163738D01*
X134482806Y-51256254D01*
X134375000Y-51362386D01*
X134273618Y-51482023D01*
X134182992Y-51611027D01*
X134103972Y-51747315D01*
X134037410Y-51888806D01*
X133984157Y-52033416D01*
X133945065Y-52179064D01*
X133920986Y-52323667D01*
X133912770Y-52465143D01*
X133926098Y-52614453D01*
X133965009Y-52742896D01*
X134027897Y-52848653D01*
X134132750Y-52943058D01*
X134267037Y-52999041D01*
X134399424Y-53014078D01*
X134538437Y-53006027D01*
X134678004Y-52979469D01*
X134806068Y-52939243D01*
X134923808Y-52891675D01*
X135055666Y-52829935D01*
X135113224Y-52800976D01*
X135082864Y-52919769D01*
X135046869Y-53053960D01*
X135012736Y-53173441D01*
X134972375Y-53297856D01*
X134966067Y-53313886D01*
X134907000Y-53434892D01*
X134820128Y-53524867D01*
X134705119Y-53570602D01*
X134609473Y-53578890D01*
X134486047Y-53574358D01*
X134359065Y-53563852D01*
X134231507Y-53547749D01*
X134084351Y-53778558D01*
X134207718Y-53790765D01*
X134336531Y-53795655D01*
X134464710Y-53786391D01*
X134587590Y-53758394D01*
X134705952Y-53711357D01*
X134820581Y-53644971D01*
X134932257Y-53558931D01*
X135041765Y-53452927D01*
X135085136Y-53404867D01*
X135161531Y-53307758D01*
X135233887Y-53186877D01*
X135287247Y-53063698D01*
X135329426Y-52938525D01*
X135363755Y-52818886D01*
X135400209Y-52678244D01*
X135536985Y-52132362D01*
G37*
G36*
X136855582Y-51529461D02*
G01*
X136989063Y-51536731D01*
X137122063Y-51554702D01*
X137254012Y-51581594D01*
X137230992Y-51607607D01*
X137152651Y-51707990D01*
X137117558Y-51839877D01*
X137085198Y-51965046D01*
X137046573Y-52120115D01*
X137013458Y-52259945D01*
X136986226Y-52382656D01*
X136961023Y-52509103D01*
X136942602Y-52650157D01*
X136984734Y-52720376D01*
X137012883Y-52714206D01*
X137120654Y-52653532D01*
X137228429Y-52582386D01*
X137334612Y-52510327D01*
X137330949Y-52615352D01*
X137234083Y-52685359D01*
X137124737Y-52761769D01*
X137015875Y-52835781D01*
X136932550Y-52890776D01*
X136816761Y-52964645D01*
X136694085Y-53014078D01*
X136637909Y-52940806D01*
X136642341Y-52884469D01*
X136663529Y-52759449D01*
X136690422Y-52629396D01*
X136650367Y-52658220D01*
X136540978Y-52736386D01*
X136418339Y-52822424D01*
X136297698Y-52903649D01*
X136178191Y-52975438D01*
X136060275Y-53014078D01*
X135982286Y-52976724D01*
X135929556Y-52861533D01*
X135916782Y-52734420D01*
X135926705Y-52589469D01*
X135929927Y-52569556D01*
X136186671Y-52569556D01*
X136194006Y-52652317D01*
X136277651Y-52744801D01*
X136307757Y-52740091D01*
X136419737Y-52690810D01*
X136529221Y-52625732D01*
X136613130Y-52563494D01*
X136718510Y-52485293D01*
X136750261Y-52366224D01*
X136754120Y-52349207D01*
X136781679Y-52223685D01*
X136809490Y-52100000D01*
X136839726Y-51983303D01*
X136872637Y-51861841D01*
X136907187Y-51736078D01*
X136863856Y-51726046D01*
X136738812Y-51702647D01*
X136609822Y-51690282D01*
X136577404Y-51692267D01*
X136465123Y-51743576D01*
X136384608Y-51846821D01*
X136330163Y-51956507D01*
X136283137Y-52073308D01*
X136244780Y-52192823D01*
X136215648Y-52311838D01*
X136194062Y-52445773D01*
X136186671Y-52569556D01*
X135929927Y-52569556D01*
X135947411Y-52461516D01*
X135977511Y-52329431D01*
X136015204Y-52199239D01*
X136058686Y-52076964D01*
X136118431Y-51944433D01*
X136193387Y-51830722D01*
X136203125Y-51820784D01*
X136301223Y-51739919D01*
X136403386Y-51667690D01*
X136512124Y-51599302D01*
X136567918Y-51568190D01*
X136687481Y-51535201D01*
X136813154Y-51529082D01*
X136855582Y-51529461D01*
G37*
G36*
X137402390Y-53014078D02*
G01*
X137650907Y-52919434D01*
X137875000Y-52062142D01*
X137975772Y-51992974D01*
X138080996Y-51924789D01*
X138192744Y-51859616D01*
X138298150Y-51818510D01*
X138343946Y-51896057D01*
X138326083Y-52021702D01*
X138294068Y-52169842D01*
X138258995Y-52314933D01*
X138228087Y-52435555D01*
X138193888Y-52563651D01*
X138156986Y-52696843D01*
X138117970Y-52832752D01*
X138077428Y-52968999D01*
X138063677Y-53014078D01*
X138329902Y-52919434D01*
X138546667Y-52037107D01*
X138656980Y-51966777D01*
X138775662Y-51895652D01*
X138887525Y-51834975D01*
X138977145Y-51800802D01*
X139022941Y-51867969D01*
X139007936Y-51995974D01*
X138982969Y-52117808D01*
X138950244Y-52257235D01*
X138914065Y-52401831D01*
X138897156Y-52467585D01*
X138867512Y-52593898D01*
X138842354Y-52713507D01*
X138827148Y-52840595D01*
X138826936Y-52855931D01*
X138865942Y-52976597D01*
X138911200Y-53014078D01*
X139024542Y-52954338D01*
X139136589Y-52889067D01*
X139247460Y-52818145D01*
X139357277Y-52741452D01*
X139466160Y-52658866D01*
X139502267Y-52630006D01*
X139505931Y-52548796D01*
X139387000Y-52622188D01*
X139278588Y-52687717D01*
X139164164Y-52732583D01*
X139159717Y-52732588D01*
X139096214Y-52640997D01*
X139113441Y-52506520D01*
X139143053Y-52372122D01*
X139174087Y-52249988D01*
X139212229Y-52110990D01*
X139250004Y-51978198D01*
X139286483Y-51847999D01*
X139320383Y-51720812D01*
X139344126Y-51598445D01*
X139344731Y-51581594D01*
X139289166Y-51529082D01*
X139167041Y-51570267D01*
X139049679Y-51628936D01*
X138922416Y-51698386D01*
X138800386Y-51767866D01*
X138659663Y-51850075D01*
X138582083Y-51896057D01*
X138609045Y-51775328D01*
X138627267Y-51694556D01*
X138651424Y-51573133D01*
X138651692Y-51568161D01*
X138606507Y-51529082D01*
X138477541Y-51577290D01*
X138360441Y-51643521D01*
X138253771Y-51707976D01*
X138120129Y-51791043D01*
X138000087Y-51866779D01*
X137909804Y-51924145D01*
X137941290Y-51788388D01*
X137969543Y-51660823D01*
X137983077Y-51578541D01*
X137930565Y-51529082D01*
X137810330Y-51577442D01*
X137698080Y-51639768D01*
X137682048Y-51648761D01*
X137574624Y-51711319D01*
X137465581Y-51775575D01*
X137388346Y-51825226D01*
X137363921Y-51924145D01*
X137476760Y-51867454D01*
X137590695Y-51821620D01*
X137622819Y-51818510D01*
X137671667Y-51885066D01*
X137652561Y-52008837D01*
X137624605Y-52128079D01*
X137587244Y-52280722D01*
X137557470Y-52400921D01*
X137521458Y-52545743D01*
X137487090Y-52673985D01*
X137457311Y-52793142D01*
X137433531Y-52891346D01*
X137402390Y-53014078D01*
G37*
G36*
X139571266Y-53014078D02*
G01*
X139819783Y-52919434D01*
X140043876Y-52062142D01*
X140144649Y-51992974D01*
X140249873Y-51924789D01*
X140361621Y-51859616D01*
X140467027Y-51818510D01*
X140512822Y-51896057D01*
X140494960Y-52021702D01*
X140462944Y-52169842D01*
X140427872Y-52314933D01*
X140396964Y-52435555D01*
X140362765Y-52563651D01*
X140325862Y-52696843D01*
X140286846Y-52832752D01*
X140246305Y-52968999D01*
X140232554Y-53014078D01*
X140498778Y-52919434D01*
X140715544Y-52037107D01*
X140825857Y-51966777D01*
X140944539Y-51895652D01*
X141056401Y-51834975D01*
X141146022Y-51800802D01*
X141191817Y-51867969D01*
X141176812Y-51995974D01*
X141151846Y-52117808D01*
X141119120Y-52257235D01*
X141082941Y-52401831D01*
X141066032Y-52467585D01*
X141036389Y-52593898D01*
X141011230Y-52713507D01*
X140996024Y-52840595D01*
X140995812Y-52855931D01*
X141034819Y-52976597D01*
X141080076Y-53014078D01*
X141193419Y-52954338D01*
X141305465Y-52889067D01*
X141416337Y-52818145D01*
X141526153Y-52741452D01*
X141635036Y-52658866D01*
X141671144Y-52630006D01*
X141674808Y-52548796D01*
X141555876Y-52622188D01*
X141447465Y-52687717D01*
X141333040Y-52732583D01*
X141328593Y-52732588D01*
X141265090Y-52640997D01*
X141282317Y-52506520D01*
X141311929Y-52372122D01*
X141342963Y-52249988D01*
X141381106Y-52110990D01*
X141418881Y-51978198D01*
X141455359Y-51847999D01*
X141489259Y-51720812D01*
X141513002Y-51598445D01*
X141513607Y-51581594D01*
X141458042Y-51529082D01*
X141335918Y-51570267D01*
X141218556Y-51628936D01*
X141091293Y-51698386D01*
X140969263Y-51767866D01*
X140828539Y-51850075D01*
X140750959Y-51896057D01*
X140777921Y-51775328D01*
X140796144Y-51694556D01*
X140820300Y-51573133D01*
X140820568Y-51568161D01*
X140775383Y-51529082D01*
X140646417Y-51577290D01*
X140529317Y-51643521D01*
X140422648Y-51707976D01*
X140289006Y-51791043D01*
X140168964Y-51866779D01*
X140078681Y-51924145D01*
X140110166Y-51788388D01*
X140138419Y-51660823D01*
X140151953Y-51578541D01*
X140099441Y-51529082D01*
X139979207Y-51577442D01*
X139866957Y-51639768D01*
X139850924Y-51648761D01*
X139743501Y-51711319D01*
X139634458Y-51775575D01*
X139557222Y-51825226D01*
X139532798Y-51924145D01*
X139645636Y-51867454D01*
X139759572Y-51821620D01*
X139791695Y-51818510D01*
X139840544Y-51885066D01*
X139821438Y-52008837D01*
X139793481Y-52128079D01*
X139756120Y-52280722D01*
X139726346Y-52400921D01*
X139690334Y-52545743D01*
X139655966Y-52673985D01*
X139626188Y-52793142D01*
X139602407Y-52891346D01*
X139571266Y-53014078D01*
G37*
G36*
X142661234Y-51529461D02*
G01*
X142794715Y-51536731D01*
X142927716Y-51554702D01*
X143059665Y-51581594D01*
X143036645Y-51607607D01*
X142958304Y-51707990D01*
X142923210Y-51839877D01*
X142890850Y-51965046D01*
X142852226Y-52120115D01*
X142819111Y-52259945D01*
X142791878Y-52382656D01*
X142766675Y-52509103D01*
X142748255Y-52650157D01*
X142790387Y-52720376D01*
X142818536Y-52714206D01*
X142926307Y-52653532D01*
X143034081Y-52582386D01*
X143140265Y-52510327D01*
X143136601Y-52615352D01*
X143039736Y-52685359D01*
X142930389Y-52761769D01*
X142821528Y-52835781D01*
X142738203Y-52890776D01*
X142622414Y-52964645D01*
X142499738Y-53014078D01*
X142443562Y-52940806D01*
X142447993Y-52884469D01*
X142469182Y-52759449D01*
X142496074Y-52629396D01*
X142456020Y-52658220D01*
X142346630Y-52736386D01*
X142223991Y-52822424D01*
X142103351Y-52903649D01*
X141983844Y-52975438D01*
X141865928Y-53014078D01*
X141787938Y-52976724D01*
X141735209Y-52861533D01*
X141722435Y-52734420D01*
X141732358Y-52589469D01*
X141735580Y-52569556D01*
X141992323Y-52569556D01*
X141999659Y-52652317D01*
X142083304Y-52744801D01*
X142113409Y-52740091D01*
X142225389Y-52690810D01*
X142334874Y-52625732D01*
X142418783Y-52563494D01*
X142524162Y-52485293D01*
X142555914Y-52366224D01*
X142559772Y-52349207D01*
X142587331Y-52223685D01*
X142615143Y-52100000D01*
X142645378Y-51983303D01*
X142678289Y-51861841D01*
X142712840Y-51736078D01*
X142669508Y-51726046D01*
X142544465Y-51702647D01*
X142415474Y-51690282D01*
X142383057Y-51692267D01*
X142270775Y-51743576D01*
X142190260Y-51846821D01*
X142135816Y-51956507D01*
X142088789Y-52073308D01*
X142050432Y-52192823D01*
X142021301Y-52311838D01*
X141999715Y-52445773D01*
X141992323Y-52569556D01*
X141735580Y-52569556D01*
X141753063Y-52461516D01*
X141783164Y-52329431D01*
X141820857Y-52199239D01*
X141864338Y-52076964D01*
X141924084Y-51944433D01*
X141999040Y-51830722D01*
X142008778Y-51820784D01*
X142106875Y-51739919D01*
X142209039Y-51667690D01*
X142317777Y-51599302D01*
X142373570Y-51568190D01*
X142493133Y-51535201D01*
X142618806Y-51529082D01*
X142661234Y-51529461D01*
G37*
G36*
X143319783Y-52378436D02*
G01*
X143628140Y-52371720D01*
X143756057Y-52376719D01*
X143778349Y-52378436D01*
X143849914Y-52270102D01*
X143925503Y-52170572D01*
X143935886Y-52158007D01*
X143904745Y-52158007D01*
X143617759Y-52154344D01*
X143490977Y-52156544D01*
X143456559Y-52158007D01*
X143376493Y-52251277D01*
X143305307Y-52352434D01*
X143288642Y-52378436D01*
X143319783Y-52378436D01*
G37*
X144634649Y-95654819D02*
X144634649Y-94654819D01*
X144634649Y-94654819D02*
X145206077Y-95654819D01*
X145206077Y-95654819D02*
X145206077Y-94654819D01*
X146253696Y-95654819D02*
X145920363Y-95178628D01*
X145682268Y-95654819D02*
X145682268Y-94654819D01*
X145682268Y-94654819D02*
X146063220Y-94654819D01*
X146063220Y-94654819D02*
X146158458Y-94702438D01*
X146158458Y-94702438D02*
X146206077Y-94750057D01*
X146206077Y-94750057D02*
X146253696Y-94845295D01*
X146253696Y-94845295D02*
X146253696Y-94988152D01*
X146253696Y-94988152D02*
X146206077Y-95083390D01*
X146206077Y-95083390D02*
X146158458Y-95131009D01*
X146158458Y-95131009D02*
X146063220Y-95178628D01*
X146063220Y-95178628D02*
X145682268Y-95178628D01*
X146682268Y-95131009D02*
X147015601Y-95131009D01*
X147158458Y-95654819D02*
X146682268Y-95654819D01*
X146682268Y-95654819D02*
X146682268Y-94654819D01*
X146682268Y-94654819D02*
X147158458Y-94654819D01*
X147539411Y-95607200D02*
X147682268Y-95654819D01*
X147682268Y-95654819D02*
X147920363Y-95654819D01*
X147920363Y-95654819D02*
X148015601Y-95607200D01*
X148015601Y-95607200D02*
X148063220Y-95559580D01*
X148063220Y-95559580D02*
X148110839Y-95464342D01*
X148110839Y-95464342D02*
X148110839Y-95369104D01*
X148110839Y-95369104D02*
X148063220Y-95273866D01*
X148063220Y-95273866D02*
X148015601Y-95226247D01*
X148015601Y-95226247D02*
X147920363Y-95178628D01*
X147920363Y-95178628D02*
X147729887Y-95131009D01*
X147729887Y-95131009D02*
X147634649Y-95083390D01*
X147634649Y-95083390D02*
X147587030Y-95035771D01*
X147587030Y-95035771D02*
X147539411Y-94940533D01*
X147539411Y-94940533D02*
X147539411Y-94845295D01*
X147539411Y-94845295D02*
X147587030Y-94750057D01*
X147587030Y-94750057D02*
X147634649Y-94702438D01*
X147634649Y-94702438D02*
X147729887Y-94654819D01*
X147729887Y-94654819D02*
X147967982Y-94654819D01*
X147967982Y-94654819D02*
X148110839Y-94702438D01*
X135754819Y-84927255D02*
X136564342Y-84927255D01*
X136564342Y-84927255D02*
X136659580Y-84879636D01*
X136659580Y-84879636D02*
X136707200Y-84832017D01*
X136707200Y-84832017D02*
X136754819Y-84736779D01*
X136754819Y-84736779D02*
X136754819Y-84546303D01*
X136754819Y-84546303D02*
X136707200Y-84451065D01*
X136707200Y-84451065D02*
X136659580Y-84403446D01*
X136659580Y-84403446D02*
X136564342Y-84355827D01*
X136564342Y-84355827D02*
X135754819Y-84355827D01*
X136469104Y-83927255D02*
X136469104Y-83451065D01*
X136754819Y-84022493D02*
X135754819Y-83689160D01*
X135754819Y-83689160D02*
X136754819Y-83355827D01*
X136754819Y-82451065D02*
X136278628Y-82784398D01*
X136754819Y-83022493D02*
X135754819Y-83022493D01*
X135754819Y-83022493D02*
X135754819Y-82641541D01*
X135754819Y-82641541D02*
X135802438Y-82546303D01*
X135802438Y-82546303D02*
X135850057Y-82498684D01*
X135850057Y-82498684D02*
X135945295Y-82451065D01*
X135945295Y-82451065D02*
X136088152Y-82451065D01*
X136088152Y-82451065D02*
X136183390Y-82498684D01*
X136183390Y-82498684D02*
X136231009Y-82546303D01*
X136231009Y-82546303D02*
X136278628Y-82641541D01*
X136278628Y-82641541D02*
X136278628Y-83022493D01*
X135754819Y-82165350D02*
X135754819Y-81593922D01*
X136754819Y-81879636D02*
X135754819Y-81879636D01*
X144920364Y-108354819D02*
X144920364Y-107354819D01*
X144920364Y-107354819D02*
X145253697Y-108069104D01*
X145253697Y-108069104D02*
X145587030Y-107354819D01*
X145587030Y-107354819D02*
X145587030Y-108354819D01*
X146253697Y-107354819D02*
X146444173Y-107354819D01*
X146444173Y-107354819D02*
X146539411Y-107402438D01*
X146539411Y-107402438D02*
X146634649Y-107497676D01*
X146634649Y-107497676D02*
X146682268Y-107688152D01*
X146682268Y-107688152D02*
X146682268Y-108021485D01*
X146682268Y-108021485D02*
X146634649Y-108211961D01*
X146634649Y-108211961D02*
X146539411Y-108307200D01*
X146539411Y-108307200D02*
X146444173Y-108354819D01*
X146444173Y-108354819D02*
X146253697Y-108354819D01*
X146253697Y-108354819D02*
X146158459Y-108307200D01*
X146158459Y-108307200D02*
X146063221Y-108211961D01*
X146063221Y-108211961D02*
X146015602Y-108021485D01*
X146015602Y-108021485D02*
X146015602Y-107688152D01*
X146015602Y-107688152D02*
X146063221Y-107497676D01*
X146063221Y-107497676D02*
X146158459Y-107402438D01*
X146158459Y-107402438D02*
X146253697Y-107354819D01*
X147063221Y-108307200D02*
X147206078Y-108354819D01*
X147206078Y-108354819D02*
X147444173Y-108354819D01*
X147444173Y-108354819D02*
X147539411Y-108307200D01*
X147539411Y-108307200D02*
X147587030Y-108259580D01*
X147587030Y-108259580D02*
X147634649Y-108164342D01*
X147634649Y-108164342D02*
X147634649Y-108069104D01*
X147634649Y-108069104D02*
X147587030Y-107973866D01*
X147587030Y-107973866D02*
X147539411Y-107926247D01*
X147539411Y-107926247D02*
X147444173Y-107878628D01*
X147444173Y-107878628D02*
X147253697Y-107831009D01*
X147253697Y-107831009D02*
X147158459Y-107783390D01*
X147158459Y-107783390D02*
X147110840Y-107735771D01*
X147110840Y-107735771D02*
X147063221Y-107640533D01*
X147063221Y-107640533D02*
X147063221Y-107545295D01*
X147063221Y-107545295D02*
X147110840Y-107450057D01*
X147110840Y-107450057D02*
X147158459Y-107402438D01*
X147158459Y-107402438D02*
X147253697Y-107354819D01*
X147253697Y-107354819D02*
X147491792Y-107354819D01*
X147491792Y-107354819D02*
X147634649Y-107402438D01*
X148063221Y-108354819D02*
X148063221Y-107354819D01*
X152454819Y-73666666D02*
X151978628Y-73999999D01*
X152454819Y-74238094D02*
X151454819Y-74238094D01*
X151454819Y-74238094D02*
X151454819Y-73857142D01*
X151454819Y-73857142D02*
X151502438Y-73761904D01*
X151502438Y-73761904D02*
X151550057Y-73714285D01*
X151550057Y-73714285D02*
X151645295Y-73666666D01*
X151645295Y-73666666D02*
X151788152Y-73666666D01*
X151788152Y-73666666D02*
X151883390Y-73714285D01*
X151883390Y-73714285D02*
X151931009Y-73761904D01*
X151931009Y-73761904D02*
X151978628Y-73857142D01*
X151978628Y-73857142D02*
X151978628Y-74238094D01*
X151788152Y-72809523D02*
X152454819Y-72809523D01*
X151407200Y-73047618D02*
X152121485Y-73285713D01*
X152121485Y-73285713D02*
X152121485Y-72666666D01*
X106280682Y-103659580D02*
X106233063Y-103707200D01*
X106233063Y-103707200D02*
X106090206Y-103754819D01*
X106090206Y-103754819D02*
X105994968Y-103754819D01*
X105994968Y-103754819D02*
X105852111Y-103707200D01*
X105852111Y-103707200D02*
X105756873Y-103611961D01*
X105756873Y-103611961D02*
X105709254Y-103516723D01*
X105709254Y-103516723D02*
X105661635Y-103326247D01*
X105661635Y-103326247D02*
X105661635Y-103183390D01*
X105661635Y-103183390D02*
X105709254Y-102992914D01*
X105709254Y-102992914D02*
X105756873Y-102897676D01*
X105756873Y-102897676D02*
X105852111Y-102802438D01*
X105852111Y-102802438D02*
X105994968Y-102754819D01*
X105994968Y-102754819D02*
X106090206Y-102754819D01*
X106090206Y-102754819D02*
X106233063Y-102802438D01*
X106233063Y-102802438D02*
X106280682Y-102850057D01*
X107137825Y-103088152D02*
X107137825Y-103754819D01*
X106899730Y-102707200D02*
X106661635Y-103421485D01*
X106661635Y-103421485D02*
X107280682Y-103421485D01*
X118304819Y-81166666D02*
X117828628Y-81499999D01*
X118304819Y-81738094D02*
X117304819Y-81738094D01*
X117304819Y-81738094D02*
X117304819Y-81357142D01*
X117304819Y-81357142D02*
X117352438Y-81261904D01*
X117352438Y-81261904D02*
X117400057Y-81214285D01*
X117400057Y-81214285D02*
X117495295Y-81166666D01*
X117495295Y-81166666D02*
X117638152Y-81166666D01*
X117638152Y-81166666D02*
X117733390Y-81214285D01*
X117733390Y-81214285D02*
X117781009Y-81261904D01*
X117781009Y-81261904D02*
X117828628Y-81357142D01*
X117828628Y-81357142D02*
X117828628Y-81738094D01*
X117400057Y-80785713D02*
X117352438Y-80738094D01*
X117352438Y-80738094D02*
X117304819Y-80642856D01*
X117304819Y-80642856D02*
X117304819Y-80404761D01*
X117304819Y-80404761D02*
X117352438Y-80309523D01*
X117352438Y-80309523D02*
X117400057Y-80261904D01*
X117400057Y-80261904D02*
X117495295Y-80214285D01*
X117495295Y-80214285D02*
X117590533Y-80214285D01*
X117590533Y-80214285D02*
X117733390Y-80261904D01*
X117733390Y-80261904D02*
X118304819Y-80833332D01*
X118304819Y-80833332D02*
X118304819Y-80214285D01*
X106333333Y-106559580D02*
X106285714Y-106607200D01*
X106285714Y-106607200D02*
X106142857Y-106654819D01*
X106142857Y-106654819D02*
X106047619Y-106654819D01*
X106047619Y-106654819D02*
X105904762Y-106607200D01*
X105904762Y-106607200D02*
X105809524Y-106511961D01*
X105809524Y-106511961D02*
X105761905Y-106416723D01*
X105761905Y-106416723D02*
X105714286Y-106226247D01*
X105714286Y-106226247D02*
X105714286Y-106083390D01*
X105714286Y-106083390D02*
X105761905Y-105892914D01*
X105761905Y-105892914D02*
X105809524Y-105797676D01*
X105809524Y-105797676D02*
X105904762Y-105702438D01*
X105904762Y-105702438D02*
X106047619Y-105654819D01*
X106047619Y-105654819D02*
X106142857Y-105654819D01*
X106142857Y-105654819D02*
X106285714Y-105702438D01*
X106285714Y-105702438D02*
X106333333Y-105750057D01*
X106666667Y-105654819D02*
X107285714Y-105654819D01*
X107285714Y-105654819D02*
X106952381Y-106035771D01*
X106952381Y-106035771D02*
X107095238Y-106035771D01*
X107095238Y-106035771D02*
X107190476Y-106083390D01*
X107190476Y-106083390D02*
X107238095Y-106131009D01*
X107238095Y-106131009D02*
X107285714Y-106226247D01*
X107285714Y-106226247D02*
X107285714Y-106464342D01*
X107285714Y-106464342D02*
X107238095Y-106559580D01*
X107238095Y-106559580D02*
X107190476Y-106607200D01*
X107190476Y-106607200D02*
X107095238Y-106654819D01*
X107095238Y-106654819D02*
X106809524Y-106654819D01*
X106809524Y-106654819D02*
X106714286Y-106607200D01*
X106714286Y-106607200D02*
X106666667Y-106559580D01*
D11*
X129023809Y-89226028D02*
X129023809Y-89702219D01*
X128690476Y-88702219D02*
X129023809Y-89226028D01*
X129023809Y-89226028D02*
X129357142Y-88702219D01*
X130214285Y-89702219D02*
X129642857Y-89702219D01*
X129928571Y-89702219D02*
X129928571Y-88702219D01*
X129928571Y-88702219D02*
X129833333Y-88845076D01*
X129833333Y-88845076D02*
X129738095Y-88940314D01*
X129738095Y-88940314D02*
X129642857Y-88987933D01*
D10*
X120854819Y-62233333D02*
X121569104Y-62233333D01*
X121569104Y-62233333D02*
X121711961Y-62280952D01*
X121711961Y-62280952D02*
X121807200Y-62376190D01*
X121807200Y-62376190D02*
X121854819Y-62519047D01*
X121854819Y-62519047D02*
X121854819Y-62614285D01*
X121188152Y-61328571D02*
X121854819Y-61328571D01*
X120807200Y-61566666D02*
X121521485Y-61804761D01*
X121521485Y-61804761D02*
X121521485Y-61185714D01*
X150754819Y-77033333D02*
X151469104Y-77033333D01*
X151469104Y-77033333D02*
X151611961Y-77080952D01*
X151611961Y-77080952D02*
X151707200Y-77176190D01*
X151707200Y-77176190D02*
X151754819Y-77319047D01*
X151754819Y-77319047D02*
X151754819Y-77414285D01*
X150754819Y-76652380D02*
X150754819Y-75985714D01*
X150754819Y-75985714D02*
X151754819Y-76414285D01*
X150754819Y-67733333D02*
X151469104Y-67733333D01*
X151469104Y-67733333D02*
X151611961Y-67780952D01*
X151611961Y-67780952D02*
X151707200Y-67876190D01*
X151707200Y-67876190D02*
X151754819Y-68019047D01*
X151754819Y-68019047D02*
X151754819Y-68114285D01*
X150754819Y-66828571D02*
X150754819Y-67019047D01*
X150754819Y-67019047D02*
X150802438Y-67114285D01*
X150802438Y-67114285D02*
X150850057Y-67161904D01*
X150850057Y-67161904D02*
X150992914Y-67257142D01*
X150992914Y-67257142D02*
X151183390Y-67304761D01*
X151183390Y-67304761D02*
X151564342Y-67304761D01*
X151564342Y-67304761D02*
X151659580Y-67257142D01*
X151659580Y-67257142D02*
X151707200Y-67209523D01*
X151707200Y-67209523D02*
X151754819Y-67114285D01*
X151754819Y-67114285D02*
X151754819Y-66923809D01*
X151754819Y-66923809D02*
X151707200Y-66828571D01*
X151707200Y-66828571D02*
X151659580Y-66780952D01*
X151659580Y-66780952D02*
X151564342Y-66733333D01*
X151564342Y-66733333D02*
X151326247Y-66733333D01*
X151326247Y-66733333D02*
X151231009Y-66780952D01*
X151231009Y-66780952D02*
X151183390Y-66828571D01*
X151183390Y-66828571D02*
X151135771Y-66923809D01*
X151135771Y-66923809D02*
X151135771Y-67114285D01*
X151135771Y-67114285D02*
X151183390Y-67209523D01*
X151183390Y-67209523D02*
X151231009Y-67257142D01*
X151231009Y-67257142D02*
X151326247Y-67304761D01*
X135633333Y-58954819D02*
X135300000Y-58478628D01*
X135061905Y-58954819D02*
X135061905Y-57954819D01*
X135061905Y-57954819D02*
X135442857Y-57954819D01*
X135442857Y-57954819D02*
X135538095Y-58002438D01*
X135538095Y-58002438D02*
X135585714Y-58050057D01*
X135585714Y-58050057D02*
X135633333Y-58145295D01*
X135633333Y-58145295D02*
X135633333Y-58288152D01*
X135633333Y-58288152D02*
X135585714Y-58383390D01*
X135585714Y-58383390D02*
X135538095Y-58431009D01*
X135538095Y-58431009D02*
X135442857Y-58478628D01*
X135442857Y-58478628D02*
X135061905Y-58478628D01*
X135966667Y-57954819D02*
X136585714Y-57954819D01*
X136585714Y-57954819D02*
X136252381Y-58335771D01*
X136252381Y-58335771D02*
X136395238Y-58335771D01*
X136395238Y-58335771D02*
X136490476Y-58383390D01*
X136490476Y-58383390D02*
X136538095Y-58431009D01*
X136538095Y-58431009D02*
X136585714Y-58526247D01*
X136585714Y-58526247D02*
X136585714Y-58764342D01*
X136585714Y-58764342D02*
X136538095Y-58859580D01*
X136538095Y-58859580D02*
X136490476Y-58907200D01*
X136490476Y-58907200D02*
X136395238Y-58954819D01*
X136395238Y-58954819D02*
X136109524Y-58954819D01*
X136109524Y-58954819D02*
X136014286Y-58907200D01*
X136014286Y-58907200D02*
X135966667Y-58859580D01*
X117438095Y-77554819D02*
X117438095Y-78364342D01*
X117438095Y-78364342D02*
X117485714Y-78459580D01*
X117485714Y-78459580D02*
X117533333Y-78507200D01*
X117533333Y-78507200D02*
X117628571Y-78554819D01*
X117628571Y-78554819D02*
X117819047Y-78554819D01*
X117819047Y-78554819D02*
X117914285Y-78507200D01*
X117914285Y-78507200D02*
X117961904Y-78459580D01*
X117961904Y-78459580D02*
X118009523Y-78364342D01*
X118009523Y-78364342D02*
X118009523Y-77554819D01*
X118390476Y-77554819D02*
X119009523Y-77554819D01*
X119009523Y-77554819D02*
X118676190Y-77935771D01*
X118676190Y-77935771D02*
X118819047Y-77935771D01*
X118819047Y-77935771D02*
X118914285Y-77983390D01*
X118914285Y-77983390D02*
X118961904Y-78031009D01*
X118961904Y-78031009D02*
X119009523Y-78126247D01*
X119009523Y-78126247D02*
X119009523Y-78364342D01*
X119009523Y-78364342D02*
X118961904Y-78459580D01*
X118961904Y-78459580D02*
X118914285Y-78507200D01*
X118914285Y-78507200D02*
X118819047Y-78554819D01*
X118819047Y-78554819D02*
X118533333Y-78554819D01*
X118533333Y-78554819D02*
X118438095Y-78507200D01*
X118438095Y-78507200D02*
X118390476Y-78459580D01*
X101133333Y-88354819D02*
X100657143Y-88354819D01*
X100657143Y-88354819D02*
X100657143Y-87354819D01*
X101990476Y-88354819D02*
X101419048Y-88354819D01*
X101704762Y-88354819D02*
X101704762Y-87354819D01*
X101704762Y-87354819D02*
X101609524Y-87497676D01*
X101609524Y-87497676D02*
X101514286Y-87592914D01*
X101514286Y-87592914D02*
X101419048Y-87640533D01*
X111733333Y-118159580D02*
X111685714Y-118207200D01*
X111685714Y-118207200D02*
X111542857Y-118254819D01*
X111542857Y-118254819D02*
X111447619Y-118254819D01*
X111447619Y-118254819D02*
X111304762Y-118207200D01*
X111304762Y-118207200D02*
X111209524Y-118111961D01*
X111209524Y-118111961D02*
X111161905Y-118016723D01*
X111161905Y-118016723D02*
X111114286Y-117826247D01*
X111114286Y-117826247D02*
X111114286Y-117683390D01*
X111114286Y-117683390D02*
X111161905Y-117492914D01*
X111161905Y-117492914D02*
X111209524Y-117397676D01*
X111209524Y-117397676D02*
X111304762Y-117302438D01*
X111304762Y-117302438D02*
X111447619Y-117254819D01*
X111447619Y-117254819D02*
X111542857Y-117254819D01*
X111542857Y-117254819D02*
X111685714Y-117302438D01*
X111685714Y-117302438D02*
X111733333Y-117350057D01*
X112066667Y-117254819D02*
X112733333Y-117254819D01*
X112733333Y-117254819D02*
X112304762Y-118254819D01*
X117833333Y-60359580D02*
X117785714Y-60407200D01*
X117785714Y-60407200D02*
X117642857Y-60454819D01*
X117642857Y-60454819D02*
X117547619Y-60454819D01*
X117547619Y-60454819D02*
X117404762Y-60407200D01*
X117404762Y-60407200D02*
X117309524Y-60311961D01*
X117309524Y-60311961D02*
X117261905Y-60216723D01*
X117261905Y-60216723D02*
X117214286Y-60026247D01*
X117214286Y-60026247D02*
X117214286Y-59883390D01*
X117214286Y-59883390D02*
X117261905Y-59692914D01*
X117261905Y-59692914D02*
X117309524Y-59597676D01*
X117309524Y-59597676D02*
X117404762Y-59502438D01*
X117404762Y-59502438D02*
X117547619Y-59454819D01*
X117547619Y-59454819D02*
X117642857Y-59454819D01*
X117642857Y-59454819D02*
X117785714Y-59502438D01*
X117785714Y-59502438D02*
X117833333Y-59550057D01*
X118690476Y-59454819D02*
X118500000Y-59454819D01*
X118500000Y-59454819D02*
X118404762Y-59502438D01*
X118404762Y-59502438D02*
X118357143Y-59550057D01*
X118357143Y-59550057D02*
X118261905Y-59692914D01*
X118261905Y-59692914D02*
X118214286Y-59883390D01*
X118214286Y-59883390D02*
X118214286Y-60264342D01*
X118214286Y-60264342D02*
X118261905Y-60359580D01*
X118261905Y-60359580D02*
X118309524Y-60407200D01*
X118309524Y-60407200D02*
X118404762Y-60454819D01*
X118404762Y-60454819D02*
X118595238Y-60454819D01*
X118595238Y-60454819D02*
X118690476Y-60407200D01*
X118690476Y-60407200D02*
X118738095Y-60359580D01*
X118738095Y-60359580D02*
X118785714Y-60264342D01*
X118785714Y-60264342D02*
X118785714Y-60026247D01*
X118785714Y-60026247D02*
X118738095Y-59931009D01*
X118738095Y-59931009D02*
X118690476Y-59883390D01*
X118690476Y-59883390D02*
X118595238Y-59835771D01*
X118595238Y-59835771D02*
X118404762Y-59835771D01*
X118404762Y-59835771D02*
X118309524Y-59883390D01*
X118309524Y-59883390D02*
X118261905Y-59931009D01*
X118261905Y-59931009D02*
X118214286Y-60026247D01*
X144254819Y-112261904D02*
X145064342Y-112261904D01*
X145064342Y-112261904D02*
X145159580Y-112214285D01*
X145159580Y-112214285D02*
X145207200Y-112166666D01*
X145207200Y-112166666D02*
X145254819Y-112071428D01*
X145254819Y-112071428D02*
X145254819Y-111880952D01*
X145254819Y-111880952D02*
X145207200Y-111785714D01*
X145207200Y-111785714D02*
X145159580Y-111738095D01*
X145159580Y-111738095D02*
X145064342Y-111690476D01*
X145064342Y-111690476D02*
X144254819Y-111690476D01*
X144588152Y-110785714D02*
X145254819Y-110785714D01*
X144207200Y-111023809D02*
X144921485Y-111261904D01*
X144921485Y-111261904D02*
X144921485Y-110642857D01*
X143416666Y-57904819D02*
X143416666Y-58619104D01*
X143416666Y-58619104D02*
X143369047Y-58761961D01*
X143369047Y-58761961D02*
X143273809Y-58857200D01*
X143273809Y-58857200D02*
X143130952Y-58904819D01*
X143130952Y-58904819D02*
X143035714Y-58904819D01*
X144369047Y-57904819D02*
X143892857Y-57904819D01*
X143892857Y-57904819D02*
X143845238Y-58381009D01*
X143845238Y-58381009D02*
X143892857Y-58333390D01*
X143892857Y-58333390D02*
X143988095Y-58285771D01*
X143988095Y-58285771D02*
X144226190Y-58285771D01*
X144226190Y-58285771D02*
X144321428Y-58333390D01*
X144321428Y-58333390D02*
X144369047Y-58381009D01*
X144369047Y-58381009D02*
X144416666Y-58476247D01*
X144416666Y-58476247D02*
X144416666Y-58714342D01*
X144416666Y-58714342D02*
X144369047Y-58809580D01*
X144369047Y-58809580D02*
X144321428Y-58857200D01*
X144321428Y-58857200D02*
X144226190Y-58904819D01*
X144226190Y-58904819D02*
X143988095Y-58904819D01*
X143988095Y-58904819D02*
X143892857Y-58857200D01*
X143892857Y-58857200D02*
X143845238Y-58809580D01*
X118304819Y-75166666D02*
X117828628Y-75499999D01*
X118304819Y-75738094D02*
X117304819Y-75738094D01*
X117304819Y-75738094D02*
X117304819Y-75357142D01*
X117304819Y-75357142D02*
X117352438Y-75261904D01*
X117352438Y-75261904D02*
X117400057Y-75214285D01*
X117400057Y-75214285D02*
X117495295Y-75166666D01*
X117495295Y-75166666D02*
X117638152Y-75166666D01*
X117638152Y-75166666D02*
X117733390Y-75214285D01*
X117733390Y-75214285D02*
X117781009Y-75261904D01*
X117781009Y-75261904D02*
X117828628Y-75357142D01*
X117828628Y-75357142D02*
X117828628Y-75738094D01*
X118304819Y-74214285D02*
X118304819Y-74785713D01*
X118304819Y-74499999D02*
X117304819Y-74499999D01*
X117304819Y-74499999D02*
X117447676Y-74595237D01*
X117447676Y-74595237D02*
X117542914Y-74690475D01*
X117542914Y-74690475D02*
X117590533Y-74785713D01*
X121059580Y-65266666D02*
X121107200Y-65314285D01*
X121107200Y-65314285D02*
X121154819Y-65457142D01*
X121154819Y-65457142D02*
X121154819Y-65552380D01*
X121154819Y-65552380D02*
X121107200Y-65695237D01*
X121107200Y-65695237D02*
X121011961Y-65790475D01*
X121011961Y-65790475D02*
X120916723Y-65838094D01*
X120916723Y-65838094D02*
X120726247Y-65885713D01*
X120726247Y-65885713D02*
X120583390Y-65885713D01*
X120583390Y-65885713D02*
X120392914Y-65838094D01*
X120392914Y-65838094D02*
X120297676Y-65790475D01*
X120297676Y-65790475D02*
X120202438Y-65695237D01*
X120202438Y-65695237D02*
X120154819Y-65552380D01*
X120154819Y-65552380D02*
X120154819Y-65457142D01*
X120154819Y-65457142D02*
X120202438Y-65314285D01*
X120202438Y-65314285D02*
X120250057Y-65266666D01*
X120154819Y-64361904D02*
X120154819Y-64838094D01*
X120154819Y-64838094D02*
X120631009Y-64885713D01*
X120631009Y-64885713D02*
X120583390Y-64838094D01*
X120583390Y-64838094D02*
X120535771Y-64742856D01*
X120535771Y-64742856D02*
X120535771Y-64504761D01*
X120535771Y-64504761D02*
X120583390Y-64409523D01*
X120583390Y-64409523D02*
X120631009Y-64361904D01*
X120631009Y-64361904D02*
X120726247Y-64314285D01*
X120726247Y-64314285D02*
X120964342Y-64314285D01*
X120964342Y-64314285D02*
X121059580Y-64361904D01*
X121059580Y-64361904D02*
X121107200Y-64409523D01*
X121107200Y-64409523D02*
X121154819Y-64504761D01*
X121154819Y-64504761D02*
X121154819Y-64742856D01*
X121154819Y-64742856D02*
X121107200Y-64838094D01*
X121107200Y-64838094D02*
X121059580Y-64885713D01*
X123679580Y-97116666D02*
X123727200Y-97164285D01*
X123727200Y-97164285D02*
X123774819Y-97307142D01*
X123774819Y-97307142D02*
X123774819Y-97402380D01*
X123774819Y-97402380D02*
X123727200Y-97545237D01*
X123727200Y-97545237D02*
X123631961Y-97640475D01*
X123631961Y-97640475D02*
X123536723Y-97688094D01*
X123536723Y-97688094D02*
X123346247Y-97735713D01*
X123346247Y-97735713D02*
X123203390Y-97735713D01*
X123203390Y-97735713D02*
X123012914Y-97688094D01*
X123012914Y-97688094D02*
X122917676Y-97640475D01*
X122917676Y-97640475D02*
X122822438Y-97545237D01*
X122822438Y-97545237D02*
X122774819Y-97402380D01*
X122774819Y-97402380D02*
X122774819Y-97307142D01*
X122774819Y-97307142D02*
X122822438Y-97164285D01*
X122822438Y-97164285D02*
X122870057Y-97116666D01*
X122870057Y-96735713D02*
X122822438Y-96688094D01*
X122822438Y-96688094D02*
X122774819Y-96592856D01*
X122774819Y-96592856D02*
X122774819Y-96354761D01*
X122774819Y-96354761D02*
X122822438Y-96259523D01*
X122822438Y-96259523D02*
X122870057Y-96211904D01*
X122870057Y-96211904D02*
X122965295Y-96164285D01*
X122965295Y-96164285D02*
X123060533Y-96164285D01*
X123060533Y-96164285D02*
X123203390Y-96211904D01*
X123203390Y-96211904D02*
X123774819Y-96783332D01*
X123774819Y-96783332D02*
X123774819Y-96164285D01*
X120754819Y-85333333D02*
X121469104Y-85333333D01*
X121469104Y-85333333D02*
X121611961Y-85380952D01*
X121611961Y-85380952D02*
X121707200Y-85476190D01*
X121707200Y-85476190D02*
X121754819Y-85619047D01*
X121754819Y-85619047D02*
X121754819Y-85714285D01*
X121754819Y-84333333D02*
X121754819Y-84904761D01*
X121754819Y-84619047D02*
X120754819Y-84619047D01*
X120754819Y-84619047D02*
X120897676Y-84714285D01*
X120897676Y-84714285D02*
X120992914Y-84809523D01*
X120992914Y-84809523D02*
X121040533Y-84904761D01*
X123236905Y-111804819D02*
X123236905Y-110804819D01*
X123236905Y-110804819D02*
X123475000Y-110804819D01*
X123475000Y-110804819D02*
X123617857Y-110852438D01*
X123617857Y-110852438D02*
X123713095Y-110947676D01*
X123713095Y-110947676D02*
X123760714Y-111042914D01*
X123760714Y-111042914D02*
X123808333Y-111233390D01*
X123808333Y-111233390D02*
X123808333Y-111376247D01*
X123808333Y-111376247D02*
X123760714Y-111566723D01*
X123760714Y-111566723D02*
X123713095Y-111661961D01*
X123713095Y-111661961D02*
X123617857Y-111757200D01*
X123617857Y-111757200D02*
X123475000Y-111804819D01*
X123475000Y-111804819D02*
X123236905Y-111804819D01*
X124189286Y-110900057D02*
X124236905Y-110852438D01*
X124236905Y-110852438D02*
X124332143Y-110804819D01*
X124332143Y-110804819D02*
X124570238Y-110804819D01*
X124570238Y-110804819D02*
X124665476Y-110852438D01*
X124665476Y-110852438D02*
X124713095Y-110900057D01*
X124713095Y-110900057D02*
X124760714Y-110995295D01*
X124760714Y-110995295D02*
X124760714Y-111090533D01*
X124760714Y-111090533D02*
X124713095Y-111233390D01*
X124713095Y-111233390D02*
X124141667Y-111804819D01*
X124141667Y-111804819D02*
X124760714Y-111804819D01*
X120754819Y-71733333D02*
X121469104Y-71733333D01*
X121469104Y-71733333D02*
X121611961Y-71780952D01*
X121611961Y-71780952D02*
X121707200Y-71876190D01*
X121707200Y-71876190D02*
X121754819Y-72019047D01*
X121754819Y-72019047D02*
X121754819Y-72114285D01*
X120754819Y-71352380D02*
X120754819Y-70733333D01*
X120754819Y-70733333D02*
X121135771Y-71066666D01*
X121135771Y-71066666D02*
X121135771Y-70923809D01*
X121135771Y-70923809D02*
X121183390Y-70828571D01*
X121183390Y-70828571D02*
X121231009Y-70780952D01*
X121231009Y-70780952D02*
X121326247Y-70733333D01*
X121326247Y-70733333D02*
X121564342Y-70733333D01*
X121564342Y-70733333D02*
X121659580Y-70780952D01*
X121659580Y-70780952D02*
X121707200Y-70828571D01*
X121707200Y-70828571D02*
X121754819Y-70923809D01*
X121754819Y-70923809D02*
X121754819Y-71209523D01*
X121754819Y-71209523D02*
X121707200Y-71304761D01*
X121707200Y-71304761D02*
X121659580Y-71352380D01*
X120754819Y-78333333D02*
X121469104Y-78333333D01*
X121469104Y-78333333D02*
X121611961Y-78380952D01*
X121611961Y-78380952D02*
X121707200Y-78476190D01*
X121707200Y-78476190D02*
X121754819Y-78619047D01*
X121754819Y-78619047D02*
X121754819Y-78714285D01*
X120850057Y-77904761D02*
X120802438Y-77857142D01*
X120802438Y-77857142D02*
X120754819Y-77761904D01*
X120754819Y-77761904D02*
X120754819Y-77523809D01*
X120754819Y-77523809D02*
X120802438Y-77428571D01*
X120802438Y-77428571D02*
X120850057Y-77380952D01*
X120850057Y-77380952D02*
X120945295Y-77333333D01*
X120945295Y-77333333D02*
X121040533Y-77333333D01*
X121040533Y-77333333D02*
X121183390Y-77380952D01*
X121183390Y-77380952D02*
X121754819Y-77952380D01*
X121754819Y-77952380D02*
X121754819Y-77333333D01*
X123261905Y-117754819D02*
X123261905Y-116754819D01*
X123261905Y-116754819D02*
X123500000Y-116754819D01*
X123500000Y-116754819D02*
X123642857Y-116802438D01*
X123642857Y-116802438D02*
X123738095Y-116897676D01*
X123738095Y-116897676D02*
X123785714Y-116992914D01*
X123785714Y-116992914D02*
X123833333Y-117183390D01*
X123833333Y-117183390D02*
X123833333Y-117326247D01*
X123833333Y-117326247D02*
X123785714Y-117516723D01*
X123785714Y-117516723D02*
X123738095Y-117611961D01*
X123738095Y-117611961D02*
X123642857Y-117707200D01*
X123642857Y-117707200D02*
X123500000Y-117754819D01*
X123500000Y-117754819D02*
X123261905Y-117754819D01*
X124166667Y-116754819D02*
X124785714Y-116754819D01*
X124785714Y-116754819D02*
X124452381Y-117135771D01*
X124452381Y-117135771D02*
X124595238Y-117135771D01*
X124595238Y-117135771D02*
X124690476Y-117183390D01*
X124690476Y-117183390D02*
X124738095Y-117231009D01*
X124738095Y-117231009D02*
X124785714Y-117326247D01*
X124785714Y-117326247D02*
X124785714Y-117564342D01*
X124785714Y-117564342D02*
X124738095Y-117659580D01*
X124738095Y-117659580D02*
X124690476Y-117707200D01*
X124690476Y-117707200D02*
X124595238Y-117754819D01*
X124595238Y-117754819D02*
X124309524Y-117754819D01*
X124309524Y-117754819D02*
X124214286Y-117707200D01*
X124214286Y-117707200D02*
X124166667Y-117659580D01*
X129333333Y-117654819D02*
X129000000Y-117178628D01*
X128761905Y-117654819D02*
X128761905Y-116654819D01*
X128761905Y-116654819D02*
X129142857Y-116654819D01*
X129142857Y-116654819D02*
X129238095Y-116702438D01*
X129238095Y-116702438D02*
X129285714Y-116750057D01*
X129285714Y-116750057D02*
X129333333Y-116845295D01*
X129333333Y-116845295D02*
X129333333Y-116988152D01*
X129333333Y-116988152D02*
X129285714Y-117083390D01*
X129285714Y-117083390D02*
X129238095Y-117131009D01*
X129238095Y-117131009D02*
X129142857Y-117178628D01*
X129142857Y-117178628D02*
X128761905Y-117178628D01*
X129904762Y-117083390D02*
X129809524Y-117035771D01*
X129809524Y-117035771D02*
X129761905Y-116988152D01*
X129761905Y-116988152D02*
X129714286Y-116892914D01*
X129714286Y-116892914D02*
X129714286Y-116845295D01*
X129714286Y-116845295D02*
X129761905Y-116750057D01*
X129761905Y-116750057D02*
X129809524Y-116702438D01*
X129809524Y-116702438D02*
X129904762Y-116654819D01*
X129904762Y-116654819D02*
X130095238Y-116654819D01*
X130095238Y-116654819D02*
X130190476Y-116702438D01*
X130190476Y-116702438D02*
X130238095Y-116750057D01*
X130238095Y-116750057D02*
X130285714Y-116845295D01*
X130285714Y-116845295D02*
X130285714Y-116892914D01*
X130285714Y-116892914D02*
X130238095Y-116988152D01*
X130238095Y-116988152D02*
X130190476Y-117035771D01*
X130190476Y-117035771D02*
X130095238Y-117083390D01*
X130095238Y-117083390D02*
X129904762Y-117083390D01*
X129904762Y-117083390D02*
X129809524Y-117131009D01*
X129809524Y-117131009D02*
X129761905Y-117178628D01*
X129761905Y-117178628D02*
X129714286Y-117273866D01*
X129714286Y-117273866D02*
X129714286Y-117464342D01*
X129714286Y-117464342D02*
X129761905Y-117559580D01*
X129761905Y-117559580D02*
X129809524Y-117607200D01*
X129809524Y-117607200D02*
X129904762Y-117654819D01*
X129904762Y-117654819D02*
X130095238Y-117654819D01*
X130095238Y-117654819D02*
X130190476Y-117607200D01*
X130190476Y-117607200D02*
X130238095Y-117559580D01*
X130238095Y-117559580D02*
X130285714Y-117464342D01*
X130285714Y-117464342D02*
X130285714Y-117273866D01*
X130285714Y-117273866D02*
X130238095Y-117178628D01*
X130238095Y-117178628D02*
X130190476Y-117131009D01*
X130190476Y-117131009D02*
X130095238Y-117083390D01*
X113054819Y-112761904D02*
X113864342Y-112761904D01*
X113864342Y-112761904D02*
X113959580Y-112714285D01*
X113959580Y-112714285D02*
X114007200Y-112666666D01*
X114007200Y-112666666D02*
X114054819Y-112571428D01*
X114054819Y-112571428D02*
X114054819Y-112380952D01*
X114054819Y-112380952D02*
X114007200Y-112285714D01*
X114007200Y-112285714D02*
X113959580Y-112238095D01*
X113959580Y-112238095D02*
X113864342Y-112190476D01*
X113864342Y-112190476D02*
X113054819Y-112190476D01*
X113150057Y-111761904D02*
X113102438Y-111714285D01*
X113102438Y-111714285D02*
X113054819Y-111619047D01*
X113054819Y-111619047D02*
X113054819Y-111380952D01*
X113054819Y-111380952D02*
X113102438Y-111285714D01*
X113102438Y-111285714D02*
X113150057Y-111238095D01*
X113150057Y-111238095D02*
X113245295Y-111190476D01*
X113245295Y-111190476D02*
X113340533Y-111190476D01*
X113340533Y-111190476D02*
X113483390Y-111238095D01*
X113483390Y-111238095D02*
X114054819Y-111809523D01*
X114054819Y-111809523D02*
X114054819Y-111190476D01*
X115519047Y-98031009D02*
X115661904Y-98078628D01*
X115661904Y-98078628D02*
X115709523Y-98126247D01*
X115709523Y-98126247D02*
X115757142Y-98221485D01*
X115757142Y-98221485D02*
X115757142Y-98364342D01*
X115757142Y-98364342D02*
X115709523Y-98459580D01*
X115709523Y-98459580D02*
X115661904Y-98507200D01*
X115661904Y-98507200D02*
X115566666Y-98554819D01*
X115566666Y-98554819D02*
X115185714Y-98554819D01*
X115185714Y-98554819D02*
X115185714Y-97554819D01*
X115185714Y-97554819D02*
X115519047Y-97554819D01*
X115519047Y-97554819D02*
X115614285Y-97602438D01*
X115614285Y-97602438D02*
X115661904Y-97650057D01*
X115661904Y-97650057D02*
X115709523Y-97745295D01*
X115709523Y-97745295D02*
X115709523Y-97840533D01*
X115709523Y-97840533D02*
X115661904Y-97935771D01*
X115661904Y-97935771D02*
X115614285Y-97983390D01*
X115614285Y-97983390D02*
X115519047Y-98031009D01*
X115519047Y-98031009D02*
X115185714Y-98031009D01*
X116090476Y-97554819D02*
X116757142Y-97554819D01*
X116757142Y-97554819D02*
X116090476Y-98554819D01*
X116090476Y-98554819D02*
X116757142Y-98554819D01*
X117661904Y-98554819D02*
X117090476Y-98554819D01*
X117376190Y-98554819D02*
X117376190Y-97554819D01*
X117376190Y-97554819D02*
X117280952Y-97697676D01*
X117280952Y-97697676D02*
X117185714Y-97792914D01*
X117185714Y-97792914D02*
X117090476Y-97840533D01*
X122073866Y-101080951D02*
X122073866Y-100319047D01*
X122454819Y-100699999D02*
X121692914Y-100699999D01*
X112833333Y-60254819D02*
X112500000Y-59778628D01*
X112261905Y-60254819D02*
X112261905Y-59254819D01*
X112261905Y-59254819D02*
X112642857Y-59254819D01*
X112642857Y-59254819D02*
X112738095Y-59302438D01*
X112738095Y-59302438D02*
X112785714Y-59350057D01*
X112785714Y-59350057D02*
X112833333Y-59445295D01*
X112833333Y-59445295D02*
X112833333Y-59588152D01*
X112833333Y-59588152D02*
X112785714Y-59683390D01*
X112785714Y-59683390D02*
X112738095Y-59731009D01*
X112738095Y-59731009D02*
X112642857Y-59778628D01*
X112642857Y-59778628D02*
X112261905Y-59778628D01*
X113690476Y-59254819D02*
X113500000Y-59254819D01*
X113500000Y-59254819D02*
X113404762Y-59302438D01*
X113404762Y-59302438D02*
X113357143Y-59350057D01*
X113357143Y-59350057D02*
X113261905Y-59492914D01*
X113261905Y-59492914D02*
X113214286Y-59683390D01*
X113214286Y-59683390D02*
X113214286Y-60064342D01*
X113214286Y-60064342D02*
X113261905Y-60159580D01*
X113261905Y-60159580D02*
X113309524Y-60207200D01*
X113309524Y-60207200D02*
X113404762Y-60254819D01*
X113404762Y-60254819D02*
X113595238Y-60254819D01*
X113595238Y-60254819D02*
X113690476Y-60207200D01*
X113690476Y-60207200D02*
X113738095Y-60159580D01*
X113738095Y-60159580D02*
X113785714Y-60064342D01*
X113785714Y-60064342D02*
X113785714Y-59826247D01*
X113785714Y-59826247D02*
X113738095Y-59731009D01*
X113738095Y-59731009D02*
X113690476Y-59683390D01*
X113690476Y-59683390D02*
X113595238Y-59635771D01*
X113595238Y-59635771D02*
X113404762Y-59635771D01*
X113404762Y-59635771D02*
X113309524Y-59683390D01*
X113309524Y-59683390D02*
X113261905Y-59731009D01*
X113261905Y-59731009D02*
X113214286Y-59826247D01*
X101404761Y-62550057D02*
X101309523Y-62502438D01*
X101309523Y-62502438D02*
X101214285Y-62407200D01*
X101214285Y-62407200D02*
X101071428Y-62264342D01*
X101071428Y-62264342D02*
X100976190Y-62216723D01*
X100976190Y-62216723D02*
X100880952Y-62216723D01*
X100928571Y-62454819D02*
X100833333Y-62407200D01*
X100833333Y-62407200D02*
X100738095Y-62311961D01*
X100738095Y-62311961D02*
X100690476Y-62121485D01*
X100690476Y-62121485D02*
X100690476Y-61788152D01*
X100690476Y-61788152D02*
X100738095Y-61597676D01*
X100738095Y-61597676D02*
X100833333Y-61502438D01*
X100833333Y-61502438D02*
X100928571Y-61454819D01*
X100928571Y-61454819D02*
X101119047Y-61454819D01*
X101119047Y-61454819D02*
X101214285Y-61502438D01*
X101214285Y-61502438D02*
X101309523Y-61597676D01*
X101309523Y-61597676D02*
X101357142Y-61788152D01*
X101357142Y-61788152D02*
X101357142Y-62121485D01*
X101357142Y-62121485D02*
X101309523Y-62311961D01*
X101309523Y-62311961D02*
X101214285Y-62407200D01*
X101214285Y-62407200D02*
X101119047Y-62454819D01*
X101119047Y-62454819D02*
X100928571Y-62454819D01*
X102309523Y-62454819D02*
X101738095Y-62454819D01*
X102023809Y-62454819D02*
X102023809Y-61454819D01*
X102023809Y-61454819D02*
X101928571Y-61597676D01*
X101928571Y-61597676D02*
X101833333Y-61692914D01*
X101833333Y-61692914D02*
X101738095Y-61740533D01*
X138063095Y-95854819D02*
X138063095Y-96664342D01*
X138063095Y-96664342D02*
X138110714Y-96759580D01*
X138110714Y-96759580D02*
X138158333Y-96807200D01*
X138158333Y-96807200D02*
X138253571Y-96854819D01*
X138253571Y-96854819D02*
X138444047Y-96854819D01*
X138444047Y-96854819D02*
X138539285Y-96807200D01*
X138539285Y-96807200D02*
X138586904Y-96759580D01*
X138586904Y-96759580D02*
X138634523Y-96664342D01*
X138634523Y-96664342D02*
X138634523Y-95854819D01*
X139634523Y-96854819D02*
X139063095Y-96854819D01*
X139348809Y-96854819D02*
X139348809Y-95854819D01*
X139348809Y-95854819D02*
X139253571Y-95997676D01*
X139253571Y-95997676D02*
X139158333Y-96092914D01*
X139158333Y-96092914D02*
X139063095Y-96140533D01*
X100861905Y-69854819D02*
X100861905Y-68854819D01*
X100861905Y-68854819D02*
X101100000Y-68854819D01*
X101100000Y-68854819D02*
X101242857Y-68902438D01*
X101242857Y-68902438D02*
X101338095Y-68997676D01*
X101338095Y-68997676D02*
X101385714Y-69092914D01*
X101385714Y-69092914D02*
X101433333Y-69283390D01*
X101433333Y-69283390D02*
X101433333Y-69426247D01*
X101433333Y-69426247D02*
X101385714Y-69616723D01*
X101385714Y-69616723D02*
X101338095Y-69711961D01*
X101338095Y-69711961D02*
X101242857Y-69807200D01*
X101242857Y-69807200D02*
X101100000Y-69854819D01*
X101100000Y-69854819D02*
X100861905Y-69854819D01*
X102385714Y-69854819D02*
X101814286Y-69854819D01*
X102100000Y-69854819D02*
X102100000Y-68854819D01*
X102100000Y-68854819D02*
X102004762Y-68997676D01*
X102004762Y-68997676D02*
X101909524Y-69092914D01*
X101909524Y-69092914D02*
X101814286Y-69140533D01*
X150754819Y-84509523D02*
X151469104Y-84509523D01*
X151469104Y-84509523D02*
X151611961Y-84557142D01*
X151611961Y-84557142D02*
X151707200Y-84652380D01*
X151707200Y-84652380D02*
X151754819Y-84795237D01*
X151754819Y-84795237D02*
X151754819Y-84890475D01*
X151754819Y-83509523D02*
X151754819Y-84080951D01*
X151754819Y-83795237D02*
X150754819Y-83795237D01*
X150754819Y-83795237D02*
X150897676Y-83890475D01*
X150897676Y-83890475D02*
X150992914Y-83985713D01*
X150992914Y-83985713D02*
X151040533Y-84080951D01*
X151754819Y-82557142D02*
X151754819Y-83128570D01*
X151754819Y-82842856D02*
X150754819Y-82842856D01*
X150754819Y-82842856D02*
X150897676Y-82938094D01*
X150897676Y-82938094D02*
X150992914Y-83033332D01*
X150992914Y-83033332D02*
X151040533Y-83128570D01*
X123659580Y-92616666D02*
X123707200Y-92664285D01*
X123707200Y-92664285D02*
X123754819Y-92807142D01*
X123754819Y-92807142D02*
X123754819Y-92902380D01*
X123754819Y-92902380D02*
X123707200Y-93045237D01*
X123707200Y-93045237D02*
X123611961Y-93140475D01*
X123611961Y-93140475D02*
X123516723Y-93188094D01*
X123516723Y-93188094D02*
X123326247Y-93235713D01*
X123326247Y-93235713D02*
X123183390Y-93235713D01*
X123183390Y-93235713D02*
X122992914Y-93188094D01*
X122992914Y-93188094D02*
X122897676Y-93140475D01*
X122897676Y-93140475D02*
X122802438Y-93045237D01*
X122802438Y-93045237D02*
X122754819Y-92902380D01*
X122754819Y-92902380D02*
X122754819Y-92807142D01*
X122754819Y-92807142D02*
X122802438Y-92664285D01*
X122802438Y-92664285D02*
X122850057Y-92616666D01*
X123754819Y-91664285D02*
X123754819Y-92235713D01*
X123754819Y-91949999D02*
X122754819Y-91949999D01*
X122754819Y-91949999D02*
X122897676Y-92045237D01*
X122897676Y-92045237D02*
X122992914Y-92140475D01*
X122992914Y-92140475D02*
X123040533Y-92235713D01*
X152454819Y-61666666D02*
X151978628Y-61999999D01*
X152454819Y-62238094D02*
X151454819Y-62238094D01*
X151454819Y-62238094D02*
X151454819Y-61857142D01*
X151454819Y-61857142D02*
X151502438Y-61761904D01*
X151502438Y-61761904D02*
X151550057Y-61714285D01*
X151550057Y-61714285D02*
X151645295Y-61666666D01*
X151645295Y-61666666D02*
X151788152Y-61666666D01*
X151788152Y-61666666D02*
X151883390Y-61714285D01*
X151883390Y-61714285D02*
X151931009Y-61761904D01*
X151931009Y-61761904D02*
X151978628Y-61857142D01*
X151978628Y-61857142D02*
X151978628Y-62238094D01*
X151454819Y-60761904D02*
X151454819Y-61238094D01*
X151454819Y-61238094D02*
X151931009Y-61285713D01*
X151931009Y-61285713D02*
X151883390Y-61238094D01*
X151883390Y-61238094D02*
X151835771Y-61142856D01*
X151835771Y-61142856D02*
X151835771Y-60904761D01*
X151835771Y-60904761D02*
X151883390Y-60809523D01*
X151883390Y-60809523D02*
X151931009Y-60761904D01*
X151931009Y-60761904D02*
X152026247Y-60714285D01*
X152026247Y-60714285D02*
X152264342Y-60714285D01*
X152264342Y-60714285D02*
X152359580Y-60761904D01*
X152359580Y-60761904D02*
X152407200Y-60809523D01*
X152407200Y-60809523D02*
X152454819Y-60904761D01*
X152454819Y-60904761D02*
X152454819Y-61142856D01*
X152454819Y-61142856D02*
X152407200Y-61238094D01*
X152407200Y-61238094D02*
X152359580Y-61285713D01*
X121854819Y-91295238D02*
X121378628Y-91628571D01*
X121854819Y-91866666D02*
X120854819Y-91866666D01*
X120854819Y-91866666D02*
X120854819Y-91485714D01*
X120854819Y-91485714D02*
X120902438Y-91390476D01*
X120902438Y-91390476D02*
X120950057Y-91342857D01*
X120950057Y-91342857D02*
X121045295Y-91295238D01*
X121045295Y-91295238D02*
X121188152Y-91295238D01*
X121188152Y-91295238D02*
X121283390Y-91342857D01*
X121283390Y-91342857D02*
X121331009Y-91390476D01*
X121331009Y-91390476D02*
X121378628Y-91485714D01*
X121378628Y-91485714D02*
X121378628Y-91866666D01*
X120854819Y-91009523D02*
X121854819Y-90676190D01*
X121854819Y-90676190D02*
X120854819Y-90342857D01*
X121854819Y-89485714D02*
X121854819Y-90057142D01*
X121854819Y-89771428D02*
X120854819Y-89771428D01*
X120854819Y-89771428D02*
X120997676Y-89866666D01*
X120997676Y-89866666D02*
X121092914Y-89961904D01*
X121092914Y-89961904D02*
X121140533Y-90057142D01*
D12*
X102066666Y-109157419D02*
X102066666Y-109871704D01*
X102066666Y-109871704D02*
X102019047Y-110014561D01*
X102019047Y-110014561D02*
X101923809Y-110109800D01*
X101923809Y-110109800D02*
X101780952Y-110157419D01*
X101780952Y-110157419D02*
X101685714Y-110157419D01*
X102590476Y-110157419D02*
X102780952Y-110157419D01*
X102780952Y-110157419D02*
X102876190Y-110109800D01*
X102876190Y-110109800D02*
X102923809Y-110062180D01*
X102923809Y-110062180D02*
X103019047Y-109919323D01*
X103019047Y-109919323D02*
X103066666Y-109728847D01*
X103066666Y-109728847D02*
X103066666Y-109347895D01*
X103066666Y-109347895D02*
X103019047Y-109252657D01*
X103019047Y-109252657D02*
X102971428Y-109205038D01*
X102971428Y-109205038D02*
X102876190Y-109157419D01*
X102876190Y-109157419D02*
X102685714Y-109157419D01*
X102685714Y-109157419D02*
X102590476Y-109205038D01*
X102590476Y-109205038D02*
X102542857Y-109252657D01*
X102542857Y-109252657D02*
X102495238Y-109347895D01*
X102495238Y-109347895D02*
X102495238Y-109585990D01*
X102495238Y-109585990D02*
X102542857Y-109681228D01*
X102542857Y-109681228D02*
X102590476Y-109728847D01*
X102590476Y-109728847D02*
X102685714Y-109776466D01*
X102685714Y-109776466D02*
X102876190Y-109776466D01*
X102876190Y-109776466D02*
X102971428Y-109728847D01*
X102971428Y-109728847D02*
X103019047Y-109681228D01*
X103019047Y-109681228D02*
X103066666Y-109585990D01*
D10*
X150166666Y-87249819D02*
X150166666Y-87964104D01*
X150166666Y-87964104D02*
X150119047Y-88106961D01*
X150119047Y-88106961D02*
X150023809Y-88202200D01*
X150023809Y-88202200D02*
X149880952Y-88249819D01*
X149880952Y-88249819D02*
X149785714Y-88249819D01*
X150785714Y-87678390D02*
X150690476Y-87630771D01*
X150690476Y-87630771D02*
X150642857Y-87583152D01*
X150642857Y-87583152D02*
X150595238Y-87487914D01*
X150595238Y-87487914D02*
X150595238Y-87440295D01*
X150595238Y-87440295D02*
X150642857Y-87345057D01*
X150642857Y-87345057D02*
X150690476Y-87297438D01*
X150690476Y-87297438D02*
X150785714Y-87249819D01*
X150785714Y-87249819D02*
X150976190Y-87249819D01*
X150976190Y-87249819D02*
X151071428Y-87297438D01*
X151071428Y-87297438D02*
X151119047Y-87345057D01*
X151119047Y-87345057D02*
X151166666Y-87440295D01*
X151166666Y-87440295D02*
X151166666Y-87487914D01*
X151166666Y-87487914D02*
X151119047Y-87583152D01*
X151119047Y-87583152D02*
X151071428Y-87630771D01*
X151071428Y-87630771D02*
X150976190Y-87678390D01*
X150976190Y-87678390D02*
X150785714Y-87678390D01*
X150785714Y-87678390D02*
X150690476Y-87726009D01*
X150690476Y-87726009D02*
X150642857Y-87773628D01*
X150642857Y-87773628D02*
X150595238Y-87868866D01*
X150595238Y-87868866D02*
X150595238Y-88059342D01*
X150595238Y-88059342D02*
X150642857Y-88154580D01*
X150642857Y-88154580D02*
X150690476Y-88202200D01*
X150690476Y-88202200D02*
X150785714Y-88249819D01*
X150785714Y-88249819D02*
X150976190Y-88249819D01*
X150976190Y-88249819D02*
X151071428Y-88202200D01*
X151071428Y-88202200D02*
X151119047Y-88154580D01*
X151119047Y-88154580D02*
X151166666Y-88059342D01*
X151166666Y-88059342D02*
X151166666Y-87868866D01*
X151166666Y-87868866D02*
X151119047Y-87773628D01*
X151119047Y-87773628D02*
X151071428Y-87726009D01*
X151071428Y-87726009D02*
X150976190Y-87678390D01*
X129333333Y-111854819D02*
X129000000Y-111378628D01*
X128761905Y-111854819D02*
X128761905Y-110854819D01*
X128761905Y-110854819D02*
X129142857Y-110854819D01*
X129142857Y-110854819D02*
X129238095Y-110902438D01*
X129238095Y-110902438D02*
X129285714Y-110950057D01*
X129285714Y-110950057D02*
X129333333Y-111045295D01*
X129333333Y-111045295D02*
X129333333Y-111188152D01*
X129333333Y-111188152D02*
X129285714Y-111283390D01*
X129285714Y-111283390D02*
X129238095Y-111331009D01*
X129238095Y-111331009D02*
X129142857Y-111378628D01*
X129142857Y-111378628D02*
X128761905Y-111378628D01*
X129666667Y-110854819D02*
X130333333Y-110854819D01*
X130333333Y-110854819D02*
X129904762Y-111854819D01*
D13*
%TO.C,R4*%
X151265000Y-70272936D02*
X151265000Y-70727064D01*
X152735000Y-70272936D02*
X152735000Y-70727064D01*
D14*
%TO.C,G\u002A\u002A\u002A*%
G36*
X113450133Y-50844210D02*
G01*
X113450133Y-51488597D01*
X112805746Y-51488597D01*
X112161359Y-51488597D01*
X112161359Y-50844210D01*
X112161359Y-50199823D01*
X112805746Y-50199823D01*
X113450133Y-50199823D01*
X113450133Y-50844210D01*
G37*
G36*
X113450133Y-52522105D02*
G01*
X113450133Y-53167085D01*
X112805746Y-53167085D01*
X112161359Y-53167085D01*
X112161359Y-52522105D01*
X112161359Y-51877125D01*
X112805746Y-51877125D01*
X113450133Y-51877125D01*
X113450133Y-52522105D01*
G37*
G36*
X113450133Y-55877895D02*
G01*
X113450133Y-56522874D01*
X112805746Y-56522874D01*
X112161359Y-56522874D01*
X112161359Y-55877895D01*
X112161359Y-55232915D01*
X112805746Y-55232915D01*
X113450133Y-55232915D01*
X113450133Y-55877895D01*
G37*
G36*
X113450133Y-57555789D02*
G01*
X113450133Y-58200177D01*
X112805746Y-58200177D01*
X112161359Y-58200177D01*
X112161359Y-57555789D01*
X112161359Y-56911402D01*
X112805746Y-56911402D01*
X113450133Y-56911402D01*
X113450133Y-57555789D01*
G37*
G36*
X115048072Y-50844210D02*
G01*
X115048072Y-51488597D01*
X114403685Y-51488597D01*
X113759297Y-51488597D01*
X113759297Y-50844210D01*
X113759297Y-50199823D01*
X114403685Y-50199823D01*
X115048072Y-50199823D01*
X115048072Y-50844210D01*
G37*
G36*
X115048072Y-52522105D02*
G01*
X115048072Y-53167085D01*
X114403685Y-53167085D01*
X113759297Y-53167085D01*
X113759297Y-52522105D01*
X113759297Y-51877125D01*
X114403685Y-51877125D01*
X115048072Y-51877125D01*
X115048072Y-52522105D01*
G37*
G36*
X115048072Y-55877895D02*
G01*
X115048072Y-56522874D01*
X114403685Y-56522874D01*
X113759297Y-56522874D01*
X113759297Y-55877895D01*
X113759297Y-55232915D01*
X114403685Y-55232915D01*
X115048072Y-55232915D01*
X115048072Y-55877895D01*
G37*
G36*
X115048072Y-57555789D02*
G01*
X115048072Y-58200177D01*
X114403685Y-58200177D01*
X113759297Y-58200177D01*
X113759297Y-57555789D01*
X113759297Y-56911402D01*
X114403685Y-56911402D01*
X115048072Y-56911402D01*
X115048072Y-57555789D01*
G37*
G36*
X116646011Y-50844210D02*
G01*
X116646011Y-51488597D01*
X116001623Y-51488597D01*
X115357236Y-51488597D01*
X115357236Y-50844210D01*
X115357236Y-50199823D01*
X116001623Y-50199823D01*
X116646011Y-50199823D01*
X116646011Y-50844210D01*
G37*
G36*
X116646011Y-52522105D02*
G01*
X116646011Y-53167085D01*
X116001623Y-53167085D01*
X115357236Y-53167085D01*
X115357236Y-52522105D01*
X115357236Y-51877125D01*
X116001623Y-51877125D01*
X116646011Y-51877125D01*
X116646011Y-52522105D01*
G37*
G36*
X116646011Y-55877895D02*
G01*
X116646011Y-56522874D01*
X116001623Y-56522874D01*
X115357236Y-56522874D01*
X115357236Y-55877895D01*
X115357236Y-55232915D01*
X116001623Y-55232915D01*
X116646011Y-55232915D01*
X116646011Y-55877895D01*
G37*
G36*
X116646011Y-57555789D02*
G01*
X116646011Y-58200177D01*
X116001623Y-58200177D01*
X115357236Y-58200177D01*
X115357236Y-57555789D01*
X115357236Y-56911402D01*
X116001623Y-56911402D01*
X116646011Y-56911402D01*
X116646011Y-57555789D01*
G37*
G36*
X116668517Y-53966054D02*
G01*
X116668517Y-54109975D01*
X116624689Y-54109975D01*
X116580861Y-54109975D01*
X116580861Y-53966054D01*
X116580861Y-53822133D01*
X116624689Y-53822133D01*
X116668517Y-53822133D01*
X116668517Y-53966054D01*
G37*
G36*
X116865150Y-53966054D02*
G01*
X116865150Y-54109975D01*
X116821322Y-54109975D01*
X116777494Y-54109975D01*
X116777494Y-53966054D01*
X116777494Y-53822133D01*
X116821322Y-53822133D01*
X116865150Y-53822133D01*
X116865150Y-53966054D01*
G37*
G36*
X118243950Y-50844210D02*
G01*
X118243950Y-51488597D01*
X117599562Y-51488597D01*
X116955175Y-51488597D01*
X116955175Y-50844210D01*
X116955175Y-50199823D01*
X117599562Y-50199823D01*
X118243950Y-50199823D01*
X118243950Y-50844210D01*
G37*
G36*
X118243950Y-52522105D02*
G01*
X118243950Y-53167085D01*
X117599562Y-53167085D01*
X116955175Y-53167085D01*
X116955175Y-52522105D01*
X116955175Y-51877125D01*
X117599562Y-51877125D01*
X118243950Y-51877125D01*
X118243950Y-52522105D01*
G37*
G36*
X118243950Y-55877895D02*
G01*
X118243950Y-56522874D01*
X117599562Y-56522874D01*
X116955175Y-56522874D01*
X116955175Y-55877895D01*
X116955175Y-55232915D01*
X117599562Y-55232915D01*
X118243950Y-55232915D01*
X118243950Y-55877895D01*
G37*
G36*
X118243950Y-57555789D02*
G01*
X118243950Y-58200177D01*
X117599562Y-58200177D01*
X116955175Y-58200177D01*
X116955175Y-57555789D01*
X116955175Y-56911402D01*
X117599562Y-56911402D01*
X118243950Y-56911402D01*
X118243950Y-57555789D01*
G37*
G36*
X119415455Y-53966054D02*
G01*
X119415455Y-54109975D01*
X119371035Y-54109975D01*
X119326615Y-54109975D01*
X119326615Y-53966054D01*
X119326615Y-53822133D01*
X119371035Y-53822133D01*
X119415455Y-53822133D01*
X119415455Y-53966054D01*
G37*
G36*
X119612088Y-53966054D02*
G01*
X119612088Y-54109975D01*
X119567668Y-54109975D01*
X119523248Y-54109975D01*
X119523248Y-53966054D01*
X119523248Y-53822133D01*
X119567668Y-53822133D01*
X119612088Y-53822133D01*
X119612088Y-53966054D01*
G37*
G36*
X119841888Y-50844210D02*
G01*
X119841888Y-51488597D01*
X119197501Y-51488597D01*
X118553113Y-51488597D01*
X118553113Y-50844210D01*
X118553113Y-50199823D01*
X119197501Y-50199823D01*
X119841888Y-50199823D01*
X119841888Y-50844210D01*
G37*
G36*
X119841888Y-52522105D02*
G01*
X119841888Y-53167085D01*
X119197501Y-53167085D01*
X118553113Y-53167085D01*
X118553113Y-52522105D01*
X118553113Y-51877125D01*
X119197501Y-51877125D01*
X119841888Y-51877125D01*
X119841888Y-52522105D01*
G37*
G36*
X119841888Y-55877895D02*
G01*
X119841888Y-56522874D01*
X119197501Y-56522874D01*
X118553113Y-56522874D01*
X118553113Y-55877895D01*
X118553113Y-55232915D01*
X119197501Y-55232915D01*
X119841888Y-55232915D01*
X119841888Y-55877895D01*
G37*
G36*
X119841888Y-57555789D02*
G01*
X119841888Y-58200177D01*
X119197501Y-58200177D01*
X118553113Y-58200177D01*
X118553113Y-57555789D01*
X118553113Y-56911402D01*
X119197501Y-56911402D01*
X119841888Y-56911402D01*
X119841888Y-57555789D01*
G37*
G36*
X121439827Y-50844210D02*
G01*
X121439827Y-51488597D01*
X120795440Y-51488597D01*
X120151052Y-51488597D01*
X120151052Y-50844210D01*
X120151052Y-50199823D01*
X120795440Y-50199823D01*
X121439827Y-50199823D01*
X121439827Y-50844210D01*
G37*
G36*
X121439827Y-52522105D02*
G01*
X121439827Y-53167085D01*
X120795440Y-53167085D01*
X120151052Y-53167085D01*
X120151052Y-52522105D01*
X120151052Y-51877125D01*
X120795440Y-51877125D01*
X121439827Y-51877125D01*
X121439827Y-52522105D01*
G37*
G36*
X121439827Y-55877895D02*
G01*
X121439827Y-56522874D01*
X120795440Y-56522874D01*
X120151052Y-56522874D01*
X120151052Y-55877895D01*
X120151052Y-55232915D01*
X120795440Y-55232915D01*
X121439827Y-55232915D01*
X121439827Y-55877895D01*
G37*
G36*
X121439827Y-57555789D02*
G01*
X121439827Y-58200177D01*
X120795440Y-58200177D01*
X120151052Y-58200177D01*
X120151052Y-57555789D01*
X120151052Y-56911402D01*
X120795440Y-56911402D01*
X121439827Y-56911402D01*
X121439827Y-57555789D01*
G37*
G36*
X117174608Y-54146180D02*
G01*
X117174906Y-54470227D01*
X117346652Y-54146180D01*
X117518399Y-53822133D01*
X117589186Y-53822133D01*
X117659973Y-53822133D01*
X117659973Y-54210068D01*
X117659973Y-54598004D01*
X117609041Y-54598004D01*
X117558108Y-54598004D01*
X117557809Y-54273860D01*
X117557511Y-53949717D01*
X117385753Y-54273848D01*
X117213996Y-54597980D01*
X117143220Y-54597992D01*
X117072444Y-54598004D01*
X117072444Y-54210068D01*
X117072444Y-53822133D01*
X117123377Y-53822133D01*
X117174310Y-53822133D01*
X117174608Y-54146180D01*
G37*
G36*
X114862393Y-54013372D02*
G01*
X114862692Y-54204611D01*
X115049751Y-54013372D01*
X115236811Y-53822133D01*
X115304416Y-53822133D01*
X115372022Y-53822133D01*
X115347047Y-53847304D01*
X115343020Y-53851377D01*
X115337470Y-53857011D01*
X115330529Y-53864074D01*
X115322328Y-53872430D01*
X115312997Y-53881947D01*
X115302668Y-53892490D01*
X115291472Y-53903925D01*
X115279540Y-53916118D01*
X115267004Y-53928936D01*
X115253994Y-53942243D01*
X115240643Y-53955907D01*
X115227080Y-53969793D01*
X115216275Y-53980861D01*
X115202766Y-53994698D01*
X115189447Y-54008336D01*
X115176442Y-54021649D01*
X115163875Y-54034510D01*
X115151868Y-54046793D01*
X115140545Y-54058373D01*
X115130029Y-54069123D01*
X115120444Y-54078917D01*
X115111912Y-54087629D01*
X115104558Y-54095133D01*
X115098503Y-54101303D01*
X115093873Y-54106013D01*
X115091098Y-54108825D01*
X115071718Y-54128405D01*
X115229345Y-54362908D01*
X115386971Y-54597411D01*
X115330349Y-54597733D01*
X115317305Y-54597804D01*
X115306427Y-54597853D01*
X115297507Y-54597872D01*
X115290343Y-54597853D01*
X115284728Y-54597790D01*
X115280459Y-54597676D01*
X115277331Y-54597503D01*
X115275139Y-54597264D01*
X115273678Y-54596952D01*
X115272743Y-54596560D01*
X115272130Y-54596080D01*
X115271777Y-54595681D01*
X115270930Y-54594475D01*
X115268824Y-54591398D01*
X115265525Y-54586545D01*
X115261094Y-54580010D01*
X115255598Y-54571888D01*
X115249098Y-54562275D01*
X115241660Y-54551264D01*
X115233347Y-54538951D01*
X115224224Y-54525430D01*
X115214353Y-54510797D01*
X115203800Y-54495145D01*
X115192628Y-54478569D01*
X115180901Y-54461165D01*
X115168682Y-54443027D01*
X115156037Y-54424250D01*
X115143028Y-54404928D01*
X115138057Y-54397542D01*
X115124937Y-54378053D01*
X115112160Y-54359080D01*
X115099791Y-54340717D01*
X115087892Y-54323058D01*
X115076528Y-54306198D01*
X115065762Y-54290232D01*
X115055658Y-54275252D01*
X115046279Y-54261354D01*
X115037689Y-54248632D01*
X115029951Y-54237180D01*
X115023130Y-54227092D01*
X115017289Y-54218463D01*
X115012491Y-54211386D01*
X115008799Y-54205956D01*
X115006279Y-54202267D01*
X115004993Y-54200413D01*
X115004841Y-54200209D01*
X115004308Y-54200201D01*
X115003205Y-54200841D01*
X115001440Y-54202221D01*
X114998918Y-54204432D01*
X114995548Y-54207564D01*
X114991236Y-54211710D01*
X114985889Y-54216960D01*
X114979414Y-54223404D01*
X114971717Y-54231135D01*
X114962706Y-54240243D01*
X114952288Y-54250819D01*
X114940369Y-54262954D01*
X114932784Y-54270689D01*
X114862174Y-54342736D01*
X114862137Y-54470370D01*
X114862100Y-54598004D01*
X114809388Y-54598004D01*
X114756676Y-54598004D01*
X114756676Y-54210068D01*
X114756676Y-53822133D01*
X114809385Y-53822133D01*
X114862093Y-53822133D01*
X114862393Y-54013372D01*
G37*
G36*
X121439827Y-54200000D02*
G01*
X121439827Y-54844387D01*
X116800593Y-54844387D01*
X112161359Y-54844387D01*
X112161359Y-54466617D01*
X112251597Y-54466617D01*
X112251598Y-54495872D01*
X112251603Y-54523943D01*
X112251609Y-54550756D01*
X112251618Y-54576239D01*
X112251629Y-54600316D01*
X112251642Y-54622916D01*
X112251658Y-54643963D01*
X112251676Y-54663385D01*
X112251696Y-54681107D01*
X112251718Y-54697056D01*
X112251742Y-54711159D01*
X112251768Y-54723341D01*
X112251796Y-54733529D01*
X112251826Y-54741648D01*
X112251858Y-54747627D01*
X112251892Y-54751390D01*
X112251928Y-54752864D01*
X112251932Y-54752882D01*
X112252346Y-54752924D01*
X112253570Y-54752966D01*
X112255622Y-54753007D01*
X112258522Y-54753046D01*
X112262288Y-54753086D01*
X112266939Y-54753124D01*
X112272494Y-54753161D01*
X112278973Y-54753198D01*
X112286394Y-54753234D01*
X112294776Y-54753269D01*
X112304138Y-54753304D01*
X112314500Y-54753337D01*
X112325880Y-54753370D01*
X112338298Y-54753402D01*
X112351771Y-54753433D01*
X112366320Y-54753464D01*
X112381963Y-54753494D01*
X112398719Y-54753523D01*
X112416608Y-54753551D01*
X112435647Y-54753579D01*
X112455857Y-54753606D01*
X112477257Y-54753632D01*
X112499864Y-54753658D01*
X112523698Y-54753682D01*
X112548779Y-54753706D01*
X112575125Y-54753730D01*
X112602755Y-54753753D01*
X112631689Y-54753775D01*
X112661944Y-54753796D01*
X112693541Y-54753816D01*
X112726498Y-54753836D01*
X112760834Y-54753856D01*
X112796568Y-54753874D01*
X112833719Y-54753892D01*
X112872306Y-54753910D01*
X112912349Y-54753926D01*
X112953866Y-54753942D01*
X112996876Y-54753958D01*
X113041397Y-54753972D01*
X113087451Y-54753987D01*
X113135054Y-54754000D01*
X113184226Y-54754013D01*
X113234986Y-54754025D01*
X113287354Y-54754037D01*
X113341347Y-54754048D01*
X113396986Y-54754058D01*
X113454289Y-54754068D01*
X113513275Y-54754077D01*
X113573962Y-54754086D01*
X113636371Y-54754094D01*
X113700520Y-54754102D01*
X113766428Y-54754108D01*
X113834114Y-54754115D01*
X113903597Y-54754121D01*
X113974897Y-54754126D01*
X114048031Y-54754131D01*
X114123019Y-54754135D01*
X114199880Y-54754138D01*
X114278633Y-54754141D01*
X114359298Y-54754144D01*
X114441892Y-54754146D01*
X114526435Y-54754148D01*
X114612946Y-54754149D01*
X114701445Y-54754149D01*
X114791949Y-54754149D01*
X114884478Y-54754148D01*
X114979051Y-54754147D01*
X115075687Y-54754146D01*
X115174405Y-54754144D01*
X115275224Y-54754141D01*
X115378163Y-54754138D01*
X115483241Y-54754135D01*
X115590477Y-54754131D01*
X115699890Y-54754127D01*
X115811498Y-54754122D01*
X115925322Y-54754117D01*
X116041380Y-54754111D01*
X116159690Y-54754105D01*
X116280272Y-54754098D01*
X116403146Y-54754091D01*
X116528329Y-54754084D01*
X116655841Y-54754076D01*
X116785701Y-54754067D01*
X116800852Y-54754066D01*
X121349210Y-54753770D01*
X121349210Y-54200000D01*
X121349210Y-53646229D01*
X116800593Y-53646229D01*
X112251975Y-53646229D01*
X112251673Y-54198815D01*
X112251654Y-54234886D01*
X112251638Y-54270362D01*
X112251625Y-54305171D01*
X112251614Y-54339238D01*
X112251606Y-54372490D01*
X112251600Y-54404853D01*
X112251597Y-54436253D01*
X112251597Y-54466617D01*
X112161359Y-54466617D01*
X112161359Y-54200000D01*
X112161359Y-53555612D01*
X116800593Y-53555612D01*
X121439827Y-53555612D01*
X121439827Y-54200000D01*
G37*
G36*
X116008731Y-53865368D02*
G01*
X116008731Y-53908604D01*
X115813282Y-53908604D01*
X115617834Y-53908604D01*
X115617834Y-54024599D01*
X115617834Y-54140593D01*
X115722369Y-54141110D01*
X115743810Y-54141232D01*
X115763258Y-54141378D01*
X115780664Y-54141546D01*
X115795984Y-54141736D01*
X115809171Y-54141947D01*
X115820179Y-54142178D01*
X115828961Y-54142428D01*
X115835470Y-54142697D01*
X115839662Y-54142984D01*
X115839934Y-54143012D01*
X115866692Y-54146580D01*
X115891509Y-54151405D01*
X115914472Y-54157524D01*
X115935672Y-54164972D01*
X115955196Y-54173786D01*
X115973133Y-54184002D01*
X115989573Y-54195656D01*
X116004603Y-54208784D01*
X116007031Y-54211172D01*
X116020205Y-54225749D01*
X116031449Y-54241261D01*
X116040867Y-54257910D01*
X116048566Y-54275900D01*
X116054650Y-54295433D01*
X116057831Y-54309266D01*
X116059745Y-54319526D01*
X116061185Y-54329150D01*
X116062190Y-54338683D01*
X116062798Y-54348666D01*
X116063050Y-54359643D01*
X116062982Y-54372156D01*
X116062839Y-54379270D01*
X116062416Y-54392248D01*
X116061780Y-54403405D01*
X116060865Y-54413286D01*
X116059606Y-54422435D01*
X116057936Y-54431397D01*
X116055789Y-54440714D01*
X116055049Y-54443635D01*
X116048553Y-54464531D01*
X116040234Y-54483915D01*
X116030093Y-54501786D01*
X116018132Y-54518142D01*
X116004352Y-54532982D01*
X115988757Y-54546303D01*
X115971346Y-54558106D01*
X115952122Y-54568387D01*
X115931087Y-54577147D01*
X115908242Y-54584382D01*
X115885593Y-54589699D01*
X115880447Y-54590727D01*
X115875742Y-54591658D01*
X115871342Y-54592496D01*
X115867109Y-54593247D01*
X115862908Y-54593916D01*
X115858602Y-54594508D01*
X115854054Y-54595028D01*
X115849129Y-54595481D01*
X115843689Y-54595873D01*
X115837598Y-54596208D01*
X115830720Y-54596493D01*
X115822918Y-54596731D01*
X115814056Y-54596929D01*
X115803997Y-54597090D01*
X115792605Y-54597222D01*
X115779743Y-54597328D01*
X115765275Y-54597413D01*
X115749065Y-54597484D01*
X115730976Y-54597545D01*
X115710871Y-54597601D01*
X115688614Y-54597658D01*
X115674395Y-54597694D01*
X115512410Y-54598106D01*
X115512410Y-54227098D01*
X115617834Y-54227098D01*
X115617834Y-54369381D01*
X115617834Y-54511663D01*
X115721185Y-54511200D01*
X115739244Y-54511118D01*
X115755100Y-54511039D01*
X115768920Y-54510961D01*
X115780872Y-54510879D01*
X115791120Y-54510788D01*
X115799832Y-54510684D01*
X115807174Y-54510563D01*
X115813313Y-54510420D01*
X115818415Y-54510251D01*
X115822648Y-54510052D01*
X115826176Y-54509819D01*
X115829168Y-54509546D01*
X115831789Y-54509230D01*
X115834206Y-54508867D01*
X115836586Y-54508452D01*
X115838157Y-54508158D01*
X115857722Y-54503659D01*
X115875260Y-54497951D01*
X115890766Y-54491037D01*
X115904238Y-54482917D01*
X115915673Y-54473595D01*
X115920405Y-54468729D01*
X115930033Y-54456521D01*
X115937893Y-54443194D01*
X115944095Y-54428514D01*
X115948746Y-54412249D01*
X115950257Y-54404924D01*
X115951234Y-54397821D01*
X115951926Y-54388997D01*
X115952332Y-54379057D01*
X115952452Y-54368610D01*
X115952283Y-54358260D01*
X115951826Y-54348616D01*
X115951079Y-54340283D01*
X115950367Y-54335468D01*
X115946121Y-54317708D01*
X115940247Y-54301651D01*
X115932710Y-54287260D01*
X115923476Y-54274500D01*
X115912512Y-54263334D01*
X115899782Y-54253728D01*
X115885254Y-54245644D01*
X115868892Y-54239047D01*
X115854803Y-54234902D01*
X115850182Y-54233746D01*
X115845919Y-54232727D01*
X115841835Y-54231837D01*
X115837753Y-54231065D01*
X115833494Y-54230403D01*
X115828882Y-54229840D01*
X115823738Y-54229367D01*
X115817885Y-54228974D01*
X115811144Y-54228653D01*
X115803339Y-54228394D01*
X115794291Y-54228186D01*
X115783823Y-54228021D01*
X115771756Y-54227889D01*
X115757914Y-54227781D01*
X115742118Y-54227686D01*
X115724191Y-54227597D01*
X115717631Y-54227566D01*
X115617834Y-54227098D01*
X115512410Y-54227098D01*
X115512410Y-54210119D01*
X115512410Y-53822133D01*
X115760570Y-53822133D01*
X116008731Y-53822133D01*
X116008731Y-53865368D01*
G37*
G36*
X118859908Y-53822165D02*
G01*
X118919727Y-53822191D01*
X119064833Y-54203164D01*
X119075871Y-54232146D01*
X119086706Y-54260592D01*
X119097305Y-54288422D01*
X119107638Y-54315552D01*
X119117673Y-54341901D01*
X119127380Y-54367388D01*
X119136726Y-54391931D01*
X119145682Y-54415447D01*
X119154216Y-54437854D01*
X119162296Y-54459072D01*
X119169891Y-54479018D01*
X119176971Y-54497611D01*
X119183504Y-54514767D01*
X119189459Y-54530407D01*
X119194805Y-54544447D01*
X119199510Y-54556806D01*
X119203544Y-54567403D01*
X119206876Y-54576154D01*
X119209473Y-54582979D01*
X119211305Y-54587796D01*
X119212342Y-54590523D01*
X119212554Y-54591083D01*
X119215169Y-54598027D01*
X119160505Y-54597719D01*
X119105840Y-54597411D01*
X119070713Y-54498503D01*
X119035586Y-54399594D01*
X118860388Y-54399309D01*
X118685189Y-54399025D01*
X118650917Y-54495849D01*
X118645759Y-54510415D01*
X118640810Y-54524377D01*
X118636129Y-54537569D01*
X118631776Y-54549823D01*
X118627811Y-54560974D01*
X118624291Y-54570854D01*
X118621278Y-54579298D01*
X118618829Y-54586138D01*
X118617005Y-54591209D01*
X118615865Y-54594343D01*
X118615487Y-54595339D01*
X118614329Y-54598004D01*
X118559438Y-54598004D01*
X118548289Y-54597986D01*
X118537900Y-54597936D01*
X118528503Y-54597857D01*
X118520331Y-54597753D01*
X118513618Y-54597627D01*
X118508596Y-54597482D01*
X118505498Y-54597323D01*
X118504547Y-54597168D01*
X118504965Y-54596012D01*
X118506198Y-54592721D01*
X118508215Y-54587376D01*
X118510987Y-54580057D01*
X118514483Y-54570842D01*
X118518673Y-54559811D01*
X118523526Y-54547043D01*
X118529014Y-54532619D01*
X118535104Y-54516616D01*
X118541767Y-54499116D01*
X118548973Y-54480197D01*
X118556691Y-54459938D01*
X118564892Y-54438420D01*
X118573544Y-54415721D01*
X118582618Y-54391921D01*
X118592083Y-54367100D01*
X118601910Y-54341336D01*
X118612067Y-54314710D01*
X118613681Y-54310481D01*
X118717764Y-54310481D01*
X118718924Y-54310592D01*
X118722309Y-54310698D01*
X118727773Y-54310799D01*
X118735172Y-54310895D01*
X118744361Y-54310983D01*
X118755195Y-54311065D01*
X118767530Y-54311137D01*
X118781220Y-54311201D01*
X118796122Y-54311254D01*
X118812089Y-54311295D01*
X118828978Y-54311325D01*
X118846643Y-54311342D01*
X118859908Y-54311346D01*
X118878048Y-54311341D01*
X118895516Y-54311326D01*
X118912169Y-54311302D01*
X118927860Y-54311269D01*
X118942447Y-54311228D01*
X118955782Y-54311180D01*
X118967723Y-54311126D01*
X118978124Y-54311065D01*
X118986840Y-54310999D01*
X118993727Y-54310928D01*
X118998640Y-54310853D01*
X119001434Y-54310775D01*
X119002052Y-54310716D01*
X119001648Y-54309509D01*
X119000470Y-54306221D01*
X118998569Y-54300990D01*
X118995997Y-54293954D01*
X118992805Y-54285253D01*
X118989045Y-54275025D01*
X118984767Y-54263408D01*
X118980023Y-54250542D01*
X118974865Y-54236564D01*
X118969344Y-54221614D01*
X118963511Y-54205830D01*
X118957417Y-54189351D01*
X118951115Y-54172315D01*
X118944654Y-54154861D01*
X118938088Y-54137128D01*
X118931466Y-54119253D01*
X118924841Y-54101377D01*
X118918264Y-54083637D01*
X118911786Y-54066172D01*
X118905459Y-54049121D01*
X118899333Y-54032622D01*
X118893460Y-54016814D01*
X118887892Y-54001835D01*
X118882680Y-53987825D01*
X118877876Y-53974921D01*
X118873530Y-53963263D01*
X118869694Y-53952988D01*
X118866419Y-53944237D01*
X118863757Y-53937146D01*
X118861760Y-53931856D01*
X118860477Y-53928504D01*
X118859962Y-53927229D01*
X118859957Y-53927222D01*
X118859491Y-53928239D01*
X118858257Y-53931340D01*
X118856307Y-53936389D01*
X118853690Y-53943248D01*
X118850460Y-53951778D01*
X118846665Y-53961842D01*
X118842359Y-53973303D01*
X118837591Y-53986021D01*
X118832414Y-53999861D01*
X118826877Y-54014682D01*
X118821033Y-54030349D01*
X118814932Y-54046723D01*
X118808626Y-54063665D01*
X118802165Y-54081040D01*
X118795601Y-54098707D01*
X118788985Y-54116531D01*
X118782368Y-54134373D01*
X118775802Y-54152094D01*
X118769336Y-54169558D01*
X118763023Y-54186627D01*
X118756914Y-54203162D01*
X118751059Y-54219026D01*
X118745510Y-54234082D01*
X118740318Y-54248190D01*
X118735534Y-54261214D01*
X118731210Y-54273016D01*
X118727396Y-54283457D01*
X118724143Y-54292400D01*
X118721503Y-54299708D01*
X118719526Y-54305242D01*
X118718265Y-54308864D01*
X118717769Y-54310438D01*
X118717764Y-54310481D01*
X118613681Y-54310481D01*
X118622525Y-54287300D01*
X118633253Y-54259187D01*
X118644221Y-54230449D01*
X118652318Y-54209236D01*
X118800089Y-53822140D01*
X118859908Y-53822165D01*
G37*
G36*
X114239786Y-53808210D02*
G01*
X114251756Y-53808492D01*
X114263315Y-53808943D01*
X114273915Y-53809551D01*
X114283007Y-53810306D01*
X114287296Y-53810796D01*
X114316046Y-53815576D01*
X114343395Y-53822255D01*
X114369392Y-53830853D01*
X114394084Y-53841394D01*
X114417518Y-53853898D01*
X114439741Y-53868389D01*
X114460801Y-53884888D01*
X114476388Y-53899105D01*
X114495517Y-53919082D01*
X114512807Y-53940063D01*
X114528301Y-53962147D01*
X114542042Y-53985429D01*
X114554072Y-54010006D01*
X114564436Y-54035976D01*
X114573176Y-54063435D01*
X114580336Y-54092480D01*
X114585957Y-54123207D01*
X114589888Y-54153803D01*
X114590448Y-54160888D01*
X114590884Y-54169925D01*
X114591196Y-54180500D01*
X114591388Y-54192197D01*
X114591462Y-54204603D01*
X114591419Y-54217304D01*
X114591262Y-54229885D01*
X114590992Y-54241932D01*
X114590613Y-54253031D01*
X114590126Y-54262768D01*
X114589533Y-54270729D01*
X114589280Y-54273204D01*
X114584729Y-54305705D01*
X114578585Y-54336499D01*
X114570822Y-54365655D01*
X114561409Y-54393246D01*
X114550320Y-54419341D01*
X114537527Y-54444014D01*
X114523000Y-54467334D01*
X114506712Y-54489372D01*
X114500995Y-54496317D01*
X114494784Y-54503340D01*
X114487430Y-54511121D01*
X114479408Y-54519201D01*
X114471190Y-54527119D01*
X114463251Y-54534415D01*
X114456063Y-54540629D01*
X114452251Y-54543691D01*
X114430703Y-54559058D01*
X114408441Y-54572385D01*
X114385291Y-54583743D01*
X114361077Y-54593202D01*
X114335625Y-54600834D01*
X114308761Y-54606709D01*
X114288366Y-54609901D01*
X114279743Y-54610831D01*
X114269342Y-54611611D01*
X114257732Y-54612227D01*
X114245481Y-54612664D01*
X114233159Y-54612908D01*
X114221333Y-54612943D01*
X114210573Y-54612757D01*
X114201447Y-54612333D01*
X114199352Y-54612177D01*
X114169510Y-54608713D01*
X114141020Y-54603310D01*
X114113857Y-54595958D01*
X114087994Y-54586646D01*
X114063405Y-54575360D01*
X114040062Y-54562090D01*
X114017939Y-54546824D01*
X113997010Y-54529549D01*
X113983734Y-54516938D01*
X113964554Y-54496033D01*
X113947179Y-54473612D01*
X113931617Y-54449706D01*
X113917878Y-54424346D01*
X113905972Y-54397564D01*
X113895906Y-54369390D01*
X113887692Y-54339855D01*
X113881339Y-54308990D01*
X113876855Y-54276826D01*
X113874250Y-54243395D01*
X113873650Y-54214325D01*
X113984311Y-54214325D01*
X113985178Y-54242203D01*
X113987394Y-54269634D01*
X113990958Y-54296229D01*
X113995868Y-54321597D01*
X114001159Y-54342108D01*
X114009521Y-54367248D01*
X114019433Y-54390734D01*
X114030848Y-54412522D01*
X114043719Y-54432571D01*
X114057998Y-54450839D01*
X114073639Y-54467282D01*
X114090594Y-54481858D01*
X114108817Y-54494524D01*
X114128259Y-54505238D01*
X114148875Y-54513958D01*
X114170616Y-54520641D01*
X114193436Y-54525244D01*
X114205867Y-54526817D01*
X114212983Y-54527304D01*
X114221828Y-54527547D01*
X114231775Y-54527561D01*
X114242198Y-54527360D01*
X114252471Y-54526961D01*
X114261968Y-54526377D01*
X114270062Y-54525625D01*
X114273296Y-54525203D01*
X114295933Y-54520722D01*
X114317487Y-54514138D01*
X114337931Y-54505470D01*
X114357239Y-54494736D01*
X114375382Y-54481955D01*
X114392334Y-54467145D01*
X114408068Y-54450323D01*
X114422556Y-54431510D01*
X114431199Y-54418373D01*
X114443001Y-54397324D01*
X114453197Y-54374901D01*
X114461815Y-54351013D01*
X114468883Y-54325567D01*
X114474429Y-54298472D01*
X114478479Y-54269635D01*
X114479646Y-54258042D01*
X114480196Y-54250098D01*
X114480607Y-54240306D01*
X114480882Y-54229182D01*
X114481019Y-54217243D01*
X114481020Y-54205006D01*
X114480884Y-54192987D01*
X114480612Y-54181704D01*
X114480203Y-54171672D01*
X114479659Y-54163409D01*
X114479596Y-54162687D01*
X114475968Y-54132276D01*
X114470687Y-54103556D01*
X114463751Y-54076517D01*
X114455156Y-54051146D01*
X114444898Y-54027434D01*
X114432973Y-54005368D01*
X114419377Y-53984938D01*
X114415720Y-53980090D01*
X114400489Y-53962120D01*
X114384196Y-53946255D01*
X114366822Y-53932483D01*
X114348343Y-53920796D01*
X114328739Y-53911182D01*
X114307988Y-53903632D01*
X114286069Y-53898135D01*
X114262959Y-53894680D01*
X114238637Y-53893258D01*
X114233704Y-53893216D01*
X114208992Y-53894224D01*
X114185472Y-53897277D01*
X114163125Y-53902385D01*
X114141930Y-53909555D01*
X114121870Y-53918796D01*
X114102925Y-53930118D01*
X114085077Y-53943528D01*
X114068306Y-53959036D01*
X114053024Y-53976122D01*
X114042140Y-53990757D01*
X114031764Y-54007306D01*
X114022113Y-54025335D01*
X114013404Y-54044408D01*
X114005856Y-54064089D01*
X114000257Y-54081880D01*
X113994359Y-54106143D01*
X113989817Y-54131909D01*
X113986629Y-54158788D01*
X113984794Y-54186390D01*
X113984311Y-54214325D01*
X113873650Y-54214325D01*
X113873535Y-54208726D01*
X113874717Y-54172852D01*
X113875513Y-54160910D01*
X113878918Y-54128699D01*
X113884212Y-54097607D01*
X113891365Y-54067702D01*
X113900349Y-54039050D01*
X113911133Y-54011718D01*
X113923687Y-53985773D01*
X113937983Y-53961282D01*
X113953989Y-53938310D01*
X113971677Y-53916926D01*
X113991017Y-53897196D01*
X113994218Y-53894238D01*
X114014704Y-53876944D01*
X114036046Y-53861676D01*
X114058352Y-53848386D01*
X114081733Y-53837030D01*
X114106297Y-53827562D01*
X114132156Y-53819935D01*
X114159419Y-53814104D01*
X114188194Y-53810024D01*
X114198743Y-53808992D01*
X114206883Y-53808488D01*
X114216802Y-53808197D01*
X114227952Y-53808108D01*
X114239786Y-53808210D01*
G37*
G36*
X118017999Y-53822157D02*
G01*
X118041041Y-53822164D01*
X118061854Y-53822179D01*
X118080577Y-53822206D01*
X118097351Y-53822248D01*
X118112315Y-53822309D01*
X118125610Y-53822392D01*
X118137375Y-53822500D01*
X118147749Y-53822637D01*
X118156874Y-53822807D01*
X118164888Y-53823012D01*
X118171932Y-53823256D01*
X118178145Y-53823544D01*
X118183668Y-53823877D01*
X118188639Y-53824260D01*
X118193200Y-53824696D01*
X118197490Y-53825188D01*
X118201648Y-53825741D01*
X118205815Y-53826356D01*
X118209006Y-53826858D01*
X118233506Y-53831677D01*
X118256356Y-53838016D01*
X118277516Y-53845851D01*
X118296946Y-53855161D01*
X118314605Y-53865923D01*
X118330453Y-53878114D01*
X118344448Y-53891712D01*
X118356551Y-53906694D01*
X118358960Y-53910180D01*
X118366557Y-53922599D01*
X118372813Y-53935371D01*
X118377963Y-53949070D01*
X118382241Y-53964269D01*
X118383792Y-53971043D01*
X118384975Y-53978120D01*
X118385924Y-53986991D01*
X118386621Y-53997090D01*
X118387047Y-54007851D01*
X118387185Y-54018710D01*
X118387015Y-54029101D01*
X118386520Y-54038459D01*
X118386123Y-54042770D01*
X118382906Y-54063205D01*
X118377911Y-54082085D01*
X118371151Y-54099396D01*
X118362638Y-54115122D01*
X118352386Y-54129251D01*
X118340406Y-54141766D01*
X118326711Y-54152654D01*
X118311314Y-54161900D01*
X118294227Y-54169490D01*
X118275464Y-54175409D01*
X118269417Y-54176878D01*
X118257572Y-54179567D01*
X118262902Y-54180901D01*
X118270936Y-54183129D01*
X118280055Y-54186014D01*
X118289588Y-54189314D01*
X118298859Y-54192785D01*
X118307196Y-54196186D01*
X118313926Y-54199272D01*
X118314093Y-54199356D01*
X118332711Y-54209993D01*
X118349742Y-54222349D01*
X118365108Y-54236327D01*
X118378730Y-54251829D01*
X118390529Y-54268759D01*
X118400426Y-54287019D01*
X118408343Y-54306512D01*
X118412659Y-54320822D01*
X118415371Y-54332360D01*
X118417339Y-54343585D01*
X118418637Y-54355167D01*
X118419343Y-54367775D01*
X118419534Y-54381234D01*
X118418643Y-54404563D01*
X118416006Y-54426351D01*
X118411585Y-54446697D01*
X118405343Y-54465699D01*
X118397243Y-54483455D01*
X118387248Y-54500065D01*
X118375321Y-54515628D01*
X118364826Y-54526932D01*
X118350583Y-54539924D01*
X118335342Y-54551462D01*
X118318936Y-54561619D01*
X118301200Y-54570467D01*
X118281970Y-54578077D01*
X118261081Y-54584523D01*
X118238368Y-54589877D01*
X118213665Y-54594212D01*
X118210364Y-54594695D01*
X118207783Y-54595058D01*
X118205286Y-54595386D01*
X118202741Y-54595681D01*
X118200019Y-54595944D01*
X118196988Y-54596179D01*
X118193518Y-54596386D01*
X118189479Y-54596569D01*
X118184739Y-54596730D01*
X118179169Y-54596870D01*
X118172638Y-54596992D01*
X118165015Y-54597099D01*
X118156169Y-54597191D01*
X118145970Y-54597272D01*
X118134288Y-54597344D01*
X118120992Y-54597409D01*
X118105951Y-54597468D01*
X118089034Y-54597525D01*
X118070112Y-54597581D01*
X118049053Y-54597638D01*
X118031029Y-54597686D01*
X117869636Y-54598106D01*
X117869636Y-54227089D01*
X117973875Y-54227089D01*
X117973875Y-54369376D01*
X117973875Y-54511663D01*
X118077226Y-54511200D01*
X118095282Y-54511118D01*
X118111136Y-54511040D01*
X118124953Y-54510962D01*
X118136901Y-54510880D01*
X118147146Y-54510789D01*
X118155855Y-54510685D01*
X118163193Y-54510564D01*
X118169329Y-54510422D01*
X118174427Y-54510253D01*
X118178655Y-54510054D01*
X118182179Y-54509821D01*
X118185166Y-54509549D01*
X118187782Y-54509233D01*
X118190194Y-54508869D01*
X118192568Y-54508454D01*
X118194199Y-54508148D01*
X118213571Y-54503728D01*
X118230908Y-54498175D01*
X118246296Y-54491410D01*
X118259822Y-54483354D01*
X118271572Y-54473926D01*
X118281634Y-54463049D01*
X118290093Y-54450641D01*
X118297037Y-54436624D01*
X118302551Y-54420919D01*
X118306346Y-54405367D01*
X118307296Y-54398926D01*
X118307988Y-54390692D01*
X118308421Y-54381227D01*
X118308596Y-54371094D01*
X118308513Y-54360856D01*
X118308170Y-54351074D01*
X118307568Y-54342311D01*
X118306707Y-54335129D01*
X118306377Y-54333260D01*
X118301956Y-54315641D01*
X118295906Y-54299730D01*
X118288196Y-54285494D01*
X118278797Y-54272905D01*
X118267679Y-54261929D01*
X118254812Y-54252538D01*
X118240166Y-54244698D01*
X118223712Y-54238381D01*
X118211967Y-54235059D01*
X118207158Y-54233876D01*
X118202767Y-54232834D01*
X118198613Y-54231923D01*
X118194519Y-54231134D01*
X118190304Y-54230457D01*
X118185790Y-54229883D01*
X118180798Y-54229401D01*
X118175147Y-54229001D01*
X118168660Y-54228675D01*
X118161156Y-54228412D01*
X118152457Y-54228202D01*
X118142383Y-54228036D01*
X118130755Y-54227904D01*
X118117395Y-54227797D01*
X118102122Y-54227703D01*
X118084758Y-54227615D01*
X118074265Y-54227565D01*
X117973875Y-54227089D01*
X117869636Y-54227089D01*
X117869636Y-54210120D01*
X117869636Y-53908604D01*
X117973875Y-53908604D01*
X117973875Y-54025281D01*
X117973875Y-54141957D01*
X118060643Y-54141953D01*
X118077097Y-54141935D01*
X118092631Y-54141882D01*
X118107067Y-54141796D01*
X118120228Y-54141681D01*
X118131934Y-54141538D01*
X118142007Y-54141370D01*
X118150270Y-54141178D01*
X118156545Y-54140966D01*
X118160653Y-54140734D01*
X118161032Y-54140702D01*
X118181073Y-54138095D01*
X118199343Y-54134116D01*
X118215797Y-54128782D01*
X118230393Y-54122109D01*
X118243086Y-54114115D01*
X118253312Y-54105342D01*
X118262156Y-54095035D01*
X118269385Y-54083371D01*
X118275129Y-54070112D01*
X118278453Y-54059316D01*
X118279710Y-54052982D01*
X118280691Y-54044943D01*
X118281369Y-54035850D01*
X118281716Y-54026352D01*
X118281707Y-54017102D01*
X118281316Y-54008750D01*
X118280728Y-54003277D01*
X118277355Y-53987326D01*
X118272115Y-53972833D01*
X118265011Y-53959801D01*
X118256047Y-53948234D01*
X118245225Y-53938134D01*
X118232551Y-53929506D01*
X118218026Y-53922353D01*
X118201654Y-53916678D01*
X118195445Y-53915031D01*
X118190760Y-53913905D01*
X118186334Y-53912918D01*
X118181979Y-53912062D01*
X118177510Y-53911326D01*
X118172742Y-53910702D01*
X118167489Y-53910181D01*
X118161564Y-53909754D01*
X118154782Y-53909411D01*
X118146958Y-53909143D01*
X118137905Y-53908942D01*
X118127438Y-53908797D01*
X118115371Y-53908700D01*
X118101518Y-53908641D01*
X118085693Y-53908613D01*
X118067711Y-53908604D01*
X118065024Y-53908604D01*
X117973875Y-53908604D01*
X117869636Y-53908604D01*
X117869636Y-53822133D01*
X118017999Y-53822157D01*
G37*
D13*
%TO.C,C4*%
X106169000Y-100033000D02*
X106169000Y-98967000D01*
X106209000Y-100268000D02*
X106209000Y-98732000D01*
X106249000Y-100448000D02*
X106249000Y-98552000D01*
X106289000Y-100598000D02*
X106289000Y-98402000D01*
X106329000Y-100729000D02*
X106329000Y-98271000D01*
X106369000Y-100846000D02*
X106369000Y-98154000D01*
X106409000Y-100953000D02*
X106409000Y-98047000D01*
X106449000Y-101052000D02*
X106449000Y-97948000D01*
X106489000Y-101145000D02*
X106489000Y-97855000D01*
X106529000Y-101231000D02*
X106529000Y-97769000D01*
X106569000Y-101313000D02*
X106569000Y-97687000D01*
X106609000Y-101390000D02*
X106609000Y-97610000D01*
X106649000Y-101464000D02*
X106649000Y-97536000D01*
X106689000Y-101534000D02*
X106689000Y-97466000D01*
X106729000Y-101602000D02*
X106729000Y-97398000D01*
X106769000Y-101666000D02*
X106769000Y-97334000D01*
X106809000Y-101728000D02*
X106809000Y-97272000D01*
X106849000Y-101787000D02*
X106849000Y-97213000D01*
X106889000Y-101845000D02*
X106889000Y-97155000D01*
X106929000Y-101900000D02*
X106929000Y-97100000D01*
X106969000Y-101954000D02*
X106969000Y-97046000D01*
X107009000Y-102005000D02*
X107009000Y-96995000D01*
X107049000Y-102056000D02*
X107049000Y-96944000D01*
X107089000Y-102104000D02*
X107089000Y-96896000D01*
X107129000Y-102151000D02*
X107129000Y-96849000D01*
X107169000Y-102197000D02*
X107169000Y-96803000D01*
X107209000Y-102241000D02*
X107209000Y-96759000D01*
X107249000Y-102284000D02*
X107249000Y-96716000D01*
X107289000Y-102326000D02*
X107289000Y-96674000D01*
X107329000Y-102367000D02*
X107329000Y-96633000D01*
X107369000Y-102407000D02*
X107369000Y-96593000D01*
X107409000Y-102445000D02*
X107409000Y-96555000D01*
X107449000Y-102483000D02*
X107449000Y-96517000D01*
X107489000Y-98460000D02*
X107489000Y-96481000D01*
X107489000Y-102519000D02*
X107489000Y-100540000D01*
X107529000Y-98460000D02*
X107529000Y-96445000D01*
X107529000Y-102555000D02*
X107529000Y-100540000D01*
X107569000Y-98460000D02*
X107569000Y-96410000D01*
X107569000Y-102590000D02*
X107569000Y-100540000D01*
X107609000Y-98460000D02*
X107609000Y-96376000D01*
X107609000Y-102624000D02*
X107609000Y-100540000D01*
X107649000Y-98460000D02*
X107649000Y-96344000D01*
X107649000Y-102656000D02*
X107649000Y-100540000D01*
X107689000Y-98460000D02*
X107689000Y-96311000D01*
X107689000Y-102689000D02*
X107689000Y-100540000D01*
X107729000Y-98460000D02*
X107729000Y-96280000D01*
X107729000Y-102720000D02*
X107729000Y-100540000D01*
X107769000Y-98460000D02*
X107769000Y-96250000D01*
X107769000Y-102750000D02*
X107769000Y-100540000D01*
X107809000Y-98460000D02*
X107809000Y-96220000D01*
X107809000Y-102780000D02*
X107809000Y-100540000D01*
X107849000Y-98460000D02*
X107849000Y-96191000D01*
X107849000Y-102809000D02*
X107849000Y-100540000D01*
X107889000Y-98460000D02*
X107889000Y-96162000D01*
X107889000Y-102838000D02*
X107889000Y-100540000D01*
X107929000Y-98460000D02*
X107929000Y-96135000D01*
X107929000Y-102865000D02*
X107929000Y-100540000D01*
X107969000Y-98460000D02*
X107969000Y-96108000D01*
X107969000Y-102892000D02*
X107969000Y-100540000D01*
X108009000Y-98460000D02*
X108009000Y-96082000D01*
X108009000Y-102918000D02*
X108009000Y-100540000D01*
X108049000Y-98460000D02*
X108049000Y-96056000D01*
X108049000Y-102944000D02*
X108049000Y-100540000D01*
X108089000Y-98460000D02*
X108089000Y-96031000D01*
X108089000Y-102969000D02*
X108089000Y-100540000D01*
X108129000Y-98460000D02*
X108129000Y-96007000D01*
X108129000Y-102993000D02*
X108129000Y-100540000D01*
X108169000Y-98460000D02*
X108169000Y-95983000D01*
X108169000Y-103017000D02*
X108169000Y-100540000D01*
X108209000Y-98460000D02*
X108209000Y-95960000D01*
X108209000Y-103040000D02*
X108209000Y-100540000D01*
X108249000Y-98460000D02*
X108249000Y-95938000D01*
X108249000Y-103062000D02*
X108249000Y-100540000D01*
X108289000Y-98460000D02*
X108289000Y-95916000D01*
X108289000Y-103084000D02*
X108289000Y-100540000D01*
X108329000Y-98460000D02*
X108329000Y-95894000D01*
X108329000Y-103106000D02*
X108329000Y-100540000D01*
X108369000Y-98460000D02*
X108369000Y-95873000D01*
X108369000Y-103127000D02*
X108369000Y-100540000D01*
X108409000Y-98460000D02*
X108409000Y-95853000D01*
X108409000Y-103147000D02*
X108409000Y-100540000D01*
X108449000Y-98460000D02*
X108449000Y-95834000D01*
X108449000Y-103166000D02*
X108449000Y-100540000D01*
X108489000Y-98460000D02*
X108489000Y-95814000D01*
X108489000Y-103186000D02*
X108489000Y-100540000D01*
X108529000Y-98460000D02*
X108529000Y-95796000D01*
X108529000Y-103204000D02*
X108529000Y-100540000D01*
X108569000Y-98460000D02*
X108569000Y-95778000D01*
X108569000Y-103222000D02*
X108569000Y-100540000D01*
X108609000Y-98460000D02*
X108609000Y-95760000D01*
X108609000Y-103240000D02*
X108609000Y-100540000D01*
X108649000Y-98460000D02*
X108649000Y-95743000D01*
X108649000Y-103257000D02*
X108649000Y-100540000D01*
X108689000Y-98460000D02*
X108689000Y-95726000D01*
X108689000Y-103274000D02*
X108689000Y-100540000D01*
X108729000Y-98460000D02*
X108729000Y-95710000D01*
X108729000Y-103290000D02*
X108729000Y-100540000D01*
X108769000Y-98460000D02*
X108769000Y-95695000D01*
X108769000Y-103305000D02*
X108769000Y-100540000D01*
X108809000Y-98460000D02*
X108809000Y-95679000D01*
X108809000Y-103321000D02*
X108809000Y-100540000D01*
X108849000Y-98460000D02*
X108849000Y-95665000D01*
X108849000Y-103335000D02*
X108849000Y-100540000D01*
X108889000Y-98460000D02*
X108889000Y-95650000D01*
X108889000Y-103350000D02*
X108889000Y-100540000D01*
X108929000Y-98460000D02*
X108929000Y-95637000D01*
X108929000Y-103363000D02*
X108929000Y-100540000D01*
X108969000Y-98460000D02*
X108969000Y-95623000D01*
X108969000Y-103377000D02*
X108969000Y-100540000D01*
X109009000Y-98460000D02*
X109009000Y-95611000D01*
X109009000Y-103389000D02*
X109009000Y-100540000D01*
X109049000Y-98460000D02*
X109049000Y-95598000D01*
X109049000Y-103402000D02*
X109049000Y-100540000D01*
X109089000Y-98460000D02*
X109089000Y-95586000D01*
X109089000Y-103414000D02*
X109089000Y-100540000D01*
X109129000Y-98460000D02*
X109129000Y-95575000D01*
X109129000Y-103425000D02*
X109129000Y-100540000D01*
X109169000Y-98460000D02*
X109169000Y-95564000D01*
X109169000Y-103436000D02*
X109169000Y-100540000D01*
X109209000Y-98460000D02*
X109209000Y-95553000D01*
X109209000Y-103447000D02*
X109209000Y-100540000D01*
X109249000Y-98460000D02*
X109249000Y-95543000D01*
X109249000Y-103457000D02*
X109249000Y-100540000D01*
X109289000Y-98460000D02*
X109289000Y-95533000D01*
X109289000Y-103467000D02*
X109289000Y-100540000D01*
X109329000Y-98460000D02*
X109329000Y-95524000D01*
X109329000Y-103476000D02*
X109329000Y-100540000D01*
X109369000Y-98460000D02*
X109369000Y-95515000D01*
X109369000Y-103485000D02*
X109369000Y-100540000D01*
X109409000Y-98460000D02*
X109409000Y-95506000D01*
X109409000Y-103494000D02*
X109409000Y-100540000D01*
X109449000Y-98460000D02*
X109449000Y-95498000D01*
X109449000Y-103502000D02*
X109449000Y-100540000D01*
X109489000Y-98460000D02*
X109489000Y-95490000D01*
X109489000Y-103510000D02*
X109489000Y-100540000D01*
X109529000Y-98460000D02*
X109529000Y-95483000D01*
X109529000Y-103517000D02*
X109529000Y-100540000D01*
X109570000Y-103524000D02*
X109570000Y-95476000D01*
X109610000Y-103530000D02*
X109610000Y-95470000D01*
X109650000Y-103537000D02*
X109650000Y-95463000D01*
X109690000Y-103542000D02*
X109690000Y-95458000D01*
X109730000Y-103548000D02*
X109730000Y-95452000D01*
X109770000Y-103552000D02*
X109770000Y-95448000D01*
X109810000Y-103557000D02*
X109810000Y-95443000D01*
X109850000Y-103561000D02*
X109850000Y-95439000D01*
X109890000Y-103565000D02*
X109890000Y-95435000D01*
X109930000Y-103568000D02*
X109930000Y-95432000D01*
X109970000Y-103571000D02*
X109970000Y-95429000D01*
X110010000Y-103574000D02*
X110010000Y-95426000D01*
X110050000Y-103576000D02*
X110050000Y-95424000D01*
X110090000Y-103577000D02*
X110090000Y-95423000D01*
X110130000Y-103579000D02*
X110130000Y-95421000D01*
X110170000Y-103580000D02*
X110170000Y-95420000D01*
X110210000Y-103580000D02*
X110210000Y-95420000D01*
X110250000Y-103580000D02*
X110250000Y-95420000D01*
X114259698Y-102215000D02*
X114259698Y-101415000D01*
X114659698Y-101815000D02*
X113859698Y-101815000D01*
X114370000Y-99500000D02*
G75*
G02*
X106130000Y-99500000I-4120000J0D01*
G01*
X106130000Y-99500000D02*
G75*
G02*
X114370000Y-99500000I4120000J0D01*
G01*
%TO.C,R2*%
X118765000Y-81227064D02*
X118765000Y-80772936D01*
X120235000Y-81227064D02*
X120235000Y-80772936D01*
%TO.C,C3*%
X110773752Y-105190000D02*
X109351248Y-105190000D01*
X110773752Y-107010000D02*
X109351248Y-107010000D01*
%TO.C,Y1*%
X126975000Y-92790000D02*
X126975000Y-99190000D01*
X132025000Y-92790000D02*
X132025000Y-99190000D01*
X126975000Y-92790000D02*
G75*
G02*
X132025000Y-92790000I2525000J0D01*
G01*
X132025000Y-99190000D02*
G75*
G02*
X126975000Y-99190000I-2525000J0D01*
G01*
%TO.C,J4*%
X122440000Y-60490000D02*
X122440000Y-66460000D01*
X122440000Y-66460000D02*
X132560000Y-66460000D01*
X122450000Y-64200000D02*
X123200000Y-64200000D01*
X122450000Y-65700000D02*
X122450000Y-66450000D01*
X122450000Y-66450000D02*
X124250000Y-66450000D01*
X123200000Y-61250000D02*
X127500000Y-61250000D01*
X123200000Y-64200000D02*
X123200000Y-61250000D01*
X124250000Y-65700000D02*
X122450000Y-65700000D01*
X124250000Y-66450000D02*
X124250000Y-65700000D01*
X125750000Y-65700000D02*
X125750000Y-66450000D01*
X125750000Y-66450000D02*
X129250000Y-66450000D01*
X129250000Y-65700000D02*
X125750000Y-65700000D01*
X129250000Y-66450000D02*
X129250000Y-65700000D01*
X130750000Y-65700000D02*
X130750000Y-66450000D01*
X130750000Y-66450000D02*
X132550000Y-66450000D01*
X131600000Y-66750000D02*
X132850000Y-66750000D01*
X131800000Y-61250000D02*
X127500000Y-61250000D01*
X131800000Y-64200000D02*
X131800000Y-61250000D01*
X132550000Y-64200000D02*
X131800000Y-64200000D01*
X132550000Y-65700000D02*
X130750000Y-65700000D01*
X132550000Y-66450000D02*
X132550000Y-65700000D01*
X132560000Y-60490000D02*
X122440000Y-60490000D01*
X132560000Y-66460000D02*
X132560000Y-60490000D01*
X132850000Y-66750000D02*
X132850000Y-65500000D01*
%TO.C,J7*%
X137150000Y-73250000D02*
X137150000Y-74500000D01*
X137440000Y-73540000D02*
X137440000Y-79510000D01*
X137440000Y-79510000D02*
X150060000Y-79510000D01*
X137450000Y-73550000D02*
X137450000Y-74300000D01*
X137450000Y-74300000D02*
X139250000Y-74300000D01*
X137450000Y-75800000D02*
X138200000Y-75800000D01*
X138200000Y-75800000D02*
X138200000Y-78750000D01*
X138200000Y-78750000D02*
X143750000Y-78750000D01*
X138400000Y-73250000D02*
X137150000Y-73250000D01*
X139250000Y-73550000D02*
X137450000Y-73550000D01*
X139250000Y-74300000D02*
X139250000Y-73550000D01*
X140750000Y-73550000D02*
X140750000Y-74300000D01*
X140750000Y-74300000D02*
X146750000Y-74300000D01*
X146750000Y-73550000D02*
X140750000Y-73550000D01*
X146750000Y-74300000D02*
X146750000Y-73550000D01*
X148250000Y-73550000D02*
X148250000Y-74300000D01*
X148250000Y-74300000D02*
X150050000Y-74300000D01*
X149300000Y-75800000D02*
X149300000Y-78750000D01*
X149300000Y-78750000D02*
X143750000Y-78750000D01*
X150050000Y-73550000D02*
X148250000Y-73550000D01*
X150050000Y-74300000D02*
X150050000Y-73550000D01*
X150050000Y-75800000D02*
X149300000Y-75800000D01*
X150060000Y-73540000D02*
X137440000Y-73540000D01*
X150060000Y-79510000D02*
X150060000Y-73540000D01*
%TO.C,J6*%
X137150000Y-66250000D02*
X137150000Y-67500000D01*
X137440000Y-66540000D02*
X137440000Y-72510000D01*
X137440000Y-72510000D02*
X150060000Y-72510000D01*
X137450000Y-66550000D02*
X137450000Y-67300000D01*
X137450000Y-67300000D02*
X139250000Y-67300000D01*
X137450000Y-68800000D02*
X138200000Y-68800000D01*
X138200000Y-68800000D02*
X138200000Y-71750000D01*
X138200000Y-71750000D02*
X143750000Y-71750000D01*
X138400000Y-66250000D02*
X137150000Y-66250000D01*
X139250000Y-66550000D02*
X137450000Y-66550000D01*
X139250000Y-67300000D02*
X139250000Y-66550000D01*
X140750000Y-66550000D02*
X140750000Y-67300000D01*
X140750000Y-67300000D02*
X146750000Y-67300000D01*
X146750000Y-66550000D02*
X140750000Y-66550000D01*
X146750000Y-67300000D02*
X146750000Y-66550000D01*
X148250000Y-66550000D02*
X148250000Y-67300000D01*
X148250000Y-67300000D02*
X150050000Y-67300000D01*
X149300000Y-68800000D02*
X149300000Y-71750000D01*
X149300000Y-71750000D02*
X143750000Y-71750000D01*
X150050000Y-66550000D02*
X148250000Y-66550000D01*
X150050000Y-67300000D02*
X150050000Y-66550000D01*
X150050000Y-68800000D02*
X149300000Y-68800000D01*
X150060000Y-66540000D02*
X137440000Y-66540000D01*
X150060000Y-72510000D02*
X150060000Y-66540000D01*
%TO.C,R3*%
X132272936Y-57765000D02*
X132727064Y-57765000D01*
X132272936Y-59235000D02*
X132727064Y-59235000D01*
%TO.C,U3*%
X109900000Y-74025000D02*
X111400000Y-74025000D01*
X109900000Y-84425000D02*
X111400000Y-84425000D01*
X111400000Y-74025000D02*
X111400000Y-74975000D01*
X111400000Y-84425000D02*
X111400000Y-83475000D01*
X114202500Y-83805000D02*
X113722500Y-83805000D01*
X113962500Y-83475000D01*
X114202500Y-83805000D01*
G36*
X114202500Y-83805000D02*
G01*
X113722500Y-83805000D01*
X113962500Y-83475000D01*
X114202500Y-83805000D01*
G37*
%TO.C,L1*%
X99880000Y-93370000D02*
X99880000Y-86630000D01*
X105022000Y-86630000D02*
X99880000Y-86630000D01*
X105022000Y-93370000D02*
X99880000Y-93370000D01*
X113120000Y-86630000D02*
X107978000Y-86630000D01*
X113120000Y-93370000D02*
X107978000Y-93370000D01*
X113120000Y-93370000D02*
X113120000Y-86630000D01*
%TO.C,C7*%
X112648752Y-114590000D02*
X111226248Y-114590000D01*
X112648752Y-116410000D02*
X111226248Y-116410000D01*
%TO.C,C6*%
X118711252Y-61090000D02*
X117288748Y-61090000D01*
X118711252Y-62910000D02*
X117288748Y-62910000D01*
%TO.C,U4*%
X133370000Y-105765000D02*
X133370000Y-107015000D01*
X133370000Y-109015000D02*
X133370000Y-110265000D01*
X133370000Y-110265000D02*
X143650000Y-110265000D01*
X143650000Y-105765000D02*
X133370000Y-105765000D01*
X143650000Y-110265000D02*
X143650000Y-105765000D01*
X133370000Y-107015000D02*
G75*
G02*
X133370000Y-109015000I0J-1000000D01*
G01*
%TO.C,J5*%
X137150000Y-59250000D02*
X137150000Y-60500000D01*
X137440000Y-59540000D02*
X137440000Y-65510000D01*
X137440000Y-65510000D02*
X150060000Y-65510000D01*
X137450000Y-59550000D02*
X137450000Y-60300000D01*
X137450000Y-60300000D02*
X139250000Y-60300000D01*
X137450000Y-61800000D02*
X138200000Y-61800000D01*
X138200000Y-61800000D02*
X138200000Y-64750000D01*
X138200000Y-64750000D02*
X143750000Y-64750000D01*
X138400000Y-59250000D02*
X137150000Y-59250000D01*
X139250000Y-59550000D02*
X137450000Y-59550000D01*
X139250000Y-60300000D02*
X139250000Y-59550000D01*
X140750000Y-59550000D02*
X140750000Y-60300000D01*
X140750000Y-60300000D02*
X146750000Y-60300000D01*
X146750000Y-59550000D02*
X140750000Y-59550000D01*
X146750000Y-60300000D02*
X146750000Y-59550000D01*
X148250000Y-59550000D02*
X148250000Y-60300000D01*
X148250000Y-60300000D02*
X150050000Y-60300000D01*
X149300000Y-61800000D02*
X149300000Y-64750000D01*
X149300000Y-64750000D02*
X143750000Y-64750000D01*
X150050000Y-59550000D02*
X148250000Y-59550000D01*
X150050000Y-60300000D02*
X150050000Y-59550000D01*
X150050000Y-61800000D02*
X149300000Y-61800000D01*
X150060000Y-59540000D02*
X137440000Y-59540000D01*
X150060000Y-65510000D02*
X150060000Y-59540000D01*
%TO.C,R1*%
X118765000Y-75227064D02*
X118765000Y-74772936D01*
X120235000Y-75227064D02*
X120235000Y-74772936D01*
D14*
%TO.C,G\u002A\u002A\u002A*%
G36*
X127528081Y-52361446D02*
G01*
X127528081Y-52579686D01*
X126481877Y-52589341D01*
X125435674Y-52598997D01*
X125435674Y-53272206D01*
X125435674Y-53945415D01*
X126354513Y-53955138D01*
X127273353Y-53964860D01*
X127273353Y-54164378D01*
X127273353Y-54363897D01*
X126345416Y-54363897D01*
X125417479Y-54363897D01*
X125417479Y-55109885D01*
X125417479Y-55855874D01*
X126509169Y-55855874D01*
X127600860Y-55855874D01*
X127600860Y-56074212D01*
X127600860Y-56292550D01*
X126254141Y-56292550D01*
X124907422Y-56292550D01*
X124916820Y-54227435D01*
X124926218Y-52162321D01*
X126227149Y-52152764D01*
X127528081Y-52143207D01*
X127528081Y-52361446D01*
G37*
G36*
X126995154Y-50773450D02*
G01*
X127466540Y-50900756D01*
X127918662Y-51098239D01*
X128351631Y-51365931D01*
X128511518Y-51486352D01*
X128861898Y-51808496D01*
X129163930Y-52177834D01*
X129413542Y-52585282D01*
X129606660Y-53021760D01*
X129739210Y-53478184D01*
X129807121Y-53945472D01*
X129808876Y-54379139D01*
X129740436Y-54885624D01*
X129606377Y-55365755D01*
X129410469Y-55814791D01*
X129156485Y-56227993D01*
X128848194Y-56600624D01*
X128489368Y-56927943D01*
X128083778Y-57205212D01*
X127635195Y-57427693D01*
X127283609Y-57552526D01*
X127139140Y-57592643D01*
X127004872Y-57620955D01*
X126860949Y-57639954D01*
X126687519Y-57652129D01*
X126464725Y-57659973D01*
X126418195Y-57661109D01*
X126132332Y-57663720D01*
X125906789Y-57656228D01*
X125729732Y-57638029D01*
X125639624Y-57621218D01*
X125148980Y-57476540D01*
X124692016Y-57273591D01*
X124275221Y-57016255D01*
X123905081Y-56708416D01*
X123646240Y-56427559D01*
X123492155Y-56232781D01*
X123373832Y-56066494D01*
X123276523Y-55904788D01*
X123185483Y-55723751D01*
X123114120Y-55564756D01*
X123001462Y-55276860D01*
X122923368Y-55001694D01*
X122873279Y-54710719D01*
X122845886Y-54397548D01*
X122846771Y-54326153D01*
X123354163Y-54326153D01*
X123409820Y-54780430D01*
X123523084Y-55197420D01*
X123698459Y-55589604D01*
X123940451Y-55969461D01*
X123953655Y-55987377D01*
X124233822Y-56316284D01*
X124547975Y-56588618D01*
X124908067Y-56813749D01*
X125162570Y-56934994D01*
X125410080Y-57031388D01*
X125641576Y-57097303D01*
X125879229Y-57136490D01*
X126145212Y-57152699D01*
X126436390Y-57150470D01*
X126653839Y-57142005D01*
X126820254Y-57129333D01*
X126957377Y-57109177D01*
X127086948Y-57078264D01*
X127230706Y-57033318D01*
X127244151Y-57028788D01*
X127666508Y-56849805D01*
X128049514Y-56615188D01*
X128389111Y-56331282D01*
X128681240Y-56004430D01*
X128921843Y-55640976D01*
X129106862Y-55247265D01*
X129232238Y-54829640D01*
X129293913Y-54394446D01*
X129287830Y-53948025D01*
X129277211Y-53850645D01*
X129183734Y-53389988D01*
X129025309Y-52958966D01*
X128805403Y-52562382D01*
X128527480Y-52205037D01*
X128195004Y-51891735D01*
X127811442Y-51627277D01*
X127586740Y-51507650D01*
X127295847Y-51383469D01*
X127013044Y-51300033D01*
X126716912Y-51253315D01*
X126386031Y-51239287D01*
X126184334Y-51243928D01*
X125778555Y-51281535D01*
X125413935Y-51363362D01*
X125071036Y-51496105D01*
X124730419Y-51686460D01*
X124555329Y-51805022D01*
X124230270Y-52080051D01*
X123948522Y-52406487D01*
X123715072Y-52773868D01*
X123534904Y-53171730D01*
X123413002Y-53589612D01*
X123354351Y-54017051D01*
X123354163Y-54326153D01*
X122846771Y-54326153D01*
X122852052Y-53900343D01*
X122926419Y-53417443D01*
X123065442Y-52954962D01*
X123265574Y-52519011D01*
X123523269Y-52115703D01*
X123834981Y-51751151D01*
X124197164Y-51431466D01*
X124606271Y-51162761D01*
X124773358Y-51075263D01*
X125188970Y-50900337D01*
X125604350Y-50785971D01*
X125994137Y-50729228D01*
X126504390Y-50716285D01*
X126995154Y-50773450D01*
G37*
D13*
%TO.C,C5*%
X112420000Y-68170000D02*
X120580000Y-68170000D01*
X112420000Y-68210000D02*
X120580000Y-68210000D01*
X112420000Y-68250000D02*
X120580000Y-68250000D01*
X112421000Y-68130000D02*
X120579000Y-68130000D01*
X112423000Y-68090000D02*
X120577000Y-68090000D01*
X112424000Y-68050000D02*
X120576000Y-68050000D01*
X112426000Y-68010000D02*
X120574000Y-68010000D01*
X112429000Y-67970000D02*
X120571000Y-67970000D01*
X112432000Y-67930000D02*
X120568000Y-67930000D01*
X112435000Y-67890000D02*
X120565000Y-67890000D01*
X112439000Y-67850000D02*
X120561000Y-67850000D01*
X112443000Y-67810000D02*
X120557000Y-67810000D01*
X112448000Y-67770000D02*
X120552000Y-67770000D01*
X112452000Y-67730000D02*
X120548000Y-67730000D01*
X112458000Y-67690000D02*
X120542000Y-67690000D01*
X112463000Y-67650000D02*
X120537000Y-67650000D01*
X112470000Y-67610000D02*
X120530000Y-67610000D01*
X112476000Y-67570000D02*
X120524000Y-67570000D01*
X112483000Y-67529000D02*
X115460000Y-67529000D01*
X112490000Y-67489000D02*
X115460000Y-67489000D01*
X112498000Y-67449000D02*
X115460000Y-67449000D01*
X112506000Y-67409000D02*
X115460000Y-67409000D01*
X112515000Y-67369000D02*
X115460000Y-67369000D01*
X112524000Y-67329000D02*
X115460000Y-67329000D01*
X112533000Y-67289000D02*
X115460000Y-67289000D01*
X112543000Y-67249000D02*
X115460000Y-67249000D01*
X112553000Y-67209000D02*
X115460000Y-67209000D01*
X112564000Y-67169000D02*
X115460000Y-67169000D01*
X112575000Y-67129000D02*
X115460000Y-67129000D01*
X112586000Y-67089000D02*
X115460000Y-67089000D01*
X112598000Y-67049000D02*
X115460000Y-67049000D01*
X112611000Y-67009000D02*
X115460000Y-67009000D01*
X112623000Y-66969000D02*
X115460000Y-66969000D01*
X112637000Y-66929000D02*
X115460000Y-66929000D01*
X112650000Y-66889000D02*
X115460000Y-66889000D01*
X112665000Y-66849000D02*
X115460000Y-66849000D01*
X112679000Y-66809000D02*
X115460000Y-66809000D01*
X112695000Y-66769000D02*
X115460000Y-66769000D01*
X112710000Y-66729000D02*
X115460000Y-66729000D01*
X112726000Y-66689000D02*
X115460000Y-66689000D01*
X112743000Y-66649000D02*
X115460000Y-66649000D01*
X112760000Y-66609000D02*
X115460000Y-66609000D01*
X112778000Y-66569000D02*
X115460000Y-66569000D01*
X112796000Y-66529000D02*
X115460000Y-66529000D01*
X112814000Y-66489000D02*
X115460000Y-66489000D01*
X112834000Y-66449000D02*
X115460000Y-66449000D01*
X112853000Y-66409000D02*
X115460000Y-66409000D01*
X112873000Y-66369000D02*
X115460000Y-66369000D01*
X112894000Y-66329000D02*
X115460000Y-66329000D01*
X112916000Y-66289000D02*
X115460000Y-66289000D01*
X112938000Y-66249000D02*
X115460000Y-66249000D01*
X112960000Y-66209000D02*
X115460000Y-66209000D01*
X112983000Y-66169000D02*
X115460000Y-66169000D01*
X113007000Y-66129000D02*
X115460000Y-66129000D01*
X113031000Y-66089000D02*
X115460000Y-66089000D01*
X113056000Y-66049000D02*
X115460000Y-66049000D01*
X113082000Y-66009000D02*
X115460000Y-66009000D01*
X113108000Y-65969000D02*
X115460000Y-65969000D01*
X113135000Y-65929000D02*
X115460000Y-65929000D01*
X113162000Y-65889000D02*
X115460000Y-65889000D01*
X113191000Y-65849000D02*
X115460000Y-65849000D01*
X113220000Y-65809000D02*
X115460000Y-65809000D01*
X113250000Y-65769000D02*
X115460000Y-65769000D01*
X113280000Y-65729000D02*
X115460000Y-65729000D01*
X113311000Y-65689000D02*
X115460000Y-65689000D01*
X113344000Y-65649000D02*
X115460000Y-65649000D01*
X113376000Y-65609000D02*
X115460000Y-65609000D01*
X113410000Y-65569000D02*
X115460000Y-65569000D01*
X113445000Y-65529000D02*
X115460000Y-65529000D01*
X113481000Y-65489000D02*
X115460000Y-65489000D01*
X113517000Y-65449000D02*
X119483000Y-65449000D01*
X113555000Y-65409000D02*
X119445000Y-65409000D01*
X113593000Y-65369000D02*
X119407000Y-65369000D01*
X113633000Y-65329000D02*
X119367000Y-65329000D01*
X113674000Y-65289000D02*
X119326000Y-65289000D01*
X113716000Y-65249000D02*
X119284000Y-65249000D01*
X113759000Y-65209000D02*
X119241000Y-65209000D01*
X113785000Y-72259698D02*
X114585000Y-72259698D01*
X113803000Y-65169000D02*
X119197000Y-65169000D01*
X113849000Y-65129000D02*
X119151000Y-65129000D01*
X113896000Y-65089000D02*
X119104000Y-65089000D01*
X113944000Y-65049000D02*
X119056000Y-65049000D01*
X113995000Y-65009000D02*
X119005000Y-65009000D01*
X114046000Y-64969000D02*
X118954000Y-64969000D01*
X114100000Y-64929000D02*
X118900000Y-64929000D01*
X114155000Y-64889000D02*
X118845000Y-64889000D01*
X114185000Y-72659698D02*
X114185000Y-71859698D01*
X114213000Y-64849000D02*
X118787000Y-64849000D01*
X114272000Y-64809000D02*
X118728000Y-64809000D01*
X114334000Y-64769000D02*
X118666000Y-64769000D01*
X114398000Y-64729000D02*
X118602000Y-64729000D01*
X114466000Y-64689000D02*
X118534000Y-64689000D01*
X114536000Y-64649000D02*
X118464000Y-64649000D01*
X114610000Y-64609000D02*
X118390000Y-64609000D01*
X114687000Y-64569000D02*
X118313000Y-64569000D01*
X114769000Y-64529000D02*
X118231000Y-64529000D01*
X114855000Y-64489000D02*
X118145000Y-64489000D01*
X114948000Y-64449000D02*
X118052000Y-64449000D01*
X115047000Y-64409000D02*
X117953000Y-64409000D01*
X115154000Y-64369000D02*
X117846000Y-64369000D01*
X115271000Y-64329000D02*
X117729000Y-64329000D01*
X115402000Y-64289000D02*
X117598000Y-64289000D01*
X115552000Y-64249000D02*
X117448000Y-64249000D01*
X115732000Y-64209000D02*
X117268000Y-64209000D01*
X115967000Y-64169000D02*
X117033000Y-64169000D01*
X117540000Y-65489000D02*
X119519000Y-65489000D01*
X117540000Y-65529000D02*
X119555000Y-65529000D01*
X117540000Y-65569000D02*
X119590000Y-65569000D01*
X117540000Y-65609000D02*
X119624000Y-65609000D01*
X117540000Y-65649000D02*
X119656000Y-65649000D01*
X117540000Y-65689000D02*
X119689000Y-65689000D01*
X117540000Y-65729000D02*
X119720000Y-65729000D01*
X117540000Y-65769000D02*
X119750000Y-65769000D01*
X117540000Y-65809000D02*
X119780000Y-65809000D01*
X117540000Y-65849000D02*
X119809000Y-65849000D01*
X117540000Y-65889000D02*
X119838000Y-65889000D01*
X117540000Y-65929000D02*
X119865000Y-65929000D01*
X117540000Y-65969000D02*
X119892000Y-65969000D01*
X117540000Y-66009000D02*
X119918000Y-66009000D01*
X117540000Y-66049000D02*
X119944000Y-66049000D01*
X117540000Y-66089000D02*
X119969000Y-66089000D01*
X117540000Y-66129000D02*
X119993000Y-66129000D01*
X117540000Y-66169000D02*
X120017000Y-66169000D01*
X117540000Y-66209000D02*
X120040000Y-66209000D01*
X117540000Y-66249000D02*
X120062000Y-66249000D01*
X117540000Y-66289000D02*
X120084000Y-66289000D01*
X117540000Y-66329000D02*
X120106000Y-66329000D01*
X117540000Y-66369000D02*
X120127000Y-66369000D01*
X117540000Y-66409000D02*
X120147000Y-66409000D01*
X117540000Y-66449000D02*
X120166000Y-66449000D01*
X117540000Y-66489000D02*
X120186000Y-66489000D01*
X117540000Y-66529000D02*
X120204000Y-66529000D01*
X117540000Y-66569000D02*
X120222000Y-66569000D01*
X117540000Y-66609000D02*
X120240000Y-66609000D01*
X117540000Y-66649000D02*
X120257000Y-66649000D01*
X117540000Y-66689000D02*
X120274000Y-66689000D01*
X117540000Y-66729000D02*
X120290000Y-66729000D01*
X117540000Y-66769000D02*
X120305000Y-66769000D01*
X117540000Y-66809000D02*
X120321000Y-66809000D01*
X117540000Y-66849000D02*
X120335000Y-66849000D01*
X117540000Y-66889000D02*
X120350000Y-66889000D01*
X117540000Y-66929000D02*
X120363000Y-66929000D01*
X117540000Y-66969000D02*
X120377000Y-66969000D01*
X117540000Y-67009000D02*
X120389000Y-67009000D01*
X117540000Y-67049000D02*
X120402000Y-67049000D01*
X117540000Y-67089000D02*
X120414000Y-67089000D01*
X117540000Y-67129000D02*
X120425000Y-67129000D01*
X117540000Y-67169000D02*
X120436000Y-67169000D01*
X117540000Y-67209000D02*
X120447000Y-67209000D01*
X117540000Y-67249000D02*
X120457000Y-67249000D01*
X117540000Y-67289000D02*
X120467000Y-67289000D01*
X117540000Y-67329000D02*
X120476000Y-67329000D01*
X117540000Y-67369000D02*
X120485000Y-67369000D01*
X117540000Y-67409000D02*
X120494000Y-67409000D01*
X117540000Y-67449000D02*
X120502000Y-67449000D01*
X117540000Y-67489000D02*
X120510000Y-67489000D01*
X117540000Y-67529000D02*
X120517000Y-67529000D01*
X120620000Y-68250000D02*
G75*
G02*
X112380000Y-68250000I-4120000J0D01*
G01*
X112380000Y-68250000D02*
G75*
G02*
X120620000Y-68250000I4120000J0D01*
G01*
%TO.C,C2*%
X124265000Y-97211252D02*
X124265000Y-96688748D01*
X125735000Y-97211252D02*
X125735000Y-96688748D01*
%TO.C,J1*%
X122440000Y-81490000D02*
X122440000Y-87460000D01*
X122440000Y-87460000D02*
X132560000Y-87460000D01*
X122450000Y-85200000D02*
X123200000Y-85200000D01*
X122450000Y-86700000D02*
X122450000Y-87450000D01*
X122450000Y-87450000D02*
X124250000Y-87450000D01*
X123200000Y-82250000D02*
X127500000Y-82250000D01*
X123200000Y-85200000D02*
X123200000Y-82250000D01*
X124250000Y-86700000D02*
X122450000Y-86700000D01*
X124250000Y-87450000D02*
X124250000Y-86700000D01*
X125750000Y-86700000D02*
X125750000Y-87450000D01*
X125750000Y-87450000D02*
X129250000Y-87450000D01*
X129250000Y-86700000D02*
X125750000Y-86700000D01*
X129250000Y-87450000D02*
X129250000Y-86700000D01*
X130750000Y-86700000D02*
X130750000Y-87450000D01*
X130750000Y-87450000D02*
X132550000Y-87450000D01*
X131600000Y-87750000D02*
X132850000Y-87750000D01*
X131800000Y-82250000D02*
X127500000Y-82250000D01*
X131800000Y-85200000D02*
X131800000Y-82250000D01*
X132550000Y-85200000D02*
X131800000Y-85200000D01*
X132550000Y-86700000D02*
X130750000Y-86700000D01*
X132550000Y-87450000D02*
X132550000Y-86700000D01*
X132560000Y-81490000D02*
X122440000Y-81490000D01*
X132560000Y-87460000D02*
X132560000Y-81490000D01*
X132850000Y-87750000D02*
X132850000Y-86500000D01*
%TO.C,D2*%
X122115000Y-112040000D02*
X122115000Y-113960000D01*
X122115000Y-113960000D02*
X124975000Y-113960000D01*
X124975000Y-112040000D02*
X122115000Y-112040000D01*
%TO.C,J3*%
X122440000Y-67490000D02*
X122440000Y-73460000D01*
X122440000Y-73460000D02*
X132560000Y-73460000D01*
X122450000Y-71200000D02*
X123200000Y-71200000D01*
X122450000Y-72700000D02*
X122450000Y-73450000D01*
X122450000Y-73450000D02*
X124250000Y-73450000D01*
X123200000Y-68250000D02*
X127500000Y-68250000D01*
X123200000Y-71200000D02*
X123200000Y-68250000D01*
X124250000Y-72700000D02*
X122450000Y-72700000D01*
X124250000Y-73450000D02*
X124250000Y-72700000D01*
X125750000Y-72700000D02*
X125750000Y-73450000D01*
X125750000Y-73450000D02*
X129250000Y-73450000D01*
X129250000Y-72700000D02*
X125750000Y-72700000D01*
X129250000Y-73450000D02*
X129250000Y-72700000D01*
X130750000Y-72700000D02*
X130750000Y-73450000D01*
X130750000Y-73450000D02*
X132550000Y-73450000D01*
X131600000Y-73750000D02*
X132850000Y-73750000D01*
X131800000Y-68250000D02*
X127500000Y-68250000D01*
X131800000Y-71200000D02*
X131800000Y-68250000D01*
X132550000Y-71200000D02*
X131800000Y-71200000D01*
X132550000Y-72700000D02*
X130750000Y-72700000D01*
X132550000Y-73450000D02*
X132550000Y-72700000D01*
X132560000Y-67490000D02*
X122440000Y-67490000D01*
X132560000Y-73460000D02*
X132560000Y-67490000D01*
X132850000Y-73750000D02*
X132850000Y-72500000D01*
%TO.C,J2*%
X122440000Y-74490000D02*
X122440000Y-80460000D01*
X122440000Y-80460000D02*
X132560000Y-80460000D01*
X122450000Y-78200000D02*
X123200000Y-78200000D01*
X122450000Y-79700000D02*
X122450000Y-80450000D01*
X122450000Y-80450000D02*
X124250000Y-80450000D01*
X123200000Y-75250000D02*
X127500000Y-75250000D01*
X123200000Y-78200000D02*
X123200000Y-75250000D01*
X124250000Y-79700000D02*
X122450000Y-79700000D01*
X124250000Y-80450000D02*
X124250000Y-79700000D01*
X125750000Y-79700000D02*
X125750000Y-80450000D01*
X125750000Y-80450000D02*
X129250000Y-80450000D01*
X129250000Y-79700000D02*
X125750000Y-79700000D01*
X129250000Y-80450000D02*
X129250000Y-79700000D01*
X130750000Y-79700000D02*
X130750000Y-80450000D01*
X130750000Y-80450000D02*
X132550000Y-80450000D01*
X131600000Y-80750000D02*
X132850000Y-80750000D01*
X131800000Y-75250000D02*
X127500000Y-75250000D01*
X131800000Y-78200000D02*
X131800000Y-75250000D01*
X132550000Y-78200000D02*
X131800000Y-78200000D01*
X132550000Y-79700000D02*
X130750000Y-79700000D01*
X132550000Y-80450000D02*
X132550000Y-79700000D01*
X132560000Y-74490000D02*
X122440000Y-74490000D01*
X132560000Y-80460000D02*
X132560000Y-74490000D01*
X132850000Y-80750000D02*
X132850000Y-79500000D01*
%TO.C,D3*%
X122115000Y-114540000D02*
X122115000Y-116460000D01*
X122115000Y-116460000D02*
X124975000Y-116460000D01*
X124975000Y-114540000D02*
X122115000Y-114540000D01*
%TO.C,R8*%
X129272936Y-114765000D02*
X129727064Y-114765000D01*
X129272936Y-116235000D02*
X129727064Y-116235000D01*
%TO.C,U2*%
X108402500Y-108340000D02*
X111122500Y-108340000D01*
X108402500Y-109320000D02*
X108402500Y-108340000D01*
X108402500Y-112080000D02*
X108402500Y-113060000D01*
X110982500Y-113060000D02*
X108402500Y-113060000D01*
X111772500Y-113240000D02*
X111292500Y-113240000D01*
X111532500Y-112910000D01*
X111772500Y-113240000D01*
G36*
X111772500Y-113240000D02*
G01*
X111292500Y-113240000D01*
X111532500Y-112910000D01*
X111772500Y-113240000D01*
G37*
%TO.C,BZ1*%
X126300000Y-104500000D02*
G75*
G02*
X114100000Y-104500000I-6100000J0D01*
G01*
X114100000Y-104500000D02*
G75*
G02*
X126300000Y-104500000I6100000J0D01*
G01*
%TO.C,R6*%
X112265000Y-62727064D02*
X112265000Y-62272936D01*
X113735000Y-62727064D02*
X113735000Y-62272936D01*
%TO.C,Q1*%
X103255000Y-58525000D02*
X103255000Y-58795000D01*
X103255000Y-65425000D02*
X103255000Y-65155000D01*
X109675000Y-58525000D02*
X103255000Y-58525000D01*
X109675000Y-65425000D02*
X103255000Y-65425000D01*
X101835000Y-58835000D02*
X101595000Y-58505000D01*
X102075000Y-58505000D01*
X101835000Y-58835000D01*
G36*
X101835000Y-58835000D02*
G01*
X101595000Y-58505000D01*
X102075000Y-58505000D01*
X101835000Y-58835000D01*
G37*
%TO.C,U1*%
X135215000Y-92790000D02*
X135215000Y-93090000D01*
X135215000Y-100010000D02*
X135215000Y-99710000D01*
X135515000Y-92790000D02*
X135215000Y-92790000D01*
X135515000Y-100010000D02*
X135215000Y-100010000D01*
X142135000Y-92790000D02*
X142435000Y-92790000D01*
X142135000Y-100010000D02*
X142435000Y-100010000D01*
X142435000Y-92790000D02*
X142435000Y-93090000D01*
X142435000Y-100010000D02*
X142435000Y-99710000D01*
X134612500Y-93090000D02*
X134272500Y-92620000D01*
X134952500Y-92620000D01*
X134612500Y-93090000D01*
G36*
X134612500Y-93090000D02*
G01*
X134272500Y-92620000D01*
X134952500Y-92620000D01*
X134612500Y-93090000D01*
G37*
%TO.C,D1*%
X103307500Y-65852500D02*
X103307500Y-66122500D01*
X103307500Y-72752500D02*
X103307500Y-72482500D01*
X109727500Y-65852500D02*
X103307500Y-65852500D01*
X109727500Y-72752500D02*
X103307500Y-72752500D01*
X101887500Y-66162500D02*
X101647500Y-65832500D01*
X102127500Y-65832500D01*
X101887500Y-66162500D01*
G36*
X101887500Y-66162500D02*
G01*
X101647500Y-65832500D01*
X102127500Y-65832500D01*
X101887500Y-66162500D01*
G37*
%TO.C,J11*%
X137150000Y-80250000D02*
X137150000Y-81500000D01*
X137440000Y-80540000D02*
X137440000Y-86510000D01*
X137440000Y-86510000D02*
X150060000Y-86510000D01*
X137450000Y-80550000D02*
X137450000Y-81300000D01*
X137450000Y-81300000D02*
X139250000Y-81300000D01*
X137450000Y-82800000D02*
X138200000Y-82800000D01*
X138200000Y-82800000D02*
X138200000Y-85750000D01*
X138200000Y-85750000D02*
X143750000Y-85750000D01*
X138400000Y-80250000D02*
X137150000Y-80250000D01*
X139250000Y-80550000D02*
X137450000Y-80550000D01*
X139250000Y-81300000D02*
X139250000Y-80550000D01*
X140750000Y-80550000D02*
X140750000Y-81300000D01*
X140750000Y-81300000D02*
X146750000Y-81300000D01*
X146750000Y-80550000D02*
X140750000Y-80550000D01*
X146750000Y-81300000D02*
X146750000Y-80550000D01*
X148250000Y-80550000D02*
X148250000Y-81300000D01*
X148250000Y-81300000D02*
X150050000Y-81300000D01*
X149300000Y-82800000D02*
X149300000Y-85750000D01*
X149300000Y-85750000D02*
X143750000Y-85750000D01*
X150050000Y-80550000D02*
X148250000Y-80550000D01*
X150050000Y-81300000D02*
X150050000Y-80550000D01*
X150050000Y-82800000D02*
X149300000Y-82800000D01*
X150060000Y-80540000D02*
X137440000Y-80540000D01*
X150060000Y-86510000D02*
X150060000Y-80540000D01*
%TO.C,C1*%
X124265000Y-92188748D02*
X124265000Y-92711252D01*
X125735000Y-92188748D02*
X125735000Y-92711252D01*
%TO.C,R5*%
X151265000Y-64727064D02*
X151265000Y-64272936D01*
X152735000Y-64727064D02*
X152735000Y-64272936D01*
%TO.C,RV1*%
X115170000Y-85755000D02*
X120240000Y-85755000D01*
X115170000Y-95525000D02*
X115170000Y-85755000D01*
X115170000Y-95525000D02*
X120240000Y-95525000D01*
X120240000Y-95525000D02*
X120240000Y-85755000D01*
%TO.C,J9*%
X100000000Y-96100000D02*
X100000000Y-99100000D01*
X100000000Y-105400000D02*
X100000000Y-99100000D01*
X100000000Y-105400000D02*
X100000000Y-108900000D01*
X100000000Y-108900000D02*
X104100000Y-108900000D01*
X103700000Y-96100000D02*
X100000000Y-96100000D01*
X104100000Y-108900000D02*
X105100000Y-108900000D01*
X105100000Y-96100000D02*
X103700000Y-96100000D01*
X105100000Y-97800000D02*
X105100000Y-96100000D01*
X105100000Y-97800000D02*
X105100000Y-104100000D01*
X105100000Y-104100000D02*
X105100000Y-105400000D01*
X105100000Y-108900000D02*
X105100000Y-105400000D01*
%TO.C,J8*%
X149170000Y-88795000D02*
X150500000Y-88795000D01*
X149170000Y-90125000D02*
X149170000Y-88795000D01*
X149170000Y-91395000D02*
X149170000Y-109235000D01*
X149170000Y-91395000D02*
X151830000Y-91395000D01*
X149170000Y-109235000D02*
X151830000Y-109235000D01*
X151830000Y-91395000D02*
X151830000Y-109235000D01*
%TO.C,R7*%
X129272936Y-112265000D02*
X129727064Y-112265000D01*
X129272936Y-113735000D02*
X129727064Y-113735000D01*
%TD*%
M02*
