%TF.GenerationSoftware,KiCad,Pcbnew,8.0.0-8.0.0-1~ubuntu20.04.1*%
%TF.CreationDate,2024-04-10T23:06:07+05:00*%
%TF.ProjectId,GammaAnomalain,47616d6d-6141-46e6-9f6d-616c61696e2e,rev?*%
%TF.SameCoordinates,Original*%
%TF.FileFunction,Copper,L2,Bot*%
%TF.FilePolarity,Positive*%
%FSLAX46Y46*%
G04 Gerber Fmt 4.6, Leading zero omitted, Abs format (unit mm)*
G04 Created by KiCad (PCBNEW 8.0.0-8.0.0-1~ubuntu20.04.1) date 2024-04-10 23:06:07*
%MOMM*%
%LPD*%
G01*
G04 APERTURE LIST*
G04 Aperture macros list*
%AMRoundRect*
0 Rectangle with rounded corners*
0 $1 Rounding radius*
0 $2 $3 $4 $5 $6 $7 $8 $9 X,Y pos of 4 corners*
0 Add a 4 corners polygon primitive as box body*
4,1,4,$2,$3,$4,$5,$6,$7,$8,$9,$2,$3,0*
0 Add four circle primitives for the rounded corners*
1,1,$1+$1,$2,$3*
1,1,$1+$1,$4,$5*
1,1,$1+$1,$6,$7*
1,1,$1+$1,$8,$9*
0 Add four rect primitives between the rounded corners*
20,1,$1+$1,$2,$3,$4,$5,0*
20,1,$1+$1,$4,$5,$6,$7,0*
20,1,$1+$1,$6,$7,$8,$9,0*
20,1,$1+$1,$8,$9,$2,$3,0*%
G04 Aperture macros list end*
%TA.AperFunction,ComponentPad*%
%ADD10R,1.600000X1.600000*%
%TD*%
%TA.AperFunction,ComponentPad*%
%ADD11C,1.600000*%
%TD*%
%TA.AperFunction,ComponentPad*%
%ADD12C,1.500000*%
%TD*%
%TA.AperFunction,ComponentPad*%
%ADD13RoundRect,0.250000X0.600000X0.725000X-0.600000X0.725000X-0.600000X-0.725000X0.600000X-0.725000X0*%
%TD*%
%TA.AperFunction,ComponentPad*%
%ADD14O,1.700000X1.950000*%
%TD*%
%TA.AperFunction,ComponentPad*%
%ADD15RoundRect,0.250000X-0.600000X-0.725000X0.600000X-0.725000X0.600000X0.725000X-0.600000X0.725000X0*%
%TD*%
%TA.AperFunction,ComponentPad*%
%ADD16C,2.600000*%
%TD*%
%TA.AperFunction,ComponentPad*%
%ADD17R,1.600000X2.400000*%
%TD*%
%TA.AperFunction,ComponentPad*%
%ADD18O,1.600000X2.400000*%
%TD*%
%TA.AperFunction,ComponentPad*%
%ADD19R,1.800000X1.800000*%
%TD*%
%TA.AperFunction,ComponentPad*%
%ADD20C,1.800000*%
%TD*%
%TA.AperFunction,ComponentPad*%
%ADD21C,1.440000*%
%TD*%
%TA.AperFunction,ComponentPad*%
%ADD22RoundRect,0.500000X0.500000X-0.750000X0.500000X0.750000X-0.500000X0.750000X-0.500000X-0.750000X0*%
%TD*%
%TA.AperFunction,ComponentPad*%
%ADD23O,2.000000X2.500000*%
%TD*%
%TA.AperFunction,ComponentPad*%
%ADD24R,1.700000X1.700000*%
%TD*%
%TA.AperFunction,ComponentPad*%
%ADD25O,1.700000X1.700000*%
%TD*%
%TA.AperFunction,ViaPad*%
%ADD26C,0.600000*%
%TD*%
%TA.AperFunction,Conductor*%
%ADD27C,0.400000*%
%TD*%
%TA.AperFunction,Conductor*%
%ADD28C,1.000000*%
%TD*%
G04 APERTURE END LIST*
D10*
%TO.P,C4,1*%
%TO.N,3V7*%
X112000000Y-99500000D03*
D11*
%TO.P,C4,2*%
%TO.N,GND*%
X108500000Y-99500000D03*
%TD*%
D12*
%TO.P,Y1,1,1*%
%TO.N,XTAL0*%
X129500000Y-93550000D03*
%TO.P,Y1,2,2*%
%TO.N,XTAL1*%
X129500000Y-98430000D03*
%TD*%
D13*
%TO.P,J4,1,Pin_1*%
%TO.N,SERVOD*%
X130000000Y-64000000D03*
D14*
%TO.P,J4,2,Pin_2*%
%TO.N,SERVO_6V*%
X127500000Y-64000000D03*
%TO.P,J4,3,Pin_3*%
%TO.N,SERVO_GND*%
X125000000Y-64000000D03*
%TD*%
D15*
%TO.P,J7,1,Pin_1*%
%TO.N,3V3*%
X140000000Y-76000000D03*
D14*
%TO.P,J7,2,Pin_2*%
%TO.N,GND*%
X142500000Y-76000000D03*
%TO.P,J7,3,Pin_3*%
%TO.N,SCL*%
X145000000Y-76000000D03*
%TO.P,J7,4,Pin_4*%
%TO.N,SDA*%
X147500000Y-76000000D03*
%TD*%
D15*
%TO.P,J6,1,Pin_1*%
%TO.N,3V3*%
X140000000Y-69000000D03*
D14*
%TO.P,J6,2,Pin_2*%
%TO.N,GND*%
X142500000Y-69000000D03*
%TO.P,J6,3,Pin_3*%
%TO.N,SCL*%
X145000000Y-69000000D03*
%TO.P,J6,4,Pin_4*%
%TO.N,SDA*%
X147500000Y-69000000D03*
%TD*%
D16*
%TO.P,L1,1*%
%TO.N,3V7*%
X106500000Y-92800000D03*
%TO.P,L1,2*%
%TO.N,Net-(D1-A)*%
X106500000Y-87200000D03*
%TD*%
D17*
%TO.P,U4,1,~{CS}*%
%TO.N,W25NE*%
X134700000Y-111825000D03*
D18*
%TO.P,U4,2,DO(IO1)*%
%TO.N,MISO*%
X137240000Y-111825000D03*
%TO.P,U4,3,IO2*%
%TO.N,3V3*%
X139780000Y-111825000D03*
%TO.P,U4,4,GND*%
%TO.N,GND*%
X142320000Y-111825000D03*
%TO.P,U4,5,DI(IO0)*%
%TO.N,MOSI*%
X142320000Y-104205000D03*
%TO.P,U4,6,CLK*%
%TO.N,SCK*%
X139780000Y-104205000D03*
%TO.P,U4,7,IO3*%
%TO.N,3V3*%
X137240000Y-104205000D03*
%TO.P,U4,8,VCC*%
X134700000Y-104205000D03*
%TD*%
D15*
%TO.P,J5,1,Pin_1*%
%TO.N,3V3*%
X140000000Y-62000000D03*
D14*
%TO.P,J5,2,Pin_2*%
%TO.N,GND*%
X142500000Y-62000000D03*
%TO.P,J5,3,Pin_3*%
%TO.N,SCL*%
X145000000Y-62000000D03*
%TO.P,J5,4,Pin_4*%
%TO.N,SDA*%
X147500000Y-62000000D03*
%TD*%
D10*
%TO.P,C5,1*%
%TO.N,SERVO_6V*%
X116500000Y-70000000D03*
D11*
%TO.P,C5,2*%
%TO.N,GND*%
X116500000Y-66500000D03*
%TD*%
D13*
%TO.P,J1,1,Pin_1*%
%TO.N,SERVOA*%
X130000000Y-85000000D03*
D14*
%TO.P,J1,2,Pin_2*%
%TO.N,SERVO_6V*%
X127500000Y-85000000D03*
%TO.P,J1,3,Pin_3*%
%TO.N,SERVO_GND*%
X125000000Y-85000000D03*
%TD*%
D19*
%TO.P,D2,1,K*%
%TO.N,GND*%
X127425000Y-111100000D03*
D20*
%TO.P,D2,2,A*%
%TO.N,Net-(D2-A)*%
X129965000Y-111100000D03*
%TD*%
D13*
%TO.P,J3,1,Pin_1*%
%TO.N,SERVOC*%
X130000000Y-71000000D03*
D14*
%TO.P,J3,2,Pin_2*%
%TO.N,SERVO_6V*%
X127500000Y-71000000D03*
%TO.P,J3,3,Pin_3*%
%TO.N,SERVO_GND*%
X125000000Y-71000000D03*
%TD*%
D13*
%TO.P,J2,1,Pin_1*%
%TO.N,SERVOB*%
X130000000Y-78000000D03*
D14*
%TO.P,J2,2,Pin_2*%
%TO.N,SERVO_6V*%
X127500000Y-78000000D03*
%TO.P,J2,3,Pin_3*%
%TO.N,SERVO_GND*%
X125000000Y-78000000D03*
%TD*%
D19*
%TO.P,D3,1,K*%
%TO.N,GND*%
X127425000Y-116000000D03*
D20*
%TO.P,D3,2,A*%
%TO.N,Net-(D3-A)*%
X129965000Y-116000000D03*
%TD*%
D10*
%TO.P,BZ1,1,+*%
%TO.N,BUZ*%
X120400000Y-101100000D03*
D11*
%TO.P,BZ1,2,-*%
%TO.N,GND*%
X120400000Y-108700000D03*
%TD*%
D15*
%TO.P,J11,1,Pin_1*%
%TO.N,TXD6*%
X140000000Y-83000000D03*
D14*
%TO.P,J11,2,Pin_2*%
%TO.N,RXD*%
X142500000Y-83000000D03*
%TO.P,J11,3,Pin_3*%
%TO.N,SERVOA*%
X145000000Y-83000000D03*
%TO.P,J11,4,Pin_4*%
%TO.N,GND*%
X147500000Y-83000000D03*
%TD*%
D21*
%TO.P,RV1,1,1*%
%TO.N,Net-(R2-Pad1)*%
X117700000Y-88100000D03*
%TO.P,RV1,2,2*%
%TO.N,SERVO_6V*%
X117700000Y-90640000D03*
%TO.P,RV1,3,3*%
%TO.N,unconnected-(RV1-Pad3)*%
X117700000Y-93180000D03*
%TD*%
D22*
%TO.P,J9,1,Pin_1*%
%TO.N,GND*%
X101300000Y-97600000D03*
D23*
%TO.P,J9,2,Pin_2*%
%TO.N,3V7*%
X103800000Y-97600000D03*
%TD*%
D24*
%TO.P,J8,1,Pin_1*%
%TO.N,GND*%
X150500000Y-90125000D03*
D25*
%TO.P,J8,2,Pin_2*%
%TO.N,3V3*%
X150500000Y-92665000D03*
%TO.P,J8,3,Pin_3*%
%TO.N,NRES*%
X150500000Y-95205000D03*
%TO.P,J8,4,Pin_4*%
%TO.N,SWD*%
X150500000Y-97745000D03*
%TO.P,J8,5,Pin_5*%
%TO.N,SWC*%
X150500000Y-100285000D03*
%TO.P,J8,6,Pin_6*%
%TO.N,SCK*%
X150500000Y-102825000D03*
%TO.P,J8,7,Pin_7*%
%TO.N,MISO*%
X150500000Y-105365000D03*
%TO.P,J8,8,Pin_8*%
%TO.N,MOSI*%
X150500000Y-107905000D03*
%TD*%
D26*
%TO.N,GND*%
X112500000Y-84000000D03*
X114500000Y-84000000D03*
X113500000Y-84000000D03*
X115500000Y-84000000D03*
X131600000Y-96800000D03*
X131600000Y-95800000D03*
%TO.N,SERVO_6V*%
X114500000Y-63500000D03*
X112500000Y-68500000D03*
%TO.N,3V3*%
X132700000Y-95700000D03*
%TO.N,SERVOA*%
X134700000Y-88500000D03*
%TO.N,SERVOC*%
X136600000Y-94100000D03*
X135500000Y-86900000D03*
%TO.N,SERVOD*%
X137800000Y-94000000D03*
X136050000Y-85950000D03*
%TO.N,NRES*%
X141300000Y-94700000D03*
X145200000Y-94700000D03*
%TO.N,TXD6*%
X136500000Y-95500000D03*
%TO.N,SERVOEN*%
X133900000Y-91900000D03*
X129800000Y-59400000D03*
%TO.N,SCK*%
X141500000Y-106500000D03*
%TD*%
D27*
%TO.N,GND*%
X147500000Y-83000000D02*
X147500000Y-81000000D01*
X108500000Y-88000000D02*
X112500000Y-84000000D01*
X131600000Y-98031370D02*
X131600000Y-96800000D01*
X121331370Y-108300000D02*
X131600000Y-98031370D01*
X142500000Y-76000000D02*
X142500000Y-62000000D01*
X133500000Y-113425000D02*
X140720000Y-113425000D01*
X148347767Y-111825000D02*
X151750000Y-108422767D01*
X131600000Y-96800000D02*
X131600000Y-95800000D01*
X116500000Y-66500000D02*
X114500000Y-68500000D01*
X131500000Y-109000000D02*
X131500000Y-111425000D01*
X127425000Y-111100000D02*
X127425000Y-116000000D01*
X115500000Y-84000000D02*
X114500000Y-84000000D01*
X120200000Y-108300000D02*
X121331370Y-108300000D01*
X112500000Y-84000000D02*
X113500000Y-84000000D01*
X108500000Y-99500000D02*
X108500000Y-88000000D01*
X131500000Y-111425000D02*
X133500000Y-113425000D01*
X151750000Y-108422767D02*
X151750000Y-91375000D01*
X131500000Y-98000000D02*
X131500000Y-109000000D01*
X131600000Y-97900000D02*
X131500000Y-98000000D01*
X101300000Y-97600000D02*
X103200000Y-99500000D01*
X103200000Y-99500000D02*
X108500000Y-99500000D01*
X114500000Y-68500000D02*
X114500000Y-84000000D01*
X114500000Y-84000000D02*
X113500000Y-84000000D01*
X140720000Y-113425000D02*
X142320000Y-111825000D01*
X147500000Y-81000000D02*
X142500000Y-76000000D01*
X151750000Y-91375000D02*
X150500000Y-90125000D01*
X131600000Y-96800000D02*
X131600000Y-97900000D01*
X142320000Y-111825000D02*
X148347767Y-111825000D01*
D28*
%TO.N,SERVO_6V*%
X127500000Y-64000000D02*
X127500000Y-85000000D01*
X114500000Y-63500000D02*
X112500000Y-65500000D01*
X112500000Y-65500000D02*
X112500000Y-68500000D01*
%TO.N,3V3*%
X137240000Y-100240000D02*
X137240000Y-104205000D01*
D27*
X137240000Y-104205000D02*
X136000000Y-104205000D01*
D28*
X139780000Y-111825000D02*
X139780000Y-109980000D01*
X142760000Y-100240000D02*
X150335000Y-92665000D01*
X150335000Y-92665000D02*
X150500000Y-92665000D01*
X137240000Y-107440000D02*
X137240000Y-104205000D01*
D27*
X140000000Y-62000000D02*
X140000000Y-69000000D01*
D28*
X132700000Y-95700000D02*
X137240000Y-100240000D01*
D27*
X136000000Y-104205000D02*
X134700000Y-104205000D01*
D28*
X137240000Y-100240000D02*
X142760000Y-100240000D01*
X139780000Y-109980000D02*
X137240000Y-107440000D01*
D27*
X140000000Y-69000000D02*
X140000000Y-76000000D01*
D28*
%TO.N,SERVO_GND*%
X125000000Y-85000000D02*
X125000000Y-64000000D01*
D27*
%TO.N,SERVOA*%
X134700000Y-86048834D02*
X139123834Y-81625000D01*
X139123834Y-81625000D02*
X143625000Y-81625000D01*
X134700000Y-88500000D02*
X134700000Y-86048834D01*
X143625000Y-81625000D02*
X145000000Y-83000000D01*
%TO.N,SERVOC*%
X135500000Y-86900000D02*
X136600000Y-88000000D01*
X136600000Y-88000000D02*
X136600000Y-94100000D01*
%TO.N,SERVOD*%
X136050000Y-85950000D02*
X137800000Y-87700000D01*
X137800000Y-87700000D02*
X137800000Y-94000000D01*
%TO.N,SCL*%
X145000000Y-62000000D02*
X145000000Y-76000000D01*
%TO.N,SDA*%
X147500000Y-76000000D02*
X147500000Y-62000000D01*
%TO.N,NRES*%
X141300000Y-94700000D02*
X145200000Y-94700000D01*
%TO.N,TXD6*%
X137289950Y-95500000D02*
X140000000Y-92789950D01*
X140000000Y-92789950D02*
X140000000Y-83000000D01*
X136500000Y-95500000D02*
X137289950Y-95500000D01*
%TO.N,SERVOEN*%
X133900000Y-63500000D02*
X133900000Y-91900000D01*
X133900000Y-63500000D02*
X129800000Y-59400000D01*
%TO.N,SCK*%
X141500000Y-106500000D02*
X146825000Y-106500000D01*
X146825000Y-106500000D02*
X150500000Y-102825000D01*
%TD*%
%TA.AperFunction,Conductor*%
%TO.N,3V3*%
G36*
X132854064Y-95738516D02*
G01*
X138700000Y-97200000D01*
X146202182Y-95949636D01*
X146271544Y-95958032D01*
X146325357Y-96002595D01*
X146346535Y-96069178D01*
X146328354Y-96136641D01*
X146323034Y-96144628D01*
X143119648Y-100572838D01*
X143069339Y-100613561D01*
X137887459Y-102905546D01*
X137818186Y-102914662D01*
X137768411Y-102895247D01*
X137737363Y-102874502D01*
X137546272Y-102795349D01*
X137546267Y-102795347D01*
X137490000Y-102784155D01*
X137490000Y-103889314D01*
X137485606Y-103884920D01*
X137394394Y-103832259D01*
X137292661Y-103805000D01*
X137187339Y-103805000D01*
X137085606Y-103832259D01*
X136994394Y-103884920D01*
X136990000Y-103889314D01*
X136990000Y-102784156D01*
X136989999Y-102784155D01*
X136933732Y-102795347D01*
X136933727Y-102795349D01*
X136742641Y-102874500D01*
X136742631Y-102874505D01*
X136570664Y-102989410D01*
X136570660Y-102989413D01*
X136424413Y-103135660D01*
X136424410Y-103135664D01*
X136309505Y-103307631D01*
X136309500Y-103307641D01*
X136230350Y-103498725D01*
X136230348Y-103498733D01*
X136190000Y-103701579D01*
X136190000Y-103955000D01*
X136924314Y-103955000D01*
X136919920Y-103959394D01*
X136867259Y-104050606D01*
X136840000Y-104152339D01*
X136840000Y-104257661D01*
X136867259Y-104359394D01*
X136919920Y-104450606D01*
X136924314Y-104455000D01*
X136190000Y-104455000D01*
X136190000Y-104708420D01*
X136230348Y-104911266D01*
X136230350Y-104911274D01*
X136309500Y-105102358D01*
X136309505Y-105102368D01*
X136424410Y-105274335D01*
X136424413Y-105274339D01*
X136570660Y-105420586D01*
X136570664Y-105420589D01*
X136742631Y-105535494D01*
X136742641Y-105535499D01*
X136933723Y-105614648D01*
X136933725Y-105614649D01*
X136990000Y-105625842D01*
X136990000Y-104520686D01*
X136994394Y-104525080D01*
X137085606Y-104577741D01*
X137187339Y-104605000D01*
X137292661Y-104605000D01*
X137394394Y-104577741D01*
X137485606Y-104525080D01*
X137490000Y-104520686D01*
X137490000Y-105625842D01*
X137546274Y-105614649D01*
X137546276Y-105614648D01*
X137737358Y-105535499D01*
X137737367Y-105535494D01*
X137840452Y-105466615D01*
X137907129Y-105445737D01*
X137974509Y-105464221D01*
X138021200Y-105516200D01*
X138025078Y-105525204D01*
X138900000Y-107800000D01*
X139740000Y-109300000D01*
X140257694Y-110224454D01*
X140273275Y-110292564D01*
X140249559Y-110358286D01*
X140243650Y-110365740D01*
X140229555Y-110382184D01*
X140170981Y-110420273D01*
X140101112Y-110420648D01*
X140087962Y-110416049D01*
X140086274Y-110415350D01*
X140086267Y-110415347D01*
X140030000Y-110404155D01*
X140030000Y-110615000D01*
X139530000Y-111198333D01*
X139530000Y-110404156D01*
X139529999Y-110404155D01*
X139473732Y-110415347D01*
X139473727Y-110415349D01*
X139282641Y-110494500D01*
X139282631Y-110494505D01*
X139110664Y-110609410D01*
X139110660Y-110609413D01*
X138964413Y-110755660D01*
X138964410Y-110755664D01*
X138871009Y-110895448D01*
X138817396Y-110940253D01*
X138748071Y-110948960D01*
X138685044Y-110918805D01*
X138658875Y-110885616D01*
X137800000Y-109300000D01*
X137799999Y-109299999D01*
X135016160Y-107808657D01*
X134987034Y-107787034D01*
X132736319Y-105536319D01*
X132702834Y-105474996D01*
X132700000Y-105448638D01*
X132700000Y-104708420D01*
X133650000Y-104708420D01*
X133690348Y-104911266D01*
X133690350Y-104911274D01*
X133769500Y-105102358D01*
X133769505Y-105102368D01*
X133884410Y-105274335D01*
X133884413Y-105274339D01*
X134030660Y-105420586D01*
X134030664Y-105420589D01*
X134202631Y-105535494D01*
X134202641Y-105535499D01*
X134393723Y-105614648D01*
X134393725Y-105614649D01*
X134450000Y-105625842D01*
X134450000Y-104520686D01*
X134454394Y-104525080D01*
X134545606Y-104577741D01*
X134647339Y-104605000D01*
X134752661Y-104605000D01*
X134854394Y-104577741D01*
X134945606Y-104525080D01*
X134950000Y-104520686D01*
X134950000Y-105625842D01*
X135006274Y-105614649D01*
X135006276Y-105614648D01*
X135197358Y-105535499D01*
X135197368Y-105535494D01*
X135369335Y-105420589D01*
X135369339Y-105420586D01*
X135515586Y-105274339D01*
X135515589Y-105274335D01*
X135630494Y-105102368D01*
X135630499Y-105102358D01*
X135709649Y-104911274D01*
X135709651Y-104911266D01*
X135749999Y-104708420D01*
X135750000Y-104708417D01*
X135750000Y-104455000D01*
X135015686Y-104455000D01*
X135020080Y-104450606D01*
X135072741Y-104359394D01*
X135100000Y-104257661D01*
X135100000Y-104152339D01*
X135072741Y-104050606D01*
X135020080Y-103959394D01*
X135015686Y-103955000D01*
X135750000Y-103955000D01*
X135750000Y-103701583D01*
X135749999Y-103701579D01*
X135709651Y-103498733D01*
X135709649Y-103498725D01*
X135630499Y-103307641D01*
X135630494Y-103307631D01*
X135515589Y-103135664D01*
X135515586Y-103135660D01*
X135369339Y-102989413D01*
X135369335Y-102989410D01*
X135197368Y-102874505D01*
X135197358Y-102874500D01*
X135006272Y-102795349D01*
X135006267Y-102795347D01*
X134950000Y-102784155D01*
X134950000Y-103889314D01*
X134945606Y-103884920D01*
X134854394Y-103832259D01*
X134752661Y-103805000D01*
X134647339Y-103805000D01*
X134545606Y-103832259D01*
X134454394Y-103884920D01*
X134450000Y-103889314D01*
X134450000Y-102784156D01*
X134449999Y-102784155D01*
X134393732Y-102795347D01*
X134393727Y-102795349D01*
X134202641Y-102874500D01*
X134202631Y-102874505D01*
X134030664Y-102989410D01*
X134030660Y-102989413D01*
X133884413Y-103135660D01*
X133884410Y-103135664D01*
X133769505Y-103307631D01*
X133769500Y-103307641D01*
X133690350Y-103498725D01*
X133690348Y-103498733D01*
X133650000Y-103701579D01*
X133650000Y-103955000D01*
X134384314Y-103955000D01*
X134379920Y-103959394D01*
X134327259Y-104050606D01*
X134300000Y-104152339D01*
X134300000Y-104257661D01*
X134327259Y-104359394D01*
X134379920Y-104450606D01*
X134384314Y-104455000D01*
X133650000Y-104455000D01*
X133650000Y-104708420D01*
X132700000Y-104708420D01*
X132700000Y-95858816D01*
X132719685Y-95791777D01*
X132772489Y-95746022D01*
X132841647Y-95736078D01*
X132854064Y-95738516D01*
G37*
%TD.AperFunction*%
%TD*%
%TA.AperFunction,Conductor*%
%TO.N,GND*%
G36*
X153442539Y-49520185D02*
G01*
X153488294Y-49572989D01*
X153499500Y-49624500D01*
X153499500Y-118875500D01*
X153479815Y-118942539D01*
X153427011Y-118988294D01*
X153375500Y-118999500D01*
X99624500Y-118999500D01*
X99557461Y-118979815D01*
X99511706Y-118927011D01*
X99500500Y-118875500D01*
X99500500Y-116924628D01*
X126275000Y-116924628D01*
X126289503Y-116997540D01*
X126289505Y-116997544D01*
X126344760Y-117080239D01*
X126427455Y-117135494D01*
X126427459Y-117135496D01*
X126500371Y-117149999D01*
X126500374Y-117150000D01*
X127175000Y-117150000D01*
X127175000Y-116375277D01*
X127251306Y-116419333D01*
X127365756Y-116450000D01*
X127484244Y-116450000D01*
X127598694Y-116419333D01*
X127675000Y-116375277D01*
X127675000Y-117150000D01*
X128349626Y-117150000D01*
X128349628Y-117149999D01*
X128422540Y-117135496D01*
X128422544Y-117135494D01*
X128505239Y-117080239D01*
X128560494Y-116997544D01*
X128560496Y-116997540D01*
X128574999Y-116924628D01*
X128575000Y-116924626D01*
X128575000Y-116150657D01*
X128594685Y-116083618D01*
X128647489Y-116037863D01*
X128716647Y-116027919D01*
X128780203Y-116056944D01*
X128817977Y-116115722D01*
X128822470Y-116139215D01*
X128829244Y-116212310D01*
X128832212Y-116222743D01*
X128887596Y-116417392D01*
X128887596Y-116417394D01*
X128982632Y-116608253D01*
X129111127Y-116778406D01*
X129111128Y-116778407D01*
X129268698Y-116922052D01*
X129449981Y-117034298D01*
X129648802Y-117111321D01*
X129858390Y-117150500D01*
X129858392Y-117150500D01*
X130071608Y-117150500D01*
X130071610Y-117150500D01*
X130281198Y-117111321D01*
X130480019Y-117034298D01*
X130661302Y-116922052D01*
X130818872Y-116778407D01*
X130947366Y-116608255D01*
X131042405Y-116417389D01*
X131100756Y-116212310D01*
X131120429Y-116000000D01*
X131100756Y-115787690D01*
X131042405Y-115582611D01*
X131042403Y-115582606D01*
X131042403Y-115582605D01*
X130947367Y-115391746D01*
X130818872Y-115221593D01*
X130708843Y-115121288D01*
X147149500Y-115121288D01*
X147181161Y-115361785D01*
X147243947Y-115596104D01*
X147323305Y-115787690D01*
X147336776Y-115820212D01*
X147458064Y-116030289D01*
X147458066Y-116030292D01*
X147458067Y-116030293D01*
X147605733Y-116222736D01*
X147605739Y-116222743D01*
X147777256Y-116394260D01*
X147777262Y-116394265D01*
X147969711Y-116541936D01*
X148179788Y-116663224D01*
X148403900Y-116756054D01*
X148638211Y-116818838D01*
X148818586Y-116842584D01*
X148878711Y-116850500D01*
X148878712Y-116850500D01*
X149121289Y-116850500D01*
X149169388Y-116844167D01*
X149361789Y-116818838D01*
X149596100Y-116756054D01*
X149820212Y-116663224D01*
X150030289Y-116541936D01*
X150222738Y-116394265D01*
X150394265Y-116222738D01*
X150541936Y-116030289D01*
X150663224Y-115820212D01*
X150756054Y-115596100D01*
X150818838Y-115361789D01*
X150850500Y-115121288D01*
X150850500Y-114878712D01*
X150818838Y-114638211D01*
X150756054Y-114403900D01*
X150663224Y-114179788D01*
X150541936Y-113969711D01*
X150394265Y-113777262D01*
X150394260Y-113777256D01*
X150222743Y-113605739D01*
X150222736Y-113605733D01*
X150030293Y-113458067D01*
X150030292Y-113458066D01*
X150030289Y-113458064D01*
X149820212Y-113336776D01*
X149820205Y-113336773D01*
X149596104Y-113243947D01*
X149361785Y-113181161D01*
X149121289Y-113149500D01*
X149121288Y-113149500D01*
X148878712Y-113149500D01*
X148878711Y-113149500D01*
X148638214Y-113181161D01*
X148403895Y-113243947D01*
X148179794Y-113336773D01*
X148179785Y-113336777D01*
X147969706Y-113458067D01*
X147777263Y-113605733D01*
X147777256Y-113605739D01*
X147605739Y-113777256D01*
X147605733Y-113777263D01*
X147458067Y-113969706D01*
X147336777Y-114179785D01*
X147336773Y-114179794D01*
X147243947Y-114403895D01*
X147181161Y-114638214D01*
X147149500Y-114878711D01*
X147149500Y-115121288D01*
X130708843Y-115121288D01*
X130661302Y-115077948D01*
X130480019Y-114965702D01*
X130480017Y-114965701D01*
X130361428Y-114919760D01*
X130281198Y-114888679D01*
X130071610Y-114849500D01*
X129858390Y-114849500D01*
X129648802Y-114888679D01*
X129648799Y-114888679D01*
X129648799Y-114888680D01*
X129449982Y-114965701D01*
X129449980Y-114965702D01*
X129268699Y-115077947D01*
X129111127Y-115221593D01*
X128982632Y-115391746D01*
X128887596Y-115582605D01*
X128887596Y-115582607D01*
X128829244Y-115787689D01*
X128822471Y-115860783D01*
X128796685Y-115925720D01*
X128739884Y-115966408D01*
X128670104Y-115969928D01*
X128609497Y-115935163D01*
X128577307Y-115873150D01*
X128575000Y-115849342D01*
X128575000Y-115075373D01*
X128574999Y-115075371D01*
X128560496Y-115002459D01*
X128560494Y-115002455D01*
X128505239Y-114919760D01*
X128422544Y-114864505D01*
X128422540Y-114864503D01*
X128349627Y-114850000D01*
X127675000Y-114850000D01*
X127675000Y-115624722D01*
X127598694Y-115580667D01*
X127484244Y-115550000D01*
X127365756Y-115550000D01*
X127251306Y-115580667D01*
X127175000Y-115624722D01*
X127175000Y-114850000D01*
X126500373Y-114850000D01*
X126427459Y-114864503D01*
X126427455Y-114864505D01*
X126344760Y-114919760D01*
X126289505Y-115002455D01*
X126289503Y-115002459D01*
X126275000Y-115075371D01*
X126275000Y-115750000D01*
X127049722Y-115750000D01*
X127005667Y-115826306D01*
X126975000Y-115940756D01*
X126975000Y-116059244D01*
X127005667Y-116173694D01*
X127049722Y-116250000D01*
X126275000Y-116250000D01*
X126275000Y-116924628D01*
X99500500Y-116924628D01*
X99500500Y-115121288D01*
X102149500Y-115121288D01*
X102181161Y-115361785D01*
X102243947Y-115596104D01*
X102323305Y-115787690D01*
X102336776Y-115820212D01*
X102458064Y-116030289D01*
X102458066Y-116030292D01*
X102458067Y-116030293D01*
X102605733Y-116222736D01*
X102605739Y-116222743D01*
X102777256Y-116394260D01*
X102777262Y-116394265D01*
X102969711Y-116541936D01*
X103179788Y-116663224D01*
X103403900Y-116756054D01*
X103638211Y-116818838D01*
X103818586Y-116842584D01*
X103878711Y-116850500D01*
X103878712Y-116850500D01*
X104121289Y-116850500D01*
X104169388Y-116844167D01*
X104361789Y-116818838D01*
X104596100Y-116756054D01*
X104820212Y-116663224D01*
X105030289Y-116541936D01*
X105222738Y-116394265D01*
X105394265Y-116222738D01*
X105541936Y-116030289D01*
X105663224Y-115820212D01*
X105756054Y-115596100D01*
X105818838Y-115361789D01*
X105850500Y-115121288D01*
X105850500Y-114878712D01*
X105818838Y-114638211D01*
X105756054Y-114403900D01*
X105663224Y-114179788D01*
X105541936Y-113969711D01*
X105394265Y-113777262D01*
X105394260Y-113777256D01*
X105222743Y-113605739D01*
X105222736Y-113605733D01*
X105030293Y-113458067D01*
X105030292Y-113458066D01*
X105030289Y-113458064D01*
X104820212Y-113336776D01*
X104820205Y-113336773D01*
X104596104Y-113243947D01*
X104361785Y-113181161D01*
X104121289Y-113149500D01*
X104121288Y-113149500D01*
X103878712Y-113149500D01*
X103878711Y-113149500D01*
X103638214Y-113181161D01*
X103403895Y-113243947D01*
X103179794Y-113336773D01*
X103179785Y-113336777D01*
X102969706Y-113458067D01*
X102777263Y-113605733D01*
X102777256Y-113605739D01*
X102605739Y-113777256D01*
X102605733Y-113777263D01*
X102458067Y-113969706D01*
X102336777Y-114179785D01*
X102336773Y-114179794D01*
X102243947Y-114403895D01*
X102181161Y-114638214D01*
X102149500Y-114878711D01*
X102149500Y-115121288D01*
X99500500Y-115121288D01*
X99500500Y-113049678D01*
X133649500Y-113049678D01*
X133664032Y-113122735D01*
X133664033Y-113122739D01*
X133664034Y-113122740D01*
X133719399Y-113205601D01*
X133776789Y-113243947D01*
X133802260Y-113260966D01*
X133802264Y-113260967D01*
X133875321Y-113275499D01*
X133875324Y-113275500D01*
X133875326Y-113275500D01*
X135524676Y-113275500D01*
X135524677Y-113275499D01*
X135597740Y-113260966D01*
X135680601Y-113205601D01*
X135735966Y-113122740D01*
X135750500Y-113049674D01*
X135750500Y-110600326D01*
X135750500Y-110600323D01*
X135750499Y-110600321D01*
X135735967Y-110527264D01*
X135735966Y-110527260D01*
X135714080Y-110494505D01*
X135680601Y-110444399D01*
X135597740Y-110389034D01*
X135597739Y-110389033D01*
X135597735Y-110389032D01*
X135524677Y-110374500D01*
X135524674Y-110374500D01*
X133875326Y-110374500D01*
X133875323Y-110374500D01*
X133802264Y-110389032D01*
X133802260Y-110389033D01*
X133719399Y-110444399D01*
X133664033Y-110527260D01*
X133664032Y-110527264D01*
X133649500Y-110600321D01*
X133649500Y-113049678D01*
X99500500Y-113049678D01*
X99500500Y-112024628D01*
X126275000Y-112024628D01*
X126289503Y-112097540D01*
X126289505Y-112097544D01*
X126344760Y-112180239D01*
X126427455Y-112235494D01*
X126427459Y-112235496D01*
X126500371Y-112249999D01*
X126500374Y-112250000D01*
X127175000Y-112250000D01*
X127175000Y-111475277D01*
X127251306Y-111519333D01*
X127365756Y-111550000D01*
X127484244Y-111550000D01*
X127598694Y-111519333D01*
X127675000Y-111475277D01*
X127675000Y-112250000D01*
X128349626Y-112250000D01*
X128349628Y-112249999D01*
X128422540Y-112235496D01*
X128422544Y-112235494D01*
X128505239Y-112180239D01*
X128560494Y-112097544D01*
X128560496Y-112097540D01*
X128574999Y-112024628D01*
X128575000Y-112024626D01*
X128575000Y-111250657D01*
X128594685Y-111183618D01*
X128647489Y-111137863D01*
X128716647Y-111127919D01*
X128780203Y-111156944D01*
X128817977Y-111215722D01*
X128822470Y-111239215D01*
X128829244Y-111312310D01*
X128831868Y-111321534D01*
X128887596Y-111517392D01*
X128887596Y-111517394D01*
X128982632Y-111708253D01*
X129111127Y-111878406D01*
X129111128Y-111878407D01*
X129268698Y-112022052D01*
X129449981Y-112134298D01*
X129648802Y-112211321D01*
X129858390Y-112250500D01*
X129858392Y-112250500D01*
X130071608Y-112250500D01*
X130071610Y-112250500D01*
X130281198Y-112211321D01*
X130480019Y-112134298D01*
X130661302Y-112022052D01*
X130818872Y-111878407D01*
X130947366Y-111708255D01*
X130966113Y-111670606D01*
X131042403Y-111517394D01*
X131042403Y-111517393D01*
X131042405Y-111517389D01*
X131100756Y-111312310D01*
X131120429Y-111100000D01*
X131100756Y-110887690D01*
X131042405Y-110682611D01*
X131042403Y-110682606D01*
X131042403Y-110682605D01*
X130947367Y-110491746D01*
X130818872Y-110321593D01*
X130661302Y-110177948D01*
X130480019Y-110065702D01*
X130480017Y-110065701D01*
X130361428Y-110019760D01*
X130281198Y-109988679D01*
X130071610Y-109949500D01*
X129858390Y-109949500D01*
X129648802Y-109988679D01*
X129648799Y-109988679D01*
X129648799Y-109988680D01*
X129449982Y-110065701D01*
X129449980Y-110065702D01*
X129268699Y-110177947D01*
X129111127Y-110321593D01*
X128982632Y-110491746D01*
X128887596Y-110682605D01*
X128887596Y-110682607D01*
X128829244Y-110887689D01*
X128822471Y-110960783D01*
X128796685Y-111025720D01*
X128739884Y-111066408D01*
X128670104Y-111069928D01*
X128609497Y-111035163D01*
X128577307Y-110973150D01*
X128575000Y-110949342D01*
X128575000Y-110175373D01*
X128574999Y-110175371D01*
X128560496Y-110102459D01*
X128560494Y-110102455D01*
X128505239Y-110019760D01*
X128422544Y-109964505D01*
X128422540Y-109964503D01*
X128349627Y-109950000D01*
X127675000Y-109950000D01*
X127675000Y-110724722D01*
X127598694Y-110680667D01*
X127484244Y-110650000D01*
X127365756Y-110650000D01*
X127251306Y-110680667D01*
X127175000Y-110724722D01*
X127175000Y-109950000D01*
X126500373Y-109950000D01*
X126427459Y-109964503D01*
X126427455Y-109964505D01*
X126344760Y-110019760D01*
X126289505Y-110102455D01*
X126289503Y-110102459D01*
X126275000Y-110175371D01*
X126275000Y-110850000D01*
X127049722Y-110850000D01*
X127005667Y-110926306D01*
X126975000Y-111040756D01*
X126975000Y-111159244D01*
X127005667Y-111273694D01*
X127049722Y-111350000D01*
X126275000Y-111350000D01*
X126275000Y-112024628D01*
X99500500Y-112024628D01*
X99500500Y-107686611D01*
X100199500Y-107686611D01*
X100201451Y-107698930D01*
X100217613Y-107800976D01*
X100226598Y-107857701D01*
X100280127Y-108022445D01*
X100358768Y-108176788D01*
X100460586Y-108316928D01*
X100583072Y-108439414D01*
X100723212Y-108541232D01*
X100877555Y-108619873D01*
X101042299Y-108673402D01*
X101213389Y-108700500D01*
X101213390Y-108700500D01*
X101386610Y-108700500D01*
X101386611Y-108700500D01*
X101557701Y-108673402D01*
X101722445Y-108619873D01*
X101876788Y-108541232D01*
X102016928Y-108439414D01*
X102139414Y-108316928D01*
X102241232Y-108176788D01*
X102319873Y-108022445D01*
X102373402Y-107857701D01*
X102400500Y-107686611D01*
X102699500Y-107686611D01*
X102701451Y-107698930D01*
X102717613Y-107800976D01*
X102726598Y-107857701D01*
X102780127Y-108022445D01*
X102858768Y-108176788D01*
X102960586Y-108316928D01*
X103083072Y-108439414D01*
X103223212Y-108541232D01*
X103377555Y-108619873D01*
X103542299Y-108673402D01*
X103713389Y-108700500D01*
X103713390Y-108700500D01*
X103886610Y-108700500D01*
X103886611Y-108700500D01*
X103889768Y-108700000D01*
X119344919Y-108700000D01*
X119365191Y-108905834D01*
X119425233Y-109103766D01*
X119500975Y-109245469D01*
X119500976Y-109245469D01*
X119917037Y-108829409D01*
X119934075Y-108892993D01*
X119999901Y-109007007D01*
X120092993Y-109100099D01*
X120207007Y-109165925D01*
X120270590Y-109182962D01*
X119854528Y-109599023D01*
X119996233Y-109674766D01*
X120194165Y-109734808D01*
X120400000Y-109755080D01*
X120605834Y-109734808D01*
X120803764Y-109674766D01*
X120945470Y-109599022D01*
X120529410Y-109182962D01*
X120592993Y-109165925D01*
X120707007Y-109100099D01*
X120800099Y-109007007D01*
X120865925Y-108892993D01*
X120882962Y-108829409D01*
X121299022Y-109245469D01*
X121374766Y-109103764D01*
X121434808Y-108905834D01*
X121455080Y-108700000D01*
X121434808Y-108494165D01*
X121374766Y-108296233D01*
X121299023Y-108154528D01*
X120882962Y-108570589D01*
X120865925Y-108507007D01*
X120800099Y-108392993D01*
X120707007Y-108299901D01*
X120592993Y-108234075D01*
X120529409Y-108217037D01*
X120945469Y-107800976D01*
X120945469Y-107800975D01*
X120803766Y-107725233D01*
X120605834Y-107665191D01*
X120400000Y-107644919D01*
X120194166Y-107665191D01*
X119996234Y-107725234D01*
X119854529Y-107800975D01*
X119854529Y-107800976D01*
X120270590Y-108217037D01*
X120207007Y-108234075D01*
X120092993Y-108299901D01*
X119999901Y-108392993D01*
X119934075Y-108507007D01*
X119917037Y-108570590D01*
X119500976Y-108154529D01*
X119500975Y-108154529D01*
X119425234Y-108296234D01*
X119365191Y-108494166D01*
X119344919Y-108700000D01*
X103889768Y-108700000D01*
X104057701Y-108673402D01*
X104222445Y-108619873D01*
X104376788Y-108541232D01*
X104516928Y-108439414D01*
X104639414Y-108316928D01*
X104741232Y-108176788D01*
X104819873Y-108022445D01*
X104873402Y-107857701D01*
X104900500Y-107686611D01*
X104900500Y-107513389D01*
X104873402Y-107342299D01*
X104819873Y-107177555D01*
X104741232Y-107023212D01*
X104639414Y-106883072D01*
X104516928Y-106760586D01*
X104376788Y-106658768D01*
X104222445Y-106580127D01*
X104057701Y-106526598D01*
X104057699Y-106526597D01*
X104057698Y-106526597D01*
X103926271Y-106505781D01*
X103886611Y-106499500D01*
X103713389Y-106499500D01*
X103673728Y-106505781D01*
X103542302Y-106526597D01*
X103377552Y-106580128D01*
X103223211Y-106658768D01*
X103143256Y-106716859D01*
X103083072Y-106760586D01*
X103083070Y-106760588D01*
X103083069Y-106760588D01*
X102960588Y-106883069D01*
X102960588Y-106883070D01*
X102960586Y-106883072D01*
X102936916Y-106915651D01*
X102858768Y-107023211D01*
X102780128Y-107177552D01*
X102726597Y-107342302D01*
X102700712Y-107505739D01*
X102699500Y-107513389D01*
X102699500Y-107686611D01*
X102400500Y-107686611D01*
X102400500Y-107513389D01*
X102373402Y-107342299D01*
X102319873Y-107177555D01*
X102241232Y-107023212D01*
X102139414Y-106883072D01*
X102016928Y-106760586D01*
X101876788Y-106658768D01*
X101722445Y-106580127D01*
X101557701Y-106526598D01*
X101557699Y-106526597D01*
X101557698Y-106526597D01*
X101426271Y-106505781D01*
X101386611Y-106499500D01*
X101213389Y-106499500D01*
X101173728Y-106505781D01*
X101042302Y-106526597D01*
X100877552Y-106580128D01*
X100723211Y-106658768D01*
X100643256Y-106716859D01*
X100583072Y-106760586D01*
X100583070Y-106760588D01*
X100583069Y-106760588D01*
X100460588Y-106883069D01*
X100460588Y-106883070D01*
X100460586Y-106883072D01*
X100436916Y-106915651D01*
X100358768Y-107023211D01*
X100280128Y-107177552D01*
X100226597Y-107342302D01*
X100200712Y-107505739D01*
X100199500Y-107513389D01*
X100199500Y-107686611D01*
X99500500Y-107686611D01*
X99500500Y-102686610D01*
X100199500Y-102686610D01*
X100221418Y-102825000D01*
X100226598Y-102857701D01*
X100280127Y-103022445D01*
X100358768Y-103176788D01*
X100460586Y-103316928D01*
X100583072Y-103439414D01*
X100723212Y-103541232D01*
X100877555Y-103619873D01*
X101042299Y-103673402D01*
X101213389Y-103700500D01*
X101213390Y-103700500D01*
X101386610Y-103700500D01*
X101386611Y-103700500D01*
X101557701Y-103673402D01*
X101722445Y-103619873D01*
X101876788Y-103541232D01*
X102016928Y-103439414D01*
X102139414Y-103316928D01*
X102241232Y-103176788D01*
X102319873Y-103022445D01*
X102373402Y-102857701D01*
X102400500Y-102686611D01*
X102400500Y-102686610D01*
X102699500Y-102686610D01*
X102721418Y-102825000D01*
X102726598Y-102857701D01*
X102780127Y-103022445D01*
X102858768Y-103176788D01*
X102960586Y-103316928D01*
X103083072Y-103439414D01*
X103223212Y-103541232D01*
X103377555Y-103619873D01*
X103542299Y-103673402D01*
X103713389Y-103700500D01*
X103713390Y-103700500D01*
X103886610Y-103700500D01*
X103886611Y-103700500D01*
X104057701Y-103673402D01*
X104222445Y-103619873D01*
X104376788Y-103541232D01*
X104516928Y-103439414D01*
X104639414Y-103316928D01*
X104741232Y-103176788D01*
X104819873Y-103022445D01*
X104873402Y-102857701D01*
X104900500Y-102686611D01*
X104900500Y-102513389D01*
X104873402Y-102342299D01*
X104819873Y-102177555D01*
X104741232Y-102023212D01*
X104669643Y-101924678D01*
X119349500Y-101924678D01*
X119364032Y-101997735D01*
X119364033Y-101997739D01*
X119364034Y-101997740D01*
X119419399Y-102080601D01*
X119502260Y-102135966D01*
X119502264Y-102135967D01*
X119575321Y-102150499D01*
X119575324Y-102150500D01*
X119575326Y-102150500D01*
X121224676Y-102150500D01*
X121224677Y-102150499D01*
X121297740Y-102135966D01*
X121380601Y-102080601D01*
X121435966Y-101997740D01*
X121450500Y-101924674D01*
X121450500Y-100275326D01*
X121450500Y-100275323D01*
X121450499Y-100275321D01*
X121435967Y-100202264D01*
X121435966Y-100202260D01*
X121380601Y-100119399D01*
X121297740Y-100064034D01*
X121297739Y-100064033D01*
X121297735Y-100064032D01*
X121224677Y-100049500D01*
X121224674Y-100049500D01*
X119575326Y-100049500D01*
X119575323Y-100049500D01*
X119502264Y-100064032D01*
X119502260Y-100064033D01*
X119419399Y-100119399D01*
X119364033Y-100202260D01*
X119364032Y-100202264D01*
X119349500Y-100275321D01*
X119349500Y-101924678D01*
X104669643Y-101924678D01*
X104639414Y-101883072D01*
X104516928Y-101760586D01*
X104376788Y-101658768D01*
X104222445Y-101580127D01*
X104057701Y-101526598D01*
X104057699Y-101526597D01*
X104057698Y-101526597D01*
X103926271Y-101505781D01*
X103886611Y-101499500D01*
X103713389Y-101499500D01*
X103673728Y-101505781D01*
X103542302Y-101526597D01*
X103377552Y-101580128D01*
X103223211Y-101658768D01*
X103143256Y-101716859D01*
X103083072Y-101760586D01*
X103083070Y-101760588D01*
X103083069Y-101760588D01*
X102960588Y-101883069D01*
X102960588Y-101883070D01*
X102960586Y-101883072D01*
X102917033Y-101943017D01*
X102858768Y-102023211D01*
X102780128Y-102177552D01*
X102726597Y-102342302D01*
X102699500Y-102513389D01*
X102699500Y-102686610D01*
X102400500Y-102686610D01*
X102400500Y-102513389D01*
X102373402Y-102342299D01*
X102319873Y-102177555D01*
X102241232Y-102023212D01*
X102139414Y-101883072D01*
X102016928Y-101760586D01*
X101876788Y-101658768D01*
X101722445Y-101580127D01*
X101557701Y-101526598D01*
X101557699Y-101526597D01*
X101557698Y-101526597D01*
X101426271Y-101505781D01*
X101386611Y-101499500D01*
X101213389Y-101499500D01*
X101173728Y-101505781D01*
X101042302Y-101526597D01*
X100877552Y-101580128D01*
X100723211Y-101658768D01*
X100643256Y-101716859D01*
X100583072Y-101760586D01*
X100583070Y-101760588D01*
X100583069Y-101760588D01*
X100460588Y-101883069D01*
X100460588Y-101883070D01*
X100460586Y-101883072D01*
X100417033Y-101943017D01*
X100358768Y-102023211D01*
X100280128Y-102177552D01*
X100226597Y-102342302D01*
X100199500Y-102513389D01*
X100199500Y-102686610D01*
X99500500Y-102686610D01*
X99500500Y-99500000D01*
X107444919Y-99500000D01*
X107465191Y-99705834D01*
X107525233Y-99903766D01*
X107600975Y-100045469D01*
X107600976Y-100045469D01*
X108100000Y-99546446D01*
X108100000Y-99552661D01*
X108127259Y-99654394D01*
X108179920Y-99745606D01*
X108254394Y-99820080D01*
X108345606Y-99872741D01*
X108447339Y-99900000D01*
X108453553Y-99900000D01*
X107954528Y-100399023D01*
X108096233Y-100474766D01*
X108294165Y-100534808D01*
X108500000Y-100555080D01*
X108705834Y-100534808D01*
X108903764Y-100474766D01*
X109045470Y-100399022D01*
X108971126Y-100324678D01*
X110949500Y-100324678D01*
X110964032Y-100397735D01*
X110964033Y-100397739D01*
X110964891Y-100399023D01*
X111019399Y-100480601D01*
X111100527Y-100534808D01*
X111102260Y-100535966D01*
X111102264Y-100535967D01*
X111175321Y-100550499D01*
X111175324Y-100550500D01*
X111175326Y-100550500D01*
X112824676Y-100550500D01*
X112824677Y-100550499D01*
X112897740Y-100535966D01*
X112980601Y-100480601D01*
X113035966Y-100397740D01*
X113050500Y-100324674D01*
X113050500Y-98675326D01*
X113050500Y-98675323D01*
X113050499Y-98675321D01*
X113035967Y-98602264D01*
X113035966Y-98602260D01*
X113035107Y-98600975D01*
X112980601Y-98519399D01*
X112897740Y-98464034D01*
X112897739Y-98464033D01*
X112897735Y-98464032D01*
X112824677Y-98449500D01*
X112824674Y-98449500D01*
X111175326Y-98449500D01*
X111175323Y-98449500D01*
X111102264Y-98464032D01*
X111102260Y-98464033D01*
X111019399Y-98519399D01*
X110964033Y-98602260D01*
X110964032Y-98602264D01*
X110949500Y-98675321D01*
X110949500Y-100324678D01*
X108971126Y-100324678D01*
X108546448Y-99900000D01*
X108552661Y-99900000D01*
X108654394Y-99872741D01*
X108745606Y-99820080D01*
X108820080Y-99745606D01*
X108872741Y-99654394D01*
X108900000Y-99552661D01*
X108900000Y-99546447D01*
X109399022Y-100045469D01*
X109474766Y-99903764D01*
X109534808Y-99705834D01*
X109555080Y-99500000D01*
X109534808Y-99294165D01*
X109474766Y-99096233D01*
X109399023Y-98954528D01*
X108900000Y-99453551D01*
X108900000Y-99447339D01*
X108872741Y-99345606D01*
X108820080Y-99254394D01*
X108745606Y-99179920D01*
X108654394Y-99127259D01*
X108552661Y-99100000D01*
X108546448Y-99100000D01*
X109045469Y-98600976D01*
X109045469Y-98600975D01*
X108903766Y-98525233D01*
X108705834Y-98465191D01*
X108500000Y-98444919D01*
X108294166Y-98465191D01*
X108096234Y-98525234D01*
X107954529Y-98600975D01*
X107954529Y-98600976D01*
X108453553Y-99100000D01*
X108447339Y-99100000D01*
X108345606Y-99127259D01*
X108254394Y-99179920D01*
X108179920Y-99254394D01*
X108127259Y-99345606D01*
X108100000Y-99447339D01*
X108100000Y-99453553D01*
X107600976Y-98954529D01*
X107600975Y-98954529D01*
X107525234Y-99096234D01*
X107465191Y-99294166D01*
X107444919Y-99500000D01*
X99500500Y-99500000D01*
X99500500Y-97350000D01*
X100050000Y-97350000D01*
X100866988Y-97350000D01*
X100834075Y-97407007D01*
X100800000Y-97534174D01*
X100800000Y-97665826D01*
X100834075Y-97792993D01*
X100866988Y-97850000D01*
X100050001Y-97850000D01*
X100050001Y-98399986D01*
X100060494Y-98502697D01*
X100115641Y-98669119D01*
X100115643Y-98669124D01*
X100207684Y-98818345D01*
X100331654Y-98942315D01*
X100480875Y-99034356D01*
X100480880Y-99034358D01*
X100647302Y-99089505D01*
X100647309Y-99089506D01*
X100750019Y-99099999D01*
X101049999Y-99099999D01*
X101050000Y-99099998D01*
X101050000Y-98033012D01*
X101107007Y-98065925D01*
X101234174Y-98100000D01*
X101365826Y-98100000D01*
X101492993Y-98065925D01*
X101550000Y-98033012D01*
X101550000Y-99099999D01*
X101849972Y-99099999D01*
X101849986Y-99099998D01*
X101952697Y-99089505D01*
X102119119Y-99034358D01*
X102119124Y-99034356D01*
X102268345Y-98942315D01*
X102392315Y-98818345D01*
X102484356Y-98669124D01*
X102484359Y-98669117D01*
X102522704Y-98553399D01*
X102562476Y-98495954D01*
X102626992Y-98469130D01*
X102695768Y-98481445D01*
X102740728Y-98519516D01*
X102765346Y-98553399D01*
X102846172Y-98664646D01*
X102985354Y-98803828D01*
X103144595Y-98919524D01*
X103213295Y-98954528D01*
X103319970Y-99008882D01*
X103319972Y-99008882D01*
X103319975Y-99008884D01*
X103420317Y-99041487D01*
X103507173Y-99069709D01*
X103701578Y-99100500D01*
X103701583Y-99100500D01*
X103898422Y-99100500D01*
X104092826Y-99069709D01*
X104280025Y-99008884D01*
X104455405Y-98919524D01*
X104614646Y-98803828D01*
X104753828Y-98664646D01*
X104869524Y-98505405D01*
X104907945Y-98430000D01*
X128494659Y-98430000D01*
X128513975Y-98626129D01*
X128571188Y-98814733D01*
X128664086Y-98988532D01*
X128664090Y-98988539D01*
X128789116Y-99140883D01*
X128941460Y-99265909D01*
X128941467Y-99265913D01*
X129115266Y-99358811D01*
X129115269Y-99358811D01*
X129115273Y-99358814D01*
X129303868Y-99416024D01*
X129500000Y-99435341D01*
X129696132Y-99416024D01*
X129884727Y-99358814D01*
X129909438Y-99345606D01*
X130002895Y-99295652D01*
X130058538Y-99265910D01*
X130210883Y-99140883D01*
X130335910Y-98988538D01*
X130382362Y-98901632D01*
X130428811Y-98814733D01*
X130428811Y-98814732D01*
X130428814Y-98814727D01*
X130486024Y-98626132D01*
X130505341Y-98430000D01*
X130486024Y-98233868D01*
X130428814Y-98045273D01*
X130428811Y-98045269D01*
X130428811Y-98045266D01*
X130335913Y-97871467D01*
X130335909Y-97871460D01*
X130210883Y-97719116D01*
X130058539Y-97594090D01*
X130058532Y-97594086D01*
X129884733Y-97501188D01*
X129884727Y-97501186D01*
X129696132Y-97443976D01*
X129696129Y-97443975D01*
X129500000Y-97424659D01*
X129303870Y-97443975D01*
X129115266Y-97501188D01*
X128941467Y-97594086D01*
X128941460Y-97594090D01*
X128789116Y-97719116D01*
X128664090Y-97871460D01*
X128664086Y-97871467D01*
X128571188Y-98045266D01*
X128513975Y-98233870D01*
X128494659Y-98430000D01*
X104907945Y-98430000D01*
X104958884Y-98330025D01*
X105019709Y-98142826D01*
X105035161Y-98045266D01*
X105050500Y-97948422D01*
X105050500Y-97251577D01*
X105019709Y-97057173D01*
X104958882Y-96869970D01*
X104884073Y-96723149D01*
X104869524Y-96694595D01*
X104753828Y-96535354D01*
X104614646Y-96396172D01*
X104455405Y-96280476D01*
X104280029Y-96191117D01*
X104092826Y-96130290D01*
X103898422Y-96099500D01*
X103898417Y-96099500D01*
X103701583Y-96099500D01*
X103701578Y-96099500D01*
X103507173Y-96130290D01*
X103319970Y-96191117D01*
X103144594Y-96280476D01*
X103053741Y-96346485D01*
X102985354Y-96396172D01*
X102985352Y-96396174D01*
X102985351Y-96396174D01*
X102846174Y-96535351D01*
X102846167Y-96535360D01*
X102740727Y-96680483D01*
X102685397Y-96723149D01*
X102615784Y-96729127D01*
X102553989Y-96696520D01*
X102522704Y-96646601D01*
X102484358Y-96530880D01*
X102484353Y-96530870D01*
X102392315Y-96381654D01*
X102268345Y-96257684D01*
X102119124Y-96165643D01*
X102119119Y-96165641D01*
X101952697Y-96110494D01*
X101952690Y-96110493D01*
X101849986Y-96100000D01*
X101550000Y-96100000D01*
X101550000Y-97166988D01*
X101492993Y-97134075D01*
X101365826Y-97100000D01*
X101234174Y-97100000D01*
X101107007Y-97134075D01*
X101050000Y-97166988D01*
X101050000Y-96100000D01*
X100750028Y-96100000D01*
X100750012Y-96100001D01*
X100647302Y-96110494D01*
X100480880Y-96165641D01*
X100480875Y-96165643D01*
X100331654Y-96257684D01*
X100207684Y-96381654D01*
X100115647Y-96530870D01*
X100115641Y-96530880D01*
X100060494Y-96697302D01*
X100060493Y-96697309D01*
X100050000Y-96800013D01*
X100050000Y-97350000D01*
X99500500Y-97350000D01*
X99500500Y-95773919D01*
X131949499Y-95773919D01*
X131978340Y-95918906D01*
X131978342Y-95918912D01*
X132026977Y-96036329D01*
X132034916Y-96055494D01*
X132117048Y-96178416D01*
X132408182Y-96469549D01*
X132441666Y-96530870D01*
X132444500Y-96557229D01*
X132444500Y-105448639D01*
X132445963Y-105475934D01*
X132445967Y-105475988D01*
X132448797Y-105502310D01*
X132448798Y-105502312D01*
X132478586Y-105597441D01*
X132478590Y-105597451D01*
X132512068Y-105658761D01*
X132512073Y-105658769D01*
X132555649Y-105716980D01*
X132555665Y-105716998D01*
X134806363Y-107967695D01*
X134806386Y-107967717D01*
X134834719Y-107992168D01*
X134834727Y-107992174D01*
X134834734Y-107992180D01*
X134863860Y-108013803D01*
X134877486Y-108022445D01*
X134895512Y-108033878D01*
X137579053Y-109471488D01*
X137628852Y-109520497D01*
X137629530Y-109521733D01*
X138177553Y-110533467D01*
X138192174Y-110601790D01*
X138167537Y-110667171D01*
X138111462Y-110708853D01*
X138041754Y-110713603D01*
X137980840Y-110680207D01*
X137909657Y-110609024D01*
X137823626Y-110551541D01*
X137737598Y-110494059D01*
X137546420Y-110414870D01*
X137546412Y-110414868D01*
X137343469Y-110374500D01*
X137343465Y-110374500D01*
X137136535Y-110374500D01*
X137136530Y-110374500D01*
X136933587Y-110414868D01*
X136933579Y-110414870D01*
X136742403Y-110494058D01*
X136570342Y-110609024D01*
X136424024Y-110755342D01*
X136309058Y-110927403D01*
X136229870Y-111118579D01*
X136229868Y-111118587D01*
X136189500Y-111321530D01*
X136189500Y-112328469D01*
X136229868Y-112531412D01*
X136229870Y-112531420D01*
X136309058Y-112722596D01*
X136424024Y-112894657D01*
X136570342Y-113040975D01*
X136570345Y-113040977D01*
X136742402Y-113155941D01*
X136933580Y-113235130D01*
X137136530Y-113275499D01*
X137136534Y-113275500D01*
X137136535Y-113275500D01*
X137343466Y-113275500D01*
X137343467Y-113275499D01*
X137546420Y-113235130D01*
X137737598Y-113155941D01*
X137909655Y-113040977D01*
X138055977Y-112894655D01*
X138170941Y-112722598D01*
X138250130Y-112531420D01*
X138290500Y-112328465D01*
X138290500Y-111321535D01*
X138260770Y-111172071D01*
X138266997Y-111102481D01*
X138309860Y-111047304D01*
X138375750Y-111024059D01*
X138443747Y-111040127D01*
X138479759Y-111071104D01*
X138484412Y-111077005D01*
X138494961Y-111089535D01*
X138494965Y-111089539D01*
X138494966Y-111089540D01*
X138512253Y-111102481D01*
X138574772Y-111149284D01*
X138637796Y-111179438D01*
X138637812Y-111179445D01*
X138650603Y-111184215D01*
X138706538Y-111226084D01*
X138730958Y-111291547D01*
X138729469Y-111315410D01*
X138730097Y-111315472D01*
X138729500Y-111321534D01*
X138729500Y-112328469D01*
X138769868Y-112531412D01*
X138769870Y-112531420D01*
X138849058Y-112722596D01*
X138964024Y-112894657D01*
X139110342Y-113040975D01*
X139110345Y-113040977D01*
X139282402Y-113155941D01*
X139473580Y-113235130D01*
X139676530Y-113275499D01*
X139676534Y-113275500D01*
X139676535Y-113275500D01*
X139883466Y-113275500D01*
X139883467Y-113275499D01*
X140086420Y-113235130D01*
X140277598Y-113155941D01*
X140449655Y-113040977D01*
X140595977Y-112894655D01*
X140710941Y-112722598D01*
X140790130Y-112531420D01*
X140830500Y-112328465D01*
X140830500Y-112328420D01*
X141270000Y-112328420D01*
X141310348Y-112531266D01*
X141310350Y-112531274D01*
X141389500Y-112722358D01*
X141389505Y-112722368D01*
X141504410Y-112894335D01*
X141504413Y-112894339D01*
X141650660Y-113040586D01*
X141650664Y-113040589D01*
X141822631Y-113155494D01*
X141822641Y-113155499D01*
X142013723Y-113234648D01*
X142013725Y-113234649D01*
X142070000Y-113245842D01*
X142070000Y-112140686D01*
X142074394Y-112145080D01*
X142165606Y-112197741D01*
X142267339Y-112225000D01*
X142372661Y-112225000D01*
X142474394Y-112197741D01*
X142565606Y-112145080D01*
X142570000Y-112140686D01*
X142570000Y-113245842D01*
X142626274Y-113234649D01*
X142626276Y-113234648D01*
X142817358Y-113155499D01*
X142817368Y-113155494D01*
X142989335Y-113040589D01*
X142989339Y-113040586D01*
X143135586Y-112894339D01*
X143135589Y-112894335D01*
X143250494Y-112722368D01*
X143250499Y-112722358D01*
X143329649Y-112531274D01*
X143329651Y-112531266D01*
X143369999Y-112328420D01*
X143370000Y-112328417D01*
X143370000Y-112075000D01*
X142635686Y-112075000D01*
X142640080Y-112070606D01*
X142692741Y-111979394D01*
X142720000Y-111877661D01*
X142720000Y-111772339D01*
X142692741Y-111670606D01*
X142640080Y-111579394D01*
X142635686Y-111575000D01*
X143370000Y-111575000D01*
X143370000Y-111321583D01*
X143369999Y-111321579D01*
X143329651Y-111118733D01*
X143329649Y-111118725D01*
X143250499Y-110927641D01*
X143250494Y-110927631D01*
X143135589Y-110755664D01*
X143135586Y-110755660D01*
X142989339Y-110609413D01*
X142989335Y-110609410D01*
X142817368Y-110494505D01*
X142817358Y-110494500D01*
X142626272Y-110415349D01*
X142626267Y-110415347D01*
X142570000Y-110404155D01*
X142570000Y-111509314D01*
X142565606Y-111504920D01*
X142474394Y-111452259D01*
X142372661Y-111425000D01*
X142267339Y-111425000D01*
X142165606Y-111452259D01*
X142074394Y-111504920D01*
X142070000Y-111509314D01*
X142070000Y-110404156D01*
X142069999Y-110404155D01*
X142013732Y-110415347D01*
X142013727Y-110415349D01*
X141822641Y-110494500D01*
X141822631Y-110494505D01*
X141650664Y-110609410D01*
X141650660Y-110609413D01*
X141504413Y-110755660D01*
X141504410Y-110755664D01*
X141389505Y-110927631D01*
X141389500Y-110927641D01*
X141310350Y-111118725D01*
X141310348Y-111118733D01*
X141270000Y-111321579D01*
X141270000Y-111575000D01*
X142004314Y-111575000D01*
X141999920Y-111579394D01*
X141947259Y-111670606D01*
X141920000Y-111772339D01*
X141920000Y-111877661D01*
X141947259Y-111979394D01*
X141999920Y-112070606D01*
X142004314Y-112075000D01*
X141270000Y-112075000D01*
X141270000Y-112328420D01*
X140830500Y-112328420D01*
X140830500Y-111321535D01*
X140790130Y-111118580D01*
X140710941Y-110927402D01*
X140595977Y-110755345D01*
X140595975Y-110755342D01*
X140566819Y-110726186D01*
X140533334Y-110664863D01*
X140530500Y-110638505D01*
X140530500Y-109906079D01*
X140501659Y-109761092D01*
X140501658Y-109761091D01*
X140501658Y-109761087D01*
X140465903Y-109674766D01*
X140445087Y-109624511D01*
X140445080Y-109624498D01*
X140362952Y-109501585D01*
X140332855Y-109471488D01*
X140258416Y-109397049D01*
X139881376Y-109020009D01*
X139860866Y-108992915D01*
X139812101Y-108905834D01*
X139251634Y-107905000D01*
X149394785Y-107905000D01*
X149413602Y-108108082D01*
X149469417Y-108304247D01*
X149469422Y-108304260D01*
X149560327Y-108486821D01*
X149683237Y-108649581D01*
X149833958Y-108786980D01*
X149833960Y-108786982D01*
X149933141Y-108848392D01*
X150007363Y-108894348D01*
X150197544Y-108968024D01*
X150398024Y-109005500D01*
X150398026Y-109005500D01*
X150601974Y-109005500D01*
X150601976Y-109005500D01*
X150802456Y-108968024D01*
X150992637Y-108894348D01*
X151166041Y-108786981D01*
X151316764Y-108649579D01*
X151439673Y-108486821D01*
X151530582Y-108304250D01*
X151586397Y-108108083D01*
X151605215Y-107905000D01*
X151588557Y-107725233D01*
X151586397Y-107701917D01*
X151570179Y-107644919D01*
X151530582Y-107505750D01*
X151439673Y-107323179D01*
X151316764Y-107160421D01*
X151316762Y-107160418D01*
X151166041Y-107023019D01*
X151166039Y-107023017D01*
X150992642Y-106915655D01*
X150992635Y-106915651D01*
X150850236Y-106860486D01*
X150802456Y-106841976D01*
X150601976Y-106804500D01*
X150398024Y-106804500D01*
X150197544Y-106841976D01*
X150197541Y-106841976D01*
X150197541Y-106841977D01*
X150007364Y-106915651D01*
X150007357Y-106915655D01*
X149833960Y-107023017D01*
X149833958Y-107023019D01*
X149683237Y-107160418D01*
X149560327Y-107323178D01*
X149469422Y-107505739D01*
X149469417Y-107505752D01*
X149413602Y-107701917D01*
X149394785Y-107904999D01*
X149394785Y-107905000D01*
X139251634Y-107905000D01*
X139136229Y-107698920D01*
X139128694Y-107682865D01*
X138673746Y-106500000D01*
X140944750Y-106500000D01*
X140963670Y-106643708D01*
X140963671Y-106643712D01*
X141019137Y-106777622D01*
X141019138Y-106777624D01*
X141019139Y-106777625D01*
X141107379Y-106892621D01*
X141222375Y-106980861D01*
X141356291Y-107036330D01*
X141483280Y-107053048D01*
X141499999Y-107055250D01*
X141500000Y-107055250D01*
X141500001Y-107055250D01*
X141514977Y-107053278D01*
X141643709Y-107036330D01*
X141777625Y-106980861D01*
X141777629Y-106980858D01*
X141783801Y-106976123D01*
X141848970Y-106950930D01*
X141859285Y-106950500D01*
X146884308Y-106950500D01*
X146884309Y-106950500D01*
X146974673Y-106926286D01*
X146998887Y-106919799D01*
X147101614Y-106860489D01*
X148597102Y-105365000D01*
X149394785Y-105365000D01*
X149413602Y-105568082D01*
X149469417Y-105764247D01*
X149469422Y-105764260D01*
X149560327Y-105946821D01*
X149683237Y-106109581D01*
X149833958Y-106246980D01*
X149833960Y-106246982D01*
X149933141Y-106308392D01*
X150007363Y-106354348D01*
X150197544Y-106428024D01*
X150398024Y-106465500D01*
X150398026Y-106465500D01*
X150601974Y-106465500D01*
X150601976Y-106465500D01*
X150802456Y-106428024D01*
X150992637Y-106354348D01*
X151166041Y-106246981D01*
X151316764Y-106109579D01*
X151439673Y-105946821D01*
X151530582Y-105764250D01*
X151586397Y-105568083D01*
X151605215Y-105365000D01*
X151596843Y-105274655D01*
X151586397Y-105161917D01*
X151569519Y-105102598D01*
X151530582Y-104965750D01*
X151439673Y-104783179D01*
X151380704Y-104705091D01*
X151316762Y-104620418D01*
X151166041Y-104483019D01*
X151166039Y-104483017D01*
X150992642Y-104375655D01*
X150992635Y-104375651D01*
X150897546Y-104338814D01*
X150802456Y-104301976D01*
X150601976Y-104264500D01*
X150398024Y-104264500D01*
X150197544Y-104301976D01*
X150197541Y-104301976D01*
X150197541Y-104301977D01*
X150007364Y-104375651D01*
X150007357Y-104375655D01*
X149833960Y-104483017D01*
X149833958Y-104483019D01*
X149784879Y-104527760D01*
X149722075Y-104558376D01*
X149679617Y-104553359D01*
X149684867Y-104567435D01*
X149670015Y-104635708D01*
X149660137Y-104651007D01*
X149560328Y-104783175D01*
X149469422Y-104965739D01*
X149469417Y-104965752D01*
X149413602Y-105161917D01*
X149394785Y-105364999D01*
X149394785Y-105365000D01*
X148597102Y-105365000D01*
X149473504Y-104488598D01*
X149534825Y-104455115D01*
X149583598Y-104458603D01*
X149577381Y-104439245D01*
X149595371Y-104371731D01*
X149613657Y-104348445D01*
X150051423Y-103910679D01*
X150112744Y-103877196D01*
X150182436Y-103882180D01*
X150183716Y-103882667D01*
X150197544Y-103888024D01*
X150398024Y-103925500D01*
X150398026Y-103925500D01*
X150601974Y-103925500D01*
X150601976Y-103925500D01*
X150802456Y-103888024D01*
X150992637Y-103814348D01*
X151166041Y-103706981D01*
X151316764Y-103569579D01*
X151439673Y-103406821D01*
X151530582Y-103224250D01*
X151586397Y-103028083D01*
X151605215Y-102825000D01*
X151586397Y-102621917D01*
X151530582Y-102425750D01*
X151439673Y-102243179D01*
X151316764Y-102080421D01*
X151316762Y-102080418D01*
X151166041Y-101943019D01*
X151166039Y-101943017D01*
X150992642Y-101835655D01*
X150992635Y-101835651D01*
X150897546Y-101798814D01*
X150802456Y-101761976D01*
X150601976Y-101724500D01*
X150398024Y-101724500D01*
X150197544Y-101761976D01*
X150197541Y-101761976D01*
X150197541Y-101761977D01*
X150007364Y-101835651D01*
X150007357Y-101835655D01*
X149833960Y-101943017D01*
X149833958Y-101943019D01*
X149683237Y-102080418D01*
X149560327Y-102243178D01*
X149469422Y-102425739D01*
X149469417Y-102425752D01*
X149413602Y-102621917D01*
X149394785Y-102824999D01*
X149394785Y-102825000D01*
X149413602Y-103028082D01*
X149448197Y-103149666D01*
X149447611Y-103219534D01*
X149416612Y-103271282D01*
X146674716Y-106013181D01*
X146613393Y-106046666D01*
X146587035Y-106049500D01*
X141859285Y-106049500D01*
X141792246Y-106029815D01*
X141783801Y-106023877D01*
X141777629Y-106019141D01*
X141777623Y-106019138D01*
X141643712Y-105963671D01*
X141643710Y-105963670D01*
X141643709Y-105963670D01*
X141515731Y-105946821D01*
X141500001Y-105944750D01*
X141499999Y-105944750D01*
X141356291Y-105963670D01*
X141356287Y-105963671D01*
X141222377Y-106019137D01*
X141107379Y-106107379D01*
X141019137Y-106222377D01*
X140963671Y-106356287D01*
X140963670Y-106356291D01*
X140944750Y-106499999D01*
X140944750Y-106500000D01*
X138673746Y-106500000D01*
X138263548Y-105433485D01*
X138259739Y-105424136D01*
X138259732Y-105424118D01*
X138255865Y-105415140D01*
X138255856Y-105415124D01*
X138248004Y-105402855D01*
X138211275Y-105345462D01*
X138211271Y-105345458D01*
X138211268Y-105345453D01*
X138164591Y-105293491D01*
X138164584Y-105293483D01*
X138164574Y-105293473D01*
X138163126Y-105291999D01*
X138162941Y-105291653D01*
X138162735Y-105291424D01*
X138162791Y-105291373D01*
X138130188Y-105230381D01*
X138135792Y-105160736D01*
X138148483Y-105136209D01*
X138170936Y-105102605D01*
X138170941Y-105102598D01*
X138250130Y-104911420D01*
X138290499Y-104708469D01*
X138729500Y-104708469D01*
X138744361Y-104783178D01*
X138769870Y-104911420D01*
X138849059Y-105102598D01*
X138906541Y-105188626D01*
X138964024Y-105274657D01*
X139110342Y-105420975D01*
X139110345Y-105420977D01*
X139282402Y-105535941D01*
X139473580Y-105615130D01*
X139676530Y-105655499D01*
X139676534Y-105655500D01*
X139676535Y-105655500D01*
X139883466Y-105655500D01*
X139883467Y-105655499D01*
X140086420Y-105615130D01*
X140277598Y-105535941D01*
X140449655Y-105420977D01*
X140595977Y-105274655D01*
X140710941Y-105102598D01*
X140790130Y-104911420D01*
X140830499Y-104708469D01*
X141269500Y-104708469D01*
X141284361Y-104783178D01*
X141309870Y-104911420D01*
X141389059Y-105102598D01*
X141446541Y-105188626D01*
X141504024Y-105274657D01*
X141650342Y-105420975D01*
X141650345Y-105420977D01*
X141822402Y-105535941D01*
X142013580Y-105615130D01*
X142216530Y-105655499D01*
X142216534Y-105655500D01*
X142216535Y-105655500D01*
X142423466Y-105655500D01*
X142423467Y-105655499D01*
X142626420Y-105615130D01*
X142817598Y-105535941D01*
X142989655Y-105420977D01*
X143135977Y-105274655D01*
X143250941Y-105102598D01*
X143330130Y-104911420D01*
X143370500Y-104708465D01*
X143370500Y-103701535D01*
X143330130Y-103498580D01*
X143250941Y-103307402D01*
X143135977Y-103135345D01*
X143135975Y-103135342D01*
X142989657Y-102989024D01*
X142903626Y-102931541D01*
X142817598Y-102874059D01*
X142699157Y-102824999D01*
X142626420Y-102794870D01*
X142626412Y-102794868D01*
X142423469Y-102754500D01*
X142423465Y-102754500D01*
X142216535Y-102754500D01*
X142216530Y-102754500D01*
X142013587Y-102794868D01*
X142013579Y-102794870D01*
X141822403Y-102874058D01*
X141650342Y-102989024D01*
X141504024Y-103135342D01*
X141389058Y-103307403D01*
X141309870Y-103498579D01*
X141309868Y-103498587D01*
X141269500Y-103701530D01*
X141269500Y-104708469D01*
X140830499Y-104708469D01*
X140830500Y-104708465D01*
X140830500Y-103701535D01*
X140790130Y-103498580D01*
X140710941Y-103307402D01*
X140595977Y-103135345D01*
X140595975Y-103135342D01*
X140449657Y-102989024D01*
X140363626Y-102931541D01*
X140277598Y-102874059D01*
X140159157Y-102824999D01*
X140086420Y-102794870D01*
X140086412Y-102794868D01*
X139883469Y-102754500D01*
X139883465Y-102754500D01*
X139676535Y-102754500D01*
X139676530Y-102754500D01*
X139473587Y-102794868D01*
X139473579Y-102794870D01*
X139282403Y-102874058D01*
X139110342Y-102989024D01*
X138964024Y-103135342D01*
X138849058Y-103307403D01*
X138769870Y-103498579D01*
X138769868Y-103498587D01*
X138729500Y-103701530D01*
X138729500Y-104708469D01*
X138290499Y-104708469D01*
X138290500Y-104708465D01*
X138290500Y-103701535D01*
X138250130Y-103498580D01*
X138170941Y-103307402D01*
X138125043Y-103238711D01*
X138104166Y-103172034D01*
X138122651Y-103104654D01*
X138174630Y-103057964D01*
X138177936Y-103056442D01*
X142848367Y-100990674D01*
X142874335Y-100982460D01*
X142874755Y-100982376D01*
X142978913Y-100961658D01*
X143115495Y-100905084D01*
X143172760Y-100866821D01*
X143172760Y-100866820D01*
X143172762Y-100866820D01*
X143205588Y-100844886D01*
X143238416Y-100822952D01*
X143776368Y-100285000D01*
X149394785Y-100285000D01*
X149413602Y-100488082D01*
X149469417Y-100684247D01*
X149469422Y-100684260D01*
X149560327Y-100866821D01*
X149683237Y-101029581D01*
X149833958Y-101166980D01*
X149833960Y-101166982D01*
X149933141Y-101228392D01*
X150007363Y-101274348D01*
X150197544Y-101348024D01*
X150398024Y-101385500D01*
X150398026Y-101385500D01*
X150601974Y-101385500D01*
X150601976Y-101385500D01*
X150802456Y-101348024D01*
X150992637Y-101274348D01*
X151166041Y-101166981D01*
X151316764Y-101029579D01*
X151439673Y-100866821D01*
X151530582Y-100684250D01*
X151586397Y-100488083D01*
X151605215Y-100285000D01*
X151586397Y-100081917D01*
X151530582Y-99885750D01*
X151524104Y-99872741D01*
X151440995Y-99705834D01*
X151439673Y-99703179D01*
X151316764Y-99540421D01*
X151316762Y-99540418D01*
X151166041Y-99403019D01*
X151166039Y-99403017D01*
X150992642Y-99295655D01*
X150992635Y-99295651D01*
X150886137Y-99254394D01*
X150802456Y-99221976D01*
X150601976Y-99184500D01*
X150398024Y-99184500D01*
X150197544Y-99221976D01*
X150197541Y-99221976D01*
X150197541Y-99221977D01*
X150007364Y-99295651D01*
X150007357Y-99295655D01*
X149833960Y-99403017D01*
X149833958Y-99403019D01*
X149683237Y-99540418D01*
X149560327Y-99703178D01*
X149469422Y-99885739D01*
X149469417Y-99885752D01*
X149413602Y-100081917D01*
X149394785Y-100284999D01*
X149394785Y-100285000D01*
X143776368Y-100285000D01*
X146316367Y-97745000D01*
X149394785Y-97745000D01*
X149413602Y-97948082D01*
X149469417Y-98144247D01*
X149469422Y-98144260D01*
X149560327Y-98326821D01*
X149683237Y-98489581D01*
X149833958Y-98626980D01*
X149833960Y-98626982D01*
X149894790Y-98664646D01*
X150007363Y-98734348D01*
X150197544Y-98808024D01*
X150398024Y-98845500D01*
X150398026Y-98845500D01*
X150601974Y-98845500D01*
X150601976Y-98845500D01*
X150802456Y-98808024D01*
X150992637Y-98734348D01*
X151166041Y-98626981D01*
X151316764Y-98489579D01*
X151439673Y-98326821D01*
X151530582Y-98144250D01*
X151586397Y-97948083D01*
X151605215Y-97745000D01*
X151586397Y-97541917D01*
X151530582Y-97345750D01*
X151439673Y-97163179D01*
X151316764Y-97000421D01*
X151316762Y-97000418D01*
X151166041Y-96863019D01*
X151166039Y-96863017D01*
X150992642Y-96755655D01*
X150992635Y-96755651D01*
X150842017Y-96697302D01*
X150802456Y-96681976D01*
X150601976Y-96644500D01*
X150398024Y-96644500D01*
X150197544Y-96681976D01*
X150197541Y-96681976D01*
X150197541Y-96681977D01*
X150007364Y-96755651D01*
X150007357Y-96755655D01*
X149833960Y-96863017D01*
X149833958Y-96863019D01*
X149683237Y-97000418D01*
X149560327Y-97163178D01*
X149469422Y-97345739D01*
X149469417Y-97345752D01*
X149413602Y-97541917D01*
X149394785Y-97744999D01*
X149394785Y-97745000D01*
X146316367Y-97745000D01*
X149216834Y-94844532D01*
X149278155Y-94811049D01*
X149347847Y-94816033D01*
X149403780Y-94857905D01*
X149428197Y-94923369D01*
X149423780Y-94966147D01*
X149413602Y-95001918D01*
X149394785Y-95204999D01*
X149394785Y-95205000D01*
X149413602Y-95408082D01*
X149469417Y-95604247D01*
X149469422Y-95604260D01*
X149560327Y-95786821D01*
X149683237Y-95949581D01*
X149833958Y-96086980D01*
X149833960Y-96086982D01*
X149903907Y-96130291D01*
X150007363Y-96194348D01*
X150197544Y-96268024D01*
X150398024Y-96305500D01*
X150398026Y-96305500D01*
X150601974Y-96305500D01*
X150601976Y-96305500D01*
X150802456Y-96268024D01*
X150992637Y-96194348D01*
X151166041Y-96086981D01*
X151316764Y-95949579D01*
X151439673Y-95786821D01*
X151530582Y-95604250D01*
X151586397Y-95408083D01*
X151605215Y-95205000D01*
X151586397Y-95001917D01*
X151530582Y-94805750D01*
X151439673Y-94623179D01*
X151330654Y-94478814D01*
X151316762Y-94460418D01*
X151166041Y-94323019D01*
X151166039Y-94323017D01*
X150992642Y-94215655D01*
X150992635Y-94215651D01*
X150897546Y-94178814D01*
X150802456Y-94141976D01*
X150601976Y-94104500D01*
X150398024Y-94104500D01*
X150249055Y-94132347D01*
X150179540Y-94125316D01*
X150124861Y-94081818D01*
X150102379Y-94015664D01*
X150119232Y-93947857D01*
X150138585Y-93922781D01*
X150265740Y-93795626D01*
X150327061Y-93762143D01*
X150376203Y-93761421D01*
X150398024Y-93765500D01*
X150398025Y-93765500D01*
X150601974Y-93765500D01*
X150601976Y-93765500D01*
X150802456Y-93728024D01*
X150992637Y-93654348D01*
X151166041Y-93546981D01*
X151316764Y-93409579D01*
X151439673Y-93246821D01*
X151530582Y-93064250D01*
X151586397Y-92868083D01*
X151605215Y-92665000D01*
X151586397Y-92461917D01*
X151530582Y-92265750D01*
X151439673Y-92083179D01*
X151316764Y-91920421D01*
X151316762Y-91920418D01*
X151166041Y-91783019D01*
X151166039Y-91783017D01*
X150992642Y-91675655D01*
X150992635Y-91675651D01*
X150855112Y-91622375D01*
X150802456Y-91601976D01*
X150601976Y-91564500D01*
X150398024Y-91564500D01*
X150197544Y-91601976D01*
X150197541Y-91601976D01*
X150197541Y-91601977D01*
X150007364Y-91675651D01*
X150007357Y-91675655D01*
X149833960Y-91783017D01*
X149833958Y-91783019D01*
X149683237Y-91920418D01*
X149560327Y-92083178D01*
X149469422Y-92265739D01*
X149469417Y-92265752D01*
X149413603Y-92461916D01*
X149411288Y-92486895D01*
X149385500Y-92551831D01*
X149375498Y-92563132D01*
X146278043Y-95660587D01*
X146216720Y-95694072D01*
X146193134Y-95696875D01*
X146160181Y-95697611D01*
X146160174Y-95697612D01*
X138735850Y-96934999D01*
X138685391Y-96932984D01*
X133797326Y-95710968D01*
X133739719Y-95678351D01*
X133178421Y-95117052D01*
X133178417Y-95117049D01*
X133178416Y-95117048D01*
X133055494Y-95034916D01*
X133055492Y-95034915D01*
X133055490Y-95034914D01*
X132918912Y-94978342D01*
X132918906Y-94978340D01*
X132773919Y-94949500D01*
X132773917Y-94949500D01*
X132626083Y-94949500D01*
X132626081Y-94949500D01*
X132481093Y-94978340D01*
X132481087Y-94978342D01*
X132344509Y-95034914D01*
X132344502Y-95034918D01*
X132282418Y-95076400D01*
X132221584Y-95117048D01*
X132221582Y-95117049D01*
X132221579Y-95117052D01*
X132221578Y-95117052D01*
X132117052Y-95221578D01*
X132117052Y-95221579D01*
X132117049Y-95221582D01*
X132117048Y-95221584D01*
X132094554Y-95255250D01*
X132034918Y-95344502D01*
X132034914Y-95344509D01*
X131978342Y-95481087D01*
X131978340Y-95481093D01*
X131949500Y-95626080D01*
X131949500Y-95626083D01*
X131949500Y-95773917D01*
X131949500Y-95773919D01*
X131949499Y-95773919D01*
X99500500Y-95773919D01*
X99500500Y-92800000D01*
X104944706Y-92800000D01*
X104963853Y-93043297D01*
X104963853Y-93043300D01*
X104963854Y-93043302D01*
X105012715Y-93246821D01*
X105020830Y-93280619D01*
X105114222Y-93506089D01*
X105241737Y-93714173D01*
X105241738Y-93714176D01*
X105264405Y-93740715D01*
X105400241Y-93899759D01*
X105535949Y-94015664D01*
X105585823Y-94058261D01*
X105585826Y-94058262D01*
X105793910Y-94185777D01*
X106019381Y-94279169D01*
X106019378Y-94279169D01*
X106019384Y-94279170D01*
X106019388Y-94279172D01*
X106256698Y-94336146D01*
X106500000Y-94355294D01*
X106743302Y-94336146D01*
X106980612Y-94279172D01*
X107206089Y-94185777D01*
X107414179Y-94058259D01*
X107599759Y-93899759D01*
X107758259Y-93714179D01*
X107885777Y-93506089D01*
X107979172Y-93280612D01*
X108003327Y-93180000D01*
X116724804Y-93180000D01*
X116743541Y-93370249D01*
X116799037Y-93553195D01*
X116889150Y-93721784D01*
X116889153Y-93721788D01*
X116889154Y-93721790D01*
X116894270Y-93728024D01*
X117010431Y-93869568D01*
X117089836Y-93934733D01*
X117158210Y-93990846D01*
X117158213Y-93990847D01*
X117158215Y-93990849D01*
X117326804Y-94080962D01*
X117326806Y-94080962D01*
X117326809Y-94080964D01*
X117509749Y-94136458D01*
X117700000Y-94155196D01*
X117890251Y-94136458D01*
X118073191Y-94080964D01*
X118115664Y-94058262D01*
X118241784Y-93990849D01*
X118241782Y-93990849D01*
X118241790Y-93990846D01*
X118389568Y-93869568D01*
X118510846Y-93721790D01*
X118600964Y-93553191D01*
X118601932Y-93550000D01*
X128494659Y-93550000D01*
X128513975Y-93746129D01*
X128571188Y-93934733D01*
X128664086Y-94108532D01*
X128664090Y-94108539D01*
X128789116Y-94260883D01*
X128941460Y-94385909D01*
X128941467Y-94385913D01*
X129115266Y-94478811D01*
X129115269Y-94478811D01*
X129115273Y-94478814D01*
X129303868Y-94536024D01*
X129500000Y-94555341D01*
X129696132Y-94536024D01*
X129884727Y-94478814D01*
X129919144Y-94460418D01*
X129990317Y-94422375D01*
X130058538Y-94385910D01*
X130210883Y-94260883D01*
X130335910Y-94108538D01*
X130428814Y-93934727D01*
X130486024Y-93746132D01*
X130505341Y-93550000D01*
X130486024Y-93353868D01*
X130428814Y-93165273D01*
X130428811Y-93165269D01*
X130428811Y-93165266D01*
X130335913Y-92991467D01*
X130335909Y-92991460D01*
X130210883Y-92839116D01*
X130058539Y-92714090D01*
X130058532Y-92714086D01*
X129884733Y-92621188D01*
X129884727Y-92621186D01*
X129696132Y-92563976D01*
X129696129Y-92563975D01*
X129500000Y-92544659D01*
X129303870Y-92563975D01*
X129115266Y-92621188D01*
X128941467Y-92714086D01*
X128941460Y-92714090D01*
X128789116Y-92839116D01*
X128664090Y-92991460D01*
X128664086Y-92991467D01*
X128571188Y-93165266D01*
X128513975Y-93353870D01*
X128494659Y-93550000D01*
X118601932Y-93550000D01*
X118656458Y-93370251D01*
X118675196Y-93180000D01*
X118656458Y-92989749D01*
X118600964Y-92806809D01*
X118600962Y-92806806D01*
X118600962Y-92806804D01*
X118510849Y-92638215D01*
X118510847Y-92638213D01*
X118510846Y-92638210D01*
X118449231Y-92563132D01*
X118389568Y-92490431D01*
X118241791Y-92369155D01*
X118241784Y-92369150D01*
X118073195Y-92279037D01*
X117890249Y-92223541D01*
X117700000Y-92204804D01*
X117509750Y-92223541D01*
X117326804Y-92279037D01*
X117158215Y-92369150D01*
X117158208Y-92369155D01*
X117010431Y-92490431D01*
X116889155Y-92638208D01*
X116889150Y-92638215D01*
X116799037Y-92806804D01*
X116743541Y-92989750D01*
X116724804Y-93180000D01*
X108003327Y-93180000D01*
X108036146Y-93043302D01*
X108055294Y-92800000D01*
X108036146Y-92556698D01*
X107979172Y-92319388D01*
X107968085Y-92292621D01*
X107885777Y-92093910D01*
X107758262Y-91885826D01*
X107758261Y-91885823D01*
X107647630Y-91756291D01*
X107599759Y-91700241D01*
X107462261Y-91582807D01*
X107414176Y-91541738D01*
X107414173Y-91541737D01*
X107206089Y-91414222D01*
X106980618Y-91320830D01*
X106980621Y-91320830D01*
X106874992Y-91295470D01*
X106743302Y-91263854D01*
X106743300Y-91263853D01*
X106743297Y-91263853D01*
X106500000Y-91244706D01*
X106256702Y-91263853D01*
X106019380Y-91320830D01*
X105793910Y-91414222D01*
X105585826Y-91541737D01*
X105585823Y-91541738D01*
X105400241Y-91700241D01*
X105241738Y-91885823D01*
X105241737Y-91885826D01*
X105114222Y-92093910D01*
X105020830Y-92319380D01*
X104963853Y-92556702D01*
X104944706Y-92800000D01*
X99500500Y-92800000D01*
X99500500Y-90640000D01*
X116724804Y-90640000D01*
X116743541Y-90830249D01*
X116799037Y-91013195D01*
X116889150Y-91181784D01*
X116889155Y-91181791D01*
X117010431Y-91329568D01*
X117113267Y-91413962D01*
X117158210Y-91450846D01*
X117158213Y-91450847D01*
X117158215Y-91450849D01*
X117326804Y-91540962D01*
X117326806Y-91540962D01*
X117326809Y-91540964D01*
X117509749Y-91596458D01*
X117700000Y-91615196D01*
X117890251Y-91596458D01*
X118073191Y-91540964D01*
X118241790Y-91450846D01*
X118389568Y-91329568D01*
X118510846Y-91181790D01*
X118600964Y-91013191D01*
X118656458Y-90830251D01*
X118675196Y-90640000D01*
X118656458Y-90449749D01*
X118600964Y-90266809D01*
X118600962Y-90266806D01*
X118600962Y-90266804D01*
X118510849Y-90098215D01*
X118510847Y-90098213D01*
X118510846Y-90098210D01*
X118473962Y-90053267D01*
X118389568Y-89950431D01*
X118241791Y-89829155D01*
X118241784Y-89829150D01*
X118073195Y-89739037D01*
X117890249Y-89683541D01*
X117700000Y-89664804D01*
X117509750Y-89683541D01*
X117326804Y-89739037D01*
X117158215Y-89829150D01*
X117158208Y-89829155D01*
X117010431Y-89950431D01*
X116889155Y-90098208D01*
X116889150Y-90098215D01*
X116799037Y-90266804D01*
X116743541Y-90449750D01*
X116724804Y-90640000D01*
X99500500Y-90640000D01*
X99500500Y-87200000D01*
X104944706Y-87200000D01*
X104963853Y-87443297D01*
X104963853Y-87443300D01*
X104963854Y-87443302D01*
X104991441Y-87558210D01*
X105020830Y-87680619D01*
X105114222Y-87906089D01*
X105241737Y-88114173D01*
X105241738Y-88114176D01*
X105295449Y-88177063D01*
X105400241Y-88299759D01*
X105466432Y-88356291D01*
X105585823Y-88458261D01*
X105585826Y-88458262D01*
X105793910Y-88585777D01*
X106019381Y-88679169D01*
X106019378Y-88679169D01*
X106019384Y-88679170D01*
X106019388Y-88679172D01*
X106256698Y-88736146D01*
X106500000Y-88755294D01*
X106743302Y-88736146D01*
X106980612Y-88679172D01*
X107206089Y-88585777D01*
X107414179Y-88458259D01*
X107599759Y-88299759D01*
X107758259Y-88114179D01*
X107766948Y-88100000D01*
X116724804Y-88100000D01*
X116743541Y-88290249D01*
X116799037Y-88473195D01*
X116889150Y-88641784D01*
X116889153Y-88641788D01*
X116889154Y-88641790D01*
X116907595Y-88664261D01*
X117010431Y-88789568D01*
X117113267Y-88873962D01*
X117158210Y-88910846D01*
X117158213Y-88910847D01*
X117158215Y-88910849D01*
X117326804Y-89000962D01*
X117326806Y-89000962D01*
X117326809Y-89000964D01*
X117509749Y-89056458D01*
X117700000Y-89075196D01*
X117890251Y-89056458D01*
X118073191Y-89000964D01*
X118241790Y-88910846D01*
X118389568Y-88789568D01*
X118510846Y-88641790D01*
X118600964Y-88473191D01*
X118656458Y-88290251D01*
X118675196Y-88100000D01*
X118656458Y-87909749D01*
X118600964Y-87726809D01*
X118600962Y-87726806D01*
X118600962Y-87726804D01*
X118510849Y-87558215D01*
X118510847Y-87558213D01*
X118510846Y-87558210D01*
X118473962Y-87513267D01*
X118389568Y-87410431D01*
X118241791Y-87289155D01*
X118241784Y-87289150D01*
X118073195Y-87199037D01*
X117890249Y-87143541D01*
X117700000Y-87124804D01*
X117509750Y-87143541D01*
X117326804Y-87199037D01*
X117158215Y-87289150D01*
X117158208Y-87289155D01*
X117010431Y-87410431D01*
X116889155Y-87558208D01*
X116889150Y-87558215D01*
X116799037Y-87726804D01*
X116743541Y-87909750D01*
X116724804Y-88100000D01*
X107766948Y-88100000D01*
X107885777Y-87906089D01*
X107979172Y-87680612D01*
X108036146Y-87443302D01*
X108055294Y-87200000D01*
X108036146Y-86956698D01*
X107979172Y-86719388D01*
X107979169Y-86719380D01*
X107885777Y-86493910D01*
X107758262Y-86285826D01*
X107758261Y-86285823D01*
X107658310Y-86168796D01*
X107599759Y-86100241D01*
X107440726Y-85964414D01*
X107414176Y-85941738D01*
X107414173Y-85941737D01*
X107206089Y-85814222D01*
X106980618Y-85720830D01*
X106980621Y-85720830D01*
X106778806Y-85672378D01*
X106743302Y-85663854D01*
X106743300Y-85663853D01*
X106743297Y-85663853D01*
X106500000Y-85644706D01*
X106256702Y-85663853D01*
X106019380Y-85720830D01*
X105793910Y-85814222D01*
X105585826Y-85941737D01*
X105585823Y-85941738D01*
X105400241Y-86100241D01*
X105241738Y-86285823D01*
X105241737Y-86285826D01*
X105114222Y-86493910D01*
X105020830Y-86719380D01*
X104963853Y-86956702D01*
X104944706Y-87200000D01*
X99500500Y-87200000D01*
X99500500Y-85211610D01*
X123899500Y-85211610D01*
X123925534Y-85375987D01*
X123926598Y-85382701D01*
X123980127Y-85547445D01*
X124058768Y-85701788D01*
X124160586Y-85841928D01*
X124283072Y-85964414D01*
X124423212Y-86066232D01*
X124577555Y-86144873D01*
X124742299Y-86198402D01*
X124913389Y-86225500D01*
X124913390Y-86225500D01*
X125086610Y-86225500D01*
X125086611Y-86225500D01*
X125257701Y-86198402D01*
X125422445Y-86144873D01*
X125576788Y-86066232D01*
X125716928Y-85964414D01*
X125839414Y-85841928D01*
X125941232Y-85701788D01*
X126019873Y-85547445D01*
X126073402Y-85382701D01*
X126100500Y-85211611D01*
X126100500Y-85211610D01*
X126399500Y-85211610D01*
X126425534Y-85375987D01*
X126426598Y-85382701D01*
X126480127Y-85547445D01*
X126558768Y-85701788D01*
X126660586Y-85841928D01*
X126783072Y-85964414D01*
X126923212Y-86066232D01*
X127077555Y-86144873D01*
X127242299Y-86198402D01*
X127413389Y-86225500D01*
X127413390Y-86225500D01*
X127586610Y-86225500D01*
X127586611Y-86225500D01*
X127757701Y-86198402D01*
X127922445Y-86144873D01*
X128076788Y-86066232D01*
X128216928Y-85964414D01*
X128339414Y-85841928D01*
X128389588Y-85772870D01*
X128899500Y-85772870D01*
X128899501Y-85772876D01*
X128905908Y-85832483D01*
X128956202Y-85967328D01*
X128956206Y-85967335D01*
X129042452Y-86082544D01*
X129042455Y-86082547D01*
X129157664Y-86168793D01*
X129157671Y-86168797D01*
X129292517Y-86219091D01*
X129292516Y-86219091D01*
X129299444Y-86219835D01*
X129352127Y-86225500D01*
X130647872Y-86225499D01*
X130707483Y-86219091D01*
X130842331Y-86168796D01*
X130957546Y-86082546D01*
X131043796Y-85967331D01*
X131094091Y-85832483D01*
X131100500Y-85772873D01*
X131100499Y-84227128D01*
X131094229Y-84168797D01*
X131094091Y-84167516D01*
X131043797Y-84032671D01*
X131043793Y-84032664D01*
X130957547Y-83917455D01*
X130957544Y-83917452D01*
X130842335Y-83831206D01*
X130842328Y-83831202D01*
X130707482Y-83780908D01*
X130707483Y-83780908D01*
X130647883Y-83774501D01*
X130647881Y-83774500D01*
X130647873Y-83774500D01*
X130647864Y-83774500D01*
X129352129Y-83774500D01*
X129352123Y-83774501D01*
X129292516Y-83780908D01*
X129157671Y-83831202D01*
X129157664Y-83831206D01*
X129042455Y-83917452D01*
X129042452Y-83917455D01*
X128956206Y-84032664D01*
X128956202Y-84032671D01*
X128905908Y-84167517D01*
X128900364Y-84219089D01*
X128899501Y-84227123D01*
X128899500Y-84227135D01*
X128899500Y-85772870D01*
X128389588Y-85772870D01*
X128441232Y-85701788D01*
X128519873Y-85547445D01*
X128573402Y-85382701D01*
X128600500Y-85211611D01*
X128600500Y-84788389D01*
X128573402Y-84617299D01*
X128519873Y-84452555D01*
X128441232Y-84298212D01*
X128339414Y-84158072D01*
X128286819Y-84105477D01*
X128253334Y-84044154D01*
X128250500Y-84017796D01*
X128250500Y-78982204D01*
X128270185Y-78915165D01*
X128286819Y-78894523D01*
X128339414Y-78841928D01*
X128389588Y-78772870D01*
X128899500Y-78772870D01*
X128899501Y-78772876D01*
X128905908Y-78832483D01*
X128956202Y-78967328D01*
X128956206Y-78967335D01*
X129042452Y-79082544D01*
X129042455Y-79082547D01*
X129157664Y-79168793D01*
X129157671Y-79168797D01*
X129292517Y-79219091D01*
X129292516Y-79219091D01*
X129299444Y-79219835D01*
X129352127Y-79225500D01*
X130647872Y-79225499D01*
X130707483Y-79219091D01*
X130842331Y-79168796D01*
X130957546Y-79082546D01*
X131043796Y-78967331D01*
X131094091Y-78832483D01*
X131100500Y-78772873D01*
X131100499Y-77227128D01*
X131094229Y-77168797D01*
X131094091Y-77167516D01*
X131043797Y-77032671D01*
X131043793Y-77032664D01*
X130957547Y-76917455D01*
X130957544Y-76917452D01*
X130842335Y-76831206D01*
X130842328Y-76831202D01*
X130707482Y-76780908D01*
X130707483Y-76780908D01*
X130647883Y-76774501D01*
X130647881Y-76774500D01*
X130647873Y-76774500D01*
X130647864Y-76774500D01*
X129352129Y-76774500D01*
X129352123Y-76774501D01*
X129292516Y-76780908D01*
X129157671Y-76831202D01*
X129157664Y-76831206D01*
X129042455Y-76917452D01*
X129042452Y-76917455D01*
X128956206Y-77032664D01*
X128956202Y-77032671D01*
X128905908Y-77167517D01*
X128900364Y-77219091D01*
X128899501Y-77227123D01*
X128899500Y-77227135D01*
X128899500Y-78772870D01*
X128389588Y-78772870D01*
X128441232Y-78701788D01*
X128519873Y-78547445D01*
X128573402Y-78382701D01*
X128600500Y-78211611D01*
X128600500Y-77788389D01*
X128573402Y-77617299D01*
X128519873Y-77452555D01*
X128441232Y-77298212D01*
X128339414Y-77158072D01*
X128286819Y-77105477D01*
X128253334Y-77044154D01*
X128250500Y-77017796D01*
X128250500Y-71982204D01*
X128270185Y-71915165D01*
X128286819Y-71894523D01*
X128339414Y-71841928D01*
X128389588Y-71772870D01*
X128899500Y-71772870D01*
X128899501Y-71772876D01*
X128905908Y-71832483D01*
X128956202Y-71967328D01*
X128956206Y-71967335D01*
X129042452Y-72082544D01*
X129042455Y-72082547D01*
X129157664Y-72168793D01*
X129157671Y-72168797D01*
X129292517Y-72219091D01*
X129292516Y-72219091D01*
X129299444Y-72219835D01*
X129352127Y-72225500D01*
X130647872Y-72225499D01*
X130707483Y-72219091D01*
X130842331Y-72168796D01*
X130957546Y-72082546D01*
X131043796Y-71967331D01*
X131094091Y-71832483D01*
X131100500Y-71772873D01*
X131100499Y-70227128D01*
X131094229Y-70168797D01*
X131094091Y-70167516D01*
X131043797Y-70032671D01*
X131043793Y-70032664D01*
X130957547Y-69917455D01*
X130957544Y-69917452D01*
X130842335Y-69831206D01*
X130842328Y-69831202D01*
X130707482Y-69780908D01*
X130707483Y-69780908D01*
X130647883Y-69774501D01*
X130647881Y-69774500D01*
X130647873Y-69774500D01*
X130647864Y-69774500D01*
X129352129Y-69774500D01*
X129352123Y-69774501D01*
X129292516Y-69780908D01*
X129157671Y-69831202D01*
X129157664Y-69831206D01*
X129042455Y-69917452D01*
X129042452Y-69917455D01*
X128956206Y-70032664D01*
X128956202Y-70032671D01*
X128905908Y-70167517D01*
X128900364Y-70219089D01*
X128899501Y-70227123D01*
X128899500Y-70227135D01*
X128899500Y-71772870D01*
X128389588Y-71772870D01*
X128441232Y-71701788D01*
X128519873Y-71547445D01*
X128573402Y-71382701D01*
X128600500Y-71211611D01*
X128600500Y-70788389D01*
X128573402Y-70617299D01*
X128519873Y-70452555D01*
X128441232Y-70298212D01*
X128339414Y-70158072D01*
X128286819Y-70105477D01*
X128253334Y-70044154D01*
X128250500Y-70017796D01*
X128250500Y-64982204D01*
X128270185Y-64915165D01*
X128286819Y-64894523D01*
X128339414Y-64841928D01*
X128389588Y-64772870D01*
X128899500Y-64772870D01*
X128899501Y-64772876D01*
X128905908Y-64832483D01*
X128956202Y-64967328D01*
X128956206Y-64967335D01*
X129042452Y-65082544D01*
X129042455Y-65082547D01*
X129157664Y-65168793D01*
X129157671Y-65168797D01*
X129292517Y-65219091D01*
X129292516Y-65219091D01*
X129299444Y-65219835D01*
X129352127Y-65225500D01*
X130647872Y-65225499D01*
X130707483Y-65219091D01*
X130842331Y-65168796D01*
X130957546Y-65082546D01*
X131043796Y-64967331D01*
X131094091Y-64832483D01*
X131100500Y-64772873D01*
X131100499Y-63227128D01*
X131094229Y-63168797D01*
X131094091Y-63167516D01*
X131043797Y-63032671D01*
X131043793Y-63032664D01*
X130957547Y-62917455D01*
X130957544Y-62917452D01*
X130842335Y-62831206D01*
X130842328Y-62831202D01*
X130707482Y-62780908D01*
X130707483Y-62780908D01*
X130647883Y-62774501D01*
X130647881Y-62774500D01*
X130647873Y-62774500D01*
X130647864Y-62774500D01*
X129352129Y-62774500D01*
X129352123Y-62774501D01*
X129292516Y-62780908D01*
X129157671Y-62831202D01*
X129157664Y-62831206D01*
X129042455Y-62917452D01*
X129042452Y-62917455D01*
X128956206Y-63032664D01*
X128956202Y-63032671D01*
X128905908Y-63167517D01*
X128900364Y-63219089D01*
X128899501Y-63227123D01*
X128899500Y-63227135D01*
X128899500Y-64772870D01*
X128389588Y-64772870D01*
X128441232Y-64701788D01*
X128519873Y-64547445D01*
X128573402Y-64382701D01*
X128600500Y-64211611D01*
X128600500Y-63788389D01*
X128573402Y-63617299D01*
X128519873Y-63452555D01*
X128441232Y-63298212D01*
X128339414Y-63158072D01*
X128216928Y-63035586D01*
X128076788Y-62933768D01*
X127922445Y-62855127D01*
X127757701Y-62801598D01*
X127757699Y-62801597D01*
X127757698Y-62801597D01*
X127626271Y-62780781D01*
X127586611Y-62774500D01*
X127413389Y-62774500D01*
X127373728Y-62780781D01*
X127242302Y-62801597D01*
X127077552Y-62855128D01*
X126923211Y-62933768D01*
X126877011Y-62967335D01*
X126783072Y-63035586D01*
X126783070Y-63035588D01*
X126783069Y-63035588D01*
X126660588Y-63158069D01*
X126660588Y-63158070D01*
X126660586Y-63158072D01*
X126625354Y-63206565D01*
X126558768Y-63298211D01*
X126480128Y-63452552D01*
X126426597Y-63617302D01*
X126415621Y-63686603D01*
X126399500Y-63788389D01*
X126399500Y-64211611D01*
X126426598Y-64382701D01*
X126480127Y-64547445D01*
X126558768Y-64701788D01*
X126660586Y-64841928D01*
X126660588Y-64841930D01*
X126713181Y-64894523D01*
X126746666Y-64955846D01*
X126749500Y-64982204D01*
X126749500Y-70017796D01*
X126729815Y-70084835D01*
X126713181Y-70105477D01*
X126660588Y-70158069D01*
X126660588Y-70158070D01*
X126660586Y-70158072D01*
X126625354Y-70206565D01*
X126558768Y-70298211D01*
X126480128Y-70452552D01*
X126426597Y-70617302D01*
X126399500Y-70788389D01*
X126399500Y-71211611D01*
X126426598Y-71382701D01*
X126480127Y-71547445D01*
X126558768Y-71701788D01*
X126660586Y-71841928D01*
X126660588Y-71841930D01*
X126713181Y-71894523D01*
X126746666Y-71955846D01*
X126749500Y-71982204D01*
X126749500Y-77017796D01*
X126729815Y-77084835D01*
X126713181Y-77105477D01*
X126660588Y-77158069D01*
X126660588Y-77158070D01*
X126660586Y-77158072D01*
X126616859Y-77218256D01*
X126558768Y-77298211D01*
X126480128Y-77452552D01*
X126426597Y-77617302D01*
X126399500Y-77788389D01*
X126399500Y-78211611D01*
X126426598Y-78382701D01*
X126480127Y-78547445D01*
X126558768Y-78701788D01*
X126660586Y-78841928D01*
X126660588Y-78841930D01*
X126713181Y-78894523D01*
X126746666Y-78955846D01*
X126749500Y-78982204D01*
X126749500Y-84017796D01*
X126729815Y-84084835D01*
X126713181Y-84105477D01*
X126660588Y-84158069D01*
X126660588Y-84158070D01*
X126660586Y-84158072D01*
X126616859Y-84218256D01*
X126558768Y-84298211D01*
X126480128Y-84452552D01*
X126426597Y-84617302D01*
X126399500Y-84788389D01*
X126399500Y-85211610D01*
X126100500Y-85211610D01*
X126100500Y-84788389D01*
X126073402Y-84617299D01*
X126019873Y-84452555D01*
X125941232Y-84298212D01*
X125839414Y-84158072D01*
X125786819Y-84105477D01*
X125753334Y-84044154D01*
X125750500Y-84017796D01*
X125750500Y-78982204D01*
X125770185Y-78915165D01*
X125786819Y-78894523D01*
X125839414Y-78841928D01*
X125941232Y-78701788D01*
X126019873Y-78547445D01*
X126073402Y-78382701D01*
X126100500Y-78211611D01*
X126100500Y-77788389D01*
X126073402Y-77617299D01*
X126019873Y-77452555D01*
X125941232Y-77298212D01*
X125839414Y-77158072D01*
X125786819Y-77105477D01*
X125753334Y-77044154D01*
X125750500Y-77017796D01*
X125750500Y-71982204D01*
X125770185Y-71915165D01*
X125786819Y-71894523D01*
X125839414Y-71841928D01*
X125941232Y-71701788D01*
X126019873Y-71547445D01*
X126073402Y-71382701D01*
X126100500Y-71211611D01*
X126100500Y-70788389D01*
X126073402Y-70617299D01*
X126019873Y-70452555D01*
X125941232Y-70298212D01*
X125839414Y-70158072D01*
X125786819Y-70105477D01*
X125753334Y-70044154D01*
X125750500Y-70017796D01*
X125750500Y-64982204D01*
X125770185Y-64915165D01*
X125786819Y-64894523D01*
X125839414Y-64841928D01*
X125941232Y-64701788D01*
X126019873Y-64547445D01*
X126073402Y-64382701D01*
X126100500Y-64211611D01*
X126100500Y-63788389D01*
X126073402Y-63617299D01*
X126019873Y-63452555D01*
X125941232Y-63298212D01*
X125839414Y-63158072D01*
X125716928Y-63035586D01*
X125576788Y-62933768D01*
X125422445Y-62855127D01*
X125257701Y-62801598D01*
X125257699Y-62801597D01*
X125257698Y-62801597D01*
X125126271Y-62780781D01*
X125086611Y-62774500D01*
X124913389Y-62774500D01*
X124873728Y-62780781D01*
X124742302Y-62801597D01*
X124577552Y-62855128D01*
X124423211Y-62933768D01*
X124377011Y-62967335D01*
X124283072Y-63035586D01*
X124283070Y-63035588D01*
X124283069Y-63035588D01*
X124160588Y-63158069D01*
X124160588Y-63158070D01*
X124160586Y-63158072D01*
X124125354Y-63206565D01*
X124058768Y-63298211D01*
X123980128Y-63452552D01*
X123926597Y-63617302D01*
X123915621Y-63686603D01*
X123899500Y-63788389D01*
X123899500Y-64211611D01*
X123926598Y-64382701D01*
X123980127Y-64547445D01*
X124058768Y-64701788D01*
X124160586Y-64841928D01*
X124160588Y-64841930D01*
X124213181Y-64894523D01*
X124246666Y-64955846D01*
X124249500Y-64982204D01*
X124249500Y-70017796D01*
X124229815Y-70084835D01*
X124213181Y-70105477D01*
X124160588Y-70158069D01*
X124160588Y-70158070D01*
X124160586Y-70158072D01*
X124125354Y-70206565D01*
X124058768Y-70298211D01*
X123980128Y-70452552D01*
X123926597Y-70617302D01*
X123899500Y-70788389D01*
X123899500Y-71211611D01*
X123926598Y-71382701D01*
X123980127Y-71547445D01*
X124058768Y-71701788D01*
X124160586Y-71841928D01*
X124160588Y-71841930D01*
X124213181Y-71894523D01*
X124246666Y-71955846D01*
X124249500Y-71982204D01*
X124249500Y-77017796D01*
X124229815Y-77084835D01*
X124213181Y-77105477D01*
X124160588Y-77158069D01*
X124160588Y-77158070D01*
X124160586Y-77158072D01*
X124116859Y-77218256D01*
X124058768Y-77298211D01*
X123980128Y-77452552D01*
X123926597Y-77617302D01*
X123899500Y-77788389D01*
X123899500Y-78211611D01*
X123926598Y-78382701D01*
X123980127Y-78547445D01*
X124058768Y-78701788D01*
X124160586Y-78841928D01*
X124160588Y-78841930D01*
X124213181Y-78894523D01*
X124246666Y-78955846D01*
X124249500Y-78982204D01*
X124249500Y-84017796D01*
X124229815Y-84084835D01*
X124213181Y-84105477D01*
X124160588Y-84158069D01*
X124160588Y-84158070D01*
X124160586Y-84158072D01*
X124116859Y-84218256D01*
X124058768Y-84298211D01*
X123980128Y-84452552D01*
X123926597Y-84617302D01*
X123899500Y-84788389D01*
X123899500Y-85211610D01*
X99500500Y-85211610D01*
X99500500Y-70824678D01*
X115449500Y-70824678D01*
X115464032Y-70897735D01*
X115464033Y-70897739D01*
X115464034Y-70897740D01*
X115519399Y-70980601D01*
X115602260Y-71035966D01*
X115602264Y-71035967D01*
X115675321Y-71050499D01*
X115675324Y-71050500D01*
X115675326Y-71050500D01*
X117324676Y-71050500D01*
X117324677Y-71050499D01*
X117397740Y-71035966D01*
X117480601Y-70980601D01*
X117535966Y-70897740D01*
X117550500Y-70824674D01*
X117550500Y-69175326D01*
X117550500Y-69175323D01*
X117550499Y-69175321D01*
X117535967Y-69102264D01*
X117535966Y-69102260D01*
X117509423Y-69062535D01*
X117480601Y-69019399D01*
X117397740Y-68964034D01*
X117397739Y-68964033D01*
X117397735Y-68964032D01*
X117324677Y-68949500D01*
X117324674Y-68949500D01*
X115675326Y-68949500D01*
X115675323Y-68949500D01*
X115602264Y-68964032D01*
X115602260Y-68964033D01*
X115519399Y-69019399D01*
X115464033Y-69102260D01*
X115464032Y-69102264D01*
X115449500Y-69175321D01*
X115449500Y-70824678D01*
X99500500Y-70824678D01*
X99500500Y-68573920D01*
X111749499Y-68573920D01*
X111778340Y-68718907D01*
X111778343Y-68718917D01*
X111834912Y-68855488D01*
X111834919Y-68855501D01*
X111917048Y-68978415D01*
X111917051Y-68978419D01*
X112021580Y-69082948D01*
X112021584Y-69082951D01*
X112144498Y-69165080D01*
X112144511Y-69165087D01*
X112256829Y-69211610D01*
X112281087Y-69221658D01*
X112281091Y-69221658D01*
X112281092Y-69221659D01*
X112426079Y-69250500D01*
X112426082Y-69250500D01*
X112573920Y-69250500D01*
X112671462Y-69231096D01*
X112718913Y-69221658D01*
X112855495Y-69165084D01*
X112978416Y-69082951D01*
X113082951Y-68978416D01*
X113165084Y-68855495D01*
X113221658Y-68718913D01*
X113231096Y-68671462D01*
X113250500Y-68573920D01*
X113250500Y-66500000D01*
X115444919Y-66500000D01*
X115465191Y-66705834D01*
X115525233Y-66903766D01*
X115600975Y-67045469D01*
X115600976Y-67045469D01*
X116100000Y-66546446D01*
X116100000Y-66552661D01*
X116127259Y-66654394D01*
X116179920Y-66745606D01*
X116254394Y-66820080D01*
X116345606Y-66872741D01*
X116447339Y-66900000D01*
X116453553Y-66900000D01*
X115954528Y-67399023D01*
X116096233Y-67474766D01*
X116294165Y-67534808D01*
X116500000Y-67555080D01*
X116705834Y-67534808D01*
X116903764Y-67474766D01*
X117045470Y-67399022D01*
X116546448Y-66900000D01*
X116552661Y-66900000D01*
X116654394Y-66872741D01*
X116745606Y-66820080D01*
X116820080Y-66745606D01*
X116872741Y-66654394D01*
X116900000Y-66552661D01*
X116900000Y-66546447D01*
X117399022Y-67045469D01*
X117474766Y-66903764D01*
X117534808Y-66705834D01*
X117555080Y-66500000D01*
X117534808Y-66294165D01*
X117474766Y-66096233D01*
X117399023Y-65954528D01*
X116900000Y-66453551D01*
X116900000Y-66447339D01*
X116872741Y-66345606D01*
X116820080Y-66254394D01*
X116745606Y-66179920D01*
X116654394Y-66127259D01*
X116552661Y-66100000D01*
X116546448Y-66100000D01*
X117045469Y-65600976D01*
X117045469Y-65600975D01*
X116903766Y-65525233D01*
X116705834Y-65465191D01*
X116500000Y-65444919D01*
X116294166Y-65465191D01*
X116096234Y-65525234D01*
X115954529Y-65600975D01*
X115954529Y-65600976D01*
X116453553Y-66100000D01*
X116447339Y-66100000D01*
X116345606Y-66127259D01*
X116254394Y-66179920D01*
X116179920Y-66254394D01*
X116127259Y-66345606D01*
X116100000Y-66447339D01*
X116100000Y-66453553D01*
X115600976Y-65954529D01*
X115600975Y-65954529D01*
X115525234Y-66096234D01*
X115465191Y-66294166D01*
X115444919Y-66500000D01*
X113250500Y-66500000D01*
X113250500Y-65862229D01*
X113270185Y-65795190D01*
X113286819Y-65774548D01*
X115082946Y-63978421D01*
X115082951Y-63978416D01*
X115165084Y-63855494D01*
X115221658Y-63718913D01*
X115250500Y-63573917D01*
X115250500Y-63426083D01*
X115250500Y-63426080D01*
X115221659Y-63281093D01*
X115221658Y-63281092D01*
X115221658Y-63281088D01*
X115199310Y-63227135D01*
X115165085Y-63144507D01*
X115165083Y-63144504D01*
X115082952Y-63021585D01*
X115082946Y-63021578D01*
X114978421Y-62917053D01*
X114978414Y-62917047D01*
X114855495Y-62834916D01*
X114855492Y-62834914D01*
X114718916Y-62778343D01*
X114718906Y-62778340D01*
X114573919Y-62749500D01*
X114573917Y-62749500D01*
X114426083Y-62749500D01*
X114426081Y-62749500D01*
X114281092Y-62778340D01*
X114281086Y-62778342D01*
X114144504Y-62834916D01*
X114021585Y-62917047D01*
X114021578Y-62917053D01*
X111917050Y-65021580D01*
X111917044Y-65021588D01*
X111867812Y-65095268D01*
X111867813Y-65095269D01*
X111834921Y-65144496D01*
X111834914Y-65144508D01*
X111778342Y-65281086D01*
X111778340Y-65281092D01*
X111749500Y-65426079D01*
X111749500Y-65426082D01*
X111749500Y-68573918D01*
X111749500Y-68573920D01*
X111749499Y-68573920D01*
X99500500Y-68573920D01*
X99500500Y-59400000D01*
X129244750Y-59400000D01*
X129263670Y-59543708D01*
X129263671Y-59543712D01*
X129319137Y-59677622D01*
X129319138Y-59677624D01*
X129319139Y-59677625D01*
X129407379Y-59792621D01*
X129522375Y-59880861D01*
X129589333Y-59908595D01*
X129656288Y-59936329D01*
X129656290Y-59936330D01*
X129659721Y-59936781D01*
X129663995Y-59937344D01*
X129727894Y-59965606D01*
X129735500Y-59972603D01*
X133413181Y-63650284D01*
X133446666Y-63711607D01*
X133449500Y-63737965D01*
X133449500Y-91540715D01*
X133429815Y-91607754D01*
X133423877Y-91616200D01*
X133419138Y-91622375D01*
X133363671Y-91756287D01*
X133363670Y-91756291D01*
X133344750Y-91899999D01*
X133344750Y-91900000D01*
X133363670Y-92043708D01*
X133363671Y-92043712D01*
X133419137Y-92177622D01*
X133419138Y-92177624D01*
X133419139Y-92177625D01*
X133507379Y-92292621D01*
X133622375Y-92380861D01*
X133756291Y-92436330D01*
X133883280Y-92453048D01*
X133899999Y-92455250D01*
X133900000Y-92455250D01*
X133900001Y-92455250D01*
X133914977Y-92453278D01*
X134043709Y-92436330D01*
X134177625Y-92380861D01*
X134292621Y-92292621D01*
X134380861Y-92177625D01*
X134436330Y-92043709D01*
X134455250Y-91900000D01*
X134436330Y-91756291D01*
X134380861Y-91622375D01*
X134376123Y-91616200D01*
X134350930Y-91551031D01*
X134350500Y-91540715D01*
X134350500Y-89136667D01*
X134370185Y-89069628D01*
X134422989Y-89023873D01*
X134492147Y-89013929D01*
X134521944Y-89022103D01*
X134556291Y-89036330D01*
X134652097Y-89048943D01*
X134699999Y-89055250D01*
X134700000Y-89055250D01*
X134700001Y-89055250D01*
X134714977Y-89053278D01*
X134843709Y-89036330D01*
X134977625Y-88980861D01*
X135092621Y-88892621D01*
X135180861Y-88777625D01*
X135236330Y-88643709D01*
X135255250Y-88500000D01*
X135236330Y-88356291D01*
X135180861Y-88222375D01*
X135176123Y-88216200D01*
X135150930Y-88151031D01*
X135150500Y-88140715D01*
X135150500Y-87536668D01*
X135170185Y-87469629D01*
X135222989Y-87423874D01*
X135292147Y-87413930D01*
X135321953Y-87422107D01*
X135356291Y-87436330D01*
X135356290Y-87436330D01*
X135359721Y-87436781D01*
X135363995Y-87437344D01*
X135427894Y-87465606D01*
X135435500Y-87472603D01*
X136113181Y-88150284D01*
X136146666Y-88211607D01*
X136149500Y-88237965D01*
X136149500Y-93740715D01*
X136129815Y-93807754D01*
X136123877Y-93816200D01*
X136119138Y-93822375D01*
X136063671Y-93956287D01*
X136063670Y-93956291D01*
X136044750Y-94100000D01*
X136053132Y-94163670D01*
X136063670Y-94243708D01*
X136063671Y-94243712D01*
X136119137Y-94377622D01*
X136119138Y-94377623D01*
X136119139Y-94377625D01*
X136207379Y-94492621D01*
X136322375Y-94580861D01*
X136322376Y-94580861D01*
X136322377Y-94580862D01*
X136367013Y-94599350D01*
X136456291Y-94636330D01*
X136583280Y-94653048D01*
X136599999Y-94655250D01*
X136600000Y-94655250D01*
X136600001Y-94655250D01*
X136614977Y-94653278D01*
X136743709Y-94636330D01*
X136877625Y-94580861D01*
X136992621Y-94492621D01*
X137080861Y-94377625D01*
X137109104Y-94309437D01*
X137152942Y-94255037D01*
X137219236Y-94232971D01*
X137286936Y-94250249D01*
X137322039Y-94281405D01*
X137407378Y-94392620D01*
X137407379Y-94392621D01*
X137494853Y-94459742D01*
X137536055Y-94516169D01*
X137540210Y-94585915D01*
X137507047Y-94645798D01*
X137139666Y-95013181D01*
X137078343Y-95046666D01*
X137051985Y-95049500D01*
X136859285Y-95049500D01*
X136792246Y-95029815D01*
X136783801Y-95023877D01*
X136777629Y-95019141D01*
X136777623Y-95019138D01*
X136643712Y-94963671D01*
X136643710Y-94963670D01*
X136643709Y-94963670D01*
X136571854Y-94954210D01*
X136500001Y-94944750D01*
X136499999Y-94944750D01*
X136356291Y-94963670D01*
X136356287Y-94963671D01*
X136222377Y-95019137D01*
X136107379Y-95107379D01*
X136019137Y-95222377D01*
X135963671Y-95356287D01*
X135963670Y-95356291D01*
X135944750Y-95500000D01*
X135961349Y-95626083D01*
X135963670Y-95643708D01*
X135963671Y-95643712D01*
X136019137Y-95777622D01*
X136019138Y-95777624D01*
X136019139Y-95777625D01*
X136107379Y-95892621D01*
X136222375Y-95980861D01*
X136356291Y-96036330D01*
X136483280Y-96053048D01*
X136499999Y-96055250D01*
X136500000Y-96055250D01*
X136500001Y-96055250D01*
X136514977Y-96053278D01*
X136643709Y-96036330D01*
X136777625Y-95980861D01*
X136777629Y-95980858D01*
X136783801Y-95976123D01*
X136848970Y-95950930D01*
X136859285Y-95950500D01*
X137349257Y-95950500D01*
X137349259Y-95950500D01*
X137443862Y-95925151D01*
X137463837Y-95919799D01*
X137566564Y-95860489D01*
X138727053Y-94700000D01*
X140744750Y-94700000D01*
X140763670Y-94843708D01*
X140763671Y-94843712D01*
X140819137Y-94977622D01*
X140819138Y-94977624D01*
X140819139Y-94977625D01*
X140907379Y-95092621D01*
X141022375Y-95180861D01*
X141156291Y-95236330D01*
X141283280Y-95253048D01*
X141299999Y-95255250D01*
X141300000Y-95255250D01*
X141300001Y-95255250D01*
X141314977Y-95253278D01*
X141443709Y-95236330D01*
X141577625Y-95180861D01*
X141577629Y-95180858D01*
X141583801Y-95176123D01*
X141648970Y-95150930D01*
X141659285Y-95150500D01*
X144840715Y-95150500D01*
X144907754Y-95170185D01*
X144916199Y-95176123D01*
X144922370Y-95180858D01*
X144922373Y-95180859D01*
X144922375Y-95180861D01*
X145056291Y-95236330D01*
X145183280Y-95253048D01*
X145199999Y-95255250D01*
X145200000Y-95255250D01*
X145200001Y-95255250D01*
X145214977Y-95253278D01*
X145343709Y-95236330D01*
X145477625Y-95180861D01*
X145592621Y-95092621D01*
X145680861Y-94977625D01*
X145736330Y-94843709D01*
X145755250Y-94700000D01*
X145736330Y-94556291D01*
X145680861Y-94422375D01*
X145592621Y-94307379D01*
X145477625Y-94219139D01*
X145477624Y-94219138D01*
X145477622Y-94219137D01*
X145343712Y-94163671D01*
X145343710Y-94163670D01*
X145343709Y-94163670D01*
X145271854Y-94154210D01*
X145200001Y-94144750D01*
X145199999Y-94144750D01*
X145056291Y-94163670D01*
X145056287Y-94163671D01*
X144922376Y-94219138D01*
X144922370Y-94219141D01*
X144916199Y-94223877D01*
X144851030Y-94249070D01*
X144840715Y-94249500D01*
X141659285Y-94249500D01*
X141592246Y-94229815D01*
X141583801Y-94223877D01*
X141577629Y-94219141D01*
X141577623Y-94219138D01*
X141443712Y-94163671D01*
X141443710Y-94163670D01*
X141443709Y-94163670D01*
X141371854Y-94154210D01*
X141300001Y-94144750D01*
X141299999Y-94144750D01*
X141156291Y-94163670D01*
X141156287Y-94163671D01*
X141022377Y-94219137D01*
X140907379Y-94307379D01*
X140819137Y-94422377D01*
X140763671Y-94556287D01*
X140763670Y-94556291D01*
X140744750Y-94699999D01*
X140744750Y-94700000D01*
X138727053Y-94700000D01*
X140360489Y-93066564D01*
X140419798Y-92963837D01*
X140419799Y-92963836D01*
X140450500Y-92849259D01*
X140450500Y-90999628D01*
X149400000Y-90999628D01*
X149414503Y-91072540D01*
X149414505Y-91072544D01*
X149469760Y-91155239D01*
X149552455Y-91210494D01*
X149552459Y-91210496D01*
X149625371Y-91224999D01*
X149625374Y-91225000D01*
X150250000Y-91225000D01*
X150250000Y-90558012D01*
X150307007Y-90590925D01*
X150434174Y-90625000D01*
X150565826Y-90625000D01*
X150692993Y-90590925D01*
X150750000Y-90558012D01*
X150750000Y-91225000D01*
X151374626Y-91225000D01*
X151374628Y-91224999D01*
X151447540Y-91210496D01*
X151447544Y-91210494D01*
X151530239Y-91155239D01*
X151585494Y-91072544D01*
X151585496Y-91072540D01*
X151599999Y-90999628D01*
X151600000Y-90999626D01*
X151600000Y-90375000D01*
X150933012Y-90375000D01*
X150965925Y-90317993D01*
X151000000Y-90190826D01*
X151000000Y-90059174D01*
X150965925Y-89932007D01*
X150933012Y-89875000D01*
X151600000Y-89875000D01*
X151600000Y-89250373D01*
X151599999Y-89250371D01*
X151585496Y-89177459D01*
X151585494Y-89177455D01*
X151530239Y-89094760D01*
X151447544Y-89039505D01*
X151447540Y-89039503D01*
X151374627Y-89025000D01*
X150750000Y-89025000D01*
X150750000Y-89691988D01*
X150692993Y-89659075D01*
X150565826Y-89625000D01*
X150434174Y-89625000D01*
X150307007Y-89659075D01*
X150250000Y-89691988D01*
X150250000Y-89025000D01*
X149625373Y-89025000D01*
X149552459Y-89039503D01*
X149552455Y-89039505D01*
X149469760Y-89094760D01*
X149414505Y-89177455D01*
X149414503Y-89177459D01*
X149400000Y-89250371D01*
X149400000Y-89875000D01*
X150066988Y-89875000D01*
X150034075Y-89932007D01*
X150000000Y-90059174D01*
X150000000Y-90190826D01*
X150034075Y-90317993D01*
X150066988Y-90375000D01*
X149400000Y-90375000D01*
X149400000Y-90999628D01*
X140450500Y-90999628D01*
X140450500Y-84349499D01*
X140470185Y-84282460D01*
X140522989Y-84236705D01*
X140574500Y-84225499D01*
X140647871Y-84225499D01*
X140647872Y-84225499D01*
X140707483Y-84219091D01*
X140842331Y-84168796D01*
X140957546Y-84082546D01*
X141043796Y-83967331D01*
X141094091Y-83832483D01*
X141100500Y-83772873D01*
X141100499Y-82227128D01*
X141098954Y-82212752D01*
X141111361Y-82143993D01*
X141158973Y-82092857D01*
X141222244Y-82075500D01*
X141477214Y-82075500D01*
X141544253Y-82095185D01*
X141590008Y-82147989D01*
X141599952Y-82217147D01*
X141577532Y-82272386D01*
X141558768Y-82298211D01*
X141480128Y-82452552D01*
X141426597Y-82617302D01*
X141399500Y-82788389D01*
X141399500Y-83211610D01*
X141426579Y-83382585D01*
X141426598Y-83382701D01*
X141480127Y-83547445D01*
X141558768Y-83701788D01*
X141660586Y-83841928D01*
X141783072Y-83964414D01*
X141923212Y-84066232D01*
X142077555Y-84144873D01*
X142242299Y-84198402D01*
X142413389Y-84225500D01*
X142413390Y-84225500D01*
X142586610Y-84225500D01*
X142586611Y-84225500D01*
X142757701Y-84198402D01*
X142922445Y-84144873D01*
X143076788Y-84066232D01*
X143216928Y-83964414D01*
X143339414Y-83841928D01*
X143441232Y-83701788D01*
X143519873Y-83547445D01*
X143573402Y-83382701D01*
X143600500Y-83211611D01*
X143600500Y-82788389D01*
X143573402Y-82617299D01*
X143537214Y-82505927D01*
X143535220Y-82436088D01*
X143571300Y-82376255D01*
X143634001Y-82345427D01*
X143703415Y-82353392D01*
X143742827Y-82379930D01*
X143889250Y-82526353D01*
X143922735Y-82587676D01*
X143924042Y-82633431D01*
X143899500Y-82788388D01*
X143899500Y-83211610D01*
X143926579Y-83382585D01*
X143926598Y-83382701D01*
X143980127Y-83547445D01*
X144058768Y-83701788D01*
X144160586Y-83841928D01*
X144283072Y-83964414D01*
X144423212Y-84066232D01*
X144577555Y-84144873D01*
X144742299Y-84198402D01*
X144913389Y-84225500D01*
X144913390Y-84225500D01*
X145086610Y-84225500D01*
X145086611Y-84225500D01*
X145257701Y-84198402D01*
X145422445Y-84144873D01*
X145576788Y-84066232D01*
X145716928Y-83964414D01*
X145839414Y-83841928D01*
X145941232Y-83701788D01*
X146019873Y-83547445D01*
X146073402Y-83382701D01*
X146094420Y-83250000D01*
X146406086Y-83250000D01*
X146427086Y-83382585D01*
X146480591Y-83547257D01*
X146559195Y-83701524D01*
X146660967Y-83841602D01*
X146783397Y-83964032D01*
X146923475Y-84065804D01*
X147077744Y-84144408D01*
X147242415Y-84197914D01*
X147242414Y-84197914D01*
X147249999Y-84199115D01*
X147250000Y-84199114D01*
X147250000Y-83404145D01*
X147316657Y-83442630D01*
X147437465Y-83475000D01*
X147562535Y-83475000D01*
X147683343Y-83442630D01*
X147750000Y-83404145D01*
X147750000Y-84199115D01*
X147757584Y-84197914D01*
X147922255Y-84144408D01*
X148076524Y-84065804D01*
X148216602Y-83964032D01*
X148339032Y-83841602D01*
X148440804Y-83701524D01*
X148519408Y-83547257D01*
X148572913Y-83382585D01*
X148593914Y-83250000D01*
X147904146Y-83250000D01*
X147942630Y-83183343D01*
X147975000Y-83062535D01*
X147975000Y-82937465D01*
X147942630Y-82816657D01*
X147904146Y-82750000D01*
X148593914Y-82750000D01*
X148572913Y-82617414D01*
X148519408Y-82452742D01*
X148440804Y-82298475D01*
X148339032Y-82158397D01*
X148216602Y-82035967D01*
X148076524Y-81934195D01*
X147922257Y-81855591D01*
X147757589Y-81802087D01*
X147757581Y-81802085D01*
X147750000Y-81800884D01*
X147750000Y-82595854D01*
X147683343Y-82557370D01*
X147562535Y-82525000D01*
X147437465Y-82525000D01*
X147316657Y-82557370D01*
X147250000Y-82595854D01*
X147250000Y-81800884D01*
X147249999Y-81800884D01*
X147242418Y-81802085D01*
X147242410Y-81802087D01*
X147077742Y-81855591D01*
X146923475Y-81934195D01*
X146783397Y-82035967D01*
X146660967Y-82158397D01*
X146559195Y-82298475D01*
X146480591Y-82452742D01*
X146427086Y-82617414D01*
X146406086Y-82750000D01*
X147095854Y-82750000D01*
X147057370Y-82816657D01*
X147025000Y-82937465D01*
X147025000Y-83062535D01*
X147057370Y-83183343D01*
X147095854Y-83250000D01*
X146406086Y-83250000D01*
X146094420Y-83250000D01*
X146100500Y-83211611D01*
X146100500Y-82788389D01*
X146073402Y-82617299D01*
X146019873Y-82452555D01*
X145941232Y-82298212D01*
X145839414Y-82158072D01*
X145716928Y-82035586D01*
X145576788Y-81933768D01*
X145422445Y-81855127D01*
X145257701Y-81801598D01*
X145257699Y-81801597D01*
X145257698Y-81801597D01*
X145126271Y-81780781D01*
X145086611Y-81774500D01*
X144913389Y-81774500D01*
X144881192Y-81779599D01*
X144742301Y-81801597D01*
X144585422Y-81852570D01*
X144515580Y-81854565D01*
X144459423Y-81822320D01*
X143901616Y-81264513D01*
X143901614Y-81264511D01*
X143850250Y-81234856D01*
X143798888Y-81205201D01*
X143786780Y-81201957D01*
X143774673Y-81198713D01*
X143774670Y-81198712D01*
X143736478Y-81188478D01*
X143684309Y-81174500D01*
X139064525Y-81174500D01*
X138974159Y-81198713D01*
X138974158Y-81198712D01*
X138949950Y-81205199D01*
X138949947Y-81205200D01*
X138847220Y-81264511D01*
X138847217Y-81264513D01*
X134562181Y-85549550D01*
X134500858Y-85583035D01*
X134431166Y-85578051D01*
X134375233Y-85536179D01*
X134350816Y-85470715D01*
X134350500Y-85461869D01*
X134350500Y-76772870D01*
X138899500Y-76772870D01*
X138899501Y-76772876D01*
X138905908Y-76832483D01*
X138956202Y-76967328D01*
X138956206Y-76967335D01*
X139042452Y-77082544D01*
X139042455Y-77082547D01*
X139157664Y-77168793D01*
X139157671Y-77168797D01*
X139292517Y-77219091D01*
X139292516Y-77219091D01*
X139299444Y-77219835D01*
X139352127Y-77225500D01*
X140647872Y-77225499D01*
X140707483Y-77219091D01*
X140842331Y-77168796D01*
X140957546Y-77082546D01*
X141043796Y-76967331D01*
X141094091Y-76832483D01*
X141100500Y-76772873D01*
X141100500Y-76250000D01*
X141406086Y-76250000D01*
X141427086Y-76382585D01*
X141480591Y-76547257D01*
X141559195Y-76701524D01*
X141660967Y-76841602D01*
X141783397Y-76964032D01*
X141923475Y-77065804D01*
X142077744Y-77144408D01*
X142242415Y-77197914D01*
X142242414Y-77197914D01*
X142249999Y-77199115D01*
X142250000Y-77199114D01*
X142250000Y-76404145D01*
X142316657Y-76442630D01*
X142437465Y-76475000D01*
X142562535Y-76475000D01*
X142683343Y-76442630D01*
X142750000Y-76404145D01*
X142750000Y-77199115D01*
X142757584Y-77197914D01*
X142922255Y-77144408D01*
X143076524Y-77065804D01*
X143216602Y-76964032D01*
X143339032Y-76841602D01*
X143440804Y-76701524D01*
X143519408Y-76547257D01*
X143572913Y-76382585D01*
X143593914Y-76250000D01*
X142904146Y-76250000D01*
X142926310Y-76211610D01*
X143899500Y-76211610D01*
X143926579Y-76382585D01*
X143926598Y-76382701D01*
X143980127Y-76547445D01*
X144058768Y-76701788D01*
X144160586Y-76841928D01*
X144283072Y-76964414D01*
X144423212Y-77066232D01*
X144577555Y-77144873D01*
X144742299Y-77198402D01*
X144913389Y-77225500D01*
X144913390Y-77225500D01*
X145086610Y-77225500D01*
X145086611Y-77225500D01*
X145257701Y-77198402D01*
X145422445Y-77144873D01*
X145576788Y-77066232D01*
X145716928Y-76964414D01*
X145839414Y-76841928D01*
X145941232Y-76701788D01*
X146019873Y-76547445D01*
X146073402Y-76382701D01*
X146100500Y-76211611D01*
X146100500Y-76211610D01*
X146399500Y-76211610D01*
X146426579Y-76382585D01*
X146426598Y-76382701D01*
X146480127Y-76547445D01*
X146558768Y-76701788D01*
X146660586Y-76841928D01*
X146783072Y-76964414D01*
X146923212Y-77066232D01*
X147077555Y-77144873D01*
X147242299Y-77198402D01*
X147413389Y-77225500D01*
X147413390Y-77225500D01*
X147586610Y-77225500D01*
X147586611Y-77225500D01*
X147757701Y-77198402D01*
X147922445Y-77144873D01*
X148076788Y-77066232D01*
X148216928Y-76964414D01*
X148339414Y-76841928D01*
X148441232Y-76701788D01*
X148519873Y-76547445D01*
X148573402Y-76382701D01*
X148600500Y-76211611D01*
X148600500Y-75788389D01*
X148573402Y-75617299D01*
X148519873Y-75452555D01*
X148441232Y-75298212D01*
X148339414Y-75158072D01*
X148216928Y-75035586D01*
X148076788Y-74933768D01*
X148076787Y-74933767D01*
X148076785Y-74933766D01*
X148018204Y-74903917D01*
X147967409Y-74855943D01*
X147950500Y-74793433D01*
X147950500Y-70206565D01*
X147970185Y-70139526D01*
X148018204Y-70096081D01*
X148076788Y-70066232D01*
X148216928Y-69964414D01*
X148339414Y-69841928D01*
X148441232Y-69701788D01*
X148519873Y-69547445D01*
X148573402Y-69382701D01*
X148600500Y-69211611D01*
X148600500Y-68788389D01*
X148573402Y-68617299D01*
X148519873Y-68452555D01*
X148441232Y-68298212D01*
X148339414Y-68158072D01*
X148216928Y-68035586D01*
X148076788Y-67933768D01*
X148076787Y-67933767D01*
X148076785Y-67933766D01*
X148018204Y-67903917D01*
X147967409Y-67855943D01*
X147950500Y-67793433D01*
X147950500Y-63206565D01*
X147970185Y-63139526D01*
X148018204Y-63096081D01*
X148076788Y-63066232D01*
X148216928Y-62964414D01*
X148339414Y-62841928D01*
X148441232Y-62701788D01*
X148519873Y-62547445D01*
X148573402Y-62382701D01*
X148600500Y-62211611D01*
X148600500Y-61788389D01*
X148573402Y-61617299D01*
X148519873Y-61452555D01*
X148441232Y-61298212D01*
X148339414Y-61158072D01*
X148216928Y-61035586D01*
X148076788Y-60933768D01*
X147922445Y-60855127D01*
X147757701Y-60801598D01*
X147757699Y-60801597D01*
X147757698Y-60801597D01*
X147626271Y-60780781D01*
X147586611Y-60774500D01*
X147413389Y-60774500D01*
X147373728Y-60780781D01*
X147242302Y-60801597D01*
X147077552Y-60855128D01*
X146923211Y-60933768D01*
X146843256Y-60991859D01*
X146783072Y-61035586D01*
X146783070Y-61035588D01*
X146783069Y-61035588D01*
X146660588Y-61158069D01*
X146660588Y-61158070D01*
X146660586Y-61158072D01*
X146660350Y-61158397D01*
X146558768Y-61298211D01*
X146480128Y-61452552D01*
X146426597Y-61617302D01*
X146399500Y-61788389D01*
X146399500Y-62211610D01*
X146426579Y-62382585D01*
X146426598Y-62382701D01*
X146480127Y-62547445D01*
X146558768Y-62701788D01*
X146660586Y-62841928D01*
X146783072Y-62964414D01*
X146861761Y-63021585D01*
X146923207Y-63066229D01*
X146923211Y-63066231D01*
X146923212Y-63066232D01*
X146981795Y-63096081D01*
X147032590Y-63144053D01*
X147049500Y-63206565D01*
X147049500Y-67793433D01*
X147029815Y-67860472D01*
X146981796Y-67903917D01*
X146923214Y-67933766D01*
X146922624Y-67934195D01*
X146783072Y-68035586D01*
X146783070Y-68035588D01*
X146783069Y-68035588D01*
X146660588Y-68158069D01*
X146660588Y-68158070D01*
X146660586Y-68158072D01*
X146660350Y-68158397D01*
X146558768Y-68298211D01*
X146480128Y-68452552D01*
X146426597Y-68617302D01*
X146426185Y-68619905D01*
X146399500Y-68788389D01*
X146399500Y-69211611D01*
X146405580Y-69250000D01*
X146426579Y-69382585D01*
X146426598Y-69382701D01*
X146480127Y-69547445D01*
X146558768Y-69701788D01*
X146660586Y-69841928D01*
X146783072Y-69964414D01*
X146856546Y-70017796D01*
X146923207Y-70066229D01*
X146923211Y-70066231D01*
X146923212Y-70066232D01*
X146981795Y-70096081D01*
X147032590Y-70144053D01*
X147049500Y-70206565D01*
X147049500Y-74793433D01*
X147029815Y-74860472D01*
X146981796Y-74903917D01*
X146923214Y-74933766D01*
X146922624Y-74934195D01*
X146783072Y-75035586D01*
X146783070Y-75035588D01*
X146783069Y-75035588D01*
X146660588Y-75158069D01*
X146660588Y-75158070D01*
X146660586Y-75158072D01*
X146660350Y-75158397D01*
X146558768Y-75298211D01*
X146480128Y-75452552D01*
X146426597Y-75617302D01*
X146399500Y-75788389D01*
X146399500Y-76211610D01*
X146100500Y-76211610D01*
X146100500Y-75788389D01*
X146073402Y-75617299D01*
X146019873Y-75452555D01*
X145941232Y-75298212D01*
X145839414Y-75158072D01*
X145716928Y-75035586D01*
X145576788Y-74933768D01*
X145576787Y-74933767D01*
X145576785Y-74933766D01*
X145518204Y-74903917D01*
X145467409Y-74855943D01*
X145450500Y-74793433D01*
X145450500Y-70206565D01*
X145470185Y-70139526D01*
X145518204Y-70096081D01*
X145576788Y-70066232D01*
X145716928Y-69964414D01*
X145839414Y-69841928D01*
X145941232Y-69701788D01*
X146019873Y-69547445D01*
X146073402Y-69382701D01*
X146100500Y-69211611D01*
X146100500Y-68788389D01*
X146073402Y-68617299D01*
X146019873Y-68452555D01*
X145941232Y-68298212D01*
X145839414Y-68158072D01*
X145716928Y-68035586D01*
X145576788Y-67933768D01*
X145576787Y-67933767D01*
X145576785Y-67933766D01*
X145518204Y-67903917D01*
X145467409Y-67855943D01*
X145450500Y-67793433D01*
X145450500Y-63206565D01*
X145470185Y-63139526D01*
X145518204Y-63096081D01*
X145576788Y-63066232D01*
X145716928Y-62964414D01*
X145839414Y-62841928D01*
X145941232Y-62701788D01*
X146019873Y-62547445D01*
X146073402Y-62382701D01*
X146100500Y-62211611D01*
X146100500Y-61788389D01*
X146073402Y-61617299D01*
X146019873Y-61452555D01*
X145941232Y-61298212D01*
X145839414Y-61158072D01*
X145716928Y-61035586D01*
X145576788Y-60933768D01*
X145422445Y-60855127D01*
X145257701Y-60801598D01*
X145257699Y-60801597D01*
X145257698Y-60801597D01*
X145126271Y-60780781D01*
X145086611Y-60774500D01*
X144913389Y-60774500D01*
X144873728Y-60780781D01*
X144742302Y-60801597D01*
X144577552Y-60855128D01*
X144423211Y-60933768D01*
X144343256Y-60991859D01*
X144283072Y-61035586D01*
X144283070Y-61035588D01*
X144283069Y-61035588D01*
X144160588Y-61158069D01*
X144160588Y-61158070D01*
X144160586Y-61158072D01*
X144160350Y-61158397D01*
X144058768Y-61298211D01*
X143980128Y-61452552D01*
X143926597Y-61617302D01*
X143899500Y-61788389D01*
X143899500Y-62211610D01*
X143926579Y-62382585D01*
X143926598Y-62382701D01*
X143980127Y-62547445D01*
X144058768Y-62701788D01*
X144160586Y-62841928D01*
X144283072Y-62964414D01*
X144361761Y-63021585D01*
X144423207Y-63066229D01*
X144423211Y-63066231D01*
X144423212Y-63066232D01*
X144481795Y-63096081D01*
X144532590Y-63144053D01*
X144549500Y-63206565D01*
X144549500Y-67793433D01*
X144529815Y-67860472D01*
X144481796Y-67903917D01*
X144423214Y-67933766D01*
X144422624Y-67934195D01*
X144283072Y-68035586D01*
X144283070Y-68035588D01*
X144283069Y-68035588D01*
X144160588Y-68158069D01*
X144160588Y-68158070D01*
X144160586Y-68158072D01*
X144160350Y-68158397D01*
X144058768Y-68298211D01*
X143980128Y-68452552D01*
X143926597Y-68617302D01*
X143926185Y-68619905D01*
X143899500Y-68788389D01*
X143899500Y-69211611D01*
X143905580Y-69250000D01*
X143926579Y-69382585D01*
X143926598Y-69382701D01*
X143980127Y-69547445D01*
X144058768Y-69701788D01*
X144160586Y-69841928D01*
X144283072Y-69964414D01*
X144356546Y-70017796D01*
X144423207Y-70066229D01*
X144423211Y-70066231D01*
X144423212Y-70066232D01*
X144481795Y-70096081D01*
X144532590Y-70144053D01*
X144549500Y-70206565D01*
X144549500Y-74793433D01*
X144529815Y-74860472D01*
X144481796Y-74903917D01*
X144423214Y-74933766D01*
X144422624Y-74934195D01*
X144283072Y-75035586D01*
X144283070Y-75035588D01*
X144283069Y-75035588D01*
X144160588Y-75158069D01*
X144160588Y-75158070D01*
X144160586Y-75158072D01*
X144160350Y-75158397D01*
X144058768Y-75298211D01*
X143980128Y-75452552D01*
X143926597Y-75617302D01*
X143899500Y-75788389D01*
X143899500Y-76211610D01*
X142926310Y-76211610D01*
X142942630Y-76183343D01*
X142975000Y-76062535D01*
X142975000Y-75937465D01*
X142942630Y-75816657D01*
X142904146Y-75750000D01*
X143593914Y-75750000D01*
X143572913Y-75617414D01*
X143519408Y-75452742D01*
X143440804Y-75298475D01*
X143339032Y-75158397D01*
X143216602Y-75035967D01*
X143076524Y-74934195D01*
X142922257Y-74855591D01*
X142757589Y-74802087D01*
X142757581Y-74802085D01*
X142750000Y-74800884D01*
X142750000Y-75595854D01*
X142683343Y-75557370D01*
X142562535Y-75525000D01*
X142437465Y-75525000D01*
X142316657Y-75557370D01*
X142250000Y-75595854D01*
X142250000Y-74800884D01*
X142249999Y-74800884D01*
X142242418Y-74802085D01*
X142242410Y-74802087D01*
X142077742Y-74855591D01*
X141923475Y-74934195D01*
X141783397Y-75035967D01*
X141660967Y-75158397D01*
X141559195Y-75298475D01*
X141480591Y-75452742D01*
X141427086Y-75617414D01*
X141406086Y-75750000D01*
X142095854Y-75750000D01*
X142057370Y-75816657D01*
X142025000Y-75937465D01*
X142025000Y-76062535D01*
X142057370Y-76183343D01*
X142095854Y-76250000D01*
X141406086Y-76250000D01*
X141100500Y-76250000D01*
X141100499Y-75227128D01*
X141094091Y-75167517D01*
X141090689Y-75158397D01*
X141043797Y-75032671D01*
X141043793Y-75032664D01*
X140957547Y-74917455D01*
X140957544Y-74917452D01*
X140842335Y-74831206D01*
X140842328Y-74831202D01*
X140707482Y-74780908D01*
X140707483Y-74780908D01*
X140647883Y-74774501D01*
X140647881Y-74774500D01*
X140647873Y-74774500D01*
X140647865Y-74774500D01*
X140574500Y-74774500D01*
X140507461Y-74754815D01*
X140461706Y-74702011D01*
X140450500Y-74650500D01*
X140450500Y-70349499D01*
X140470185Y-70282460D01*
X140522989Y-70236705D01*
X140574500Y-70225499D01*
X140647871Y-70225499D01*
X140647872Y-70225499D01*
X140707483Y-70219091D01*
X140842331Y-70168796D01*
X140957546Y-70082546D01*
X141043796Y-69967331D01*
X141094091Y-69832483D01*
X141100500Y-69772873D01*
X141100500Y-69250000D01*
X141406086Y-69250000D01*
X141427086Y-69382585D01*
X141480591Y-69547257D01*
X141559195Y-69701524D01*
X141660967Y-69841602D01*
X141783397Y-69964032D01*
X141923475Y-70065804D01*
X142077744Y-70144408D01*
X142242415Y-70197914D01*
X142242414Y-70197914D01*
X142249999Y-70199115D01*
X142250000Y-70199114D01*
X142250000Y-69404145D01*
X142316657Y-69442630D01*
X142437465Y-69475000D01*
X142562535Y-69475000D01*
X142683343Y-69442630D01*
X142750000Y-69404145D01*
X142750000Y-70199115D01*
X142757584Y-70197914D01*
X142922255Y-70144408D01*
X143076524Y-70065804D01*
X143216602Y-69964032D01*
X143339032Y-69841602D01*
X143440804Y-69701524D01*
X143519408Y-69547257D01*
X143572913Y-69382585D01*
X143593914Y-69250000D01*
X142904146Y-69250000D01*
X142942630Y-69183343D01*
X142975000Y-69062535D01*
X142975000Y-68937465D01*
X142942630Y-68816657D01*
X142904146Y-68750000D01*
X143593914Y-68750000D01*
X143572913Y-68617414D01*
X143519408Y-68452742D01*
X143440804Y-68298475D01*
X143339032Y-68158397D01*
X143216602Y-68035967D01*
X143076524Y-67934195D01*
X142922257Y-67855591D01*
X142757589Y-67802087D01*
X142757581Y-67802085D01*
X142750000Y-67800884D01*
X142750000Y-68595854D01*
X142683343Y-68557370D01*
X142562535Y-68525000D01*
X142437465Y-68525000D01*
X142316657Y-68557370D01*
X142250000Y-68595854D01*
X142250000Y-67800884D01*
X142249999Y-67800884D01*
X142242418Y-67802085D01*
X142242410Y-67802087D01*
X142077742Y-67855591D01*
X141923475Y-67934195D01*
X141783397Y-68035967D01*
X141660967Y-68158397D01*
X141559195Y-68298475D01*
X141480591Y-68452742D01*
X141427086Y-68617414D01*
X141406086Y-68750000D01*
X142095854Y-68750000D01*
X142057370Y-68816657D01*
X142025000Y-68937465D01*
X142025000Y-69062535D01*
X142057370Y-69183343D01*
X142095854Y-69250000D01*
X141406086Y-69250000D01*
X141100500Y-69250000D01*
X141100499Y-68227128D01*
X141094091Y-68167517D01*
X141090689Y-68158397D01*
X141043797Y-68032671D01*
X141043793Y-68032664D01*
X140957547Y-67917455D01*
X140957544Y-67917452D01*
X140842335Y-67831206D01*
X140842328Y-67831202D01*
X140707482Y-67780908D01*
X140707483Y-67780908D01*
X140647883Y-67774501D01*
X140647881Y-67774500D01*
X140647873Y-67774500D01*
X140647865Y-67774500D01*
X140574500Y-67774500D01*
X140507461Y-67754815D01*
X140461706Y-67702011D01*
X140450500Y-67650500D01*
X140450500Y-63349499D01*
X140470185Y-63282460D01*
X140522989Y-63236705D01*
X140574500Y-63225499D01*
X140647871Y-63225499D01*
X140647872Y-63225499D01*
X140707483Y-63219091D01*
X140842331Y-63168796D01*
X140957546Y-63082546D01*
X141043796Y-62967331D01*
X141094091Y-62832483D01*
X141100500Y-62772873D01*
X141100500Y-62250000D01*
X141406086Y-62250000D01*
X141427086Y-62382585D01*
X141480591Y-62547257D01*
X141559195Y-62701524D01*
X141660967Y-62841602D01*
X141783397Y-62964032D01*
X141923475Y-63065804D01*
X142077744Y-63144408D01*
X142242415Y-63197914D01*
X142242414Y-63197914D01*
X142249999Y-63199115D01*
X142250000Y-63199114D01*
X142250000Y-62404145D01*
X142316657Y-62442630D01*
X142437465Y-62475000D01*
X142562535Y-62475000D01*
X142683343Y-62442630D01*
X142750000Y-62404145D01*
X142750000Y-63199115D01*
X142757584Y-63197914D01*
X142922255Y-63144408D01*
X143076524Y-63065804D01*
X143216602Y-62964032D01*
X143339032Y-62841602D01*
X143440804Y-62701524D01*
X143519408Y-62547257D01*
X143572913Y-62382585D01*
X143593914Y-62250000D01*
X142904146Y-62250000D01*
X142942630Y-62183343D01*
X142975000Y-62062535D01*
X142975000Y-61937465D01*
X142942630Y-61816657D01*
X142904146Y-61750000D01*
X143593914Y-61750000D01*
X143572913Y-61617414D01*
X143519408Y-61452742D01*
X143440804Y-61298475D01*
X143339032Y-61158397D01*
X143216602Y-61035967D01*
X143076524Y-60934195D01*
X142922257Y-60855591D01*
X142757589Y-60802087D01*
X142757581Y-60802085D01*
X142750000Y-60800884D01*
X142750000Y-61595854D01*
X142683343Y-61557370D01*
X142562535Y-61525000D01*
X142437465Y-61525000D01*
X142316657Y-61557370D01*
X142250000Y-61595854D01*
X142250000Y-60800884D01*
X142249999Y-60800884D01*
X142242418Y-60802085D01*
X142242410Y-60802087D01*
X142077742Y-60855591D01*
X141923475Y-60934195D01*
X141783397Y-61035967D01*
X141660967Y-61158397D01*
X141559195Y-61298475D01*
X141480591Y-61452742D01*
X141427086Y-61617414D01*
X141406086Y-61750000D01*
X142095854Y-61750000D01*
X142057370Y-61816657D01*
X142025000Y-61937465D01*
X142025000Y-62062535D01*
X142057370Y-62183343D01*
X142095854Y-62250000D01*
X141406086Y-62250000D01*
X141100500Y-62250000D01*
X141100499Y-61227128D01*
X141094091Y-61167517D01*
X141090689Y-61158397D01*
X141043797Y-61032671D01*
X141043793Y-61032664D01*
X140957547Y-60917455D01*
X140957544Y-60917452D01*
X140842335Y-60831206D01*
X140842328Y-60831202D01*
X140707482Y-60780908D01*
X140707483Y-60780908D01*
X140647883Y-60774501D01*
X140647881Y-60774500D01*
X140647873Y-60774500D01*
X140647864Y-60774500D01*
X139352129Y-60774500D01*
X139352123Y-60774501D01*
X139292516Y-60780908D01*
X139157671Y-60831202D01*
X139157664Y-60831206D01*
X139042455Y-60917452D01*
X139042452Y-60917455D01*
X138956206Y-61032664D01*
X138956202Y-61032671D01*
X138905908Y-61167517D01*
X138899501Y-61227116D01*
X138899501Y-61227123D01*
X138899500Y-61227135D01*
X138899500Y-62772870D01*
X138899501Y-62772876D01*
X138905908Y-62832483D01*
X138956202Y-62967328D01*
X138956206Y-62967335D01*
X139042452Y-63082544D01*
X139042455Y-63082547D01*
X139157664Y-63168793D01*
X139157671Y-63168797D01*
X139202618Y-63185561D01*
X139292517Y-63219091D01*
X139352127Y-63225500D01*
X139425500Y-63225499D01*
X139492538Y-63245183D01*
X139538294Y-63297986D01*
X139549500Y-63349499D01*
X139549500Y-67650500D01*
X139529815Y-67717539D01*
X139477011Y-67763294D01*
X139425502Y-67774500D01*
X139352130Y-67774500D01*
X139352123Y-67774501D01*
X139292516Y-67780908D01*
X139157671Y-67831202D01*
X139157664Y-67831206D01*
X139042455Y-67917452D01*
X139042452Y-67917455D01*
X138956206Y-68032664D01*
X138956202Y-68032671D01*
X138905908Y-68167517D01*
X138899501Y-68227116D01*
X138899501Y-68227123D01*
X138899500Y-68227135D01*
X138899500Y-69772870D01*
X138899501Y-69772876D01*
X138905908Y-69832483D01*
X138956202Y-69967328D01*
X138956206Y-69967335D01*
X139042452Y-70082544D01*
X139042455Y-70082547D01*
X139157664Y-70168793D01*
X139157671Y-70168797D01*
X139202618Y-70185561D01*
X139292517Y-70219091D01*
X139352127Y-70225500D01*
X139425500Y-70225499D01*
X139492538Y-70245183D01*
X139538294Y-70297986D01*
X139549500Y-70349499D01*
X139549500Y-74650500D01*
X139529815Y-74717539D01*
X139477011Y-74763294D01*
X139425502Y-74774500D01*
X139352130Y-74774500D01*
X139352123Y-74774501D01*
X139292516Y-74780908D01*
X139157671Y-74831202D01*
X139157664Y-74831206D01*
X139042455Y-74917452D01*
X139042452Y-74917455D01*
X138956206Y-75032664D01*
X138956202Y-75032671D01*
X138905908Y-75167517D01*
X138899501Y-75227116D01*
X138899501Y-75227123D01*
X138899500Y-75227135D01*
X138899500Y-76772870D01*
X134350500Y-76772870D01*
X134350500Y-63440693D01*
X134350500Y-63440691D01*
X134319799Y-63326114D01*
X134303690Y-63298212D01*
X134260490Y-63223386D01*
X130372602Y-59335499D01*
X130339118Y-59274177D01*
X130337344Y-59263995D01*
X130336330Y-59256290D01*
X130336329Y-59256288D01*
X130280862Y-59122378D01*
X130280861Y-59122375D01*
X130192621Y-59007379D01*
X130077625Y-58919139D01*
X130077624Y-58919138D01*
X130077622Y-58919137D01*
X129943712Y-58863671D01*
X129943710Y-58863670D01*
X129943709Y-58863670D01*
X129871854Y-58854210D01*
X129800001Y-58844750D01*
X129799999Y-58844750D01*
X129656291Y-58863670D01*
X129656287Y-58863671D01*
X129522377Y-58919137D01*
X129407379Y-59007379D01*
X129319137Y-59122377D01*
X129263671Y-59256287D01*
X129263670Y-59256291D01*
X129244750Y-59399999D01*
X129244750Y-59400000D01*
X99500500Y-59400000D01*
X99500500Y-54121288D01*
X102149500Y-54121288D01*
X102181161Y-54361785D01*
X102243947Y-54596104D01*
X102336773Y-54820205D01*
X102336776Y-54820212D01*
X102458064Y-55030289D01*
X102458066Y-55030292D01*
X102458067Y-55030293D01*
X102605733Y-55222736D01*
X102605739Y-55222743D01*
X102777256Y-55394260D01*
X102777262Y-55394265D01*
X102969711Y-55541936D01*
X103179788Y-55663224D01*
X103403900Y-55756054D01*
X103638211Y-55818838D01*
X103818586Y-55842584D01*
X103878711Y-55850500D01*
X103878712Y-55850500D01*
X104121289Y-55850500D01*
X104169388Y-55844167D01*
X104361789Y-55818838D01*
X104596100Y-55756054D01*
X104820212Y-55663224D01*
X105030289Y-55541936D01*
X105222738Y-55394265D01*
X105394265Y-55222738D01*
X105541936Y-55030289D01*
X105663224Y-54820212D01*
X105756054Y-54596100D01*
X105818838Y-54361789D01*
X105850500Y-54121288D01*
X147149500Y-54121288D01*
X147181161Y-54361785D01*
X147243947Y-54596104D01*
X147336773Y-54820205D01*
X147336776Y-54820212D01*
X147458064Y-55030289D01*
X147458066Y-55030292D01*
X147458067Y-55030293D01*
X147605733Y-55222736D01*
X147605739Y-55222743D01*
X147777256Y-55394260D01*
X147777262Y-55394265D01*
X147969711Y-55541936D01*
X148179788Y-55663224D01*
X148403900Y-55756054D01*
X148638211Y-55818838D01*
X148818586Y-55842584D01*
X148878711Y-55850500D01*
X148878712Y-55850500D01*
X149121289Y-55850500D01*
X149169388Y-55844167D01*
X149361789Y-55818838D01*
X149596100Y-55756054D01*
X149820212Y-55663224D01*
X150030289Y-55541936D01*
X150222738Y-55394265D01*
X150394265Y-55222738D01*
X150541936Y-55030289D01*
X150663224Y-54820212D01*
X150756054Y-54596100D01*
X150818838Y-54361789D01*
X150850500Y-54121288D01*
X150850500Y-53878712D01*
X150818838Y-53638211D01*
X150756054Y-53403900D01*
X150663224Y-53179788D01*
X150541936Y-52969711D01*
X150394265Y-52777262D01*
X150394260Y-52777256D01*
X150222743Y-52605739D01*
X150222736Y-52605733D01*
X150030293Y-52458067D01*
X150030292Y-52458066D01*
X150030289Y-52458064D01*
X149820212Y-52336776D01*
X149820205Y-52336773D01*
X149596104Y-52243947D01*
X149361785Y-52181161D01*
X149121289Y-52149500D01*
X149121288Y-52149500D01*
X148878712Y-52149500D01*
X148878711Y-52149500D01*
X148638214Y-52181161D01*
X148403895Y-52243947D01*
X148179794Y-52336773D01*
X148179785Y-52336777D01*
X147969706Y-52458067D01*
X147777263Y-52605733D01*
X147777256Y-52605739D01*
X147605739Y-52777256D01*
X147605733Y-52777263D01*
X147458067Y-52969706D01*
X147336777Y-53179785D01*
X147336773Y-53179794D01*
X147243947Y-53403895D01*
X147181161Y-53638214D01*
X147149500Y-53878711D01*
X147149500Y-54121288D01*
X105850500Y-54121288D01*
X105850500Y-53878712D01*
X105818838Y-53638211D01*
X105756054Y-53403900D01*
X105663224Y-53179788D01*
X105541936Y-52969711D01*
X105394265Y-52777262D01*
X105394260Y-52777256D01*
X105222743Y-52605739D01*
X105222736Y-52605733D01*
X105030293Y-52458067D01*
X105030292Y-52458066D01*
X105030289Y-52458064D01*
X104820212Y-52336776D01*
X104820205Y-52336773D01*
X104596104Y-52243947D01*
X104361785Y-52181161D01*
X104121289Y-52149500D01*
X104121288Y-52149500D01*
X103878712Y-52149500D01*
X103878711Y-52149500D01*
X103638214Y-52181161D01*
X103403895Y-52243947D01*
X103179794Y-52336773D01*
X103179785Y-52336777D01*
X102969706Y-52458067D01*
X102777263Y-52605733D01*
X102777256Y-52605739D01*
X102605739Y-52777256D01*
X102605733Y-52777263D01*
X102458067Y-52969706D01*
X102336777Y-53179785D01*
X102336773Y-53179794D01*
X102243947Y-53403895D01*
X102181161Y-53638214D01*
X102149500Y-53878711D01*
X102149500Y-54121288D01*
X99500500Y-54121288D01*
X99500500Y-49624500D01*
X99520185Y-49557461D01*
X99572989Y-49511706D01*
X99624500Y-49500500D01*
X130434108Y-49500500D01*
X153375500Y-49500500D01*
X153442539Y-49520185D01*
G37*
%TD.AperFunction*%
%TD*%
M02*
