%TF.GenerationSoftware,KiCad,Pcbnew,8.0.0-8.0.0-1~ubuntu20.04.1*%
%TF.CreationDate,2024-04-10T23:06:07+05:00*%
%TF.ProjectId,GammaAnomalain,47616d6d-6141-46e6-9f6d-616c61696e2e,rev?*%
%TF.SameCoordinates,Original*%
%TF.FileFunction,Soldermask,Top*%
%TF.FilePolarity,Negative*%
%FSLAX46Y46*%
G04 Gerber Fmt 4.6, Leading zero omitted, Abs format (unit mm)*
G04 Created by KiCad (PCBNEW 8.0.0-8.0.0-1~ubuntu20.04.1) date 2024-04-10 23:06:07*
%MOMM*%
%LPD*%
G01*
G04 APERTURE LIST*
G04 Aperture macros list*
%AMRoundRect*
0 Rectangle with rounded corners*
0 $1 Rounding radius*
0 $2 $3 $4 $5 $6 $7 $8 $9 X,Y pos of 4 corners*
0 Add a 4 corners polygon primitive as box body*
4,1,4,$2,$3,$4,$5,$6,$7,$8,$9,$2,$3,0*
0 Add four circle primitives for the rounded corners*
1,1,$1+$1,$2,$3*
1,1,$1+$1,$4,$5*
1,1,$1+$1,$6,$7*
1,1,$1+$1,$8,$9*
0 Add four rect primitives between the rounded corners*
20,1,$1+$1,$2,$3,$4,$5,0*
20,1,$1+$1,$4,$5,$6,$7,0*
20,1,$1+$1,$6,$7,$8,$9,0*
20,1,$1+$1,$8,$9,$2,$3,0*%
%AMFreePoly0*
4,1,9,3.862500,-0.866500,0.737500,-0.866500,0.737500,-0.450000,-0.737500,-0.450000,-0.737500,0.450000,0.737500,0.450000,0.737500,0.866500,3.862500,0.866500,3.862500,-0.866500,3.862500,-0.866500,$1*%
G04 Aperture macros list end*
%ADD10RoundRect,0.250000X-0.450000X0.350000X-0.450000X-0.350000X0.450000X-0.350000X0.450000X0.350000X0*%
%ADD11R,1.600000X1.600000*%
%ADD12C,1.600000*%
%ADD13RoundRect,0.250000X0.450000X-0.350000X0.450000X0.350000X-0.450000X0.350000X-0.450000X-0.350000X0*%
%ADD14RoundRect,0.250000X0.412500X0.650000X-0.412500X0.650000X-0.412500X-0.650000X0.412500X-0.650000X0*%
%ADD15C,1.500000*%
%ADD16RoundRect,0.250000X0.600000X0.725000X-0.600000X0.725000X-0.600000X-0.725000X0.600000X-0.725000X0*%
%ADD17O,1.700000X1.950000*%
%ADD18RoundRect,0.250000X-0.600000X-0.725000X0.600000X-0.725000X0.600000X0.725000X-0.600000X0.725000X0*%
%ADD19RoundRect,0.250000X-0.350000X-0.450000X0.350000X-0.450000X0.350000X0.450000X-0.350000X0.450000X0*%
%ADD20RoundRect,0.250000X2.050000X0.300000X-2.050000X0.300000X-2.050000X-0.300000X2.050000X-0.300000X0*%
%ADD21RoundRect,0.250002X4.449998X5.149998X-4.449998X5.149998X-4.449998X-5.149998X4.449998X-5.149998X0*%
%ADD22C,2.600000*%
%ADD23C,3.200000*%
%ADD24R,1.600000X2.400000*%
%ADD25O,1.600000X2.400000*%
%ADD26RoundRect,0.250000X0.475000X-0.250000X0.475000X0.250000X-0.475000X0.250000X-0.475000X-0.250000X0*%
%ADD27RoundRect,0.250000X0.337500X0.475000X-0.337500X0.475000X-0.337500X-0.475000X0.337500X-0.475000X0*%
%ADD28R,1.800000X1.800000*%
%ADD29C,1.800000*%
%ADD30RoundRect,0.225000X0.425000X0.225000X-0.425000X0.225000X-0.425000X-0.225000X0.425000X-0.225000X0*%
%ADD31FreePoly0,180.000000*%
%ADD32RoundRect,0.250000X-0.850000X-0.350000X0.850000X-0.350000X0.850000X0.350000X-0.850000X0.350000X0*%
%ADD33RoundRect,0.249997X-2.950003X-2.650003X2.950003X-2.650003X2.950003X2.650003X-2.950003X2.650003X0*%
%ADD34RoundRect,0.125000X-0.625000X-0.125000X0.625000X-0.125000X0.625000X0.125000X-0.625000X0.125000X0*%
%ADD35RoundRect,0.125000X-0.125000X-0.625000X0.125000X-0.625000X0.125000X0.625000X-0.125000X0.625000X0*%
%ADD36RoundRect,0.250000X-0.475000X0.250000X-0.475000X-0.250000X0.475000X-0.250000X0.475000X0.250000X0*%
%ADD37C,1.440000*%
%ADD38C,1.700000*%
%ADD39RoundRect,0.500000X0.500000X-0.750000X0.500000X0.750000X-0.500000X0.750000X-0.500000X-0.750000X0*%
%ADD40O,2.000000X2.500000*%
%ADD41R,1.700000X1.700000*%
%ADD42O,1.700000X1.700000*%
%ADD43RoundRect,0.250000X0.350000X0.450000X-0.350000X0.450000X-0.350000X-0.450000X0.350000X-0.450000X0*%
G04 APERTURE END LIST*
D10*
%TO.C,R4*%
X152000000Y-69500000D03*
X152000000Y-71500000D03*
%TD*%
D11*
%TO.C,C4*%
X112000000Y-99500000D03*
D12*
X108500000Y-99500000D03*
%TD*%
D13*
%TO.C,R2*%
X119500000Y-82000000D03*
X119500000Y-80000000D03*
%TD*%
D14*
%TO.C,C3*%
X111625000Y-106100000D03*
X108500000Y-106100000D03*
%TD*%
D15*
%TO.C,Y1*%
X129500000Y-93550000D03*
X129500000Y-98430000D03*
%TD*%
D16*
%TO.C,J4*%
X130000000Y-64000000D03*
D17*
X127500000Y-64000000D03*
X125000000Y-64000000D03*
%TD*%
D18*
%TO.C,J7*%
X140000000Y-76000000D03*
D17*
X142500000Y-76000000D03*
X145000000Y-76000000D03*
X147500000Y-76000000D03*
%TD*%
D18*
%TO.C,J6*%
X140000000Y-69000000D03*
D17*
X142500000Y-69000000D03*
X145000000Y-69000000D03*
X147500000Y-69000000D03*
%TD*%
D19*
%TO.C,R3*%
X131500000Y-58500000D03*
X133500000Y-58500000D03*
%TD*%
D20*
%TO.C,U3*%
X114225000Y-82625000D03*
X114225000Y-80925000D03*
X114225000Y-79225000D03*
D21*
X105075000Y-79225000D03*
D20*
X114225000Y-77525000D03*
X114225000Y-75825000D03*
%TD*%
D22*
%TO.C,L1*%
X106500000Y-92800000D03*
X106500000Y-87200000D03*
%TD*%
D23*
%TO.C,H2*%
X149000000Y-54000000D03*
%TD*%
D14*
%TO.C,C7*%
X113500000Y-115500000D03*
X110375000Y-115500000D03*
%TD*%
%TO.C,C6*%
X119562500Y-62000000D03*
X116437500Y-62000000D03*
%TD*%
D23*
%TO.C,H4*%
X149000000Y-115000000D03*
%TD*%
D24*
%TO.C,U4*%
X134700000Y-111825000D03*
D25*
X137240000Y-111825000D03*
X139780000Y-111825000D03*
X142320000Y-111825000D03*
X142320000Y-104205000D03*
X139780000Y-104205000D03*
X137240000Y-104205000D03*
X134700000Y-104205000D03*
%TD*%
D18*
%TO.C,J5*%
X140000000Y-62000000D03*
D17*
X142500000Y-62000000D03*
X145000000Y-62000000D03*
X147500000Y-62000000D03*
%TD*%
D13*
%TO.C,R1*%
X119500000Y-76000000D03*
X119500000Y-74000000D03*
%TD*%
D11*
%TO.C,C5*%
X116500000Y-70000000D03*
D12*
X116500000Y-66500000D03*
%TD*%
D26*
%TO.C,C2*%
X125000000Y-97900000D03*
X125000000Y-96000000D03*
%TD*%
D27*
%TO.C,C8*%
X130737500Y-104200000D03*
X128662500Y-104200000D03*
%TD*%
D16*
%TO.C,J1*%
X130000000Y-85000000D03*
D17*
X127500000Y-85000000D03*
X125000000Y-85000000D03*
%TD*%
D28*
%TO.C,D2*%
X127425000Y-111100000D03*
D29*
X129965000Y-111100000D03*
%TD*%
D16*
%TO.C,J3*%
X130000000Y-71000000D03*
D17*
X127500000Y-71000000D03*
X125000000Y-71000000D03*
%TD*%
D16*
%TO.C,J2*%
X130000000Y-78000000D03*
D17*
X127500000Y-78000000D03*
X125000000Y-78000000D03*
%TD*%
D28*
%TO.C,D3*%
X127425000Y-116000000D03*
D29*
X129965000Y-116000000D03*
%TD*%
D13*
%TO.C,R8*%
X134200000Y-117300000D03*
X134200000Y-115300000D03*
%TD*%
D30*
%TO.C,U2*%
X111712500Y-112200000D03*
D31*
X111625000Y-110700000D03*
D30*
X111712500Y-109200000D03*
%TD*%
D11*
%TO.C,BZ1*%
X120400000Y-101100000D03*
D12*
X120400000Y-108700000D03*
%TD*%
D13*
%TO.C,R6*%
X113000000Y-63500000D03*
X113000000Y-61500000D03*
%TD*%
D23*
%TO.C,H1*%
X104000000Y-54000000D03*
%TD*%
D32*
%TO.C,Q1*%
X101525000Y-59695000D03*
D33*
X107825000Y-61975000D03*
D32*
X101525000Y-64255000D03*
%TD*%
D34*
%TO.C,U1*%
X134650000Y-93600000D03*
X134650000Y-94400000D03*
X134650000Y-95200000D03*
X134650000Y-96000000D03*
X134650000Y-96800000D03*
X134650000Y-97600000D03*
X134650000Y-98400000D03*
X134650000Y-99200000D03*
D35*
X136025000Y-100575000D03*
X136825000Y-100575000D03*
X137625000Y-100575000D03*
X138425000Y-100575000D03*
X139225000Y-100575000D03*
X140025000Y-100575000D03*
X140825000Y-100575000D03*
X141625000Y-100575000D03*
D34*
X143000000Y-99200000D03*
X143000000Y-98400000D03*
X143000000Y-97600000D03*
X143000000Y-96800000D03*
X143000000Y-96000000D03*
X143000000Y-95200000D03*
X143000000Y-94400000D03*
X143000000Y-93600000D03*
D35*
X141625000Y-92225000D03*
X140825000Y-92225000D03*
X140025000Y-92225000D03*
X139225000Y-92225000D03*
X138425000Y-92225000D03*
X137625000Y-92225000D03*
X136825000Y-92225000D03*
X136025000Y-92225000D03*
%TD*%
D33*
%TO.C,D1*%
X107877500Y-69302500D03*
D32*
X101577500Y-67022500D03*
X101577500Y-71582500D03*
%TD*%
D18*
%TO.C,J11*%
X140000000Y-83000000D03*
D17*
X142500000Y-83000000D03*
X145000000Y-83000000D03*
X147500000Y-83000000D03*
%TD*%
D36*
%TO.C,C1*%
X125000000Y-91500000D03*
X125000000Y-93400000D03*
%TD*%
D13*
%TO.C,R5*%
X152000000Y-65500000D03*
X152000000Y-63500000D03*
%TD*%
D37*
%TO.C,RV1*%
X117700000Y-88100000D03*
X117700000Y-90640000D03*
X117700000Y-93180000D03*
%TD*%
D38*
%TO.C,J9*%
X101300000Y-107600000D03*
X103800000Y-107600000D03*
X101300000Y-102600000D03*
X103800000Y-102600000D03*
D39*
X101300000Y-97600000D03*
D40*
X103800000Y-97600000D03*
%TD*%
D23*
%TO.C,H3*%
X104000000Y-115000000D03*
%TD*%
D41*
%TO.C,J8*%
X150500000Y-90125000D03*
D42*
X150500000Y-92665000D03*
X150500000Y-95205000D03*
X150500000Y-97745000D03*
X150500000Y-100285000D03*
X150500000Y-102825000D03*
X150500000Y-105365000D03*
X150500000Y-107905000D03*
%TD*%
D43*
%TO.C,R7*%
X130700000Y-107200000D03*
X128700000Y-107200000D03*
%TD*%
M02*
