M48
; DRILL file {KiCad 8.0.0-8.0.0-1~ubuntu20.04.1} date 2024-04-10T23:06:11+0500
; FORMAT={-:-/ absolute / metric / decimal}
; #@! TF.CreationDate,2024-04-10T23:06:11+05:00
; #@! TF.GenerationSoftware,Kicad,Pcbnew,8.0.0-8.0.0-1~ubuntu20.04.1
; #@! TF.FileFunction,Plated,1,2,PTH
FMAT,2
METRIC
; #@! TA.AperFunction,Plated,PTH,ViaDrill
T1C0.400
; #@! TA.AperFunction,Plated,PTH,ComponentDrill
T2C0.800
; #@! TA.AperFunction,Plated,PTH,ComponentDrill
T3C0.900
; #@! TA.AperFunction,Plated,PTH,ComponentDrill
T4C0.950
; #@! TA.AperFunction,Plated,PTH,ComponentDrill
T5C1.000
; #@! TA.AperFunction,Plated,PTH,ComponentDrill
T6C1.300
%
G90
G05
T1
X112.5Y-68.5
X112.5Y-84.0
X113.5Y-84.0
X114.5Y-63.5
X114.5Y-84.0
X115.5Y-84.0
X129.8Y-59.4
X131.6Y-95.8
X131.6Y-96.8
X132.7Y-95.7
X133.9Y-91.9
X134.7Y-88.5
X135.5Y-86.9
X136.05Y-85.95
X136.5Y-95.5
X136.6Y-94.1
X137.8Y-94.0
X141.3Y-94.7
X141.5Y-106.5
X145.2Y-94.7
T2
X108.5Y-99.5
X112.0Y-99.5
X116.5Y-66.5
X116.5Y-70.0
X117.7Y-88.1
X117.7Y-90.64
X117.7Y-93.18
X129.5Y-93.55
X129.5Y-98.43
X134.7Y-104.205
X134.7Y-111.825
X137.24Y-104.205
X137.24Y-111.825
X139.78Y-104.205
X139.78Y-111.825
X142.32Y-104.205
X142.32Y-111.825
T3
X127.425Y-111.1
X127.425Y-116.0
X129.965Y-111.1
X129.965Y-116.0
T4
X125.0Y-64.0
X125.0Y-71.0
X125.0Y-78.0
X125.0Y-85.0
X127.5Y-64.0
X127.5Y-71.0
X127.5Y-78.0
X127.5Y-85.0
X130.0Y-64.0
X130.0Y-71.0
X130.0Y-78.0
X130.0Y-85.0
X140.0Y-62.0
X140.0Y-69.0
X140.0Y-76.0
X140.0Y-83.0
X142.5Y-62.0
X142.5Y-69.0
X142.5Y-76.0
X142.5Y-83.0
X145.0Y-62.0
X145.0Y-69.0
X145.0Y-76.0
X145.0Y-83.0
X147.5Y-62.0
X147.5Y-69.0
X147.5Y-76.0
X147.5Y-83.0
T5
X101.3Y-97.6
X103.8Y-97.6
X120.4Y-101.1
X120.4Y-108.7
X150.5Y-90.125
X150.5Y-92.665
X150.5Y-95.205
X150.5Y-97.745
X150.5Y-100.285
X150.5Y-102.825
X150.5Y-105.365
X150.5Y-107.905
T6
X106.5Y-87.2
X106.5Y-92.8
M30
